<?xml version="1.0" encoding="utf-8" standalone="no"?>
<!DOCTYPE svg PUBLIC "-//W3C//DTD SVG 1.1//EN"
  "http://www.w3.org/Graphics/SVG/1.1/DTD/svg11.dtd">
<!-- Created with matplotlib (https://matplotlib.org/) -->
<svg height="345.6pt" version="1.1" viewBox="0 0 460.8 345.6" width="460.8pt" xmlns="http://www.w3.org/2000/svg" xmlns:xlink="http://www.w3.org/1999/xlink">
 <metadata>
  <rdf:RDF xmlns:cc="http://creativecommons.org/ns#" xmlns:dc="http://purl.org/dc/elements/1.1/" xmlns:rdf="http://www.w3.org/1999/02/22-rdf-syntax-ns#">
   <cc:Work>
    <dc:type rdf:resource="http://purl.org/dc/dcmitype/StillImage"/>
    <dc:date>2021-03-05T01:51:51.579778</dc:date>
    <dc:format>image/svg+xml</dc:format>
    <dc:creator>
     <cc:Agent>
      <dc:title>Matplotlib v3.3.4, https://matplotlib.org/</dc:title>
     </cc:Agent>
    </dc:creator>
   </cc:Work>
  </rdf:RDF>
 </metadata>
 <defs>
  <style type="text/css">*{stroke-linecap:butt;stroke-linejoin:round;}</style>
 </defs>
 <g id="figure_1">
  <g id="patch_1">
   <path d="M 0 345.6 
L 460.8 345.6 
L 460.8 0 
L 0 0 
z
" style="fill:#ffffff;"/>
  </g>
  <g id="axes_1">
   <g id="patch_2">
    <path d="M 57.6 276.48 
L 414.72 276.48 
L 414.72 41.472 
L 57.6 41.472 
z
" style="fill:#ffffff;"/>
   </g>
   <g id="matplotlib.axis_1">
    <g id="xtick_1">
     <g id="line2d_1">
      <defs>
       <path d="M 0 0 
L 0 3.5 
" id="m63db413f40" style="stroke:#000000;stroke-width:0.8;"/>
      </defs>
      <g>
       <use style="stroke:#000000;stroke-width:0.8;" x="71.826671" xlink:href="#m63db413f40" y="276.48"/>
      </g>
     </g>
     <g id="text_1">
      <!-- 2002 -->
      <g transform="translate(48.746481 302.78544)rotate(-30)scale(0.1 -0.1)">
       <defs>
        <path d="M 19.1875 8.296875 
L 53.609375 8.296875 
L 53.609375 0 
L 7.328125 0 
L 7.328125 8.296875 
Q 12.9375 14.109375 22.625 23.890625 
Q 32.328125 33.6875 34.8125 36.53125 
Q 39.546875 41.84375 41.421875 45.53125 
Q 43.3125 49.21875 43.3125 52.78125 
Q 43.3125 58.59375 39.234375 62.25 
Q 35.15625 65.921875 28.609375 65.921875 
Q 23.96875 65.921875 18.8125 64.3125 
Q 13.671875 62.703125 7.8125 59.421875 
L 7.8125 69.390625 
Q 13.765625 71.78125 18.9375 73 
Q 24.125 74.21875 28.421875 74.21875 
Q 39.75 74.21875 46.484375 68.546875 
Q 53.21875 62.890625 53.21875 53.421875 
Q 53.21875 48.921875 51.53125 44.890625 
Q 49.859375 40.875 45.40625 35.40625 
Q 44.1875 33.984375 37.640625 27.21875 
Q 31.109375 20.453125 19.1875 8.296875 
z
" id="DejaVuSans-50"/>
        <path d="M 31.78125 66.40625 
Q 24.171875 66.40625 20.328125 58.90625 
Q 16.5 51.421875 16.5 36.375 
Q 16.5 21.390625 20.328125 13.890625 
Q 24.171875 6.390625 31.78125 6.390625 
Q 39.453125 6.390625 43.28125 13.890625 
Q 47.125 21.390625 47.125 36.375 
Q 47.125 51.421875 43.28125 58.90625 
Q 39.453125 66.40625 31.78125 66.40625 
z
M 31.78125 74.21875 
Q 44.046875 74.21875 50.515625 64.515625 
Q 56.984375 54.828125 56.984375 36.375 
Q 56.984375 17.96875 50.515625 8.265625 
Q 44.046875 -1.421875 31.78125 -1.421875 
Q 19.53125 -1.421875 13.0625 8.265625 
Q 6.59375 17.96875 6.59375 36.375 
Q 6.59375 54.828125 13.0625 64.515625 
Q 19.53125 74.21875 31.78125 74.21875 
z
" id="DejaVuSans-48"/>
       </defs>
       <use xlink:href="#DejaVuSans-50"/>
       <use x="63.623047" xlink:href="#DejaVuSans-48"/>
       <use x="127.246094" xlink:href="#DejaVuSans-48"/>
       <use x="190.869141" xlink:href="#DejaVuSans-50"/>
      </g>
     </g>
    </g>
    <g id="xtick_2">
     <g id="line2d_2">
      <g>
       <use style="stroke:#000000;stroke-width:0.8;" x="105.882975" xlink:href="#m63db413f40" y="276.48"/>
      </g>
     </g>
     <g id="text_2">
      <!-- 2004 -->
      <g transform="translate(82.802785 302.78544)rotate(-30)scale(0.1 -0.1)">
       <defs>
        <path d="M 37.796875 64.3125 
L 12.890625 25.390625 
L 37.796875 25.390625 
z
M 35.203125 72.90625 
L 47.609375 72.90625 
L 47.609375 25.390625 
L 58.015625 25.390625 
L 58.015625 17.1875 
L 47.609375 17.1875 
L 47.609375 0 
L 37.796875 0 
L 37.796875 17.1875 
L 4.890625 17.1875 
L 4.890625 26.703125 
z
" id="DejaVuSans-52"/>
       </defs>
       <use xlink:href="#DejaVuSans-50"/>
       <use x="63.623047" xlink:href="#DejaVuSans-48"/>
       <use x="127.246094" xlink:href="#DejaVuSans-48"/>
       <use x="190.869141" xlink:href="#DejaVuSans-52"/>
      </g>
     </g>
    </g>
    <g id="xtick_3">
     <g id="line2d_3">
      <g>
       <use style="stroke:#000000;stroke-width:0.8;" x="139.985931" xlink:href="#m63db413f40" y="276.48"/>
      </g>
     </g>
     <g id="text_3">
      <!-- 2006 -->
      <g transform="translate(116.905741 302.78544)rotate(-30)scale(0.1 -0.1)">
       <defs>
        <path d="M 33.015625 40.375 
Q 26.375 40.375 22.484375 35.828125 
Q 18.609375 31.296875 18.609375 23.390625 
Q 18.609375 15.53125 22.484375 10.953125 
Q 26.375 6.390625 33.015625 6.390625 
Q 39.65625 6.390625 43.53125 10.953125 
Q 47.40625 15.53125 47.40625 23.390625 
Q 47.40625 31.296875 43.53125 35.828125 
Q 39.65625 40.375 33.015625 40.375 
z
M 52.59375 71.296875 
L 52.59375 62.3125 
Q 48.875 64.0625 45.09375 64.984375 
Q 41.3125 65.921875 37.59375 65.921875 
Q 27.828125 65.921875 22.671875 59.328125 
Q 17.53125 52.734375 16.796875 39.40625 
Q 19.671875 43.65625 24.015625 45.921875 
Q 28.375 48.1875 33.59375 48.1875 
Q 44.578125 48.1875 50.953125 41.515625 
Q 57.328125 34.859375 57.328125 23.390625 
Q 57.328125 12.15625 50.6875 5.359375 
Q 44.046875 -1.421875 33.015625 -1.421875 
Q 20.359375 -1.421875 13.671875 8.265625 
Q 6.984375 17.96875 6.984375 36.375 
Q 6.984375 53.65625 15.1875 63.9375 
Q 23.390625 74.21875 37.203125 74.21875 
Q 40.921875 74.21875 44.703125 73.484375 
Q 48.484375 72.75 52.59375 71.296875 
z
" id="DejaVuSans-54"/>
       </defs>
       <use xlink:href="#DejaVuSans-50"/>
       <use x="63.623047" xlink:href="#DejaVuSans-48"/>
       <use x="127.246094" xlink:href="#DejaVuSans-48"/>
       <use x="190.869141" xlink:href="#DejaVuSans-54"/>
      </g>
     </g>
    </g>
    <g id="xtick_4">
     <g id="line2d_4">
      <g>
       <use style="stroke:#000000;stroke-width:0.8;" x="174.042235" xlink:href="#m63db413f40" y="276.48"/>
      </g>
     </g>
     <g id="text_4">
      <!-- 2008 -->
      <g transform="translate(150.962045 302.78544)rotate(-30)scale(0.1 -0.1)">
       <defs>
        <path d="M 31.78125 34.625 
Q 24.75 34.625 20.71875 30.859375 
Q 16.703125 27.09375 16.703125 20.515625 
Q 16.703125 13.921875 20.71875 10.15625 
Q 24.75 6.390625 31.78125 6.390625 
Q 38.8125 6.390625 42.859375 10.171875 
Q 46.921875 13.96875 46.921875 20.515625 
Q 46.921875 27.09375 42.890625 30.859375 
Q 38.875 34.625 31.78125 34.625 
z
M 21.921875 38.8125 
Q 15.578125 40.375 12.03125 44.71875 
Q 8.5 49.078125 8.5 55.328125 
Q 8.5 64.0625 14.71875 69.140625 
Q 20.953125 74.21875 31.78125 74.21875 
Q 42.671875 74.21875 48.875 69.140625 
Q 55.078125 64.0625 55.078125 55.328125 
Q 55.078125 49.078125 51.53125 44.71875 
Q 48 40.375 41.703125 38.8125 
Q 48.828125 37.15625 52.796875 32.3125 
Q 56.78125 27.484375 56.78125 20.515625 
Q 56.78125 9.90625 50.3125 4.234375 
Q 43.84375 -1.421875 31.78125 -1.421875 
Q 19.734375 -1.421875 13.25 4.234375 
Q 6.78125 9.90625 6.78125 20.515625 
Q 6.78125 27.484375 10.78125 32.3125 
Q 14.796875 37.15625 21.921875 38.8125 
z
M 18.3125 54.390625 
Q 18.3125 48.734375 21.84375 45.5625 
Q 25.390625 42.390625 31.78125 42.390625 
Q 38.140625 42.390625 41.71875 45.5625 
Q 45.3125 48.734375 45.3125 54.390625 
Q 45.3125 60.0625 41.71875 63.234375 
Q 38.140625 66.40625 31.78125 66.40625 
Q 25.390625 66.40625 21.84375 63.234375 
Q 18.3125 60.0625 18.3125 54.390625 
z
" id="DejaVuSans-56"/>
       </defs>
       <use xlink:href="#DejaVuSans-50"/>
       <use x="63.623047" xlink:href="#DejaVuSans-48"/>
       <use x="127.246094" xlink:href="#DejaVuSans-48"/>
       <use x="190.869141" xlink:href="#DejaVuSans-56"/>
      </g>
     </g>
    </g>
    <g id="xtick_5">
     <g id="line2d_5">
      <g>
       <use style="stroke:#000000;stroke-width:0.8;" x="208.145191" xlink:href="#m63db413f40" y="276.48"/>
      </g>
     </g>
     <g id="text_5">
      <!-- 2010 -->
      <g transform="translate(185.065001 302.78544)rotate(-30)scale(0.1 -0.1)">
       <defs>
        <path d="M 12.40625 8.296875 
L 28.515625 8.296875 
L 28.515625 63.921875 
L 10.984375 60.40625 
L 10.984375 69.390625 
L 28.421875 72.90625 
L 38.28125 72.90625 
L 38.28125 8.296875 
L 54.390625 8.296875 
L 54.390625 0 
L 12.40625 0 
z
" id="DejaVuSans-49"/>
       </defs>
       <use xlink:href="#DejaVuSans-50"/>
       <use x="63.623047" xlink:href="#DejaVuSans-48"/>
       <use x="127.246094" xlink:href="#DejaVuSans-49"/>
       <use x="190.869141" xlink:href="#DejaVuSans-48"/>
      </g>
     </g>
    </g>
    <g id="xtick_6">
     <g id="line2d_6">
      <g>
       <use style="stroke:#000000;stroke-width:0.8;" x="242.201495" xlink:href="#m63db413f40" y="276.48"/>
      </g>
     </g>
     <g id="text_6">
      <!-- 2012 -->
      <g transform="translate(219.121305 302.78544)rotate(-30)scale(0.1 -0.1)">
       <use xlink:href="#DejaVuSans-50"/>
       <use x="63.623047" xlink:href="#DejaVuSans-48"/>
       <use x="127.246094" xlink:href="#DejaVuSans-49"/>
       <use x="190.869141" xlink:href="#DejaVuSans-50"/>
      </g>
     </g>
    </g>
    <g id="xtick_7">
     <g id="line2d_7">
      <g>
       <use style="stroke:#000000;stroke-width:0.8;" x="276.304451" xlink:href="#m63db413f40" y="276.48"/>
      </g>
     </g>
     <g id="text_7">
      <!-- 2014 -->
      <g transform="translate(253.224261 302.78544)rotate(-30)scale(0.1 -0.1)">
       <use xlink:href="#DejaVuSans-50"/>
       <use x="63.623047" xlink:href="#DejaVuSans-48"/>
       <use x="127.246094" xlink:href="#DejaVuSans-49"/>
       <use x="190.869141" xlink:href="#DejaVuSans-52"/>
      </g>
     </g>
    </g>
    <g id="xtick_8">
     <g id="line2d_8">
      <g>
       <use style="stroke:#000000;stroke-width:0.8;" x="310.360755" xlink:href="#m63db413f40" y="276.48"/>
      </g>
     </g>
     <g id="text_8">
      <!-- 2016 -->
      <g transform="translate(287.280565 302.78544)rotate(-30)scale(0.1 -0.1)">
       <use xlink:href="#DejaVuSans-50"/>
       <use x="63.623047" xlink:href="#DejaVuSans-48"/>
       <use x="127.246094" xlink:href="#DejaVuSans-49"/>
       <use x="190.869141" xlink:href="#DejaVuSans-54"/>
      </g>
     </g>
    </g>
    <g id="xtick_9">
     <g id="line2d_9">
      <g>
       <use style="stroke:#000000;stroke-width:0.8;" x="344.463711" xlink:href="#m63db413f40" y="276.48"/>
      </g>
     </g>
     <g id="text_9">
      <!-- 2018 -->
      <g transform="translate(321.383521 302.78544)rotate(-30)scale(0.1 -0.1)">
       <use xlink:href="#DejaVuSans-50"/>
       <use x="63.623047" xlink:href="#DejaVuSans-48"/>
       <use x="127.246094" xlink:href="#DejaVuSans-49"/>
       <use x="190.869141" xlink:href="#DejaVuSans-56"/>
      </g>
     </g>
    </g>
    <g id="xtick_10">
     <g id="line2d_10">
      <g>
       <use style="stroke:#000000;stroke-width:0.8;" x="378.520015" xlink:href="#m63db413f40" y="276.48"/>
      </g>
     </g>
     <g id="text_10">
      <!-- 2020 -->
      <g transform="translate(355.439825 302.78544)rotate(-30)scale(0.1 -0.1)">
       <use xlink:href="#DejaVuSans-50"/>
       <use x="63.623047" xlink:href="#DejaVuSans-48"/>
       <use x="127.246094" xlink:href="#DejaVuSans-50"/>
       <use x="190.869141" xlink:href="#DejaVuSans-48"/>
      </g>
     </g>
    </g>
    <g id="xtick_11">
     <g id="line2d_11">
      <g>
       <use style="stroke:#000000;stroke-width:0.8;" x="412.622971" xlink:href="#m63db413f40" y="276.48"/>
      </g>
     </g>
     <g id="text_11">
      <!-- 2022 -->
      <g transform="translate(389.542781 302.78544)rotate(-30)scale(0.1 -0.1)">
       <use xlink:href="#DejaVuSans-50"/>
       <use x="63.623047" xlink:href="#DejaVuSans-48"/>
       <use x="127.246094" xlink:href="#DejaVuSans-50"/>
       <use x="190.869141" xlink:href="#DejaVuSans-50"/>
      </g>
     </g>
    </g>
    <g id="text_12">
     <!-- Date -->
     <g transform="translate(224.209219 316.18494)scale(0.1 -0.1)">
      <defs>
       <path d="M 19.671875 64.796875 
L 19.671875 8.109375 
L 31.59375 8.109375 
Q 46.6875 8.109375 53.6875 14.9375 
Q 60.6875 21.78125 60.6875 36.53125 
Q 60.6875 51.171875 53.6875 57.984375 
Q 46.6875 64.796875 31.59375 64.796875 
z
M 9.8125 72.90625 
L 30.078125 72.90625 
Q 51.265625 72.90625 61.171875 64.09375 
Q 71.09375 55.28125 71.09375 36.53125 
Q 71.09375 17.671875 61.125 8.828125 
Q 51.171875 0 30.078125 0 
L 9.8125 0 
z
" id="DejaVuSans-68"/>
       <path d="M 34.28125 27.484375 
Q 23.390625 27.484375 19.1875 25 
Q 14.984375 22.515625 14.984375 16.5 
Q 14.984375 11.71875 18.140625 8.90625 
Q 21.296875 6.109375 26.703125 6.109375 
Q 34.1875 6.109375 38.703125 11.40625 
Q 43.21875 16.703125 43.21875 25.484375 
L 43.21875 27.484375 
z
M 52.203125 31.203125 
L 52.203125 0 
L 43.21875 0 
L 43.21875 8.296875 
Q 40.140625 3.328125 35.546875 0.953125 
Q 30.953125 -1.421875 24.3125 -1.421875 
Q 15.921875 -1.421875 10.953125 3.296875 
Q 6 8.015625 6 15.921875 
Q 6 25.140625 12.171875 29.828125 
Q 18.359375 34.515625 30.609375 34.515625 
L 43.21875 34.515625 
L 43.21875 35.40625 
Q 43.21875 41.609375 39.140625 45 
Q 35.0625 48.390625 27.6875 48.390625 
Q 23 48.390625 18.546875 47.265625 
Q 14.109375 46.140625 10.015625 43.890625 
L 10.015625 52.203125 
Q 14.9375 54.109375 19.578125 55.046875 
Q 24.21875 56 28.609375 56 
Q 40.484375 56 46.34375 49.84375 
Q 52.203125 43.703125 52.203125 31.203125 
z
" id="DejaVuSans-97"/>
       <path d="M 18.3125 70.21875 
L 18.3125 54.6875 
L 36.8125 54.6875 
L 36.8125 47.703125 
L 18.3125 47.703125 
L 18.3125 18.015625 
Q 18.3125 11.328125 20.140625 9.421875 
Q 21.96875 7.515625 27.59375 7.515625 
L 36.8125 7.515625 
L 36.8125 0 
L 27.59375 0 
Q 17.1875 0 13.234375 3.875 
Q 9.28125 7.765625 9.28125 18.015625 
L 9.28125 47.703125 
L 2.6875 47.703125 
L 2.6875 54.6875 
L 9.28125 54.6875 
L 9.28125 70.21875 
z
" id="DejaVuSans-116"/>
       <path d="M 56.203125 29.59375 
L 56.203125 25.203125 
L 14.890625 25.203125 
Q 15.484375 15.921875 20.484375 11.0625 
Q 25.484375 6.203125 34.421875 6.203125 
Q 39.59375 6.203125 44.453125 7.46875 
Q 49.3125 8.734375 54.109375 11.28125 
L 54.109375 2.78125 
Q 49.265625 0.734375 44.1875 -0.34375 
Q 39.109375 -1.421875 33.890625 -1.421875 
Q 20.796875 -1.421875 13.15625 6.1875 
Q 5.515625 13.8125 5.515625 26.8125 
Q 5.515625 40.234375 12.765625 48.109375 
Q 20.015625 56 32.328125 56 
Q 43.359375 56 49.78125 48.890625 
Q 56.203125 41.796875 56.203125 29.59375 
z
M 47.21875 32.234375 
Q 47.125 39.59375 43.09375 43.984375 
Q 39.0625 48.390625 32.421875 48.390625 
Q 24.90625 48.390625 20.390625 44.140625 
Q 15.875 39.890625 15.1875 32.171875 
z
" id="DejaVuSans-101"/>
      </defs>
      <use xlink:href="#DejaVuSans-68"/>
      <use x="77.001953" xlink:href="#DejaVuSans-97"/>
      <use x="138.28125" xlink:href="#DejaVuSans-116"/>
      <use x="177.490234" xlink:href="#DejaVuSans-101"/>
     </g>
    </g>
   </g>
   <g id="matplotlib.axis_2">
    <g id="ytick_1">
     <g id="line2d_12">
      <defs>
       <path d="M 0 0 
L -3.5 0 
" id="m0c25d67269" style="stroke:#000000;stroke-width:0.8;"/>
      </defs>
      <g>
       <use style="stroke:#000000;stroke-width:0.8;" x="57.6" xlink:href="#m0c25d67269" y="267.380335"/>
      </g>
     </g>
     <g id="text_13">
      <!-- 0 -->
      <g transform="translate(44.2375 271.179553)scale(0.1 -0.1)">
       <use xlink:href="#DejaVuSans-48"/>
      </g>
     </g>
    </g>
    <g id="ytick_2">
     <g id="line2d_13">
      <g>
       <use style="stroke:#000000;stroke-width:0.8;" x="57.6" xlink:href="#m0c25d67269" y="236.413435"/>
      </g>
     </g>
     <g id="text_14">
      <!-- 50 -->
      <g transform="translate(37.875 240.212654)scale(0.1 -0.1)">
       <defs>
        <path d="M 10.796875 72.90625 
L 49.515625 72.90625 
L 49.515625 64.59375 
L 19.828125 64.59375 
L 19.828125 46.734375 
Q 21.96875 47.46875 24.109375 47.828125 
Q 26.265625 48.1875 28.421875 48.1875 
Q 40.625 48.1875 47.75 41.5 
Q 54.890625 34.8125 54.890625 23.390625 
Q 54.890625 11.625 47.5625 5.09375 
Q 40.234375 -1.421875 26.90625 -1.421875 
Q 22.3125 -1.421875 17.546875 -0.640625 
Q 12.796875 0.140625 7.71875 1.703125 
L 7.71875 11.625 
Q 12.109375 9.234375 16.796875 8.0625 
Q 21.484375 6.890625 26.703125 6.890625 
Q 35.15625 6.890625 40.078125 11.328125 
Q 45.015625 15.765625 45.015625 23.390625 
Q 45.015625 31 40.078125 35.4375 
Q 35.15625 39.890625 26.703125 39.890625 
Q 22.75 39.890625 18.8125 39.015625 
Q 14.890625 38.140625 10.796875 36.28125 
z
" id="DejaVuSans-53"/>
       </defs>
       <use xlink:href="#DejaVuSans-53"/>
       <use x="63.623047" xlink:href="#DejaVuSans-48"/>
      </g>
     </g>
    </g>
    <g id="ytick_3">
     <g id="line2d_14">
      <g>
       <use style="stroke:#000000;stroke-width:0.8;" x="57.6" xlink:href="#m0c25d67269" y="205.446535"/>
      </g>
     </g>
     <g id="text_15">
      <!-- 100 -->
      <g transform="translate(31.5125 209.245754)scale(0.1 -0.1)">
       <use xlink:href="#DejaVuSans-49"/>
       <use x="63.623047" xlink:href="#DejaVuSans-48"/>
       <use x="127.246094" xlink:href="#DejaVuSans-48"/>
      </g>
     </g>
    </g>
    <g id="ytick_4">
     <g id="line2d_15">
      <g>
       <use style="stroke:#000000;stroke-width:0.8;" x="57.6" xlink:href="#m0c25d67269" y="174.479635"/>
      </g>
     </g>
     <g id="text_16">
      <!-- 150 -->
      <g transform="translate(31.5125 178.278854)scale(0.1 -0.1)">
       <use xlink:href="#DejaVuSans-49"/>
       <use x="63.623047" xlink:href="#DejaVuSans-53"/>
       <use x="127.246094" xlink:href="#DejaVuSans-48"/>
      </g>
     </g>
    </g>
    <g id="ytick_5">
     <g id="line2d_16">
      <g>
       <use style="stroke:#000000;stroke-width:0.8;" x="57.6" xlink:href="#m0c25d67269" y="143.512736"/>
      </g>
     </g>
     <g id="text_17">
      <!-- 200 -->
      <g transform="translate(31.5125 147.311954)scale(0.1 -0.1)">
       <use xlink:href="#DejaVuSans-50"/>
       <use x="63.623047" xlink:href="#DejaVuSans-48"/>
       <use x="127.246094" xlink:href="#DejaVuSans-48"/>
      </g>
     </g>
    </g>
    <g id="ytick_6">
     <g id="line2d_17">
      <g>
       <use style="stroke:#000000;stroke-width:0.8;" x="57.6" xlink:href="#m0c25d67269" y="112.545836"/>
      </g>
     </g>
     <g id="text_18">
      <!-- 250 -->
      <g transform="translate(31.5125 116.345055)scale(0.1 -0.1)">
       <use xlink:href="#DejaVuSans-50"/>
       <use x="63.623047" xlink:href="#DejaVuSans-53"/>
       <use x="127.246094" xlink:href="#DejaVuSans-48"/>
      </g>
     </g>
    </g>
    <g id="ytick_7">
     <g id="line2d_18">
      <g>
       <use style="stroke:#000000;stroke-width:0.8;" x="57.6" xlink:href="#m0c25d67269" y="81.578936"/>
      </g>
     </g>
     <g id="text_19">
      <!-- 300 -->
      <g transform="translate(31.5125 85.378155)scale(0.1 -0.1)">
       <defs>
        <path d="M 40.578125 39.3125 
Q 47.65625 37.796875 51.625 33 
Q 55.609375 28.21875 55.609375 21.1875 
Q 55.609375 10.40625 48.1875 4.484375 
Q 40.765625 -1.421875 27.09375 -1.421875 
Q 22.515625 -1.421875 17.65625 -0.515625 
Q 12.796875 0.390625 7.625 2.203125 
L 7.625 11.71875 
Q 11.71875 9.328125 16.59375 8.109375 
Q 21.484375 6.890625 26.8125 6.890625 
Q 36.078125 6.890625 40.9375 10.546875 
Q 45.796875 14.203125 45.796875 21.1875 
Q 45.796875 27.640625 41.28125 31.265625 
Q 36.765625 34.90625 28.71875 34.90625 
L 20.21875 34.90625 
L 20.21875 43.015625 
L 29.109375 43.015625 
Q 36.375 43.015625 40.234375 45.921875 
Q 44.09375 48.828125 44.09375 54.296875 
Q 44.09375 59.90625 40.109375 62.90625 
Q 36.140625 65.921875 28.71875 65.921875 
Q 24.65625 65.921875 20.015625 65.03125 
Q 15.375 64.15625 9.8125 62.3125 
L 9.8125 71.09375 
Q 15.4375 72.65625 20.34375 73.4375 
Q 25.25 74.21875 29.59375 74.21875 
Q 40.828125 74.21875 47.359375 69.109375 
Q 53.90625 64.015625 53.90625 55.328125 
Q 53.90625 49.265625 50.4375 45.09375 
Q 46.96875 40.921875 40.578125 39.3125 
z
" id="DejaVuSans-51"/>
       </defs>
       <use xlink:href="#DejaVuSans-51"/>
       <use x="63.623047" xlink:href="#DejaVuSans-48"/>
       <use x="127.246094" xlink:href="#DejaVuSans-48"/>
      </g>
     </g>
    </g>
    <g id="ytick_8">
     <g id="line2d_19">
      <g>
       <use style="stroke:#000000;stroke-width:0.8;" x="57.6" xlink:href="#m0c25d67269" y="50.612036"/>
      </g>
     </g>
     <g id="text_20">
      <!-- 350 -->
      <g transform="translate(31.5125 54.411255)scale(0.1 -0.1)">
       <use xlink:href="#DejaVuSans-51"/>
       <use x="63.623047" xlink:href="#DejaVuSans-53"/>
       <use x="127.246094" xlink:href="#DejaVuSans-48"/>
      </g>
     </g>
    </g>
   </g>
   <g id="line2d_20">
    <path clip-path="url(#p42a9d8c19a)" d="M 73.832727 263.189481 
L 74.2526 263.345857 
L 74.485862 263.387556 
L 74.579167 263.341686 
L 74.859082 263.122762 
L 75.045692 262.966386 
L 75.185649 263.00183 
L 75.465564 263.623161 
L 75.558869 263.356281 
L 75.792131 263.08523 
L 75.838784 263.168631 
L 76.212003 263.525166 
L 76.351961 263.564781 
L 76.445266 263.435511 
L 76.538571 263.575206 
L 76.72518 263.418832 
L 76.865138 263.154035 
L 77.378315 263.408406 
L 77.518272 263.043531 
L 77.798187 262.616105 
L 78.078102 263.241606 
L 78.171407 262.953877 
L 78.311364 262.9226 
L 78.358017 263.10608 
L 78.404669 262.949706 
L 78.497974 262.488921 
L 78.684584 262.332546 
L 78.777889 262.53062 
L 78.824542 262.336716 
L 79.057804 262.532705 
L 79.151109 262.595254 
L 79.384371 262.709931 
L 79.431024 262.593171 
L 79.477676 262.686995 
L 79.617634 262.58066 
L 80.037506 263.429256 
L 80.130811 263.003915 
L 80.364073 263.523081 
L 80.457378 263.416747 
L 80.597336 263.249946 
L 80.643988 263.31458 
L 80.737293 263.537676 
L 80.970555 264.004716 
L 81.297123 264.044332 
L 81.43708 263.723242 
L 81.577037 263.564781 
L 81.62369 263.637757 
L 81.716995 263.900466 
L 81.763647 264.231982 
L 81.99691 264.067266 
L 82.043562 264.273682 
L 82.090215 264.200707 
L 82.370129 263.606481 
L 82.650044 262.908006 
L 82.743349 263.262457 
L 83.023264 262.912176 
L 83.069917 263.043531 
L 83.256526 263.21033 
L 83.303179 263.502231 
L 83.349831 263.381301 
L 83.629746 263.043531 
L 83.723051 263.293731 
L 84.002966 263.15195 
L 84.236228 263.331261 
L 84.282881 263.283306 
L 84.376186 262.94345 
L 84.936015 263.737836 
L 84.982668 263.562696 
L 85.495845 263.033105 
L 85.542497 263.383387 
L 85.58915 263.22284 
L 85.682455 263.137356 
L 86.009022 263.704477 
L 86.288937 263.529337 
L 86.335589 263.829576 
L 86.475547 263.752432 
L 86.662157 263.174886 
L 86.802114 263.160291 
L 86.848767 263.397981 
L 86.942072 263.327091 
L 86.988724 263.523081 
L 87.641859 263.372961 
L 87.875121 263.792046 
L 87.921774 263.606481 
L 87.968426 264.086032 
L 88.108383 264.044332 
L 88.201688 264.603112 
L 88.248341 265.437113 
L 88.294993 265.405838 
L 88.761518 265.351628 
L 89.414653 265.180657 
L 89.601262 265.389158 
L 89.92783 265.418348 
L 90.580964 265.729013 
L 90.860879 265.729013 
L 91.234099 265.170232 
L 91.560666 265.191082 
L 91.887234 265.103513 
L 92.073843 265.145212 
L 92.447063 264.851227 
L 92.493716 264.920032 
L 92.540368 264.853312 
L 92.820283 264.878332 
L 93.14685 264.882502 
L 93.193503 264.694853 
L 93.426765 264.761572 
L 93.52007 264.790763 
L 93.753332 264.746977 
L 93.799985 264.799103 
L 94.126552 264.794932 
L 94.173205 264.861653 
L 94.406467 264.888758 
L 94.499772 265.032623 
L 94.639729 264.884588 
L 94.686382 264.932542 
L 94.826339 264.609367 
L 94.966297 264.521797 
L 95.106254 264.671917 
L 95.152907 264.669832 
L 95.479474 264.930457 
L 96.412523 264.730297 
L 96.599133 264.630217 
L 96.692438 264.488437 
L 96.739091 264.557242 
L 96.785743 264.548903 
L 97.11231 264.763658 
L 97.578835 264.509287 
L 97.67214 264.284108 
L 97.718792 264.398783 
L 97.765445 264.450907 
L 97.952055 264.436312 
L 98.092012 264.555157 
L 98.23197 264.628133 
L 98.278622 264.519713 
L 98.371927 264.576007 
L 98.558537 264.440481 
L 98.651842 264.430057 
L 98.745147 264.559327 
L 98.931757 264.586432 
L 99.071714 264.728213 
L 99.351629 264.648983 
L 99.538239 264.669832 
L 99.724849 263.985951 
L 99.864806 263.940082 
L 99.911459 264.054756 
L 99.958111 263.960932 
L 100.238026 263.773282 
L 100.377983 263.627332 
L 100.611246 263.785792 
L 100.704551 263.875446 
L 101.031118 263.804556 
L 101.590947 263.992206 
L 101.82421 263.783706 
L 102.01082 263.748262 
L 102.244082 263.435511 
L 102.290735 263.477211 
L 102.477344 263.616907 
L 102.570649 263.721157 
L 102.663954 264.029737 
L 102.990522 263.873362 
L 103.130479 264.123561 
L 103.177132 264.071436 
L 103.270436 263.856682 
L 103.317089 263.877532 
L 103.503699 263.856682 
L 103.550351 263.779537 
L 103.597004 263.898381 
L 103.643656 264.008887 
L 103.783614 264.044332 
L 103.830266 264.221557 
L 103.876919 264.167348 
L 103.970224 264.008887 
L 104.203486 264.010971 
L 104.436748 264.046416 
L 104.623358 264.315382 
L 104.85662 264.365423 
L 104.903273 264.190282 
L 104.949925 264.223641 
L 105.183188 264.315382 
L 105.276493 264.171517 
L 105.41645 264.244492 
L 105.463103 264.100626 
L 105.509755 264.254917 
L 105.929627 264.225727 
L 106.069585 264.031822 
L 106.209542 263.508487 
L 106.256195 263.633587 
L 106.489457 263.714902 
L 106.582762 263.731582 
L 107.095939 263.825407 
L 107.235896 263.919232 
L 107.515811 263.940082 
L 107.562464 263.748262 
L 107.702421 263.877532 
L 107.749074 263.794132 
L 107.842379 263.731582 
L 107.889031 263.798302 
L 108.168946 263.61482 
L 108.355556 263.666946 
L 108.448861 263.491806 
L 108.495513 263.527251 
L 108.682123 263.510572 
L 108.82208 263.625247 
L 109.00869 263.669031 
L 109.055343 263.683626 
L 109.148648 263.865022 
L 109.1953 263.648181 
L 109.75513 263.837918 
L 110.081697 263.623161 
L 110.175002 263.552271 
L 110.641527 263.533505 
L 110.734832 263.646097 
L 110.828137 263.581461 
L 111.387966 263.629416 
L 111.481271 263.708647 
L 111.807839 263.710731 
L 112.647583 264.169431 
L 112.787541 264.123561 
L 113.114108 264.129817 
L 113.394023 264.081862 
L 114.047157 264.309127 
L 114.09381 264.231982 
L 114.886902 264.252832 
L 115.073512 264.242407 
L 115.260121 264.215301 
L 115.306774 264.144412 
L 115.353426 264.179857 
L 115.400079 264.344573 
L 115.540036 264.342487 
L 115.679994 264.171517 
L 116.053213 264.252832 
L 116.379781 264.252832 
L 116.706348 263.835832 
L 116.986263 263.862936 
L 117.172873 263.812896 
L 117.219525 263.885871 
L 117.266178 263.84834 
L 117.359483 263.781621 
L 117.965965 263.673201 
L 118.012617 263.470957 
L 118.292532 263.658606 
L 118.339185 263.575206 
L 118.572447 263.591887 
L 118.852362 263.162376 
L 118.899014 263.233267 
L 118.992319 263.477211 
L 119.225582 263.450106 
L 119.272234 263.533505 
L 119.318886 263.400066 
L 119.832064 263.325005 
L 119.878716 263.208246 
L 119.925369 263.231181 
L 119.972021 263.295817 
L 120.251936 263.147781 
L 120.438546 262.616105 
L 120.578503 262.920516 
L 120.625156 262.48058 
L 120.765113 262.553556 
L 120.951723 263.09774 
L 121.09168 263.254117 
L 121.27829 262.855882 
L 121.744815 262.99349 
L 122.257992 262.970556 
L 122.444602 262.96013 
L 122.491254 262.807925 
L 122.537907 262.905921 
L 122.724517 262.93511 
L 122.864474 262.697421 
L 123.051084 262.891327 
L 123.191042 262.970556 
L 123.237694 263.304157 
L 124.124091 263.393811 
L 124.170743 263.368791 
L 124.217396 263.460532 
L 124.404006 263.362536 
L 124.450658 263.201992 
L 124.497311 263.291645 
L 124.730573 263.31458 
L 124.823878 263.435511 
L 124.870531 263.387556 
L 125.197098 263.308326 
L 125.477013 263.502231 
L 125.523665 263.370876 
L 125.663623 263.333345 
L 125.80358 263.137356 
L 125.99019 263.041446 
L 126.316757 263.28122 
L 126.36341 262.962215 
L 126.456715 262.995576 
L 126.643324 263.083146 
L 126.689977 263.31458 
L 126.783282 262.678657 
L 126.969892 262.49726 
L 127.156502 262.841286 
L 127.716331 262.893411 
L 127.762984 263.020596 
L 127.809636 262.874646 
L 127.996246 262.355479 
L 128.042899 262.49726 
L 128.089551 262.39301 
L 128.136203 262.449305 
L 128.649381 262.063579 
L 128.696033 262.136556 
L 128.789338 261.994776 
L 129.255863 262.028134 
L 129.629083 261.177454 
L 129.675735 261.419313 
L 129.722387 261.235834 
L 129.76904 261.152435 
L 129.95565 261.30047 
L 130.235565 260.597825 
L 130.32887 260.875129 
L 130.375522 260.647862 
L 130.422175 260.547784 
L 130.608784 260.629098 
L 130.655437 260.391407 
L 130.748742 260.485233 
L 130.935352 260.697903 
L 130.982004 260.604078 
L 131.075309 260.687479 
L 131.215267 260.7959 
L 131.355224 260.560294 
L 131.635139 260.368473 
L 131.915054 259.936877 
L 132.194968 260.086999 
L 132.334926 260.078659 
L 132.521536 260.253798 
L 132.568188 260.280903 
L 132.661493 260.009854 
L 132.708146 260.218353 
L 132.848103 260.268392 
L 132.894756 260.145379 
L 132.941408 260.226694 
L 133.034713 260.666629 
L 133.17467 260.664546 
L 133.267975 260.512339 
L 133.594543 261.240003 
L 133.687848 260.504001 
L 133.874457 260.107849 
L 133.967762 260.197503 
L 134.201025 260.43311 
L 134.574244 259.826373 
L 134.667549 259.845138 
L 134.900812 259.728377 
L 134.947464 259.907689 
L 134.994117 259.870158 
L 135.134074 259.878498 
L 135.227379 260.474809 
L 135.320684 260.33303 
L 135.553946 260.531104 
L 135.647251 260.818834 
L 135.787209 260.923084 
L 135.880514 260.706245 
L 135.973819 260.979379 
L 136.113776 260.866788 
L 136.160428 260.937679 
L 136.300386 260.927254 
L 136.440343 260.802153 
L 136.626953 260.272564 
L 136.766911 260.143294 
L 136.813563 259.943133 
L 136.906868 260.491489 
L 136.95352 260.191249 
L 137.420045 259.624128 
L 137.466698 259.793014 
L 137.51335 259.674168 
L 137.560003 259.711698 
L 137.606655 259.893093 
L 137.746612 259.851392 
L 137.839917 259.989003 
L 137.88657 259.932707 
L 138.07318 259.499028 
L 138.166485 259.986917 
L 138.25979 259.761738 
L 138.539705 260.372643 
L 138.586357 260.041128 
L 139.052882 260.260055 
L 139.239492 260.80424 
L 139.566059 260.993974 
L 139.752669 260.943934 
L 139.892626 260.74586 
L 140.079236 260.643694 
L 140.172541 259.601194 
L 140.219193 259.348907 
L 140.405803 259.311378 
L 140.452456 259.2113 
L 140.499108 259.344737 
L 140.545761 259.386439 
L 141.10559 259.392692 
L 141.66542 258.393975 
L 141.85203 258.940246 
L 142.03864 258.929822 
L 142.085292 258.908971 
L 142.131945 258.685875 
L 142.178597 258.800552 
L 142.365207 258.933994 
L 142.41186 258.823487 
L 142.458512 259.048668 
L 142.505165 259.029903 
L 142.691774 259.034071 
L 142.831732 258.831827 
L 142.971689 258.875612 
L 143.111647 259.405203 
L 143.158299 259.290528 
L 143.298257 259.22381 
L 143.344909 258.948587 
L 143.438214 259.019477 
L 143.484866 258.810976 
L 143.624824 258.748428 
L 143.718129 257.906088 
L 143.764781 257.960295 
L 143.811434 257.620439 
L 143.951391 257.605848 
L 143.998044 257.716352 
L 144.044696 257.580825 
L 144.138001 257.551634 
L 144.277958 257.693416 
L 144.417916 257.165909 
L 144.604526 257.234715 
L 144.744483 257.610018 
L 144.977745 257.626694 
L 145.07105 257.472406 
L 145.117703 257.582912 
L 145.304313 257.622528 
L 145.397618 257.507851 
L 145.44427 257.539125 
L 145.770838 257.326455 
L 146.0041 257.70384 
L 146.097405 258.216751 
L 146.237362 258.323087 
L 146.37732 257.918596 
L 146.423972 258.00408 
L 146.657234 258.612901 
L 146.750539 258.293899 
L 146.937149 258.585797 
L 147.030454 258.220921 
L 147.077107 258.325173 
L 147.217064 258.838081 
L 147.310369 258.779704 
L 147.590284 259.142491 
L 147.683589 258.779704 
L 147.870199 259.474008 
L 147.916851 259.732546 
L 147.963504 259.369757 
L 148.010156 259.705444 
L 148.056809 259.526133 
L 148.243418 259.711698 
L 148.290071 259.636639 
L 148.383376 258.623326 
L 148.709943 259.440649 
L 148.943206 259.684592 
L 148.989858 259.177938 
L 149.03651 259.261337 
L 149.176468 259.526133 
L 149.269773 258.848509 
L 149.316425 259.275933 
L 149.363078 259.484429 
L 149.642993 258.863102 
L 149.689645 258.577456 
L 149.829602 258.704642 
L 149.876255 258.942333 
L 149.96956 258.120842 
L 150.016212 258.143775 
L 150.202822 258.133353 
L 150.249475 258.25011 
L 150.296127 258.089568 
L 150.34278 257.6955 
L 150.52939 257.724692 
L 150.576042 257.580825 
L 150.669347 258.116671 
L 150.809304 258.400231 
L 150.855957 258.287641 
L 150.902609 258.281387 
L 150.995914 258.652516 
L 151.509091 258.168797 
L 151.602396 258.270962 
L 151.882311 257.382751 
L 151.928964 257.543295 
L 151.975616 257.445301 
L 152.255531 257.195102 
L 152.302183 257.553721 
L 152.488793 257.320201 
L 152.628751 257.730946 
L 152.768708 257.766393 
L 152.908666 257.324371 
L 152.955318 257.453641 
L 153.141928 257.37441 
L 153.281885 256.596704 
L 153.421843 256.588366 
L 153.515148 256.750994 
L 153.5618 256.690529 
L 153.608453 256.694699 
L 153.74841 256.519559 
L 153.841715 257.022047 
L 153.93502 256.613386 
L 154.168282 256.936561 
L 154.214935 256.892777 
L 154.261587 256.221405 
L 154.49485 256.273531 
L 154.541502 256.54041 
L 154.588155 256.47786 
L 154.728112 256.47786 
L 154.774764 256.308974 
L 154.821417 256.38612 
L 155.054679 256.713464 
L 155.241289 255.568801 
L 155.427899 256.037924 
L 155.474551 255.871125 
L 155.521204 255.693901 
L 155.567856 255.791895 
L 156.034381 255.447872 
L 156.127686 255.645944 
L 156.174339 255.497908 
L 156.220991 255.579226 
L 156.454253 255.879466 
L 156.500906 255.810657 
L 156.547558 255.860699 
L 156.734168 255.908655 
L 156.827473 255.748109 
L 156.874126 255.889889 
L 157.107388 255.933675 
L 157.200693 255.810657 
L 157.34065 256.017075 
L 157.480608 255.283154 
L 157.52726 255.362385 
L 157.760523 255.379062 
L 158.040437 255.929503 
L 158.08709 255.754364 
L 158.180395 256.4862 
L 158.506962 256.142176 
L 158.693572 256.384035 
L 158.740224 256.181791 
L 158.833529 256.219316 
L 158.973487 256.321483 
L 159.066792 256.138008 
L 159.113444 256.177618 
L 159.346707 256.140091 
L 159.393359 255.846103 
L 159.440011 256.056691 
L 159.813231 256.68636 
L 159.953189 256.719722 
L 160.279756 255.948267 
L 160.373061 256.273531 
L 160.419713 256.087965 
L 160.466366 256.236 
L 160.699628 255.858616 
L 160.746281 255.987887 
L 160.792933 255.983713 
L 160.932891 255.716836 
L 161.026196 253.786121 
L 161.072848 253.861183 
L 161.399415 253.485885 
L 161.586025 253.577621 
L 161.67933 253.060544 
L 161.725983 253.23985 
L 161.772635 253.289893 
L 161.959245 253.223172 
L 162.05255 253.606814 
L 162.23916 252.806171 
L 162.42577 253.364952 
L 162.565727 253.548434 
L 162.659032 253.285725 
L 162.705684 253.373292 
L 162.752337 253.515074 
L 162.985599 253.410824 
L 163.078904 253.769444 
L 163.218862 253.627666 
L 163.358819 252.535122 
L 163.405472 252.53929 
L 163.592081 251.66776 
L 163.685386 252.697753 
L 163.732039 252.45589 
L 163.918649 252.359982 
L 164.198564 251.425898 
L 164.245216 251.475944 
L 164.338521 252.193182 
L 164.385173 251.838728 
L 164.525131 251.988851 
L 164.571783 252.218201 
L 164.618436 251.942983 
L 164.665088 251.842901 
L 164.711741 251.029754 
L 164.851698 250.625262 
L 164.898351 250.679471 
L 164.945003 250.862951 
L 164.991656 250.679471 
L 165.178265 250.708659 
L 165.224918 250.904646 
L 165.27157 250.541857 
L 165.318223 250.733684 
L 165.364875 251.075623 
L 165.8314 249.345068 
L 165.924705 249.970571 
L 165.971357 249.691177 
L 166.01801 249.866318 
L 166.157967 249.837126 
L 166.20462 250.02895 
L 166.297925 250.003927 
L 166.344577 249.895511 
L 166.484535 250.245795 
L 166.57784 249.862152 
L 166.671144 250.533521 
L 166.811102 250.400084 
L 166.904407 250.658619 
L 166.951059 250.070648 
L 166.997712 250.887968 
L 167.137669 250.450118 
L 167.230974 249.015639 
L 167.324279 250.750357 
L 167.464237 250.412592 
L 167.604194 251.125658 
L 167.930761 247.593671 
L 167.977414 246.768004 
L 168.117371 247.068244 
L 168.164024 248.02318 
L 168.303981 246.471933 
L 168.490591 246.059109 
L 168.630548 247.276746 
L 168.770506 247.026546 
L 168.957116 245.754692 
L 169.097073 245.946516 
L 169.516945 242.869057 
L 169.61025 243.882366 
L 169.750208 243.96577 
L 169.79686 243.36112 
L 169.843513 243.773945 
L 169.890165 244.599605 
L 169.936817 243.728075 
L 170.076775 243.757267 
L 170.17008 242.789823 
L 170.216732 243.590466 
L 170.263385 243.444513 
L 170.496647 242.981649 
L 170.5433 243.031686 
L 170.589952 243.719732 
L 170.729909 243.71139 
L 170.776562 242.339469 
L 170.823214 243.140103 
L 170.869867 243.773945 
L 170.916519 243.427837 
L 171.056477 243.081723 
L 171.103129 243.402818 
L 171.149782 242.685577 
L 171.196434 243.256869 
L 171.243087 243.807307 
L 171.383044 243.619658 
L 171.429697 242.906582 
L 171.476349 243.853174 
L 171.523001 244.111714 
L 171.569654 245.371056 
L 171.709611 245.696318 
L 171.849569 244.057502 
L 172.129484 246.813878 
L 172.222789 246.467766 
L 172.362746 245.913151 
L 172.549356 243.423668 
L 172.689313 243.36112 
L 172.735966 243.523744 
L 172.875923 242.03505 
L 173.015881 242.360315 
L 173.155838 243.381963 
L 173.20249 243.106745 
L 173.342448 243.131767 
L 173.482405 241.484615 
L 173.529058 241.755667 
L 173.669015 240.984209 
L 173.995582 241.48044 
L 174.50876 245.646271 
L 174.648717 244.983246 
L 174.788674 246.647077 
L 174.835327 246.813878 
L 175.021937 246.334327 
L 175.115242 245.521175 
L 175.161894 246.697117 
L 175.301852 246.30097 
L 175.395157 246.913953 
L 175.488462 245.479477 
L 175.628419 245.696318 
L 175.768376 246.876427 
L 175.815029 246.430237 
L 175.954986 246.430237 
L 176.094944 248.298398 
L 176.141596 247.518605 
L 176.328206 247.839702 
L 176.374858 248.306735 
L 176.421511 248.202491 
L 176.468163 248.085727 
L 176.608121 248.1733 
L 176.701426 247.610345 
L 176.794731 249.716203 
L 176.934688 249.557738 
L 177.027993 248.519405 
L 177.074646 249.299201 
L 177.121298 249.582757 
L 177.261255 249.31171 
L 177.401213 247.710429 
L 177.447865 246.926472 
L 177.587823 247.781316 
L 177.681128 247.789661 
L 177.72778 246.455254 
L 177.91439 244.866487 
L 177.961042 244.924867 
L 178.054347 244.862315 
L 178.101 245.742185 
L 178.240957 245.817244 
L 178.380915 243.861511 
L 178.427567 243.853174 
L 178.567525 244.003292 
L 178.66083 244.991589 
L 178.754134 244.637135 
L 178.894092 244.491186 
L 179.034049 243.594636 
L 179.080702 243.761437 
L 179.267312 244.507866 
L 179.313964 244.357749 
L 179.407269 243.953256 
L 179.593879 244.599605 
L 179.640531 244.428636 
L 179.687184 243.865684 
L 179.733836 244.866487 
L 179.873794 245.383563 
L 179.920446 244.904017 
L 180.013751 246.088302 
L 180.060404 246.01741 
L 180.340318 244.257661 
L 180.526928 245.612914 
L 180.666886 247.009869 
L 180.713538 246.793026 
L 180.900148 246.738819 
L 180.946801 246.409387 
L 180.993453 246.868085 
L 181.040106 246.697117 
L 181.180063 246.880592 
L 181.366673 248.61532 
L 181.50663 248.26921 
L 181.599935 249.653651 
L 181.646588 249.482681 
L 181.833198 247.38934 
L 181.926503 247.927268 
L 181.973155 247.38934 
L 182.019807 248.440183 
L 182.159765 248.306735 
L 182.206417 248.448517 
L 182.25307 248.189974 
L 182.346375 249.520211 
L 182.62629 251.209065 
L 182.812899 250.967202 
L 182.859552 250.404247 
L 182.906204 250.958862 
L 182.952857 251.150683 
L 182.999509 251.000563 
L 183.186119 250.19575 
L 183.326077 248.51107 
L 183.466034 249.428474 
L 183.512687 249.265839 
L 183.559339 248.936403 
L 183.652644 250.05814 
L 183.792601 250.45846 
L 183.839254 250.07482 
L 183.885906 250.27498 
L 184.119169 250.938009 
L 184.165821 249.491021 
L 184.212474 249.54106 
L 184.259126 250.108185 
L 184.305779 248.940583 
L 184.445736 248.29423 
L 184.492388 248.552773 
L 184.632346 249.361752 
L 184.772303 248.957261 
L 184.818956 249.015639 
L 184.912261 249.249166 
L 184.958913 248.965603 
L 185.192175 249.407616 
L 185.238828 248.994788 
L 185.28548 249.086528 
L 185.47209 248.456858 
L 185.612048 249.186606 
L 185.752005 248.915561 
L 186.171877 251.701124 
L 186.265182 251.65942 
L 186.498445 252.952124 
L 186.59175 252.301602 
L 186.778359 253.114755 
L 186.825012 252.351642 
L 186.871664 252.447548 
L 187.058274 253.15645 
L 187.198232 255.249796 
L 187.244884 255.245626 
L 187.384842 253.40248 
L 187.478147 255.816917 
L 187.524799 254.532555 
L 187.711409 253.540094 
L 187.898019 256.650915 
L 188.037976 256.867757 
L 188.177934 255.108016 
L 188.224586 255.958695 
L 188.364543 256.133833 
L 188.411196 255.808578 
L 188.504501 257.451557 
L 188.551153 256.913626 
L 188.691111 257.172167 
L 188.784416 258.189649 
L 188.831068 257.026213 
L 188.877721 257.672564 
L 189.064331 258.118757 
L 189.157636 260.08283 
L 189.204288 259.882668 
L 189.43755 258.206326 
L 189.530855 258.268879 
L 189.764118 259.519877 
L 189.99738 256.955326 
L 190.137337 257.856046 
L 190.18399 257.318117 
L 190.323947 257.739285 
L 190.3706 256.667595 
L 190.417252 256.675934 
L 190.463905 257.209699 
L 190.510557 257.122126 
L 190.697167 258.131266 
L 190.74382 257.660056 
L 190.837124 257.730946 
L 191.070387 258.348107 
L 191.303649 257.443216 
L 191.396954 257.951957 
L 191.490259 256.484116 
L 191.630216 256.759336 
L 191.723521 257.610018 
L 191.770174 257.443216 
L 191.816826 257.088764 
L 192.003436 257.768476 
L 192.143394 256.617556 
L 192.283351 256.304808 
L 192.330004 256.384035 
L 192.376656 255.645944 
L 192.423308 256.404882 
L 192.469961 257.047064 
L 192.703223 256.542494 
L 192.796528 255.700154 
L 193.123096 256.434075 
L 193.356358 257.009535 
L 193.449663 256.254766 
L 193.58962 256.446586 
L 193.682925 255.575054 
L 193.729578 256.121325 
L 193.77623 256.154688 
L 193.96284 256.546666 
L 194.009492 255.996225 
L 194.102797 258.047865 
L 194.242755 257.831028 
L 194.382712 256.788528 
L 194.429365 256.680104 
L 194.569322 257.201355 
L 194.615975 256.976176 
L 194.662627 257.026213 
L 194.942542 256.100475 
L 195.035847 256.450754 
L 195.082499 255.775214 
L 195.222457 256.092135 
L 195.362414 254.828623 
L 195.409067 254.962063 
L 195.549024 255.445784 
L 195.642329 254.728543 
L 195.688981 253.861183 
L 195.875591 253.91539 
L 196.202159 255.537524 
L 196.388769 254.324052 
L 196.715336 255.145543 
L 196.901946 255.249796 
L 197.041903 256.484116 
L 197.181861 256.263106 
L 197.275165 256.680104 
L 197.321818 256.550835 
L 197.36847 256.342334 
L 197.508428 256.421567 
L 197.55508 256.613386 
L 197.601733 256.342334 
L 197.648385 258.047865 
L 197.695038 257.976978 
L 197.881648 257.639206 
L 197.9283 258.202157 
L 197.974953 257.568316 
L 198.021605 256.976176 
L 198.161562 256.621724 
L 198.254867 257.301436 
L 198.30152 257.184677 
L 198.348172 257.418197 
L 198.48813 257.234715 
L 198.534782 256.955326 
L 198.581435 256.976176 
L 198.954654 257.872728 
L 199.001307 257.810173 
L 199.234569 258.277217 
L 199.281222 258.118757 
L 199.327874 258.135437 
L 199.514484 258.202157 
L 199.561137 258.014508 
L 199.607789 258.594135 
L 199.794399 258.606646 
L 199.841051 258.848509 
L 199.934356 258.752597 
L 199.981009 258.856846 
L 200.494186 257.822688 
L 200.634143 257.309775 
L 200.820753 257.872728 
L 200.914058 258.423167 
L 200.960711 258.252197 
L 201.100668 257.847706 
L 201.240625 257.155487 
L 201.287278 256.888606 
L 201.427235 257.305607 
L 201.613845 256.354844 
L 202.127022 258.027015 
L 202.220327 257.780985 
L 202.406937 257.455727 
L 202.45359 257.655884 
L 202.500242 257.597506 
L 202.593547 257.347304 
L 202.873462 256.946988 
L 202.920114 257.080425 
L 203.246682 256.208898 
L 203.433292 256.438244 
L 203.479944 256.263106 
L 203.526597 256.442416 
L 203.573249 256.521644 
L 203.713206 256.450754 
L 203.759859 256.208898 
L 203.806511 256.342334 
L 203.899816 256.671766 
L 204.039774 256.525814 
L 204.179731 255.967033 
L 204.226384 256.138008 
L 204.366341 256.179703 
L 204.459646 255.637604 
L 204.552951 255.816917 
L 204.692908 255.637604 
L 204.832866 256.855246 
L 205.019476 257.338968 
L 205.066128 257.122126 
L 205.159433 257.142974 
L 205.206086 257.251395 
L 205.392695 257.380665 
L 205.439348 257.480746 
L 205.67261 256.746823 
L 205.85922 257.501598 
L 205.999178 257.205527 
L 206.04583 257.384837 
L 206.092482 257.334797 
L 206.325745 256.680104 
L 206.372397 256.838566 
L 206.41905 256.705126 
L 206.512355 256.821888 
L 206.698965 257.439047 
L 206.838922 258.485717 
L 206.978879 258.235515 
L 207.072184 258.698387 
L 207.118837 258.548269 
L 207.305447 258.089568 
L 207.398752 258.022848 
L 207.445404 257.935277 
L 207.492057 258.006166 
L 207.632014 257.947787 
L 207.771971 258.202157 
L 208.051886 258.135437 
L 208.098539 258.231347 
L 208.331801 257.572486 
L 208.378454 257.359817 
L 208.471758 258.919397 
L 208.611716 258.906887 
L 208.705021 258.710897 
L 208.798326 258.831827 
L 208.984936 258.702557 
L 209.124893 259.027817 
L 209.591418 259.069515 
L 209.684723 258.827658 
L 209.731375 258.998628 
L 209.778028 258.977777 
L 209.917985 259.169599 
L 209.964638 259.532388 
L 210.01129 259.386439 
L 210.057942 259.307209 
L 210.104595 259.386439 
L 210.291205 259.461498 
L 210.38451 259.282188 
L 210.431162 259.328057 
L 210.664425 259.515708 
L 210.75773 260.207928 
L 211.317559 259.757568 
L 211.364212 259.311378 
L 211.410864 259.369757 
L 211.597474 259.286355 
L 211.924041 258.122924 
L 211.970694 258.327258 
L 212.017346 258.298067 
L 212.063999 258.206326 
L 212.297261 258.243856 
L 212.343914 258.039527 
L 212.670481 257.739285 
L 213.230311 256.788528 
L 213.276963 256.896943 
L 213.323615 256.942816 
L 213.370268 256.863586 
L 213.510225 256.763505 
L 213.556878 257.147144 
L 213.60353 257.07209 
L 213.650183 256.959494 
L 213.696835 257.243056 
L 213.836793 256.896943 
L 213.883445 257.063745 
L 213.930098 257.159657 
L 214.023403 257.964468 
L 214.16336 257.664227 
L 214.210012 257.814347 
L 214.256665 257.730946 
L 214.34997 258.268879 
L 214.489927 258.193816 
L 214.629885 258.781787 
L 214.676537 258.498227 
L 214.816495 258.506565 
L 214.956452 257.797666 
L 215.003104 257.876895 
L 215.189714 258.264705 
L 215.236367 258.152119 
L 215.283019 257.922766 
L 215.469629 258.564949 
L 215.562934 258.627495 
L 215.796196 258.256369 
L 215.982806 259.369757 
L 216.262721 259.720038 
L 216.309374 259.661659 
L 216.449331 259.561579 
L 216.495983 259.740886 
L 216.542636 259.544899 
L 216.589288 259.428139 
L 216.635941 259.761738 
L 216.822551 259.707529 
L 216.962508 259.444818 
L 217.242423 259.240487 
L 217.289075 259.478178 
L 217.56899 259.044497 
L 217.7556 258.669197 
L 217.895558 259.148747 
L 218.175472 258.514908 
L 218.222125 258.569118 
L 218.268777 258.635836 
L 218.408735 258.640008 
L 218.595345 259.219639 
L 218.781955 259.031986 
L 218.828607 258.723406 
L 218.921912 259.536559 
L 219.201827 259.732546 
L 219.248479 259.736719 
L 219.435089 259.903517 
L 219.575047 259.453159 
L 220.041571 259.603278 
L 220.134876 259.628298 
L 220.181529 259.290528 
L 220.228181 259.303037 
L 220.741358 259.090367 
L 220.834663 259.161257 
L 220.881316 259.040325 
L 221.021273 259.0862 
L 221.114578 258.952758 
L 221.161231 259.073687 
L 221.207883 259.006967 
L 221.34784 258.886038 
L 221.53445 259.740886 
L 221.72106 259.69919 
L 221.861018 259.403116 
L 222.140932 259.286355 
L 222.187585 259.186277 
L 222.327542 259.328057 
L 222.65411 258.819315 
L 222.747415 258.981949 
L 222.794067 258.581626 
L 222.84072 258.694218 
L 223.027329 258.685875 
L 223.073982 258.623326 
L 223.167287 258.990288 
L 223.493854 258.831827 
L 223.680464 259.073687 
L 223.960379 258.519078 
L 224.146989 258.106248 
L 224.613513 258.514908 
L 224.753471 258.114585 
L 225.033386 257.993655 
L 225.080038 257.810173 
L 225.126691 257.839366 
L 225.266648 257.826858 
L 225.359953 258.252197 
L 225.406605 258.777617 
L 225.453258 258.719237 
L 225.593215 258.748428 
L 225.639868 258.961096 
L 225.68652 258.760935 
L 226.013088 258.848509 
L 226.05974 258.619157 
L 226.106393 258.665026 
L 226.386307 258.594135 
L 226.43296 258.631668 
L 226.572917 258.594135 
L 226.712875 259.248826 
L 226.759527 259.019477 
L 226.946137 259.031986 
L 226.992789 259.165429 
L 227.039442 258.886038 
L 227.086094 258.923565 
L 227.226052 259.094537 
L 227.272704 259.023649 
L 227.319357 258.927736 
L 227.366009 258.994457 
L 227.599272 259.173768 
L 227.739229 259.102877 
L 227.925839 259.157089 
L 227.972491 259.165429 
L 228.019144 258.986118 
L 228.065796 259.019477 
L 228.345711 259.215469 
L 228.858888 258.544096 
L 228.905541 258.614988 
L 228.952193 258.577456 
L 229.045498 258.323087 
L 229.232108 258.072885 
L 229.372065 257.822688 
L 229.512023 257.968638 
L 229.65198 257.359817 
L 229.698633 257.451557 
L 229.885243 257.455727 
L 230.0252 256.371526 
L 230.165157 256.479946 
L 230.305115 256.313145 
L 230.631682 256.454928 
L 230.678335 256.671766 
L 230.958249 256.592533 
L 231.004902 256.763505 
L 231.144859 256.755163 
L 231.331469 256.238088 
L 231.518079 256.392376 
L 231.658037 255.754364 
L 231.797994 255.846103 
L 231.937951 255.808578 
L 231.984604 255.616754 
L 232.171214 255.712664 
L 232.311171 256.233915 
L 232.451129 256.300635 
L 232.497781 256.463266 
L 232.544434 256.425735 
L 232.591086 256.329823 
L 232.637738 256.429906 
L 232.964306 256.354844 
L 233.104263 256.204725 
L 233.150916 255.908655 
L 233.197568 256.313145 
L 233.43083 256.625897 
L 233.61744 256.150513 
L 233.850703 255.992055 
L 233.944008 256.183875 
L 234.083965 256.559175 
L 234.270575 257.543295 
L 234.410532 257.614186 
L 234.457185 257.493258 
L 234.503837 257.672564 
L 234.92371 257.547466 
L 235.156972 257.851876 
L 235.203624 258.256369 
L 235.250277 258.152119 
L 235.390234 258.806808 
L 235.530192 258.439847 
L 235.576844 258.74009 
L 235.716802 258.644179 
L 235.763454 258.460697 
L 235.810106 258.848509 
L 235.856759 258.444018 
L 236.043369 258.368957 
L 236.136674 257.643375 
L 236.183326 257.997827 
L 236.463241 257.401515 
L 236.556546 258.143775 
L 236.883113 257.735116 
L 237.069723 257.718435 
L 237.209681 257.001195 
L 237.442943 257.605848 
L 237.536248 257.993655 
L 237.816163 257.376494 
L 237.862815 257.747629 
L 238.002773 257.801833 
L 238.189382 257.234715 
L 238.375992 256.988686 
L 238.422645 256.684275 
L 238.469297 256.863586 
L 238.51595 256.888606 
L 238.655907 257.272245 
L 238.795865 256.930304 
L 238.842517 256.938645 
L 239.029127 256.705126 
L 239.075779 256.938645 
L 239.169084 256.454928 
L 239.355694 256.938645 
L 239.402347 256.913626 
L 239.448999 256.609217 
L 239.495652 256.667595 
L 239.635609 256.767676 
L 239.682262 256.688445 
L 239.775566 257.122126 
L 239.822219 256.884435 
L 239.962176 257.105447 
L 240.102134 258.235515 
L 240.148786 258.014508 
L 240.288744 257.906088 
L 240.475354 258.410657 
L 240.941878 257.505766 
L 240.988531 257.647548 
L 241.035183 257.501598 
L 241.081836 257.551634 
L 241.268446 257.076257 
L 241.455055 257.647548 
L 241.595013 257.926935 
L 241.73497 257.459896 
L 241.781623 257.405685 
L 242.014885 257.343137 
L 242.061538 257.226375 
L 242.10819 257.318117 
L 242.2948 257.459896 
L 242.388105 256.846907 
L 242.434757 257.009535 
L 242.574715 257.376494 
L 242.621367 257.276416 
L 242.66802 257.213867 
L 242.714672 257.297265 
L 242.761325 257.576656 
L 242.947935 257.693416 
L 243.041239 257.022047 
L 243.087892 257.142974 
L 243.321154 256.955326 
L 243.367807 257.080425 
L 243.647722 257.660056 
L 243.694374 257.676736 
L 243.741027 257.522446 
L 243.880984 257.618358 
L 243.974289 257.167997 
L 244.020941 257.338968 
L 244.067594 257.839366 
L 244.347509 257.709047 
L 244.394161 257.650281 
L 244.580771 257.599912 
L 244.720728 257.839173 
L 244.907338 257.587317 
L 244.953991 257.818184 
L 245.047296 257.360647 
L 245.187253 257.238915 
L 245.233906 257.394227 
L 245.280558 257.348052 
L 245.327211 257.217929 
L 245.373863 257.348052 
L 245.70043 257.490769 
L 245.88704 257.30188 
L 245.933693 257.024839 
L 245.980345 257.658676 
L 246.026998 257.465587 
L 246.213607 257.406819 
L 246.306912 257.897938 
L 246.353565 258.21276 
L 246.493522 257.952509 
L 246.63348 258.258934 
L 246.82009 258.208564 
L 246.913395 258.452023 
L 246.960047 258.330293 
L 247.006699 258.468816 
L 247.473224 257.990285 
L 247.519877 258.028065 
L 247.659834 257.860159 
L 247.893096 257.822381 
L 248.312969 258.846601 
L 248.546231 258.632521 
L 248.592884 259.606366 
L 248.639536 259.375497 
L 248.872798 259.3713 
L 248.966103 259.121678 
L 249.199366 259.062446 
L 249.292671 259.257067 
L 249.432628 259.257067 
L 249.47928 259.113217 
L 249.525933 259.193605 
L 249.572585 259.426302 
L 249.619238 259.328991 
L 249.899153 259.874772 
L 249.945805 259.836696 
L 250.132415 259.608229 
L 250.179068 259.70554 
L 250.22572 259.950929 
L 250.272372 259.895927 
L 250.41233 260.107471 
L 250.458982 259.984776 
L 250.59894 259.612461 
L 250.738897 259.773233 
L 250.78555 259.608229 
L 250.878855 259.650537 
L 251.392032 260.369785 
L 251.438684 260.297862 
L 251.485337 260.230168 
L 251.531989 260.272476 
L 251.578642 260.484019 
L 251.718599 260.551713 
L 251.765252 260.725178 
L 251.811904 260.708255 
L 251.905209 260.551713 
L 252.371734 260.606714 
L 252.558344 259.874772 
L 252.698301 259.811311 
L 252.791606 260.166704 
L 253.024868 259.134371 
L 253.071521 259.134371 
L 253.211478 259.482606 
L 253.398088 259.602661 
L 253.724655 258.629379 
L 253.81796 258.350683 
L 253.864613 258.09343 
L 254.051223 258.046269 
L 254.19118 257.454581 
L 254.331137 257.823311 
L 254.37779 257.763288 
L 254.424442 257.591782 
L 254.471095 257.630372 
L 254.517747 257.819027 
L 254.657705 257.891917 
L 254.704357 258.427862 
L 254.797662 258.410713 
L 255.077577 258.247784 
L 255.170882 257.484594 
L 255.310839 257.411704 
L 255.357492 257.094425 
L 255.404144 257.536044 
L 255.637407 257.613222 
L 255.777364 257.330239 
L 255.824017 257.46744 
L 256.057279 257.398842 
L 256.103931 257.210189 
L 256.150584 257.518894 
L 256.383846 257.591782 
L 256.477151 257.1716 
L 256.710413 257.347392 
L 256.803718 257.90049 
L 257.083633 256.875758 
L 257.130286 256.425561 
L 257.270243 256.266921 
L 257.456853 255.773846 
L 257.643463 255.834432 
L 257.923378 256.202274 
L 258.016683 256.14169 
L 258.109988 255.566125 
L 258.296597 255.3887 
L 258.34325 255.336764 
L 258.389902 255.431968 
L 258.576512 255.470918 
L 258.623165 255.384369 
L 258.669817 255.457936 
L 258.763122 256.314791 
L 258.90308 256.310462 
L 259.089689 256.764855 
L 259.322952 256.275844 
L 259.369604 256.838425 
L 259.416257 256.648014 
L 259.556214 256.669652 
L 259.649519 257.595743 
L 259.696172 257.517848 
L 259.742824 257.318783 
L 259.976086 257.39668 
L 260.022739 257.214921 
L 260.069391 257.305799 
L 260.349306 257.223578 
L 260.395959 257.119716 
L 260.629221 257.150007 
L 260.675873 257.34042 
L 260.722526 256.695613 
L 260.862483 256.453274 
L 260.909136 255.778178 
L 260.955788 256.474911 
L 261.189051 256.042157 
L 261.375661 256.401342 
L 261.608923 256.418652 
L 261.655575 256.678307 
L 261.702228 256.63936 
L 261.842185 256.730237 
L 261.888838 256.65234 
L 261.93549 256.457601 
L 261.982143 256.535496 
L 262.168753 257.080251 
L 262.30871 256.642698 
L 262.821887 256.126379 
L 262.961845 256.336407 
L 263.008497 256.152634 
L 263.148454 256.27515 
L 263.288412 255.14188 
L 263.568327 254.144249 
L 263.614979 254.301772 
L 263.661632 254.271142 
L 263.801589 254.139874 
L 263.848242 254.306146 
L 263.894894 254.293019 
L 263.988199 253.369776 
L 264.128156 253.649809 
L 264.221461 253.041611 
L 264.268114 253.080986 
L 264.314766 253.059107 
L 264.454724 253.150995 
L 264.641334 252.232132 
L 264.781291 252.254006 
L 264.921248 251.492659 
L 264.967901 251.12511 
L 265.247816 251.151365 
L 265.294468 250.586917 
L 265.434426 250.635047 
L 265.52773 250.320002 
L 265.574383 250.731306 
L 265.621035 249.983089 
L 265.760993 250.420644 
L 265.947603 253.330393 
L 266.180865 253.457287 
L 266.227518 252.722192 
L 266.27417 252.75087 
L 266.46078 251.722923 
L 266.507432 252.000865 
L 266.554085 252.10675 
L 266.600737 251.167036 
L 266.740695 251.943513 
L 266.787347 250.7391 
L 266.880652 250.822921 
L 266.927305 250.169979 
L 267.113914 250.412626 
L 267.160567 250.381741 
L 267.207219 249.318504 
L 267.253872 249.389091 
L 267.393829 249.77733 
L 267.440482 249.706737 
L 267.533787 249.349385 
L 267.580439 248.837619 
L 267.813702 248.683202 
L 267.907006 248.414089 
L 268.140269 248.665559 
L 268.186921 248.586147 
L 268.233574 248.334672 
L 268.513489 248.131729 
L 268.746751 248.665559 
L 269.213276 245.149372 
L 269.353233 245.193486 
L 269.446538 246.256726 
L 269.493191 245.987608 
L 269.6798 245.550844 
L 269.773105 245.899375 
L 269.86641 246.389078 
L 270.006368 246.336137 
L 270.05302 246.097899 
L 270.099673 246.371437 
L 270.146325 244.47878 
L 270.192978 244.606718 
L 270.332935 244.271422 
L 270.379587 245.599376 
L 270.42624 245.365546 
L 270.472892 244.906401 
L 270.519545 245.10603 
L 270.752807 245.358888 
L 270.79946 244.666842 
L 270.846112 245.372199 
L 271.032722 245.048352 
L 271.126027 245.443181 
L 271.172679 244.11231 
L 271.312637 244.258707 
L 271.359289 244.036896 
L 271.499247 245.452057 
L 271.639204 245.283477 
L 271.685857 244.733382 
L 271.732509 244.844291 
L 271.965771 245.354454 
L 272.012424 244.662405 
L 272.059076 245.057229 
L 272.105729 245.27904 
L 272.152381 244.888651 
L 272.338991 245.500854 
L 272.432296 244.360745 
L 272.478949 244.507136 
L 272.618906 244.409537 
L 272.665559 244.622479 
L 272.712211 244.462773 
L 272.945473 243.136344 
L 272.992126 243.087542 
L 273.038778 243.216194 
L 273.085431 243.069799 
L 273.132083 243.034308 
L 273.272041 243.242811 
L 273.318693 242.781445 
L 273.365346 242.883471 
L 273.411998 243.060921 
L 273.458651 242.95889 
L 273.598608 242.84799 
L 273.64526 242.289016 
L 273.691913 242.515274 
L 273.738565 243.504548 
L 273.785218 242.768134 
L 273.925175 242.812499 
L 274.01848 241.832087 
L 274.065133 241.903064 
L 274.345047 244.116747 
L 274.3917 245.731537 
L 274.438352 245.261292 
L 275.091487 247.267181 
L 275.278097 246.959323 
L 275.324749 247.209177 
L 275.371402 247.030707 
L 275.418054 246.28115 
L 275.604664 245.527133 
L 275.651317 245.103273 
L 275.697969 245.130044 
L 275.744622 245.406667 
L 275.931231 244.639263 
L 276.024536 244.911414 
L 276.071189 245.50036 
L 276.351104 245.228202 
L 276.537714 245.888521 
L 276.584366 247.686573 
L 276.677671 247.316252 
L 276.724324 247.070864 
L 276.864281 247.160096 
L 276.910933 251.180052 
L 277.004238 250.537575 
L 277.050891 250.58219 
L 277.237501 250.332337 
L 277.284153 249.868324 
L 277.330806 250.314489 
L 277.377458 251.086358 
L 277.517416 250.729422 
L 277.704025 251.733298 
L 277.843983 252.286542 
L 277.890635 252.233005 
L 278.030593 251.541445 
L 278.17055 251.130977 
L 278.217203 251.429908 
L 278.263855 251.090819 
L 278.310508 251.380826 
L 278.35716 251.492366 
L 278.54377 251.2559 
L 278.683727 251.514675 
L 278.823685 251.296057 
L 278.870337 250.216333 
L 278.91699 250.394802 
L 278.963642 250.760656 
L 279.010295 250.733887 
L 279.196904 250.71604 
L 279.243557 250.091405 
L 279.336862 250.194024 
L 279.570124 250.202951 
L 279.616777 250.675476 
L 279.663429 249.838432 
L 279.803387 249.491914 
L 279.896692 250.454967 
L 279.943344 250.081443 
L 279.989996 250.360456 
L 280.129954 250.229948 
L 280.176606 250.373955 
L 280.223259 249.874433 
L 280.269911 250.580974 
L 280.316564 249.10039 
L 280.456521 248.884383 
L 280.596479 247.403802 
L 280.643131 248.101342 
L 280.829741 247.696317 
L 280.876393 247.948334 
L 280.969698 249.145394 
L 281.156308 248.726873 
L 281.202961 249.046391 
L 281.249613 248.717873 
L 281.436223 248.942882 
L 281.482876 248.357855 
L 281.622833 249.662923 
L 281.809443 249.221899 
L 281.902748 249.712424 
L 281.9494 249.415412 
L 282.182663 251.251502 
L 282.275968 250.927486 
L 282.415925 250.810482 
L 282.462577 250.346959 
L 282.50923 250.97249 
L 282.555882 251.238003 
L 282.602535 251.080493 
L 282.742492 250.738477 
L 282.789145 250.985989 
L 282.835797 250.756478 
L 282.88245 250.78348 
L 282.929102 250.085943 
L 283.115712 250.598968 
L 283.162364 250.18495 
L 283.255669 250.346959 
L 283.442279 250.77824 
L 283.582237 250.455913 
L 283.722194 250.800939 
L 283.815499 250.247078 
L 283.862152 250.900812 
L 283.908804 250.587565 
L 284.048761 250.256157 
L 284.095414 249.089431 
L 284.188719 249.239243 
L 284.375329 249.039493 
L 284.468634 249.125748 
L 284.515286 248.962316 
L 284.561939 249.062191 
L 284.748549 248.994095 
L 284.841853 248.422076 
L 285.075116 248.476555 
L 285.168421 248.413001 
L 285.215073 248.658148 
L 285.355031 248.413001 
L 285.401683 248.758019 
L 285.494988 248.653603 
L 285.541641 247.936316 
L 285.681598 247.927239 
L 285.821555 246.4518 
L 285.868208 246.642465 
L 286.008165 246.460875 
L 286.194775 248.667227 
L 286.334733 248.453857 
L 286.521342 248.903296 
L 286.6613 248.476555 
L 286.707952 248.798877 
L 286.754605 248.612748 
L 286.801257 248.390296 
L 286.84791 249.384519 
L 287.081172 248.617286 
L 287.127825 248.998627 
L 287.174477 247.904538 
L 287.314434 248.12699 
L 287.454392 247.781962 
L 287.501044 248.074752 
L 287.827612 246.684012 
L 287.967569 247.123197 
L 288.060874 247.644717 
L 288.107526 247.269583 
L 288.154179 247.429707 
L 288.294136 247.475452 
L 288.340789 246.862432 
L 288.387441 247.242135 
L 288.434094 247.146065 
L 288.480746 247.534923 
L 288.620704 247.534923 
L 288.760661 248.138797 
L 288.947271 248.138797 
L 289.040576 248.907361 
L 289.133881 248.870763 
L 289.647058 250.362143 
L 289.787015 249.145251 
L 290.113583 248.152518 
L 290.25354 248.253164 
L 290.300193 248.610002 
L 290.346845 248.381261 
L 290.44015 247.81856 
L 290.62676 247.832285 
L 290.673412 247.690466 
L 290.720065 246.917333 
L 290.766717 247.393104 
L 290.953327 247.937506 
L 291.046632 247.040849 
L 291.093285 247.068296 
L 291.326547 247.429707 
L 291.373199 247.310759 
L 291.419852 249.928926 
L 291.559809 249.975029 
L 291.653114 250.233157 
L 291.746419 249.951981 
L 291.933029 250.998326 
L 292.072986 250.13175 
L 292.399554 252.49179 
L 292.539511 252.201394 
L 292.586164 252.666948 
L 292.632816 252.312019 
L 292.912731 251.417786 
L 292.959383 251.98936 
L 293.052688 251.869513 
L 293.379256 251.80037 
L 293.519213 251.376299 
L 293.705823 252.505618 
L 293.84578 251.814197 
L 293.892433 252.275143 
L 294.03239 250.62496 
L 294.219 250.754023 
L 294.358958 250.140964 
L 294.545567 249.735335 
L 294.685525 251.131999 
L 294.872135 250.094871 
L 294.918787 250.495892 
L 295.15205 250.242376 
L 295.198702 249.845961 
L 295.245354 250.085654 
L 295.292007 250.210108 
L 295.338659 250.164016 
L 295.898489 250.19628 
L 295.991794 250.339173 
L 296.318361 248.868752 
L 296.458319 248.559922 
L 296.504971 248.642889 
L 296.551624 249.1822 
L 296.598276 249.090008 
L 296.644929 248.448081 
L 296.878191 248.252714 
L 296.924843 248.406218 
L 296.971496 248.345745 
L 297.111453 248.150376 
L 297.204758 248.862078 
L 297.298063 249.53657 
L 297.531326 249.806365 
L 297.577978 249.610998 
L 297.764588 249.53192 
L 297.81124 249.713332 
L 297.951198 248.58763 
L 298.137808 248.58763 
L 298.231113 248.336437 
L 298.277765 248.931852 
L 298.511027 248.662058 
L 298.55768 248.624847 
L 298.604332 248.443428 
L 298.74429 248.64345 
L 298.790942 248.592281 
L 298.884247 249.452841 
L 298.9309 249.159787 
L 299.070857 248.717873 
L 299.11751 248.764392 
L 299.164162 249.178389 
L 299.210815 249.001629 
L 299.257467 248.685319 
L 299.397424 248.88534 
L 299.444077 249.215607 
L 299.537382 249.159787 
L 299.584034 248.745789 
L 299.770644 248.629494 
L 299.817297 248.708576 
L 299.910602 248.401565 
L 300.097211 248.689972 
L 300.143864 249.020233 
L 300.377126 247.159572 
L 300.517084 246.903727 
L 300.563736 246.847911 
L 300.796999 247.284073 
L 300.890303 247.232481 
L 301.076913 247.443531 
L 301.170218 247.124612 
L 301.216871 247.171517 
L 301.450133 246.48679 
L 301.496786 246.904188 
L 301.543438 246.725969 
L 301.683395 247.321588 
L 301.730048 247.232481 
L 301.7767 246.688455 
L 301.823353 246.951086 
L 302.009963 246.594651 
L 302.14992 245.384662 
L 302.33653 245.173614 
L 302.429835 245.609776 
L 302.476487 245.229891 
L 302.52314 245.492528 
L 302.756402 245.243963 
L 302.803055 245.3659 
L 302.849707 246.045931 
L 303.036317 246.144425 
L 303.129622 245.731712 
L 303.176275 245.877101 
L 303.316232 246.299191 
L 303.409537 245.623841 
L 303.456189 246.111595 
L 303.502842 246.196012 
L 303.642799 245.895859 
L 303.689452 245.938067 
L 303.736104 245.984967 
L 303.829409 245.131404 
L 303.969367 245.361203 
L 304.016019 245.342449 
L 304.295934 247.232481 
L 304.342586 246.796319 
L 304.435891 245.71295 
L 304.482544 247.452906 
L 304.622501 247.457596 
L 304.669154 248.067285 
L 304.715806 247.77182 
L 304.809111 247.866029 
L 305.089026 247.345649 
L 305.275636 246.957729 
L 305.322288 247.038151 
L 305.368941 246.574536 
L 305.415593 246.749575 
L 305.462246 247.383493 
L 305.92877 248.315448 
L 305.975423 248.25395 
L 306.11538 247.747762 
L 306.441948 246.37111 
L 306.628557 246.792149 
L 306.67521 247.014495 
L 306.768515 246.347461 
L 306.955125 246.044693 
L 307.04843 245.155311 
L 307.095082 245.926429 
L 307.281692 246.446801 
L 307.421649 245.585808 
L 307.561607 245.533772 
L 307.701564 245.174238 
L 307.748217 245.231009 
L 308.028132 246.314347 
L 308.074784 249.79144 
L 308.214741 249.360941 
L 308.261394 249.800906 
L 308.308046 249.493406 
L 308.401351 248.807449 
L 308.867876 250.808549 
L 308.914528 250.794208 
L 309.007833 251.711944 
L 309.054486 251.463394 
L 309.194443 251.573327 
L 309.241096 251.253076 
L 309.381053 253.040744 
L 309.614316 252.773071 
L 309.70762 253.633448 
L 309.940883 253.63823 
L 309.987535 253.819863 
L 310.26745 253.767285 
L 310.314103 253.977597 
L 310.500712 253.84854 
L 310.547365 253.628667 
L 310.594017 253.819863 
L 310.687322 253.819863 
L 310.82728 253.337096 
L 310.967237 255.153444 
L 311.01389 255.124768 
L 311.2005 255.186903 
L 311.247152 255.33986 
L 311.293804 255.292059 
L 311.340457 255.110425 
L 311.480414 255.401998 
L 311.573719 254.880991 
L 311.620372 255.091307 
L 311.806982 254.565524 
L 311.853634 254.990928 
L 311.900287 254.871433 
L 311.946939 254.469924 
L 311.993592 254.555961 
L 312.133549 254.049297 
L 312.226854 254.642001 
L 312.273506 254.632441 
L 312.600074 253.404015 
L 312.646726 253.905899 
L 313.113251 252.648797 
L 313.206556 252.424143 
L 313.253208 251.745401 
L 313.299861 252.282036 
L 313.439818 252.518929 
L 313.486471 252.818673 
L 313.533123 252.253028 
L 313.579776 252.663967 
L 313.766385 252.074151 
L 313.813038 252.499591 
L 313.85969 251.953288 
L 313.952995 252.475419 
L 314.092953 252.465748 
L 314.139605 252.789666 
L 314.23291 252.746154 
L 314.41952 252.833174 
L 314.512825 252.025806 
L 314.559477 252.040309 
L 314.886045 253.302127 
L 314.932697 253.123249 
L 315.119307 252.833174 
L 315.259265 252.011302 
L 315.819094 251.242609 
L 315.912399 251.523014 
L 316.052357 251.735732 
L 316.238966 252.833174 
L 316.378924 252.78483 
L 316.425576 252.625291 
L 316.565534 253.490674 
L 316.705491 253.350472 
L 316.798796 253.829092 
L 316.845449 253.577697 
L 317.032058 253.616372 
L 317.078711 253.505179 
L 317.172016 252.886354 
L 317.218668 253.456831 
L 317.405278 253.311796 
L 317.451931 253.384315 
L 317.778498 253.553712 
L 317.871803 254.386348 
L 318.058413 254.778174 
L 318.151718 254.680217 
L 318.338328 254.45002 
L 318.38498 254.7243 
L 318.431633 254.645934 
L 318.478285 254.484304 
L 318.524937 254.969191 
L 318.664895 254.890826 
L 318.851505 254.126762 
L 319.13142 254.484304 
L 319.318029 253.445961 
L 319.411334 253.250047 
L 319.457987 253.362696 
L 319.504639 253.671262 
L 319.737902 252.138234 
L 319.784554 252.192114 
L 319.831207 252.290071 
L 319.971164 252.255784 
L 320.064469 252.040279 
L 320.111122 252.113745 
L 320.297731 252.51537 
L 320.344384 253.05903 
L 320.437689 252.853323 
L 320.484341 252.667201 
L 320.670951 252.868017 
L 320.950866 251.839468 
L 321.044171 252.285171 
L 321.090823 252.113745 
L 321.137476 251.844365 
L 321.277433 251.971709 
L 321.417391 251.628861 
L 321.464043 253.303923 
L 321.604001 253.191274 
L 321.743958 253.651671 
L 321.79061 253.475349 
L 322.070525 253.59432 
L 322.117178 253.892074 
L 322.35044 253.966513 
L 322.583702 253.53477 
L 322.630355 253.624095 
L 322.72366 253.351153 
L 322.770312 253.390855 
L 323.050227 253.911924 
L 323.09688 253.688608 
L 323.236837 253.59432 
L 323.423447 254.140202 
L 323.563404 254.065763 
L 323.750014 254.785336 
L 323.889972 255.122788 
L 323.936624 255.063239 
L 324.029929 254.919325 
L 324.076582 254.968953 
L 324.216539 254.904439 
L 324.403149 255.519795 
L 324.543106 255.445358 
L 324.589759 255.688525 
L 324.729716 257.09293 
L 324.869674 256.83984 
L 324.916326 257.003606 
L 325.056283 256.303882 
L 325.382851 255.73815 
L 325.522808 255.73815 
L 325.616113 254.447883 
L 325.709418 254.566985 
L 326.035985 255.156345 
L 326.222595 254.844073 
L 326.362553 254.274929 
L 326.549162 254.088571 
L 326.595815 254.647643 
L 326.68912 254.57713 
L 326.922382 254.088571 
L 326.969035 254.758449 
L 327.015687 254.582166 
L 327.202297 254.310185 
L 327.342255 254.657716 
L 327.528864 254.602312 
L 327.575517 254.325297 
L 327.668822 255.030428 
L 327.902084 254.985099 
L 327.948737 254.929696 
L 327.995389 255.931993 
L 328.461914 255.327591 
L 328.508566 255.357812 
L 328.648524 255.136199 
L 328.788481 255.201675 
L 328.975091 254.919622 
L 329.208353 254.894437 
L 329.301658 254.456249 
L 329.441616 254.602312 
L 329.534921 254.395809 
L 329.581573 254.57713 
L 329.628226 254.501577 
L 329.861488 254.154047 
L 329.90814 254.506615 
L 329.954793 254.143975 
L 330.09475 254.023095 
L 330.141403 255.070721 
L 330.234708 254.798741 
L 330.28136 254.647643 
L 330.46797 254.954879 
L 330.514623 254.78867 
L 330.561275 254.78867 
L 330.607927 254.502262 
L 330.747885 255.008587 
L 330.794537 254.819355 
L 330.84119 254.763097 
L 330.887842 254.972786 
L 330.934495 254.77844 
L 331.074452 255.167135 
L 331.121105 255.100647 
L 331.167757 255.059732 
L 331.21441 255.126221 
L 331.261062 256.793514 
L 331.401019 256.7168 
L 331.587629 255.84735 
L 331.914197 256.302533 
L 332.147459 256.092844 
L 332.380721 255.673461 
L 332.474026 255.729719 
L 332.567331 255.520029 
L 332.753941 255.412627 
L 332.800594 255.284766 
L 332.893899 255.775748 
L 333.033856 255.729719 
L 333.220466 255.105761 
L 333.453728 254.619893 
L 333.547033 255.090418 
L 333.733643 254.865384 
L 333.826948 255.218278 
L 333.8736 254.993246 
L 334.013558 255.08019 
L 334.06021 255.791092 
L 334.106863 255.765519 
L 334.153515 255.300109 
L 334.200168 256.016125 
L 334.386778 255.837122 
L 334.43343 256.057041 
L 334.480083 255.729719 
L 334.526735 255.785975 
L 334.666692 255.687149 
L 334.80665 256.264522 
L 334.853302 255.931622 
L 334.99326 256.087671 
L 335.039912 255.947227 
L 335.086565 256.129282 
L 335.17987 256.670247 
L 335.319827 256.561016 
L 335.36648 256.644242 
L 335.413132 256.737869 
L 335.459784 256.696256 
L 335.972962 256.144887 
L 336.066267 256.191703 
L 336.159572 256.503797 
L 336.392834 256.462185 
L 336.439486 256.373758 
L 336.486139 256.446579 
L 336.719401 256.274927 
L 336.812706 256.571417 
L 336.952664 256.561016 
L 337.092621 256.092871 
L 337.139273 256.196903 
L 337.279231 256.098072 
L 337.372536 256.259324 
L 337.605798 255.848397 
L 337.745756 256.212509 
L 337.792408 256.061661 
L 337.932365 256.014848 
L 337.979018 256.493396 
L 338.072323 256.404967 
L 338.118975 256.342548 
L 338.258933 256.467387 
L 338.39889 256.051259 
L 338.445543 257.289238 
L 338.5855 257.419278 
L 338.725457 257.757382 
L 339.005372 257.320449 
L 339.052025 257.378813 
L 339.098677 257.219637 
L 339.238635 257.193108 
L 339.425244 256.61477 
L 339.751812 256.763335 
L 339.985074 256.317643 
L 340.078379 256.418455 
L 340.544904 256.689052 
L 340.591556 256.646606 
L 340.684861 257.033933 
L 340.731514 256.922511 
L 340.871471 257.081686 
L 341.058081 256.699665 
L 341.198038 256.620076 
L 341.524606 257.421259 
L 341.664563 257.559212 
L 341.897825 258.30203 
L 341.99113 258.063267 
L 342.037783 258.662827 
L 342.271045 258.890979 
L 342.317698 258.795474 
L 342.55096 258.503652 
L 342.690917 258.137549 
L 342.877527 257.288614 
L 342.92418 257.023321 
L 342.970832 257.234356 
L 343.017485 257.223535 
L 343.157442 256.882629 
L 343.204095 256.952974 
L 343.2974 257.299292 
L 343.344052 256.990854 
L 343.530662 257.039553 
L 343.670619 257.456215 
L 343.810577 257.283058 
L 343.903882 257.504916 
L 343.950534 257.396693 
L 343.997187 257.483271 
L 344.183797 257.364224 
L 344.323754 257.667252 
L 344.650321 257.272236 
L 344.930236 256.579603 
L 344.976889 257.770063 
L 345.163498 258.094736 
L 345.303456 257.569851 
L 345.583371 258.267893 
L 345.630023 258.148848 
L 345.816633 258.143437 
L 346.096548 258.911826 
L 346.189853 258.468108 
L 346.236505 258.814424 
L 346.283158 258.630444 
L 346.469768 258.949703 
L 346.609725 258.505986 
L 346.88964 258.928059 
L 346.936292 258.738667 
L 347.07625 258.679144 
L 347.122902 258.955115 
L 347.169555 258.890181 
L 347.402817 258.483685 
L 347.496122 258.544661 
L 347.542774 258.710952 
L 347.589427 258.594547 
L 348.102604 259.359493 
L 348.242561 259.897171 
L 348.475824 259.536872 
L 348.522476 260.384964 
L 348.755739 260.168783 
L 348.849044 259.863913 
L 348.895696 259.935973 
L 349.082306 259.797396 
L 349.128958 259.708707 
L 349.175611 259.825112 
L 349.222263 259.836199 
L 349.408873 259.653276 
L 349.548831 260.240843 
L 350.062008 259.703164 
L 350.155313 260.268559 
L 350.201965 260.174326 
L 350.435228 260.213127 
L 350.48188 260.157697 
L 350.528533 260.335076 
L 350.808447 259.830655 
L 350.8551 260.473652 
L 351.088362 260.329532 
L 351.181667 260.357248 
L 351.41493 259.941516 
L 351.461582 260.063465 
L 351.694844 259.287433 
L 351.741497 259.387208 
L 351.834802 259.326235 
L 351.974759 259.246547 
L 352.068064 259.792974 
L 352.114717 260.066186 
L 352.347979 258.415523 
L 352.487936 258.546438 
L 353.001114 259.383154 
L 353.281028 258.574898 
L 353.374333 259.013178 
L 353.420986 258.791191 
L 353.467638 258.683044 
L 353.607596 258.717196 
L 353.700901 259.08148 
L 353.794206 258.796883 
L 353.980815 258.967642 
L 354.027468 259.121324 
L 354.07412 258.950566 
L 354.26073 259.013178 
L 354.307383 259.178244 
L 354.354035 258.996102 
L 354.400688 259.058714 
L 354.44734 258.927798 
L 354.587298 258.922107 
L 354.773907 258.660277 
L 354.913865 258.722889 
L 354.960517 258.557821 
L 355.00717 258.603357 
L 355.053822 258.717196 
L 355.100475 258.654585 
L 355.240432 258.358604 
L 355.333737 257.715413 
L 355.38039 257.840637 
L 355.427042 257.960168 
L 355.753609 259.827125 
L 355.940219 259.383154 
L 355.986872 258.125234 
L 356.080177 258.19923 
L 356.220134 258.273224 
L 356.266787 258.182153 
L 356.360091 257.681262 
L 356.406744 257.82356 
L 356.640006 257.712909 
L 356.733311 257.7595 
L 356.873269 258.341874 
L 356.919921 258.050687 
L 356.966574 258.301108 
L 357.013226 258.324403 
L 357.059879 258.487468 
L 357.199836 258.481645 
L 357.339793 258.749538 
L 357.386446 258.831069 
L 357.526403 258.656357 
L 357.666361 258.842718 
L 357.946275 258.45835 
L 358.03958 258.801951 
L 358.22619 258.487468 
L 358.272843 258.603944 
L 358.366148 259.395973 
L 358.692715 258.289461 
L 359.15924 259.29697 
L 359.205892 259.29697 
L 359.34585 259.931758 
L 359.485807 259.791988 
L 359.532459 260.228769 
L 359.579112 259.395973 
L 359.672417 259.518272 
L 359.905679 258.638885 
L 360.185594 259.518272 
L 360.465509 259.455375 
L 360.652119 259.736912 
L 360.932034 259.934587 
L 361.118643 260.389838 
L 361.211948 259.952558 
L 361.305253 260.02444 
L 361.538516 259.551218 
L 361.585168 259.611119 
L 361.631821 258.251357 
L 361.818431 257.909918 
L 361.911735 257.820067 
L 362.144998 258.077643 
L 362.284955 257.838037 
L 362.471565 258.233386 
L 362.518218 258.107594 
L 362.611523 257.856007 
L 362.75148 258.095613 
L 362.844785 260.671375 
L 362.891437 260.587513 
L 362.93809 260.647414 
L 363.078047 260.569542 
L 363.1247 260.317956 
L 363.171352 260.485679 
L 363.404615 260.611473 
L 363.451267 260.46172 
L 363.49792 260.50964 
L 363.544572 260.593503 
L 363.591224 260.533601 
L 363.871139 260.773207 
L 363.917792 260.569542 
L 364.244359 260.341917 
L 364.524274 260.437759 
L 364.570926 260.809147 
L 364.804189 260.443749 
L 364.897494 260.530456 
L 365.084104 260.59239 
L 365.224061 260.908252 
L 365.364018 261.100247 
L 365.410671 260.970186 
L 365.457323 261.007347 
L 365.550628 261.08786 
L 365.690586 260.9578 
L 365.783891 261.41611 
L 365.877196 261.273662 
L 366.110458 261.205535 
L 366.483678 261.94874 
L 366.670288 262.023061 
L 366.763592 261.800099 
L 366.810245 261.837259 
L 367.09016 262.109768 
L 367.183465 261.824873 
L 367.416727 261.998287 
L 367.649989 262.264603 
L 367.789947 262.010674 
L 367.836599 262.047834 
L 368.116514 262.611432 
L 368.163167 262.537111 
L 368.629691 262.75388 
L 368.676344 262.537111 
L 368.816301 264.271258 
L 369.096216 263.850108 
L 369.142868 263.893462 
L 369.376131 263.893462 
L 369.609393 264.054489 
L 369.796003 263.992556 
L 370.029265 264.09165 
L 370.12257 263.961589 
L 370.30918 264.09165 
L 370.729053 264.779115 
L 370.775705 264.704794 
L 371.102272 264.896789 
L 371.335535 264.890596 
L 371.42884 265.039237 
L 371.662102 265.020657 
L 371.708754 264.97111 
L 371.755407 265.156911 
L 371.988669 265.324132 
L 372.035322 265.39226 
L 372.081974 265.324132 
L 372.315237 265.187878 
L 372.361889 264.983496 
L 372.408541 265.119751 
L 372.641804 264.977303 
L 372.688456 264.760535 
L 372.735109 264.921563 
L 372.921719 265.020657 
L 373.248286 264.227904 
L 373.388243 264.649054 
L 373.574853 264.698601 
L 373.714811 264.469446 
L 374.227988 263.924429 
L 374.27464 264.085456 
L 374.321293 264.023523 
L 374.367945 263.943009 
L 374.507903 263.980169 
L 374.601208 264.289838 
L 374.64786 264.252678 
L 374.83447 263.924429 
L 374.881122 263.905848 
L 374.974427 263.645726 
L 375.02108 263.701467 
L 375.161037 263.70766 
L 375.300995 263.404185 
L 375.487605 263.546632 
L 375.627562 264.011136 
L 375.674214 263.763401 
L 375.860824 263.720047 
L 375.954129 263.528052 
L 376.000782 263.608566 
L 376.327349 263.738627 
L 376.607264 263.973976 
L 376.887179 263.447538 
L 377.120441 263.559019 
L 377.167093 263.589986 
L 377.307051 263.243157 
L 377.447008 263.459925 
L 377.493661 263.348444 
L 377.633618 264.004942 
L 377.773576 263.973976 
L 377.866881 263.565212 
L 377.913533 263.627146 
L 378.100143 263.905848 
L 378.2401 264.035909 
L 378.286753 263.72624 
L 378.566668 263.472312 
L 378.61332 263.738627 
L 378.753278 263.757207 
L 378.893235 263.943009 
L 378.939887 264.017329 
L 379.079845 264.017329 
L 379.17315 264.525186 
L 379.219802 264.518993 
L 379.266455 264.438479 
L 379.826284 264.822469 
L 379.919589 265.002077 
L 380.199504 264.816275 
L 380.246157 265.020657 
L 380.572724 264.890596 
L 380.899291 264.878209 
L 381.132554 265.280779 
L 381.179206 265.231232 
L 381.365816 265.00827 
L 381.412468 265.132138 
L 381.459121 265.04543 
L 381.505773 264.927756 
L 381.552426 264.95253 
L 381.692383 265.088784 
L 381.739036 264.760535 
L 381.785688 264.816275 
L 381.832341 264.915369 
L 381.878993 264.537573 
L 382.065603 264.760535 
L 382.20556 265.051624 
L 382.345518 265.020657 
L 382.485475 264.649054 
L 382.858695 265.646188 
L 383.091957 265.268392 
L 383.371872 263.695273 
L 383.51183 264.357965 
L 383.651787 263.905848 
L 383.791744 264.469446 
L 383.838397 264.426092 
L 384.071659 263.639533 
L 384.118312 263.831528 
L 384.164964 263.63334 
L 384.444879 264.364158 
L 384.491531 264.296031 
L 384.678141 264.56854 
L 384.771446 264.822469 
L 384.818099 264.766728 
L 384.958056 264.543767 
L 385.004709 264.630474 
L 385.098014 264.630474 
L 385.144666 264.791502 
L 385.377928 264.475639 
L 385.424581 264.698601 
L 385.471233 264.865822 
L 385.657843 264.791502 
L 385.751148 264.611894 
L 385.797801 264.816275 
L 386.031063 264.240291 
L 386.077715 264.673827 
L 386.124368 264.457059 
L 386.35763 264.432286 
L 386.404283 264.314611 
L 386.450935 264.357965 
L 386.637545 264.388932 
L 386.777503 264.686214 
L 387.057417 264.723375 
L 387.757204 264.927756 
L 387.897162 264.995883 
L 387.943814 264.896789 
L 388.037119 264.834855 
L 388.083772 264.884402 
L 388.410339 264.896789 
L 388.550296 264.810082 
L 388.643601 264.5128 
L 388.690254 264.636667 
L 388.736906 264.803888 
L 389.296736 264.457059 
L 389.343388 264.525186 
L 389.390041 264.265064 
L 389.529998 264.364158 
L 389.576651 264.296031 
L 389.716608 264.042103 
L 389.996523 262.537111 
L 390.043175 262.642399 
L 390.229785 262.611432 
L 390.369743 263.608566 
L 390.556353 262.989228 
L 390.69631 261.515204 
L 390.836267 261.961127 
L 390.88292 260.840125 
L 390.929572 261.162181 
L 390.976225 261.719585 
L 391.022877 261.174568 
L 391.162835 261.131214 
L 391.209487 260.970186 
L 391.25614 261.063087 
L 391.349445 261.564751 
L 391.489402 261.521397 
L 391.536055 261.725779 
L 391.582707 261.583331 
L 391.629359 259.025465 
L 391.676012 259.935892 
L 391.815969 260.072146 
L 391.862622 260.022599 
L 391.909274 259.793444 
L 391.955927 258.81489 
L 392.002579 259.136946 
L 392.329147 258.090265 
L 392.655714 260.895866 
L 392.795671 260.722451 
L 392.842324 260.214594 
L 392.935629 260.288914 
L 392.982281 260.034986 
L 393.168891 260.505683 
L 393.215544 260.103113 
L 393.262196 260.487103 
L 393.308848 260.561423 
L 393.448806 259.911118 
L 393.495458 260.177434 
L 393.542111 260.214594 
L 393.775373 258.771536 
L 393.822026 258.913984 
L 393.961983 257.42138 
L 394.10194 257.124098 
L 394.148593 257.594794 
L 394.195245 257.111711 
L 394.241898 257.396605 
L 394.28855 256.913522 
L 394.428508 257.254158 
L 394.47516 256.888748 
L 394.615118 259.136946 
L 394.755075 259.502355 
L 394.941685 257.700082 
L 395.081642 257.762015 
L 395.174947 254.640552 
L 395.2216 254.900674 
L 395.40821 254.38043 
L 395.548167 255.712007 
L 395.734777 256.696754 
L 395.781429 256.622433 
L 395.828082 256.009288 
L 395.874734 256.182704 
L 395.921387 256.424245 
L 396.107997 255.024541 
L 396.201302 242.662555 
L 396.247954 245.393836 
L 396.527869 240.730221 
L 396.574521 227.11717 
L 396.714479 219.821369 
L 396.807784 52.154182 
L 396.901089 66.095486 
L 397.041046 128.029286 
L 397.181004 234.245752 
L 397.227656 227.885151 
L 397.367613 230.220055 
L 397.414266 236.221439 
L 397.507571 235.732164 
L 397.554223 234.927022 
L 397.740833 236.716912 
L 397.880791 242.241405 
L 398.020748 238.890787 
L 398.0674 239.528704 
L 398.160705 200.039713 
L 398.207358 204.368888 
L 398.487273 185.410947 
L 398.487273 185.410947 
" style="fill:none;stroke:#1f77b4;stroke-linecap:square;stroke-width:1.5;"/>
   </g>
   <g id="patch_3">
    <path d="M 57.6 276.48 
L 57.6 41.472 
" style="fill:none;stroke:#000000;stroke-linecap:square;stroke-linejoin:miter;stroke-width:0.8;"/>
   </g>
   <g id="patch_4">
    <path d="M 414.72 276.48 
L 414.72 41.472 
" style="fill:none;stroke:#000000;stroke-linecap:square;stroke-linejoin:miter;stroke-width:0.8;"/>
   </g>
   <g id="patch_5">
    <path d="M 57.6 276.48 
L 414.72 276.48 
" style="fill:none;stroke:#000000;stroke-linecap:square;stroke-linejoin:miter;stroke-width:0.8;"/>
   </g>
   <g id="patch_6">
    <path d="M 57.6 41.472 
L 414.72 41.472 
" style="fill:none;stroke:#000000;stroke-linecap:square;stroke-linejoin:miter;stroke-width:0.8;"/>
   </g>
   <g id="text_21">
    <!-- GameStop Corp. -->
    <g transform="translate(186.705938 35.472)scale(0.12 -0.12)">
     <defs>
      <path d="M 59.515625 10.40625 
L 59.515625 29.984375 
L 43.40625 29.984375 
L 43.40625 38.09375 
L 69.28125 38.09375 
L 69.28125 6.78125 
Q 63.578125 2.734375 56.6875 0.65625 
Q 49.8125 -1.421875 42 -1.421875 
Q 24.90625 -1.421875 15.25 8.5625 
Q 5.609375 18.5625 5.609375 36.375 
Q 5.609375 54.25 15.25 64.234375 
Q 24.90625 74.21875 42 74.21875 
Q 49.125 74.21875 55.546875 72.453125 
Q 61.96875 70.703125 67.390625 67.28125 
L 67.390625 56.78125 
Q 61.921875 61.421875 55.765625 63.765625 
Q 49.609375 66.109375 42.828125 66.109375 
Q 29.4375 66.109375 22.71875 58.640625 
Q 16.015625 51.171875 16.015625 36.375 
Q 16.015625 21.625 22.71875 14.15625 
Q 29.4375 6.6875 42.828125 6.6875 
Q 48.046875 6.6875 52.140625 7.59375 
Q 56.25 8.5 59.515625 10.40625 
z
" id="DejaVuSans-71"/>
      <path d="M 52 44.1875 
Q 55.375 50.25 60.0625 53.125 
Q 64.75 56 71.09375 56 
Q 79.640625 56 84.28125 50.015625 
Q 88.921875 44.046875 88.921875 33.015625 
L 88.921875 0 
L 79.890625 0 
L 79.890625 32.71875 
Q 79.890625 40.578125 77.09375 44.375 
Q 74.3125 48.1875 68.609375 48.1875 
Q 61.625 48.1875 57.5625 43.546875 
Q 53.515625 38.921875 53.515625 30.90625 
L 53.515625 0 
L 44.484375 0 
L 44.484375 32.71875 
Q 44.484375 40.625 41.703125 44.40625 
Q 38.921875 48.1875 33.109375 48.1875 
Q 26.21875 48.1875 22.15625 43.53125 
Q 18.109375 38.875 18.109375 30.90625 
L 18.109375 0 
L 9.078125 0 
L 9.078125 54.6875 
L 18.109375 54.6875 
L 18.109375 46.1875 
Q 21.1875 51.21875 25.484375 53.609375 
Q 29.78125 56 35.6875 56 
Q 41.65625 56 45.828125 52.96875 
Q 50 49.953125 52 44.1875 
z
" id="DejaVuSans-109"/>
      <path d="M 53.515625 70.515625 
L 53.515625 60.890625 
Q 47.90625 63.578125 42.921875 64.890625 
Q 37.9375 66.21875 33.296875 66.21875 
Q 25.25 66.21875 20.875 63.09375 
Q 16.5 59.96875 16.5 54.203125 
Q 16.5 49.359375 19.40625 46.890625 
Q 22.3125 44.4375 30.421875 42.921875 
L 36.375 41.703125 
Q 47.40625 39.59375 52.65625 34.296875 
Q 57.90625 29 57.90625 20.125 
Q 57.90625 9.515625 50.796875 4.046875 
Q 43.703125 -1.421875 29.984375 -1.421875 
Q 24.8125 -1.421875 18.96875 -0.25 
Q 13.140625 0.921875 6.890625 3.21875 
L 6.890625 13.375 
Q 12.890625 10.015625 18.65625 8.296875 
Q 24.421875 6.59375 29.984375 6.59375 
Q 38.421875 6.59375 43.015625 9.90625 
Q 47.609375 13.234375 47.609375 19.390625 
Q 47.609375 24.75 44.3125 27.78125 
Q 41.015625 30.8125 33.5 32.328125 
L 27.484375 33.5 
Q 16.453125 35.6875 11.515625 40.375 
Q 6.59375 45.0625 6.59375 53.421875 
Q 6.59375 63.09375 13.40625 68.65625 
Q 20.21875 74.21875 32.171875 74.21875 
Q 37.3125 74.21875 42.625 73.28125 
Q 47.953125 72.359375 53.515625 70.515625 
z
" id="DejaVuSans-83"/>
      <path d="M 30.609375 48.390625 
Q 23.390625 48.390625 19.1875 42.75 
Q 14.984375 37.109375 14.984375 27.296875 
Q 14.984375 17.484375 19.15625 11.84375 
Q 23.34375 6.203125 30.609375 6.203125 
Q 37.796875 6.203125 41.984375 11.859375 
Q 46.1875 17.53125 46.1875 27.296875 
Q 46.1875 37.015625 41.984375 42.703125 
Q 37.796875 48.390625 30.609375 48.390625 
z
M 30.609375 56 
Q 42.328125 56 49.015625 48.375 
Q 55.71875 40.765625 55.71875 27.296875 
Q 55.71875 13.875 49.015625 6.21875 
Q 42.328125 -1.421875 30.609375 -1.421875 
Q 18.84375 -1.421875 12.171875 6.21875 
Q 5.515625 13.875 5.515625 27.296875 
Q 5.515625 40.765625 12.171875 48.375 
Q 18.84375 56 30.609375 56 
z
" id="DejaVuSans-111"/>
      <path d="M 18.109375 8.203125 
L 18.109375 -20.796875 
L 9.078125 -20.796875 
L 9.078125 54.6875 
L 18.109375 54.6875 
L 18.109375 46.390625 
Q 20.953125 51.265625 25.265625 53.625 
Q 29.59375 56 35.59375 56 
Q 45.5625 56 51.78125 48.09375 
Q 58.015625 40.1875 58.015625 27.296875 
Q 58.015625 14.40625 51.78125 6.484375 
Q 45.5625 -1.421875 35.59375 -1.421875 
Q 29.59375 -1.421875 25.265625 0.953125 
Q 20.953125 3.328125 18.109375 8.203125 
z
M 48.6875 27.296875 
Q 48.6875 37.203125 44.609375 42.84375 
Q 40.53125 48.484375 33.40625 48.484375 
Q 26.265625 48.484375 22.1875 42.84375 
Q 18.109375 37.203125 18.109375 27.296875 
Q 18.109375 17.390625 22.1875 11.75 
Q 26.265625 6.109375 33.40625 6.109375 
Q 40.53125 6.109375 44.609375 11.75 
Q 48.6875 17.390625 48.6875 27.296875 
z
" id="DejaVuSans-112"/>
      <path id="DejaVuSans-32"/>
      <path d="M 64.40625 67.28125 
L 64.40625 56.890625 
Q 59.421875 61.53125 53.78125 63.8125 
Q 48.140625 66.109375 41.796875 66.109375 
Q 29.296875 66.109375 22.65625 58.46875 
Q 16.015625 50.828125 16.015625 36.375 
Q 16.015625 21.96875 22.65625 14.328125 
Q 29.296875 6.6875 41.796875 6.6875 
Q 48.140625 6.6875 53.78125 8.984375 
Q 59.421875 11.28125 64.40625 15.921875 
L 64.40625 5.609375 
Q 59.234375 2.09375 53.4375 0.328125 
Q 47.65625 -1.421875 41.21875 -1.421875 
Q 24.65625 -1.421875 15.125 8.703125 
Q 5.609375 18.84375 5.609375 36.375 
Q 5.609375 53.953125 15.125 64.078125 
Q 24.65625 74.21875 41.21875 74.21875 
Q 47.75 74.21875 53.53125 72.484375 
Q 59.328125 70.75 64.40625 67.28125 
z
" id="DejaVuSans-67"/>
      <path d="M 41.109375 46.296875 
Q 39.59375 47.171875 37.8125 47.578125 
Q 36.03125 48 33.890625 48 
Q 26.265625 48 22.1875 43.046875 
Q 18.109375 38.09375 18.109375 28.8125 
L 18.109375 0 
L 9.078125 0 
L 9.078125 54.6875 
L 18.109375 54.6875 
L 18.109375 46.1875 
Q 20.953125 51.171875 25.484375 53.578125 
Q 30.03125 56 36.53125 56 
Q 37.453125 56 38.578125 55.875 
Q 39.703125 55.765625 41.0625 55.515625 
z
" id="DejaVuSans-114"/>
      <path d="M 10.6875 12.40625 
L 21 12.40625 
L 21 0 
L 10.6875 0 
z
" id="DejaVuSans-46"/>
     </defs>
     <use xlink:href="#DejaVuSans-71"/>
     <use x="77.490234" xlink:href="#DejaVuSans-97"/>
     <use x="138.769531" xlink:href="#DejaVuSans-109"/>
     <use x="236.181641" xlink:href="#DejaVuSans-101"/>
     <use x="297.705078" xlink:href="#DejaVuSans-83"/>
     <use x="361.181641" xlink:href="#DejaVuSans-116"/>
     <use x="400.390625" xlink:href="#DejaVuSans-111"/>
     <use x="461.572266" xlink:href="#DejaVuSans-112"/>
     <use x="525.048828" xlink:href="#DejaVuSans-32"/>
     <use x="556.835938" xlink:href="#DejaVuSans-67"/>
     <use x="626.660156" xlink:href="#DejaVuSans-111"/>
     <use x="687.841797" xlink:href="#DejaVuSans-114"/>
     <use x="728.955078" xlink:href="#DejaVuSans-112"/>
     <use x="792.431641" xlink:href="#DejaVuSans-46"/>
    </g>
   </g>
   <g id="legend_1">
    <g id="patch_7">
     <path d="M 64.6 64.150125 
L 142.8125 64.150125 
Q 144.8125 64.150125 144.8125 62.150125 
L 144.8125 48.472 
Q 144.8125 46.472 142.8125 46.472 
L 64.6 46.472 
Q 62.6 46.472 62.6 48.472 
L 62.6 62.150125 
Q 62.6 64.150125 64.6 64.150125 
z
" style="fill:#ffffff;opacity:0.8;stroke:#cccccc;stroke-linejoin:miter;"/>
    </g>
    <g id="line2d_21">
     <path d="M 66.6 54.570437 
L 86.6 54.570437 
" style="fill:none;stroke:#1f77b4;stroke-linecap:square;stroke-width:1.5;"/>
    </g>
    <g id="line2d_22"/>
    <g id="text_22">
     <!-- Adj Close -->
     <g transform="translate(94.6 58.070437)scale(0.1 -0.1)">
      <defs>
       <path d="M 34.1875 63.1875 
L 20.796875 26.90625 
L 47.609375 26.90625 
z
M 28.609375 72.90625 
L 39.796875 72.90625 
L 67.578125 0 
L 57.328125 0 
L 50.6875 18.703125 
L 17.828125 18.703125 
L 11.1875 0 
L 0.78125 0 
z
" id="DejaVuSans-65"/>
       <path d="M 45.40625 46.390625 
L 45.40625 75.984375 
L 54.390625 75.984375 
L 54.390625 0 
L 45.40625 0 
L 45.40625 8.203125 
Q 42.578125 3.328125 38.25 0.953125 
Q 33.9375 -1.421875 27.875 -1.421875 
Q 17.96875 -1.421875 11.734375 6.484375 
Q 5.515625 14.40625 5.515625 27.296875 
Q 5.515625 40.1875 11.734375 48.09375 
Q 17.96875 56 27.875 56 
Q 33.9375 56 38.25 53.625 
Q 42.578125 51.265625 45.40625 46.390625 
z
M 14.796875 27.296875 
Q 14.796875 17.390625 18.875 11.75 
Q 22.953125 6.109375 30.078125 6.109375 
Q 37.203125 6.109375 41.296875 11.75 
Q 45.40625 17.390625 45.40625 27.296875 
Q 45.40625 37.203125 41.296875 42.84375 
Q 37.203125 48.484375 30.078125 48.484375 
Q 22.953125 48.484375 18.875 42.84375 
Q 14.796875 37.203125 14.796875 27.296875 
z
" id="DejaVuSans-100"/>
       <path d="M 9.421875 54.6875 
L 18.40625 54.6875 
L 18.40625 -0.984375 
Q 18.40625 -11.421875 14.421875 -16.109375 
Q 10.453125 -20.796875 1.609375 -20.796875 
L -1.8125 -20.796875 
L -1.8125 -13.1875 
L 0.59375 -13.1875 
Q 5.71875 -13.1875 7.5625 -10.8125 
Q 9.421875 -8.453125 9.421875 -0.984375 
z
M 9.421875 75.984375 
L 18.40625 75.984375 
L 18.40625 64.59375 
L 9.421875 64.59375 
z
" id="DejaVuSans-106"/>
       <path d="M 9.421875 75.984375 
L 18.40625 75.984375 
L 18.40625 0 
L 9.421875 0 
z
" id="DejaVuSans-108"/>
       <path d="M 44.28125 53.078125 
L 44.28125 44.578125 
Q 40.484375 46.53125 36.375 47.5 
Q 32.28125 48.484375 27.875 48.484375 
Q 21.1875 48.484375 17.84375 46.4375 
Q 14.5 44.390625 14.5 40.28125 
Q 14.5 37.15625 16.890625 35.375 
Q 19.28125 33.59375 26.515625 31.984375 
L 29.59375 31.296875 
Q 39.15625 29.25 43.1875 25.515625 
Q 47.21875 21.78125 47.21875 15.09375 
Q 47.21875 7.46875 41.1875 3.015625 
Q 35.15625 -1.421875 24.609375 -1.421875 
Q 20.21875 -1.421875 15.453125 -0.5625 
Q 10.6875 0.296875 5.421875 2 
L 5.421875 11.28125 
Q 10.40625 8.6875 15.234375 7.390625 
Q 20.0625 6.109375 24.8125 6.109375 
Q 31.15625 6.109375 34.5625 8.28125 
Q 37.984375 10.453125 37.984375 14.40625 
Q 37.984375 18.0625 35.515625 20.015625 
Q 33.0625 21.96875 24.703125 23.78125 
L 21.578125 24.515625 
Q 13.234375 26.265625 9.515625 29.90625 
Q 5.8125 33.546875 5.8125 39.890625 
Q 5.8125 47.609375 11.28125 51.796875 
Q 16.75 56 26.8125 56 
Q 31.78125 56 36.171875 55.265625 
Q 40.578125 54.546875 44.28125 53.078125 
z
" id="DejaVuSans-115"/>
      </defs>
      <use xlink:href="#DejaVuSans-65"/>
      <use x="66.658203" xlink:href="#DejaVuSans-100"/>
      <use x="130.134766" xlink:href="#DejaVuSans-106"/>
      <use x="157.917969" xlink:href="#DejaVuSans-32"/>
      <use x="189.705078" xlink:href="#DejaVuSans-67"/>
      <use x="259.529297" xlink:href="#DejaVuSans-108"/>
      <use x="287.3125" xlink:href="#DejaVuSans-111"/>
      <use x="348.494141" xlink:href="#DejaVuSans-115"/>
      <use x="400.59375" xlink:href="#DejaVuSans-101"/>
     </g>
    </g>
   </g>
  </g>
 </g>
 <defs>
  <clipPath id="p42a9d8c19a">
   <rect height="235.008" width="357.12" x="57.6" y="41.472"/>
  </clipPath>
 </defs>
</svg>
