<?xml version="1.0" encoding="utf-8" standalone="no"?>
<!DOCTYPE svg PUBLIC "-//W3C//DTD SVG 1.1//EN"
  "http://www.w3.org/Graphics/SVG/1.1/DTD/svg11.dtd">
<!-- Created with matplotlib (https://matplotlib.org/) -->
<svg height="345.6pt" version="1.1" viewBox="0 0 460.8 345.6" width="460.8pt" xmlns="http://www.w3.org/2000/svg" xmlns:xlink="http://www.w3.org/1999/xlink">
 <metadata>
  <rdf:RDF xmlns:cc="http://creativecommons.org/ns#" xmlns:dc="http://purl.org/dc/elements/1.1/" xmlns:rdf="http://www.w3.org/1999/02/22-rdf-syntax-ns#">
   <cc:Work>
    <dc:type rdf:resource="http://purl.org/dc/dcmitype/StillImage"/>
    <dc:date>2021-03-05T02:01:31.107566</dc:date>
    <dc:format>image/svg+xml</dc:format>
    <dc:creator>
     <cc:Agent>
      <dc:title>Matplotlib v3.3.4, https://matplotlib.org/</dc:title>
     </cc:Agent>
    </dc:creator>
   </cc:Work>
  </rdf:RDF>
 </metadata>
 <defs>
  <style type="text/css">*{stroke-linecap:butt;stroke-linejoin:round;}</style>
 </defs>
 <g id="figure_1">
  <g id="patch_1">
   <path d="M 0 345.6 
L 460.8 345.6 
L 460.8 0 
L 0 0 
z
" style="fill:#ffffff;"/>
  </g>
  <g id="axes_1">
   <g id="patch_2">
    <path d="M 57.6 276.48 
L 414.72 276.48 
L 414.72 41.472 
L 57.6 41.472 
z
" style="fill:#ffffff;"/>
   </g>
   <g id="matplotlib.axis_1">
    <g id="xtick_1">
     <g id="line2d_1">
      <defs>
       <path d="M 0 0 
L 0 3.5 
" id="m3c22931f95" style="stroke:#000000;stroke-width:0.8;"/>
      </defs>
      <g>
       <use style="stroke:#000000;stroke-width:0.8;" x="71.826383" xlink:href="#m3c22931f95" y="276.48"/>
      </g>
     </g>
     <g id="text_1">
      <!-- 2002 -->
      <g transform="translate(48.746192 302.78544)rotate(-30)scale(0.1 -0.1)">
       <defs>
        <path d="M 19.1875 8.296875 
L 53.609375 8.296875 
L 53.609375 0 
L 7.328125 0 
L 7.328125 8.296875 
Q 12.9375 14.109375 22.625 23.890625 
Q 32.328125 33.6875 34.8125 36.53125 
Q 39.546875 41.84375 41.421875 45.53125 
Q 43.3125 49.21875 43.3125 52.78125 
Q 43.3125 58.59375 39.234375 62.25 
Q 35.15625 65.921875 28.609375 65.921875 
Q 23.96875 65.921875 18.8125 64.3125 
Q 13.671875 62.703125 7.8125 59.421875 
L 7.8125 69.390625 
Q 13.765625 71.78125 18.9375 73 
Q 24.125 74.21875 28.421875 74.21875 
Q 39.75 74.21875 46.484375 68.546875 
Q 53.21875 62.890625 53.21875 53.421875 
Q 53.21875 48.921875 51.53125 44.890625 
Q 49.859375 40.875 45.40625 35.40625 
Q 44.1875 33.984375 37.640625 27.21875 
Q 31.109375 20.453125 19.1875 8.296875 
z
" id="DejaVuSans-50"/>
        <path d="M 31.78125 66.40625 
Q 24.171875 66.40625 20.328125 58.90625 
Q 16.5 51.421875 16.5 36.375 
Q 16.5 21.390625 20.328125 13.890625 
Q 24.171875 6.390625 31.78125 6.390625 
Q 39.453125 6.390625 43.28125 13.890625 
Q 47.125 21.390625 47.125 36.375 
Q 47.125 51.421875 43.28125 58.90625 
Q 39.453125 66.40625 31.78125 66.40625 
z
M 31.78125 74.21875 
Q 44.046875 74.21875 50.515625 64.515625 
Q 56.984375 54.828125 56.984375 36.375 
Q 56.984375 17.96875 50.515625 8.265625 
Q 44.046875 -1.421875 31.78125 -1.421875 
Q 19.53125 -1.421875 13.0625 8.265625 
Q 6.59375 17.96875 6.59375 36.375 
Q 6.59375 54.828125 13.0625 64.515625 
Q 19.53125 74.21875 31.78125 74.21875 
z
" id="DejaVuSans-48"/>
       </defs>
       <use xlink:href="#DejaVuSans-50"/>
       <use x="63.623047" xlink:href="#DejaVuSans-48"/>
       <use x="127.246094" xlink:href="#DejaVuSans-48"/>
       <use x="190.869141" xlink:href="#DejaVuSans-50"/>
      </g>
     </g>
    </g>
    <g id="xtick_2">
     <g id="line2d_2">
      <g>
       <use style="stroke:#000000;stroke-width:0.8;" x="105.887581" xlink:href="#m3c22931f95" y="276.48"/>
      </g>
     </g>
     <g id="text_2">
      <!-- 2004 -->
      <g transform="translate(82.807391 302.78544)rotate(-30)scale(0.1 -0.1)">
       <defs>
        <path d="M 37.796875 64.3125 
L 12.890625 25.390625 
L 37.796875 25.390625 
z
M 35.203125 72.90625 
L 47.609375 72.90625 
L 47.609375 25.390625 
L 58.015625 25.390625 
L 58.015625 17.1875 
L 47.609375 17.1875 
L 47.609375 0 
L 37.796875 0 
L 37.796875 17.1875 
L 4.890625 17.1875 
L 4.890625 26.703125 
z
" id="DejaVuSans-52"/>
       </defs>
       <use xlink:href="#DejaVuSans-50"/>
       <use x="63.623047" xlink:href="#DejaVuSans-48"/>
       <use x="127.246094" xlink:href="#DejaVuSans-48"/>
       <use x="190.869141" xlink:href="#DejaVuSans-52"/>
      </g>
     </g>
    </g>
    <g id="xtick_3">
     <g id="line2d_3">
      <g>
       <use style="stroke:#000000;stroke-width:0.8;" x="139.995439" xlink:href="#m3c22931f95" y="276.48"/>
      </g>
     </g>
     <g id="text_3">
      <!-- 2006 -->
      <g transform="translate(116.915248 302.78544)rotate(-30)scale(0.1 -0.1)">
       <defs>
        <path d="M 33.015625 40.375 
Q 26.375 40.375 22.484375 35.828125 
Q 18.609375 31.296875 18.609375 23.390625 
Q 18.609375 15.53125 22.484375 10.953125 
Q 26.375 6.390625 33.015625 6.390625 
Q 39.65625 6.390625 43.53125 10.953125 
Q 47.40625 15.53125 47.40625 23.390625 
Q 47.40625 31.296875 43.53125 35.828125 
Q 39.65625 40.375 33.015625 40.375 
z
M 52.59375 71.296875 
L 52.59375 62.3125 
Q 48.875 64.0625 45.09375 64.984375 
Q 41.3125 65.921875 37.59375 65.921875 
Q 27.828125 65.921875 22.671875 59.328125 
Q 17.53125 52.734375 16.796875 39.40625 
Q 19.671875 43.65625 24.015625 45.921875 
Q 28.375 48.1875 33.59375 48.1875 
Q 44.578125 48.1875 50.953125 41.515625 
Q 57.328125 34.859375 57.328125 23.390625 
Q 57.328125 12.15625 50.6875 5.359375 
Q 44.046875 -1.421875 33.015625 -1.421875 
Q 20.359375 -1.421875 13.671875 8.265625 
Q 6.984375 17.96875 6.984375 36.375 
Q 6.984375 53.65625 15.1875 63.9375 
Q 23.390625 74.21875 37.203125 74.21875 
Q 40.921875 74.21875 44.703125 73.484375 
Q 48.484375 72.75 52.59375 71.296875 
z
" id="DejaVuSans-54"/>
       </defs>
       <use xlink:href="#DejaVuSans-50"/>
       <use x="63.623047" xlink:href="#DejaVuSans-48"/>
       <use x="127.246094" xlink:href="#DejaVuSans-48"/>
       <use x="190.869141" xlink:href="#DejaVuSans-54"/>
      </g>
     </g>
    </g>
    <g id="xtick_4">
     <g id="line2d_4">
      <g>
       <use style="stroke:#000000;stroke-width:0.8;" x="174.056637" xlink:href="#m3c22931f95" y="276.48"/>
      </g>
     </g>
     <g id="text_4">
      <!-- 2008 -->
      <g transform="translate(150.976447 302.78544)rotate(-30)scale(0.1 -0.1)">
       <defs>
        <path d="M 31.78125 34.625 
Q 24.75 34.625 20.71875 30.859375 
Q 16.703125 27.09375 16.703125 20.515625 
Q 16.703125 13.921875 20.71875 10.15625 
Q 24.75 6.390625 31.78125 6.390625 
Q 38.8125 6.390625 42.859375 10.171875 
Q 46.921875 13.96875 46.921875 20.515625 
Q 46.921875 27.09375 42.890625 30.859375 
Q 38.875 34.625 31.78125 34.625 
z
M 21.921875 38.8125 
Q 15.578125 40.375 12.03125 44.71875 
Q 8.5 49.078125 8.5 55.328125 
Q 8.5 64.0625 14.71875 69.140625 
Q 20.953125 74.21875 31.78125 74.21875 
Q 42.671875 74.21875 48.875 69.140625 
Q 55.078125 64.0625 55.078125 55.328125 
Q 55.078125 49.078125 51.53125 44.71875 
Q 48 40.375 41.703125 38.8125 
Q 48.828125 37.15625 52.796875 32.3125 
Q 56.78125 27.484375 56.78125 20.515625 
Q 56.78125 9.90625 50.3125 4.234375 
Q 43.84375 -1.421875 31.78125 -1.421875 
Q 19.734375 -1.421875 13.25 4.234375 
Q 6.78125 9.90625 6.78125 20.515625 
Q 6.78125 27.484375 10.78125 32.3125 
Q 14.796875 37.15625 21.921875 38.8125 
z
M 18.3125 54.390625 
Q 18.3125 48.734375 21.84375 45.5625 
Q 25.390625 42.390625 31.78125 42.390625 
Q 38.140625 42.390625 41.71875 45.5625 
Q 45.3125 48.734375 45.3125 54.390625 
Q 45.3125 60.0625 41.71875 63.234375 
Q 38.140625 66.40625 31.78125 66.40625 
Q 25.390625 66.40625 21.84375 63.234375 
Q 18.3125 60.0625 18.3125 54.390625 
z
" id="DejaVuSans-56"/>
       </defs>
       <use xlink:href="#DejaVuSans-50"/>
       <use x="63.623047" xlink:href="#DejaVuSans-48"/>
       <use x="127.246094" xlink:href="#DejaVuSans-48"/>
       <use x="190.869141" xlink:href="#DejaVuSans-56"/>
      </g>
     </g>
    </g>
    <g id="xtick_5">
     <g id="line2d_5">
      <g>
       <use style="stroke:#000000;stroke-width:0.8;" x="208.164494" xlink:href="#m3c22931f95" y="276.48"/>
      </g>
     </g>
     <g id="text_5">
      <!-- 2010 -->
      <g transform="translate(185.084304 302.78544)rotate(-30)scale(0.1 -0.1)">
       <defs>
        <path d="M 12.40625 8.296875 
L 28.515625 8.296875 
L 28.515625 63.921875 
L 10.984375 60.40625 
L 10.984375 69.390625 
L 28.421875 72.90625 
L 38.28125 72.90625 
L 38.28125 8.296875 
L 54.390625 8.296875 
L 54.390625 0 
L 12.40625 0 
z
" id="DejaVuSans-49"/>
       </defs>
       <use xlink:href="#DejaVuSans-50"/>
       <use x="63.623047" xlink:href="#DejaVuSans-48"/>
       <use x="127.246094" xlink:href="#DejaVuSans-49"/>
       <use x="190.869141" xlink:href="#DejaVuSans-48"/>
      </g>
     </g>
    </g>
    <g id="xtick_6">
     <g id="line2d_6">
      <g>
       <use style="stroke:#000000;stroke-width:0.8;" x="242.225693" xlink:href="#m3c22931f95" y="276.48"/>
      </g>
     </g>
     <g id="text_6">
      <!-- 2012 -->
      <g transform="translate(219.145503 302.78544)rotate(-30)scale(0.1 -0.1)">
       <use xlink:href="#DejaVuSans-50"/>
       <use x="63.623047" xlink:href="#DejaVuSans-48"/>
       <use x="127.246094" xlink:href="#DejaVuSans-49"/>
       <use x="190.869141" xlink:href="#DejaVuSans-50"/>
      </g>
     </g>
    </g>
    <g id="xtick_7">
     <g id="line2d_7">
      <g>
       <use style="stroke:#000000;stroke-width:0.8;" x="276.33355" xlink:href="#m3c22931f95" y="276.48"/>
      </g>
     </g>
     <g id="text_7">
      <!-- 2014 -->
      <g transform="translate(253.25336 302.78544)rotate(-30)scale(0.1 -0.1)">
       <use xlink:href="#DejaVuSans-50"/>
       <use x="63.623047" xlink:href="#DejaVuSans-48"/>
       <use x="127.246094" xlink:href="#DejaVuSans-49"/>
       <use x="190.869141" xlink:href="#DejaVuSans-52"/>
      </g>
     </g>
    </g>
    <g id="xtick_8">
     <g id="line2d_8">
      <g>
       <use style="stroke:#000000;stroke-width:0.8;" x="310.394749" xlink:href="#m3c22931f95" y="276.48"/>
      </g>
     </g>
     <g id="text_8">
      <!-- 2016 -->
      <g transform="translate(287.314558 302.78544)rotate(-30)scale(0.1 -0.1)">
       <use xlink:href="#DejaVuSans-50"/>
       <use x="63.623047" xlink:href="#DejaVuSans-48"/>
       <use x="127.246094" xlink:href="#DejaVuSans-49"/>
       <use x="190.869141" xlink:href="#DejaVuSans-54"/>
      </g>
     </g>
    </g>
    <g id="xtick_9">
     <g id="line2d_9">
      <g>
       <use style="stroke:#000000;stroke-width:0.8;" x="344.502606" xlink:href="#m3c22931f95" y="276.48"/>
      </g>
     </g>
     <g id="text_9">
      <!-- 2018 -->
      <g transform="translate(321.422416 302.78544)rotate(-30)scale(0.1 -0.1)">
       <use xlink:href="#DejaVuSans-50"/>
       <use x="63.623047" xlink:href="#DejaVuSans-48"/>
       <use x="127.246094" xlink:href="#DejaVuSans-49"/>
       <use x="190.869141" xlink:href="#DejaVuSans-56"/>
      </g>
     </g>
    </g>
    <g id="xtick_10">
     <g id="line2d_10">
      <g>
       <use style="stroke:#000000;stroke-width:0.8;" x="378.563805" xlink:href="#m3c22931f95" y="276.48"/>
      </g>
     </g>
     <g id="text_10">
      <!-- 2020 -->
      <g transform="translate(355.483614 302.78544)rotate(-30)scale(0.1 -0.1)">
       <use xlink:href="#DejaVuSans-50"/>
       <use x="63.623047" xlink:href="#DejaVuSans-48"/>
       <use x="127.246094" xlink:href="#DejaVuSans-50"/>
       <use x="190.869141" xlink:href="#DejaVuSans-48"/>
      </g>
     </g>
    </g>
    <g id="xtick_11">
     <g id="line2d_11">
      <g>
       <use style="stroke:#000000;stroke-width:0.8;" x="412.671662" xlink:href="#m3c22931f95" y="276.48"/>
      </g>
     </g>
     <g id="text_11">
      <!-- 2022 -->
      <g transform="translate(389.591472 302.78544)rotate(-30)scale(0.1 -0.1)">
       <use xlink:href="#DejaVuSans-50"/>
       <use x="63.623047" xlink:href="#DejaVuSans-48"/>
       <use x="127.246094" xlink:href="#DejaVuSans-50"/>
       <use x="190.869141" xlink:href="#DejaVuSans-50"/>
      </g>
     </g>
    </g>
    <g id="text_12">
     <!-- Date -->
     <g transform="translate(224.209219 316.18494)scale(0.1 -0.1)">
      <defs>
       <path d="M 19.671875 64.796875 
L 19.671875 8.109375 
L 31.59375 8.109375 
Q 46.6875 8.109375 53.6875 14.9375 
Q 60.6875 21.78125 60.6875 36.53125 
Q 60.6875 51.171875 53.6875 57.984375 
Q 46.6875 64.796875 31.59375 64.796875 
z
M 9.8125 72.90625 
L 30.078125 72.90625 
Q 51.265625 72.90625 61.171875 64.09375 
Q 71.09375 55.28125 71.09375 36.53125 
Q 71.09375 17.671875 61.125 8.828125 
Q 51.171875 0 30.078125 0 
L 9.8125 0 
z
" id="DejaVuSans-68"/>
       <path d="M 34.28125 27.484375 
Q 23.390625 27.484375 19.1875 25 
Q 14.984375 22.515625 14.984375 16.5 
Q 14.984375 11.71875 18.140625 8.90625 
Q 21.296875 6.109375 26.703125 6.109375 
Q 34.1875 6.109375 38.703125 11.40625 
Q 43.21875 16.703125 43.21875 25.484375 
L 43.21875 27.484375 
z
M 52.203125 31.203125 
L 52.203125 0 
L 43.21875 0 
L 43.21875 8.296875 
Q 40.140625 3.328125 35.546875 0.953125 
Q 30.953125 -1.421875 24.3125 -1.421875 
Q 15.921875 -1.421875 10.953125 3.296875 
Q 6 8.015625 6 15.921875 
Q 6 25.140625 12.171875 29.828125 
Q 18.359375 34.515625 30.609375 34.515625 
L 43.21875 34.515625 
L 43.21875 35.40625 
Q 43.21875 41.609375 39.140625 45 
Q 35.0625 48.390625 27.6875 48.390625 
Q 23 48.390625 18.546875 47.265625 
Q 14.109375 46.140625 10.015625 43.890625 
L 10.015625 52.203125 
Q 14.9375 54.109375 19.578125 55.046875 
Q 24.21875 56 28.609375 56 
Q 40.484375 56 46.34375 49.84375 
Q 52.203125 43.703125 52.203125 31.203125 
z
" id="DejaVuSans-97"/>
       <path d="M 18.3125 70.21875 
L 18.3125 54.6875 
L 36.8125 54.6875 
L 36.8125 47.703125 
L 18.3125 47.703125 
L 18.3125 18.015625 
Q 18.3125 11.328125 20.140625 9.421875 
Q 21.96875 7.515625 27.59375 7.515625 
L 36.8125 7.515625 
L 36.8125 0 
L 27.59375 0 
Q 17.1875 0 13.234375 3.875 
Q 9.28125 7.765625 9.28125 18.015625 
L 9.28125 47.703125 
L 2.6875 47.703125 
L 2.6875 54.6875 
L 9.28125 54.6875 
L 9.28125 70.21875 
z
" id="DejaVuSans-116"/>
       <path d="M 56.203125 29.59375 
L 56.203125 25.203125 
L 14.890625 25.203125 
Q 15.484375 15.921875 20.484375 11.0625 
Q 25.484375 6.203125 34.421875 6.203125 
Q 39.59375 6.203125 44.453125 7.46875 
Q 49.3125 8.734375 54.109375 11.28125 
L 54.109375 2.78125 
Q 49.265625 0.734375 44.1875 -0.34375 
Q 39.109375 -1.421875 33.890625 -1.421875 
Q 20.796875 -1.421875 13.15625 6.1875 
Q 5.515625 13.8125 5.515625 26.8125 
Q 5.515625 40.234375 12.765625 48.109375 
Q 20.015625 56 32.328125 56 
Q 43.359375 56 49.78125 48.890625 
Q 56.203125 41.796875 56.203125 29.59375 
z
M 47.21875 32.234375 
Q 47.125 39.59375 43.09375 43.984375 
Q 39.0625 48.390625 32.421875 48.390625 
Q 24.90625 48.390625 20.390625 44.140625 
Q 15.875 39.890625 15.1875 32.171875 
z
" id="DejaVuSans-101"/>
      </defs>
      <use xlink:href="#DejaVuSans-68"/>
      <use x="77.001953" xlink:href="#DejaVuSans-97"/>
      <use x="138.28125" xlink:href="#DejaVuSans-116"/>
      <use x="177.490234" xlink:href="#DejaVuSans-101"/>
     </g>
    </g>
   </g>
   <g id="matplotlib.axis_2">
    <g id="ytick_1">
     <g id="line2d_12">
      <defs>
       <path d="M 0 0 
L -3.5 0 
" id="m34fa16b1bb" style="stroke:#000000;stroke-width:0.8;"/>
      </defs>
      <g>
       <use style="stroke:#000000;stroke-width:0.8;" x="57.6" xlink:href="#m34fa16b1bb" y="267.380335"/>
      </g>
     </g>
     <g id="text_13">
      <!-- 0 -->
      <g transform="translate(44.2375 271.179553)scale(0.1 -0.1)">
       <use xlink:href="#DejaVuSans-48"/>
      </g>
     </g>
    </g>
    <g id="ytick_2">
     <g id="line2d_13">
      <g>
       <use style="stroke:#000000;stroke-width:0.8;" x="57.6" xlink:href="#m34fa16b1bb" y="236.413435"/>
      </g>
     </g>
     <g id="text_14">
      <!-- 50 -->
      <g transform="translate(37.875 240.212654)scale(0.1 -0.1)">
       <defs>
        <path d="M 10.796875 72.90625 
L 49.515625 72.90625 
L 49.515625 64.59375 
L 19.828125 64.59375 
L 19.828125 46.734375 
Q 21.96875 47.46875 24.109375 47.828125 
Q 26.265625 48.1875 28.421875 48.1875 
Q 40.625 48.1875 47.75 41.5 
Q 54.890625 34.8125 54.890625 23.390625 
Q 54.890625 11.625 47.5625 5.09375 
Q 40.234375 -1.421875 26.90625 -1.421875 
Q 22.3125 -1.421875 17.546875 -0.640625 
Q 12.796875 0.140625 7.71875 1.703125 
L 7.71875 11.625 
Q 12.109375 9.234375 16.796875 8.0625 
Q 21.484375 6.890625 26.703125 6.890625 
Q 35.15625 6.890625 40.078125 11.328125 
Q 45.015625 15.765625 45.015625 23.390625 
Q 45.015625 31 40.078125 35.4375 
Q 35.15625 39.890625 26.703125 39.890625 
Q 22.75 39.890625 18.8125 39.015625 
Q 14.890625 38.140625 10.796875 36.28125 
z
" id="DejaVuSans-53"/>
       </defs>
       <use xlink:href="#DejaVuSans-53"/>
       <use x="63.623047" xlink:href="#DejaVuSans-48"/>
      </g>
     </g>
    </g>
    <g id="ytick_3">
     <g id="line2d_14">
      <g>
       <use style="stroke:#000000;stroke-width:0.8;" x="57.6" xlink:href="#m34fa16b1bb" y="205.446535"/>
      </g>
     </g>
     <g id="text_15">
      <!-- 100 -->
      <g transform="translate(31.5125 209.245754)scale(0.1 -0.1)">
       <use xlink:href="#DejaVuSans-49"/>
       <use x="63.623047" xlink:href="#DejaVuSans-48"/>
       <use x="127.246094" xlink:href="#DejaVuSans-48"/>
      </g>
     </g>
    </g>
    <g id="ytick_4">
     <g id="line2d_15">
      <g>
       <use style="stroke:#000000;stroke-width:0.8;" x="57.6" xlink:href="#m34fa16b1bb" y="174.479635"/>
      </g>
     </g>
     <g id="text_16">
      <!-- 150 -->
      <g transform="translate(31.5125 178.278854)scale(0.1 -0.1)">
       <use xlink:href="#DejaVuSans-49"/>
       <use x="63.623047" xlink:href="#DejaVuSans-53"/>
       <use x="127.246094" xlink:href="#DejaVuSans-48"/>
      </g>
     </g>
    </g>
    <g id="ytick_5">
     <g id="line2d_16">
      <g>
       <use style="stroke:#000000;stroke-width:0.8;" x="57.6" xlink:href="#m34fa16b1bb" y="143.512736"/>
      </g>
     </g>
     <g id="text_17">
      <!-- 200 -->
      <g transform="translate(31.5125 147.311954)scale(0.1 -0.1)">
       <use xlink:href="#DejaVuSans-50"/>
       <use x="63.623047" xlink:href="#DejaVuSans-48"/>
       <use x="127.246094" xlink:href="#DejaVuSans-48"/>
      </g>
     </g>
    </g>
    <g id="ytick_6">
     <g id="line2d_17">
      <g>
       <use style="stroke:#000000;stroke-width:0.8;" x="57.6" xlink:href="#m34fa16b1bb" y="112.545836"/>
      </g>
     </g>
     <g id="text_18">
      <!-- 250 -->
      <g transform="translate(31.5125 116.345055)scale(0.1 -0.1)">
       <use xlink:href="#DejaVuSans-50"/>
       <use x="63.623047" xlink:href="#DejaVuSans-53"/>
       <use x="127.246094" xlink:href="#DejaVuSans-48"/>
      </g>
     </g>
    </g>
    <g id="ytick_7">
     <g id="line2d_18">
      <g>
       <use style="stroke:#000000;stroke-width:0.8;" x="57.6" xlink:href="#m34fa16b1bb" y="81.578936"/>
      </g>
     </g>
     <g id="text_19">
      <!-- 300 -->
      <g transform="translate(31.5125 85.378155)scale(0.1 -0.1)">
       <defs>
        <path d="M 40.578125 39.3125 
Q 47.65625 37.796875 51.625 33 
Q 55.609375 28.21875 55.609375 21.1875 
Q 55.609375 10.40625 48.1875 4.484375 
Q 40.765625 -1.421875 27.09375 -1.421875 
Q 22.515625 -1.421875 17.65625 -0.515625 
Q 12.796875 0.390625 7.625 2.203125 
L 7.625 11.71875 
Q 11.71875 9.328125 16.59375 8.109375 
Q 21.484375 6.890625 26.8125 6.890625 
Q 36.078125 6.890625 40.9375 10.546875 
Q 45.796875 14.203125 45.796875 21.1875 
Q 45.796875 27.640625 41.28125 31.265625 
Q 36.765625 34.90625 28.71875 34.90625 
L 20.21875 34.90625 
L 20.21875 43.015625 
L 29.109375 43.015625 
Q 36.375 43.015625 40.234375 45.921875 
Q 44.09375 48.828125 44.09375 54.296875 
Q 44.09375 59.90625 40.109375 62.90625 
Q 36.140625 65.921875 28.71875 65.921875 
Q 24.65625 65.921875 20.015625 65.03125 
Q 15.375 64.15625 9.8125 62.3125 
L 9.8125 71.09375 
Q 15.4375 72.65625 20.34375 73.4375 
Q 25.25 74.21875 29.59375 74.21875 
Q 40.828125 74.21875 47.359375 69.109375 
Q 53.90625 64.015625 53.90625 55.328125 
Q 53.90625 49.265625 50.4375 45.09375 
Q 46.96875 40.921875 40.578125 39.3125 
z
" id="DejaVuSans-51"/>
       </defs>
       <use xlink:href="#DejaVuSans-51"/>
       <use x="63.623047" xlink:href="#DejaVuSans-48"/>
       <use x="127.246094" xlink:href="#DejaVuSans-48"/>
      </g>
     </g>
    </g>
    <g id="ytick_8">
     <g id="line2d_19">
      <g>
       <use style="stroke:#000000;stroke-width:0.8;" x="57.6" xlink:href="#m34fa16b1bb" y="50.612036"/>
      </g>
     </g>
     <g id="text_20">
      <!-- 350 -->
      <g transform="translate(31.5125 54.411255)scale(0.1 -0.1)">
       <use xlink:href="#DejaVuSans-51"/>
       <use x="63.623047" xlink:href="#DejaVuSans-53"/>
       <use x="127.246094" xlink:href="#DejaVuSans-48"/>
      </g>
     </g>
    </g>
   </g>
   <g id="line2d_20">
    <path clip-path="url(#p7078bb3333)" d="M 73.832727 263.189481 
L 74.25266 263.345857 
L 74.485956 263.387556 
L 74.579274 263.341686 
L 74.859229 263.122762 
L 75.045866 262.966386 
L 75.185843 263.00183 
L 75.465798 263.623161 
L 75.559117 263.356281 
L 75.792413 263.08523 
L 75.839072 263.168631 
L 76.212345 263.525166 
L 76.352323 263.564781 
L 76.445641 263.435511 
L 76.538959 263.575206 
L 76.725596 263.418832 
L 76.865574 263.154035 
L 77.378825 263.408406 
L 77.518802 263.043531 
L 77.798757 262.616105 
L 78.078712 263.241606 
L 78.172031 262.953877 
L 78.312008 262.9226 
L 78.358667 263.10608 
L 78.405327 262.949706 
L 78.498645 262.488921 
L 78.685282 262.332546 
L 78.7786 262.53062 
L 78.825259 262.336716 
L 79.058555 262.532705 
L 79.151873 262.595254 
L 79.385169 262.709931 
L 79.431828 262.593171 
L 79.478488 262.686995 
L 79.618465 262.58066 
L 80.038398 263.429256 
L 80.131716 263.003915 
L 80.365012 263.523081 
L 80.45833 263.416747 
L 80.598308 263.249946 
L 80.644967 263.31458 
L 80.738285 263.537676 
L 80.971581 264.004716 
L 81.298195 264.044332 
L 81.438173 263.723242 
L 81.57815 263.564781 
L 81.62481 263.637757 
L 81.718128 263.900466 
L 81.764787 264.231982 
L 81.998083 264.067266 
L 82.044742 264.273682 
L 82.091401 264.200707 
L 82.371356 263.606481 
L 82.651312 262.908006 
L 82.74463 263.262457 
L 83.024585 262.912176 
L 83.071244 263.043531 
L 83.257881 263.21033 
L 83.30454 263.502231 
L 83.351199 263.381301 
L 83.631154 263.043531 
L 83.724473 263.293731 
L 84.004428 263.15195 
L 84.237723 263.331261 
L 84.284383 263.283306 
L 84.377701 262.94345 
L 84.937611 263.737836 
L 84.98427 263.562696 
L 85.497521 263.033105 
L 85.54418 263.383387 
L 85.59084 263.22284 
L 85.684158 263.137356 
L 86.010772 263.704477 
L 86.290727 263.529337 
L 86.337386 263.829576 
L 86.477364 263.752432 
L 86.664001 263.174886 
L 86.803978 263.160291 
L 86.850637 263.397981 
L 86.943956 263.327091 
L 86.990615 263.523081 
L 87.643843 263.372961 
L 87.877139 263.792046 
L 87.923798 263.606481 
L 87.970458 264.086032 
L 88.110435 264.044332 
L 88.203753 264.603112 
L 88.250413 265.437113 
L 88.297072 265.405838 
L 88.763664 265.351628 
L 89.416892 265.180657 
L 89.603529 265.389158 
L 89.930143 265.418348 
L 90.583371 265.729013 
L 90.863326 265.729013 
L 91.2366 265.170232 
L 91.563214 265.191082 
L 91.889828 265.103513 
L 92.076465 265.145212 
L 92.449738 264.851227 
L 92.496398 264.920032 
L 92.543057 264.853312 
L 92.823012 264.878332 
L 93.149626 264.882502 
L 93.196285 264.694853 
L 93.429581 264.761572 
L 93.522899 264.790763 
L 93.756195 264.746977 
L 93.802855 264.799103 
L 94.129469 264.794932 
L 94.176128 264.861653 
L 94.409424 264.888758 
L 94.502742 265.032623 
L 94.64272 264.884588 
L 94.689379 264.932542 
L 94.829356 264.609367 
L 94.969334 264.521797 
L 95.109311 264.671917 
L 95.155971 264.669832 
L 95.482585 264.930457 
L 96.415768 264.730297 
L 96.602405 264.630217 
L 96.695723 264.488437 
L 96.742383 264.557242 
L 96.789042 264.548903 
L 97.115656 264.763658 
L 97.582248 264.509287 
L 97.675566 264.284108 
L 97.722225 264.398783 
L 97.768884 264.450907 
L 97.955521 264.436312 
L 98.095499 264.555157 
L 98.235476 264.628133 
L 98.282135 264.519713 
L 98.375454 264.576007 
L 98.56209 264.440481 
L 98.655409 264.430057 
L 98.748727 264.559327 
L 98.935364 264.586432 
L 99.075341 264.728213 
L 99.355296 264.648983 
L 99.541933 264.669832 
L 99.72857 263.985951 
L 99.868547 263.940082 
L 99.915207 264.054756 
L 99.961866 263.960932 
L 100.241821 263.773282 
L 100.381798 263.627332 
L 100.615094 263.785792 
L 100.708413 263.875446 
L 101.035027 263.804556 
L 101.594937 263.992206 
L 101.828233 263.783706 
L 102.014869 263.748262 
L 102.248165 263.435511 
L 102.294825 263.477211 
L 102.481461 263.616907 
L 102.57478 263.721157 
L 102.668098 264.029737 
L 102.994712 263.873362 
L 103.13469 264.123561 
L 103.181349 264.071436 
L 103.274667 263.856682 
L 103.321326 263.877532 
L 103.507963 263.856682 
L 103.554622 263.779537 
L 103.601281 263.898381 
L 103.647941 264.008887 
L 103.787918 264.044332 
L 103.834577 264.221557 
L 103.881237 264.167348 
L 103.974555 264.008887 
L 104.207851 264.010971 
L 104.441147 264.046416 
L 104.627783 264.315382 
L 104.861079 264.365423 
L 104.907738 264.190282 
L 104.954398 264.223641 
L 105.187693 264.315382 
L 105.281012 264.171517 
L 105.420989 264.244492 
L 105.467648 264.100626 
L 105.514308 264.254917 
L 105.93424 264.225727 
L 106.074218 264.031822 
L 106.214195 263.508487 
L 106.260854 263.633587 
L 106.49415 263.714902 
L 106.587469 263.731582 
L 107.10072 263.825407 
L 107.240697 263.919232 
L 107.520652 263.940082 
L 107.567311 263.748262 
L 107.707289 263.877532 
L 107.753948 263.794132 
L 107.847266 263.731582 
L 107.893926 263.798302 
L 108.173881 263.61482 
L 108.360517 263.666946 
L 108.453836 263.491806 
L 108.500495 263.527251 
L 108.687132 263.510572 
L 108.827109 263.625247 
L 109.013746 263.669031 
L 109.060405 263.683626 
L 109.153723 263.865022 
L 109.200383 263.648181 
L 109.760293 263.837918 
L 110.086907 263.623161 
L 110.180225 263.552271 
L 110.646817 263.533505 
L 110.740135 263.646097 
L 110.833454 263.581461 
L 111.393364 263.629416 
L 111.486682 263.708647 
L 111.813296 263.710731 
L 112.653162 264.169431 
L 112.793139 264.123561 
L 113.119753 264.129817 
L 113.399708 264.081862 
L 114.052937 264.309127 
L 114.099596 264.231982 
L 114.892802 264.252832 
L 115.079439 264.242407 
L 115.266075 264.215301 
L 115.312735 264.144412 
L 115.359394 264.179857 
L 115.406053 264.344573 
L 115.54603 264.342487 
L 115.686008 264.171517 
L 116.059281 264.252832 
L 116.385896 264.252832 
L 116.71251 263.835832 
L 116.992465 263.862936 
L 117.179102 263.812896 
L 117.225761 263.885871 
L 117.27242 263.84834 
L 117.365738 263.781621 
L 117.972308 263.673201 
L 118.018967 263.470957 
L 118.298922 263.658606 
L 118.345581 263.575206 
L 118.578877 263.591887 
L 118.858832 263.162376 
L 118.905491 263.233267 
L 118.998809 263.477211 
L 119.232105 263.450106 
L 119.278765 263.533505 
L 119.325424 263.400066 
L 119.838675 263.325005 
L 119.885334 263.208246 
L 119.931993 263.231181 
L 119.978652 263.295817 
L 120.258607 263.147781 
L 120.445244 262.616105 
L 120.585221 262.920516 
L 120.631881 262.48058 
L 120.771858 262.553556 
L 120.958495 263.09774 
L 121.098472 263.254117 
L 121.285109 262.855882 
L 121.751701 262.99349 
L 122.264952 262.970556 
L 122.451588 262.96013 
L 122.498248 262.807925 
L 122.544907 262.905921 
L 122.731544 262.93511 
L 122.871521 262.697421 
L 123.058158 262.891327 
L 123.198135 262.970556 
L 123.244794 263.304157 
L 124.131319 263.393811 
L 124.177978 263.368791 
L 124.224637 263.460532 
L 124.411274 263.362536 
L 124.457933 263.201992 
L 124.504592 263.291645 
L 124.737888 263.31458 
L 124.831206 263.435511 
L 124.877866 263.387556 
L 125.20448 263.308326 
L 125.484435 263.502231 
L 125.531094 263.370876 
L 125.671072 263.333345 
L 125.811049 263.137356 
L 125.997686 263.041446 
L 126.3243 263.28122 
L 126.370959 262.962215 
L 126.464278 262.995576 
L 126.650914 263.083146 
L 126.697573 263.31458 
L 126.790892 262.678657 
L 126.977529 262.49726 
L 127.164165 262.841286 
L 127.724075 262.893411 
L 127.770735 263.020596 
L 127.817394 262.874646 
L 128.00403 262.355479 
L 128.05069 262.49726 
L 128.097349 262.39301 
L 128.144008 262.449305 
L 128.657259 262.063579 
L 128.703918 262.136556 
L 128.797236 261.994776 
L 129.263828 262.028134 
L 129.637102 261.177454 
L 129.683761 261.419313 
L 129.73042 261.235834 
L 129.777079 261.152435 
L 129.963716 261.30047 
L 130.243671 260.597825 
L 130.336989 260.875129 
L 130.383648 260.647862 
L 130.430308 260.547784 
L 130.616944 260.629098 
L 130.663603 260.391407 
L 130.756922 260.485233 
L 130.943558 260.697903 
L 130.990218 260.604078 
L 131.083536 260.687479 
L 131.223514 260.7959 
L 131.363491 260.560294 
L 131.643446 260.368473 
L 131.923401 259.936877 
L 132.203356 260.086999 
L 132.343334 260.078659 
L 132.52997 260.253798 
L 132.57663 260.280903 
L 132.669948 260.009854 
L 132.716607 260.218353 
L 132.856585 260.268392 
L 132.903244 260.145379 
L 132.949903 260.226694 
L 133.043221 260.666629 
L 133.183199 260.664546 
L 133.276517 260.512339 
L 133.603132 261.240003 
L 133.69645 260.504001 
L 133.883087 260.107849 
L 133.976405 260.197503 
L 134.209701 260.43311 
L 134.582974 259.826373 
L 134.676293 259.845138 
L 134.909588 259.728377 
L 134.956248 259.907689 
L 135.002907 259.870158 
L 135.142884 259.878498 
L 135.236203 260.474809 
L 135.329521 260.33303 
L 135.562817 260.531104 
L 135.656135 260.818834 
L 135.796113 260.923084 
L 135.889431 260.706245 
L 135.982749 260.979379 
L 136.122727 260.866788 
L 136.169386 260.937679 
L 136.309364 260.927254 
L 136.449341 260.802153 
L 136.635978 260.272564 
L 136.775955 260.143294 
L 136.822615 259.943133 
L 136.915933 260.491489 
L 136.962592 260.191249 
L 137.429184 259.624128 
L 137.475843 259.793014 
L 137.522502 259.674168 
L 137.569161 259.711698 
L 137.615821 259.893093 
L 137.755798 259.851392 
L 137.849117 259.989003 
L 137.895776 259.932707 
L 138.082412 259.499028 
L 138.175731 259.986917 
L 138.269049 259.761738 
L 138.549004 260.372643 
L 138.595663 260.041128 
L 139.062255 260.260055 
L 139.248892 260.80424 
L 139.575506 260.993974 
L 139.762143 260.943934 
L 139.90212 260.74586 
L 140.088757 260.643694 
L 140.182075 259.601194 
L 140.228734 259.348907 
L 140.415371 259.311378 
L 140.46203 259.2113 
L 140.50869 259.344737 
L 140.555349 259.386439 
L 141.115259 259.392692 
L 141.675169 258.393975 
L 141.861806 258.940246 
L 142.048442 258.929822 
L 142.095102 258.908971 
L 142.141761 258.685875 
L 142.18842 258.800552 
L 142.375057 258.933994 
L 142.421716 258.823487 
L 142.468375 259.048668 
L 142.515034 259.029903 
L 142.701671 259.034071 
L 142.841648 258.831827 
L 142.981626 258.875612 
L 143.121603 259.405203 
L 143.168263 259.290528 
L 143.30824 259.22381 
L 143.354899 258.948587 
L 143.448218 259.019477 
L 143.494877 258.810976 
L 143.634854 258.748428 
L 143.728173 257.906088 
L 143.774832 257.960295 
L 143.821491 257.620439 
L 143.961469 257.605848 
L 144.008128 257.716352 
L 144.054787 257.580825 
L 144.148105 257.551634 
L 144.288083 257.693416 
L 144.42806 257.165909 
L 144.614697 257.234715 
L 144.754675 257.610018 
L 144.98797 257.626694 
L 145.081289 257.472406 
L 145.127948 257.582912 
L 145.314585 257.622528 
L 145.407903 257.507851 
L 145.454562 257.539125 
L 145.781176 257.326455 
L 146.014472 257.70384 
L 146.107791 258.216751 
L 146.247768 258.323087 
L 146.387746 257.918596 
L 146.434405 258.00408 
L 146.667701 258.612901 
L 146.761019 258.293899 
L 146.947656 258.585797 
L 147.040974 258.220921 
L 147.087633 258.325173 
L 147.227611 258.838081 
L 147.320929 258.779704 
L 147.600884 259.142491 
L 147.694203 258.779704 
L 147.880839 259.474008 
L 147.927498 259.732546 
L 147.974158 259.369757 
L 148.020817 259.705444 
L 148.067476 259.526133 
L 148.254113 259.711698 
L 148.300772 259.636639 
L 148.39409 258.623326 
L 148.720704 259.440649 
L 148.954 259.684592 
L 149.00066 259.177938 
L 149.047319 259.261337 
L 149.187296 259.526133 
L 149.280615 258.848509 
L 149.327274 259.275933 
L 149.373933 259.484429 
L 149.653888 258.863102 
L 149.700547 258.577456 
L 149.840525 258.704642 
L 149.887184 258.942333 
L 149.980502 258.120842 
L 150.027161 258.143775 
L 150.213798 258.133353 
L 150.260457 258.25011 
L 150.307116 258.089568 
L 150.353776 257.6955 
L 150.540412 257.724692 
L 150.587072 257.580825 
L 150.68039 258.116671 
L 150.820367 258.400231 
L 150.867027 258.287641 
L 150.913686 258.281387 
L 151.007004 258.652516 
L 151.520255 258.168797 
L 151.613573 258.270962 
L 151.893528 257.382751 
L 151.940188 257.543295 
L 151.986847 257.445301 
L 152.266802 257.195102 
L 152.313461 257.553721 
L 152.500098 257.320201 
L 152.640075 257.730946 
L 152.780053 257.766393 
L 152.92003 257.324371 
L 152.966689 257.453641 
L 153.153326 257.37441 
L 153.293304 256.596704 
L 153.433281 256.588366 
L 153.5266 256.750994 
L 153.573259 256.690529 
L 153.619918 256.694699 
L 153.759895 256.519559 
L 153.853214 257.022047 
L 153.946532 256.613386 
L 154.179828 256.936561 
L 154.226487 256.892777 
L 154.273146 256.221405 
L 154.506442 256.273531 
L 154.553101 256.54041 
L 154.599761 256.47786 
L 154.739738 256.47786 
L 154.786397 256.308974 
L 154.833057 256.38612 
L 155.066352 256.713464 
L 155.252989 255.568801 
L 155.439626 256.037924 
L 155.486285 255.871125 
L 155.532944 255.693901 
L 155.579603 255.791895 
L 156.046195 255.447872 
L 156.139513 255.645944 
L 156.186173 255.497908 
L 156.232832 255.579226 
L 156.466128 255.879466 
L 156.512787 255.810657 
L 156.559446 255.860699 
L 156.746083 255.908655 
L 156.839401 255.748109 
L 156.88606 255.889889 
L 157.119356 255.933675 
L 157.212674 255.810657 
L 157.352652 256.017075 
L 157.49263 255.283154 
L 157.539289 255.362385 
L 157.772585 255.379062 
L 158.05254 255.929503 
L 158.099199 255.754364 
L 158.192517 256.4862 
L 158.519131 256.142176 
L 158.705768 256.384035 
L 158.752427 256.181791 
L 158.845746 256.219316 
L 158.985723 256.321483 
L 159.079042 256.138008 
L 159.125701 256.177618 
L 159.358997 256.140091 
L 159.405656 255.846103 
L 159.452315 256.056691 
L 159.825588 256.68636 
L 159.965566 256.719722 
L 160.29218 255.948267 
L 160.385498 256.273531 
L 160.432158 256.087965 
L 160.478817 256.236 
L 160.712113 255.858616 
L 160.758772 255.987887 
L 160.805431 255.983713 
L 160.945409 255.716836 
L 161.038727 253.786121 
L 161.085386 253.861183 
L 161.412 253.485885 
L 161.598637 253.577621 
L 161.691955 253.060544 
L 161.738615 253.23985 
L 161.785274 253.289893 
L 161.97191 253.223172 
L 162.065229 253.606814 
L 162.251865 252.806171 
L 162.438502 253.364952 
L 162.57848 253.548434 
L 162.671798 253.285725 
L 162.718457 253.373292 
L 162.765116 253.515074 
L 162.998412 253.410824 
L 163.091731 253.769444 
L 163.231708 253.627666 
L 163.371686 252.535122 
L 163.418345 252.53929 
L 163.604982 251.66776 
L 163.6983 252.697753 
L 163.744959 252.45589 
L 163.931596 252.359982 
L 164.211551 251.425898 
L 164.25821 251.475944 
L 164.351528 252.193182 
L 164.398188 251.838728 
L 164.538165 251.988851 
L 164.584824 252.218201 
L 164.631483 251.942983 
L 164.678143 251.842901 
L 164.724802 251.029754 
L 164.864779 250.625262 
L 164.911439 250.679471 
L 164.958098 250.862951 
L 165.004757 250.679471 
L 165.191394 250.708659 
L 165.238053 250.904646 
L 165.284712 250.541857 
L 165.331371 250.733684 
L 165.37803 251.075623 
L 165.844622 249.345068 
L 165.93794 249.970571 
L 165.9846 249.691177 
L 166.031259 249.866318 
L 166.171236 249.837126 
L 166.217895 250.02895 
L 166.311214 250.003927 
L 166.357873 249.895511 
L 166.49785 250.245795 
L 166.591169 249.862152 
L 166.684487 250.533521 
L 166.824465 250.400084 
L 166.917783 250.658619 
L 166.964442 250.070648 
L 167.011101 250.887968 
L 167.151079 250.450118 
L 167.244397 249.015639 
L 167.337716 250.750357 
L 167.477693 250.412592 
L 167.617671 251.125658 
L 167.944285 247.593671 
L 167.990944 246.768004 
L 168.130922 247.068244 
L 168.177581 248.02318 
L 168.317558 246.471933 
L 168.504195 246.059109 
L 168.644173 247.276746 
L 168.78415 247.026546 
L 168.970787 245.754692 
L 169.110764 245.946516 
L 169.530697 242.869057 
L 169.624015 243.882366 
L 169.763993 243.96577 
L 169.810652 243.36112 
L 169.857311 243.773945 
L 169.90397 244.599605 
L 169.950629 243.728075 
L 170.090607 243.757267 
L 170.183925 242.789823 
L 170.230585 243.590466 
L 170.277244 243.444513 
L 170.51054 242.981649 
L 170.557199 243.031686 
L 170.603858 243.719732 
L 170.743835 243.71139 
L 170.790495 242.339469 
L 170.837154 243.140103 
L 170.883813 243.773945 
L 170.930472 243.427837 
L 171.07045 243.081723 
L 171.117109 243.402818 
L 171.163768 242.685577 
L 171.210427 243.256869 
L 171.257086 243.807307 
L 171.397064 243.619658 
L 171.443723 242.906582 
L 171.490382 243.853174 
L 171.537041 244.111714 
L 171.583701 245.371056 
L 171.723678 245.696318 
L 171.863656 244.057502 
L 172.143611 246.813878 
L 172.236929 246.467766 
L 172.376907 245.913151 
L 172.563543 243.423668 
L 172.703521 243.36112 
L 172.75018 243.523744 
L 172.890158 242.03505 
L 173.030135 242.360315 
L 173.170113 243.381963 
L 173.216772 243.106745 
L 173.356749 243.131767 
L 173.496727 241.484615 
L 173.543386 241.755667 
L 173.683364 240.984209 
L 174.009978 241.48044 
L 174.523229 245.646271 
L 174.663206 244.983246 
L 174.803184 246.647077 
L 174.849843 246.813878 
L 175.03648 246.334327 
L 175.129798 245.521175 
L 175.176457 246.697117 
L 175.316435 246.30097 
L 175.409753 246.913953 
L 175.503071 245.479477 
L 175.643049 245.696318 
L 175.783026 246.876427 
L 175.829686 246.430237 
L 175.969663 246.430237 
L 176.109641 248.298398 
L 176.1563 247.518605 
L 176.342937 247.839702 
L 176.389596 248.306735 
L 176.436255 248.202491 
L 176.482914 248.085727 
L 176.622892 248.1733 
L 176.71621 247.610345 
L 176.809528 249.716203 
L 176.949506 249.557738 
L 177.042824 248.519405 
L 177.089483 249.299201 
L 177.136143 249.582757 
L 177.27612 249.31171 
L 177.416098 247.710429 
L 177.462757 246.926472 
L 177.602734 247.781316 
L 177.696053 247.789661 
L 177.742712 246.455254 
L 177.929349 244.866487 
L 177.976008 244.924867 
L 178.069326 244.862315 
L 178.115985 245.742185 
L 178.255963 245.817244 
L 178.39594 243.861511 
L 178.442599 243.853174 
L 178.582577 244.003292 
L 178.675895 244.991589 
L 178.769214 244.637135 
L 178.909191 244.491186 
L 179.049169 243.594636 
L 179.095828 243.761437 
L 179.282465 244.507866 
L 179.329124 244.357749 
L 179.422442 243.953256 
L 179.609079 244.599605 
L 179.655738 244.428636 
L 179.702397 243.865684 
L 179.749056 244.866487 
L 179.889034 245.383563 
L 179.935693 244.904017 
L 180.029011 246.088302 
L 180.075671 246.01741 
L 180.355626 244.257661 
L 180.542262 245.612914 
L 180.68224 247.009869 
L 180.728899 246.793026 
L 180.915536 246.738819 
L 180.962195 246.409387 
L 181.008854 246.868085 
L 181.055513 246.697117 
L 181.195491 246.880592 
L 181.382128 248.61532 
L 181.522105 248.26921 
L 181.615423 249.653651 
L 181.662083 249.482681 
L 181.848719 247.38934 
L 181.942038 247.927268 
L 181.988697 247.38934 
L 182.035356 248.440183 
L 182.175334 248.306735 
L 182.221993 248.448517 
L 182.268652 248.189974 
L 182.36197 249.520211 
L 182.641925 251.209065 
L 182.828562 250.967202 
L 182.875221 250.404247 
L 182.92188 250.958862 
L 182.96854 251.150683 
L 183.015199 251.000563 
L 183.201835 250.19575 
L 183.341813 248.51107 
L 183.48179 249.428474 
L 183.52845 249.265839 
L 183.575109 248.936403 
L 183.668427 250.05814 
L 183.808405 250.45846 
L 183.855064 250.07482 
L 183.901723 250.27498 
L 184.135019 250.938009 
L 184.181678 249.491021 
L 184.228337 249.54106 
L 184.274996 250.108185 
L 184.321656 248.940583 
L 184.461633 248.29423 
L 184.508292 248.552773 
L 184.64827 249.361752 
L 184.788247 248.957261 
L 184.834907 249.015639 
L 184.928225 249.249166 
L 184.974884 248.965603 
L 185.20818 249.407616 
L 185.254839 248.994788 
L 185.301498 249.086528 
L 185.488135 248.456858 
L 185.628113 249.186606 
L 185.76809 248.915561 
L 186.188023 251.701124 
L 186.281341 251.65942 
L 186.514637 252.952124 
L 186.607955 252.301602 
L 186.794592 253.114755 
L 186.841251 252.351642 
L 186.88791 252.447548 
L 187.074547 253.15645 
L 187.214525 255.249796 
L 187.261184 255.245626 
L 187.401161 253.40248 
L 187.49448 255.816917 
L 187.541139 254.532555 
L 187.727775 253.540094 
L 187.914412 256.650915 
L 188.05439 256.867757 
L 188.194367 255.108016 
L 188.241026 255.958695 
L 188.381004 256.133833 
L 188.427663 255.808578 
L 188.520981 257.451557 
L 188.567641 256.913626 
L 188.707618 257.172167 
L 188.800937 258.189649 
L 188.847596 257.026213 
L 188.894255 257.672564 
L 189.080892 258.118757 
L 189.17421 260.08283 
L 189.220869 259.882668 
L 189.454165 258.206326 
L 189.547483 258.268879 
L 189.780779 259.519877 
L 190.014075 256.955326 
L 190.154053 257.856046 
L 190.200712 257.318117 
L 190.340689 257.739285 
L 190.387349 256.667595 
L 190.434008 256.675934 
L 190.480667 257.209699 
L 190.527326 257.122126 
L 190.713963 258.131266 
L 190.760622 257.660056 
L 190.85394 257.730946 
L 191.087236 258.348107 
L 191.320532 257.443216 
L 191.41385 257.951957 
L 191.507169 256.484116 
L 191.647146 256.759336 
L 191.740465 257.610018 
L 191.787124 257.443216 
L 191.833783 257.088764 
L 192.02042 257.768476 
L 192.160397 256.617556 
L 192.300375 256.304808 
L 192.347034 256.384035 
L 192.393693 255.645944 
L 192.440352 256.404882 
L 192.487011 257.047064 
L 192.720307 256.542494 
L 192.813626 255.700154 
L 193.14024 256.434075 
L 193.373536 257.009535 
L 193.466854 256.254766 
L 193.606832 256.446586 
L 193.70015 255.575054 
L 193.746809 256.121325 
L 193.793468 256.154688 
L 193.980105 256.546666 
L 194.026764 255.996225 
L 194.120083 258.047865 
L 194.26006 257.831028 
L 194.400038 256.788528 
L 194.446697 256.680104 
L 194.586674 257.201355 
L 194.633334 256.976176 
L 194.679993 257.026213 
L 194.959948 256.100475 
L 195.053266 256.450754 
L 195.099925 255.775214 
L 195.239903 256.092135 
L 195.37988 254.828623 
L 195.426539 254.962063 
L 195.566517 255.445784 
L 195.659835 254.728543 
L 195.706495 253.861183 
L 195.893131 253.91539 
L 196.219745 255.537524 
L 196.406382 254.324052 
L 196.732996 255.145543 
L 196.919633 255.249796 
L 197.059611 256.484116 
L 197.199588 256.263106 
L 197.292907 256.680104 
L 197.339566 256.550835 
L 197.386225 256.342334 
L 197.526202 256.421567 
L 197.572862 256.613386 
L 197.619521 256.342334 
L 197.66618 258.047865 
L 197.712839 257.976978 
L 197.899476 257.639206 
L 197.946135 258.202157 
L 197.992794 257.568316 
L 198.039453 256.976176 
L 198.179431 256.621724 
L 198.272749 257.301436 
L 198.319408 257.184677 
L 198.366068 257.418197 
L 198.506045 257.234715 
L 198.552704 256.955326 
L 198.599363 256.976176 
L 198.972637 257.872728 
L 199.019296 257.810173 
L 199.252592 258.277217 
L 199.299251 258.118757 
L 199.34591 258.135437 
L 199.532547 258.202157 
L 199.579206 258.014508 
L 199.625865 258.594135 
L 199.812502 258.606646 
L 199.859161 258.848509 
L 199.95248 258.752597 
L 199.999139 258.856846 
L 200.51239 257.822688 
L 200.652367 257.309775 
L 200.839004 257.872728 
L 200.932322 258.423167 
L 200.978981 258.252197 
L 201.118959 257.847706 
L 201.258936 257.155487 
L 201.305596 256.888606 
L 201.445573 257.305607 
L 201.63221 256.354844 
L 202.145461 258.027015 
L 202.238779 257.780985 
L 202.425416 257.455727 
L 202.472075 257.655884 
L 202.518734 257.597506 
L 202.612053 257.347304 
L 202.892008 256.946988 
L 202.938667 257.080425 
L 203.265281 256.208898 
L 203.451918 256.438244 
L 203.498577 256.263106 
L 203.545236 256.442416 
L 203.591895 256.521644 
L 203.731873 256.450754 
L 203.778532 256.208898 
L 203.825191 256.342334 
L 203.918509 256.671766 
L 204.058487 256.525814 
L 204.198465 255.967033 
L 204.245124 256.138008 
L 204.385101 256.179703 
L 204.47842 255.637604 
L 204.571738 255.816917 
L 204.711715 255.637604 
L 204.851693 256.855246 
L 205.03833 257.338968 
L 205.084989 257.122126 
L 205.178307 257.142974 
L 205.224966 257.251395 
L 205.411603 257.380665 
L 205.458262 257.480746 
L 205.691558 256.746823 
L 205.878195 257.501598 
L 206.018172 257.205527 
L 206.064832 257.384837 
L 206.111491 257.334797 
L 206.344787 256.680104 
L 206.391446 256.838566 
L 206.438105 256.705126 
L 206.531423 256.821888 
L 206.71806 257.439047 
L 206.858038 258.485717 
L 206.998015 258.235515 
L 207.091333 258.698387 
L 207.137993 258.548269 
L 207.324629 258.089568 
L 207.417948 258.022848 
L 207.464607 257.935277 
L 207.511266 258.006166 
L 207.651244 257.947787 
L 207.791221 258.202157 
L 208.071176 258.135437 
L 208.117835 258.231347 
L 208.351131 257.572486 
L 208.39779 257.359817 
L 208.491109 258.919397 
L 208.631086 258.906887 
L 208.724405 258.710897 
L 208.817723 258.831827 
L 209.00436 258.702557 
L 209.144337 259.027817 
L 209.610929 259.069515 
L 209.704247 258.827658 
L 209.750906 258.998628 
L 209.797566 258.977777 
L 209.937543 259.169599 
L 209.984202 259.532388 
L 210.030862 259.386439 
L 210.077521 259.307209 
L 210.12418 259.386439 
L 210.310817 259.461498 
L 210.404135 259.282188 
L 210.450794 259.328057 
L 210.68409 259.515708 
L 210.777408 260.207928 
L 211.337318 259.757568 
L 211.383978 259.311378 
L 211.430637 259.369757 
L 211.617274 259.286355 
L 211.943888 258.122924 
L 211.990547 258.327258 
L 212.037206 258.298067 
L 212.083865 258.206326 
L 212.317161 258.243856 
L 212.36382 258.039527 
L 212.690435 257.739285 
L 213.250345 256.788528 
L 213.297004 256.896943 
L 213.343663 256.942816 
L 213.390322 256.863586 
L 213.5303 256.763505 
L 213.576959 257.147144 
L 213.623618 257.07209 
L 213.670277 256.959494 
L 213.716936 257.243056 
L 213.856914 256.896943 
L 213.903573 257.063745 
L 213.950232 257.159657 
L 214.043551 257.964468 
L 214.183528 257.664227 
L 214.230187 257.814347 
L 214.276847 257.730946 
L 214.370165 258.268879 
L 214.510142 258.193816 
L 214.65012 258.781787 
L 214.696779 258.498227 
L 214.836757 258.506565 
L 214.976734 257.797666 
L 215.023393 257.876895 
L 215.21003 258.264705 
L 215.256689 258.152119 
L 215.303348 257.922766 
L 215.489985 258.564949 
L 215.583303 258.627495 
L 215.816599 258.256369 
L 216.003236 259.369757 
L 216.283191 259.720038 
L 216.32985 259.661659 
L 216.469828 259.561579 
L 216.516487 259.740886 
L 216.563146 259.544899 
L 216.609805 259.428139 
L 216.656465 259.761738 
L 216.843101 259.707529 
L 216.983079 259.444818 
L 217.263034 259.240487 
L 217.309693 259.478178 
L 217.589648 259.044497 
L 217.776285 258.669197 
L 217.916262 259.148747 
L 218.196217 258.514908 
L 218.242876 258.569118 
L 218.289536 258.635836 
L 218.429513 258.640008 
L 218.61615 259.219639 
L 218.802787 259.031986 
L 218.849446 258.723406 
L 218.942764 259.536559 
L 219.222719 259.732546 
L 219.269378 259.736719 
L 219.456015 259.903517 
L 219.595993 259.453159 
L 220.062584 259.603278 
L 220.155903 259.628298 
L 220.202562 259.290528 
L 220.249221 259.303037 
L 220.762472 259.090367 
L 220.85579 259.161257 
L 220.90245 259.040325 
L 221.042427 259.0862 
L 221.135745 258.952758 
L 221.182405 259.073687 
L 221.229064 259.006967 
L 221.369041 258.886038 
L 221.555678 259.740886 
L 221.742315 259.69919 
L 221.882292 259.403116 
L 222.162247 259.286355 
L 222.208906 259.186277 
L 222.348884 259.328057 
L 222.675498 258.819315 
L 222.768817 258.981949 
L 222.815476 258.581626 
L 222.862135 258.694218 
L 223.048772 258.685875 
L 223.095431 258.623326 
L 223.188749 258.990288 
L 223.515363 258.831827 
L 223.702 259.073687 
L 223.981955 258.519078 
L 224.168592 258.106248 
L 224.635184 258.514908 
L 224.775161 258.114585 
L 225.055116 257.993655 
L 225.101775 257.810173 
L 225.148435 257.839366 
L 225.288412 257.826858 
L 225.38173 258.252197 
L 225.42839 258.777617 
L 225.475049 258.719237 
L 225.615026 258.748428 
L 225.661685 258.961096 
L 225.708345 258.760935 
L 226.034959 258.848509 
L 226.081618 258.619157 
L 226.128277 258.665026 
L 226.408232 258.594135 
L 226.454891 258.631668 
L 226.594869 258.594135 
L 226.734846 259.248826 
L 226.781506 259.019477 
L 226.968142 259.031986 
L 227.014802 259.165429 
L 227.061461 258.886038 
L 227.10812 258.923565 
L 227.248097 259.094537 
L 227.294757 259.023649 
L 227.341416 258.927736 
L 227.388075 258.994457 
L 227.621371 259.173768 
L 227.761348 259.102877 
L 227.947985 259.157089 
L 227.994644 259.165429 
L 228.041303 258.986118 
L 228.087963 259.019477 
L 228.367918 259.215469 
L 228.881169 258.544096 
L 228.927828 258.614988 
L 228.974487 258.577456 
L 229.067805 258.323087 
L 229.254442 258.072885 
L 229.39442 257.822688 
L 229.534397 257.968638 
L 229.674375 257.359817 
L 229.721034 257.451557 
L 229.90767 257.455727 
L 230.047648 256.371526 
L 230.187625 256.479946 
L 230.327603 256.313145 
L 230.654217 256.454928 
L 230.700876 256.671766 
L 230.980831 256.592533 
L 231.027491 256.763505 
L 231.167468 256.755163 
L 231.354105 256.238088 
L 231.540742 256.392376 
L 231.680719 255.754364 
L 231.820697 255.846103 
L 231.960674 255.808578 
L 232.007333 255.616754 
L 232.19397 255.712664 
L 232.333948 256.233915 
L 232.473925 256.300635 
L 232.520584 256.463266 
L 232.567243 256.425735 
L 232.613903 256.329823 
L 232.660562 256.429906 
L 232.987176 256.354844 
L 233.127154 256.204725 
L 233.173813 255.908655 
L 233.220472 256.313145 
L 233.453768 256.625897 
L 233.640405 256.150513 
L 233.8737 255.992055 
L 233.967019 256.183875 
L 234.106996 256.559175 
L 234.293633 257.543295 
L 234.43361 257.614186 
L 234.48027 257.493258 
L 234.526929 257.672564 
L 234.946861 257.547466 
L 235.180157 257.851876 
L 235.226816 258.256369 
L 235.273476 258.152119 
L 235.413453 258.806808 
L 235.553431 258.439847 
L 235.60009 258.74009 
L 235.740067 258.644179 
L 235.786727 258.460697 
L 235.833386 258.848509 
L 235.880045 258.444018 
L 236.066682 258.368957 
L 236.16 257.643375 
L 236.206659 257.997827 
L 236.486614 257.401515 
L 236.579933 258.143775 
L 236.906547 257.735116 
L 237.093184 257.718435 
L 237.233161 257.001195 
L 237.466457 257.605848 
L 237.559775 257.993655 
L 237.83973 257.376494 
L 237.88639 257.747629 
L 238.026367 257.801833 
L 238.213004 257.234715 
L 238.39964 256.988686 
L 238.4463 256.684275 
L 238.492959 256.863586 
L 238.539618 256.888606 
L 238.679595 257.272245 
L 238.819573 256.930304 
L 238.866232 256.938645 
L 239.052869 256.705126 
L 239.099528 256.938645 
L 239.192846 256.454928 
L 239.379483 256.938645 
L 239.426142 256.913626 
L 239.472801 256.609217 
L 239.519461 256.667595 
L 239.659438 256.767676 
L 239.706097 256.688445 
L 239.799416 257.122126 
L 239.846075 256.884435 
L 239.986052 257.105447 
L 240.12603 258.235515 
L 240.172689 258.014508 
L 240.312667 257.906088 
L 240.499303 258.410657 
L 240.965895 257.505766 
L 241.012554 257.647548 
L 241.059213 257.501598 
L 241.105873 257.551634 
L 241.292509 257.076257 
L 241.479146 257.647548 
L 241.619124 257.926935 
L 241.759101 257.459896 
L 241.80576 257.405685 
L 242.039056 257.343137 
L 242.085715 257.226375 
L 242.132375 257.318117 
L 242.319011 257.459896 
L 242.41233 256.846907 
L 242.458989 257.009535 
L 242.598966 257.376494 
L 242.645625 257.276416 
L 242.692285 257.213867 
L 242.738944 257.297265 
L 242.785603 257.576656 
L 242.97224 257.693416 
L 243.065558 257.022047 
L 243.112217 257.142974 
L 243.345513 256.955326 
L 243.392172 257.080425 
L 243.672127 257.660056 
L 243.718786 257.676736 
L 243.765446 257.522446 
L 243.905423 257.618358 
L 243.998742 257.167997 
L 244.045401 257.338968 
L 244.09206 257.839366 
L 244.372015 257.709047 
L 244.418674 257.650281 
L 244.605311 257.599912 
L 244.745288 257.839173 
L 244.931925 257.587317 
L 244.978584 257.818184 
L 245.071903 257.360647 
L 245.21188 257.238915 
L 245.258539 257.394227 
L 245.305198 257.348052 
L 245.351858 257.217929 
L 245.398517 257.348052 
L 245.725131 257.490769 
L 245.911768 257.30188 
L 245.958427 257.024839 
L 246.005086 257.658676 
L 246.051745 257.465587 
L 246.238382 257.406819 
L 246.3317 257.897938 
L 246.37836 258.21276 
L 246.518337 257.952509 
L 246.658315 258.258934 
L 246.844951 258.208564 
L 246.93827 258.452023 
L 246.984929 258.330293 
L 247.031588 258.468816 
L 247.49818 257.990285 
L 247.544839 258.028065 
L 247.684816 257.860159 
L 247.918112 257.822381 
L 248.338045 258.846601 
L 248.571341 258.632521 
L 248.618 259.606366 
L 248.664659 259.375497 
L 248.897955 259.3713 
L 248.991273 259.121678 
L 249.224569 259.062446 
L 249.317888 259.257067 
L 249.457865 259.257067 
L 249.504524 259.113217 
L 249.551183 259.193605 
L 249.597843 259.426302 
L 249.644502 259.328991 
L 249.924457 259.874772 
L 249.971116 259.836696 
L 250.157753 259.608229 
L 250.204412 259.70554 
L 250.251071 259.950929 
L 250.29773 259.895927 
L 250.437708 260.107471 
L 250.484367 259.984776 
L 250.624345 259.612461 
L 250.764322 259.773233 
L 250.810981 259.608229 
L 250.9043 259.650537 
L 251.41755 260.369785 
L 251.46421 260.297862 
L 251.510869 260.230168 
L 251.557528 260.272476 
L 251.604187 260.484019 
L 251.744165 260.551713 
L 251.790824 260.725178 
L 251.837483 260.708255 
L 251.930801 260.551713 
L 252.397393 260.606714 
L 252.58403 259.874772 
L 252.724007 259.811311 
L 252.817326 260.166704 
L 253.050622 259.134371 
L 253.097281 259.134371 
L 253.237258 259.482606 
L 253.423895 259.602661 
L 253.750509 258.629379 
L 253.843828 258.350683 
L 253.890487 258.09343 
L 254.077124 258.046269 
L 254.217101 257.454581 
L 254.357079 257.823311 
L 254.403738 257.763288 
L 254.450397 257.591782 
L 254.497056 257.630372 
L 254.543715 257.819027 
L 254.683693 257.891917 
L 254.730352 258.427862 
L 254.82367 258.410713 
L 255.103625 258.247784 
L 255.196944 257.484594 
L 255.336921 257.411704 
L 255.38358 257.094425 
L 255.43024 257.536044 
L 255.663535 257.613222 
L 255.803513 257.330239 
L 255.850172 257.46744 
L 256.083468 257.398842 
L 256.130127 257.210189 
L 256.176786 257.518894 
L 256.410082 257.591782 
L 256.503401 257.1716 
L 256.736697 257.347392 
L 256.830015 257.90049 
L 257.10997 256.875758 
L 257.156629 256.425561 
L 257.296607 256.266921 
L 257.483243 255.773846 
L 257.66988 255.834432 
L 257.949835 256.202274 
L 258.043153 256.14169 
L 258.136472 255.566125 
L 258.323109 255.3887 
L 258.369768 255.336764 
L 258.416427 255.431968 
L 258.603064 255.470918 
L 258.649723 255.384369 
L 258.696382 255.457936 
L 258.7897 256.314791 
L 258.929678 256.310462 
L 259.116315 256.764855 
L 259.34961 256.275844 
L 259.39627 256.838425 
L 259.442929 256.648014 
L 259.582906 256.669652 
L 259.676225 257.595743 
L 259.722884 257.517848 
L 259.769543 257.318783 
L 260.002839 257.39668 
L 260.049498 257.214921 
L 260.096157 257.305799 
L 260.376112 257.223578 
L 260.422771 257.119716 
L 260.656067 257.150007 
L 260.702726 257.34042 
L 260.749386 256.695613 
L 260.889363 256.453274 
L 260.936022 255.778178 
L 260.982682 256.474911 
L 261.215977 256.042157 
L 261.402614 256.401342 
L 261.63591 256.418652 
L 261.682569 256.678307 
L 261.729228 256.63936 
L 261.869206 256.730237 
L 261.915865 256.65234 
L 261.962524 256.457601 
L 262.009183 256.535496 
L 262.19582 257.080251 
L 262.335798 256.642698 
L 262.849049 256.126379 
L 262.989026 256.336407 
L 263.035685 256.152634 
L 263.175663 256.27515 
L 263.31564 255.14188 
L 263.595595 254.144249 
L 263.642255 254.301772 
L 263.688914 254.271142 
L 263.828891 254.139874 
L 263.87555 254.306146 
L 263.92221 254.293019 
L 264.015528 253.369776 
L 264.155506 253.649809 
L 264.248824 253.041611 
L 264.295483 253.080986 
L 264.342142 253.059107 
L 264.48212 253.150995 
L 264.668756 252.232132 
L 264.808734 252.254006 
L 264.948711 251.492659 
L 264.995371 251.12511 
L 265.275326 251.151365 
L 265.321985 250.586917 
L 265.461962 250.635047 
L 265.555281 250.320002 
L 265.60194 250.731306 
L 265.648599 249.983089 
L 265.788577 250.420644 
L 265.975213 253.330393 
L 266.208509 253.457287 
L 266.255168 252.722192 
L 266.301828 252.75087 
L 266.488464 251.722923 
L 266.535123 252.000865 
L 266.581783 252.10675 
L 266.628442 251.167036 
L 266.768419 251.943513 
L 266.815079 250.7391 
L 266.908397 250.822921 
L 266.955056 250.169979 
L 267.141693 250.412626 
L 267.188352 250.381741 
L 267.235011 249.318504 
L 267.28167 249.389091 
L 267.421648 249.77733 
L 267.468307 249.706737 
L 267.561625 249.349385 
L 267.608285 248.837619 
L 267.84158 248.683202 
L 267.934899 248.414089 
L 268.168195 248.665559 
L 268.214854 248.586147 
L 268.261513 248.334672 
L 268.541468 248.131729 
L 268.774764 248.665559 
L 269.241356 245.149372 
L 269.381333 245.193486 
L 269.474652 246.256726 
L 269.521311 245.987608 
L 269.707947 245.550844 
L 269.801266 245.899375 
L 269.894584 246.389078 
L 270.034562 246.336137 
L 270.081221 246.097899 
L 270.12788 246.371437 
L 270.174539 244.47878 
L 270.221198 244.606718 
L 270.361176 244.271422 
L 270.407835 245.599376 
L 270.454494 245.365546 
L 270.501153 244.906401 
L 270.547813 245.10603 
L 270.781108 245.358888 
L 270.827768 244.666842 
L 270.874427 245.372199 
L 271.061064 245.048352 
L 271.154382 245.443181 
L 271.201041 244.11231 
L 271.341019 244.258707 
L 271.387678 244.036896 
L 271.527655 245.452057 
L 271.667633 245.283477 
L 271.714292 244.733382 
L 271.760951 244.844291 
L 271.994247 245.354454 
L 272.040906 244.662405 
L 272.087565 245.057229 
L 272.134225 245.27904 
L 272.180884 244.888651 
L 272.36752 245.500854 
L 272.460839 244.360745 
L 272.507498 244.507136 
L 272.647476 244.409537 
L 272.694135 244.622479 
L 272.740794 244.462773 
L 272.97409 243.136344 
L 273.020749 243.087542 
L 273.067408 243.216194 
L 273.114067 243.069799 
L 273.160726 243.034308 
L 273.300704 243.242811 
L 273.347363 242.781445 
L 273.394022 242.883471 
L 273.440681 243.060921 
L 273.487341 242.95889 
L 273.627318 242.84799 
L 273.673977 242.289016 
L 273.720637 242.515274 
L 273.767296 243.504548 
L 273.813955 242.768134 
L 273.953932 242.812499 
L 274.047251 241.832087 
L 274.09391 241.903064 
L 274.373865 244.116747 
L 274.420524 245.731537 
L 274.467183 245.261292 
L 275.120412 247.267181 
L 275.307049 246.959323 
L 275.353708 247.209177 
L 275.400367 247.030707 
L 275.447026 246.28115 
L 275.633663 245.527133 
L 275.680322 245.103273 
L 275.726981 245.130044 
L 275.77364 245.406667 
L 275.960277 244.639263 
L 276.053595 244.911414 
L 276.100255 245.50036 
L 276.38021 245.228202 
L 276.566846 245.888521 
L 276.613505 247.686573 
L 276.706824 247.316252 
L 276.753483 247.070864 
L 276.893461 247.160096 
L 276.94012 251.180052 
L 277.033438 250.537575 
L 277.080097 250.58219 
L 277.266734 250.332337 
L 277.313393 249.868324 
L 277.360052 250.314489 
L 277.406711 251.086358 
L 277.546689 250.729422 
L 277.733326 251.733298 
L 277.873303 252.286542 
L 277.919962 252.233005 
L 278.05994 251.541445 
L 278.199917 251.130977 
L 278.246577 251.429908 
L 278.293236 251.090819 
L 278.339895 251.380826 
L 278.386554 251.492366 
L 278.573191 251.2559 
L 278.713168 251.514675 
L 278.853146 251.296057 
L 278.899805 250.216333 
L 278.946464 250.394802 
L 278.993123 250.760656 
L 279.039783 250.733887 
L 279.226419 250.71604 
L 279.273078 250.091405 
L 279.366397 250.194024 
L 279.599693 250.202951 
L 279.646352 250.675476 
L 279.693011 249.838432 
L 279.832989 249.491914 
L 279.926307 250.454967 
L 279.972966 250.081443 
L 280.019625 250.360456 
L 280.159603 250.229948 
L 280.206262 250.373955 
L 280.252921 249.874433 
L 280.29958 250.580974 
L 280.34624 249.10039 
L 280.486217 248.884383 
L 280.626195 247.403802 
L 280.672854 248.101342 
L 280.85949 247.696317 
L 280.90615 247.948334 
L 280.999468 249.145394 
L 281.186105 248.726873 
L 281.232764 249.046391 
L 281.279423 248.717873 
L 281.46606 248.942882 
L 281.512719 248.357855 
L 281.652696 249.662923 
L 281.839333 249.221899 
L 281.932651 249.712424 
L 281.979311 249.415412 
L 282.212607 251.251502 
L 282.305925 250.927486 
L 282.445902 250.810482 
L 282.492562 250.346959 
L 282.539221 250.97249 
L 282.58588 251.238003 
L 282.632539 251.080493 
L 282.772517 250.738477 
L 282.819176 250.985989 
L 282.865835 250.756478 
L 282.912494 250.78348 
L 282.959153 250.085943 
L 283.14579 250.598968 
L 283.192449 250.18495 
L 283.285768 250.346959 
L 283.472404 250.77824 
L 283.612382 250.455913 
L 283.752359 250.800939 
L 283.845678 250.247078 
L 283.892337 250.900812 
L 283.938996 250.587565 
L 284.078974 250.256157 
L 284.125633 249.089431 
L 284.218951 249.239243 
L 284.405588 249.039493 
L 284.498906 249.125748 
L 284.545565 248.962316 
L 284.592225 249.062191 
L 284.778861 248.994095 
L 284.87218 248.422076 
L 285.105475 248.476555 
L 285.198794 248.413001 
L 285.245453 248.658148 
L 285.385431 248.413001 
L 285.43209 248.758019 
L 285.525408 248.653603 
L 285.572067 247.936316 
L 285.712045 247.927239 
L 285.852022 246.4518 
L 285.898681 246.642465 
L 286.038659 246.460875 
L 286.225296 248.667227 
L 286.365273 248.453857 
L 286.55191 248.903296 
L 286.691887 248.476555 
L 286.738547 248.798877 
L 286.785206 248.612748 
L 286.831865 248.390296 
L 286.878524 249.384519 
L 287.11182 248.617286 
L 287.158479 248.998627 
L 287.205138 247.904538 
L 287.345116 248.12699 
L 287.485093 247.781962 
L 287.531753 248.074752 
L 287.858367 246.684012 
L 287.998344 247.123197 
L 288.091663 247.644717 
L 288.138322 247.269583 
L 288.184981 247.429707 
L 288.324959 247.475452 
L 288.371618 246.862432 
L 288.418277 247.242135 
L 288.464936 247.146065 
L 288.511595 247.534923 
L 288.651573 247.534923 
L 288.79155 248.138797 
L 288.978187 248.138797 
L 289.071505 248.907361 
L 289.164824 248.870763 
L 289.678075 250.362143 
L 289.818052 249.145251 
L 290.144666 248.152518 
L 290.284644 248.253164 
L 290.331303 248.610002 
L 290.377962 248.381261 
L 290.471281 247.81856 
L 290.657917 247.832285 
L 290.704577 247.690466 
L 290.751236 246.917333 
L 290.797895 247.393104 
L 290.984532 247.937506 
L 291.07785 247.040849 
L 291.124509 247.068296 
L 291.357805 247.429707 
L 291.404464 247.310759 
L 291.451123 249.928926 
L 291.591101 249.975029 
L 291.684419 250.233157 
L 291.777738 249.951981 
L 291.964374 250.998326 
L 292.104352 250.13175 
L 292.430966 252.49179 
L 292.570944 252.201394 
L 292.617603 252.666948 
L 292.664262 252.312019 
L 292.944217 251.417786 
L 292.990876 251.98936 
L 293.084195 251.869513 
L 293.410809 251.80037 
L 293.550786 251.376299 
L 293.737423 252.505618 
L 293.877401 251.814197 
L 293.92406 252.275143 
L 294.064037 250.62496 
L 294.250674 250.754023 
L 294.390651 250.140964 
L 294.577288 249.735335 
L 294.717266 251.131999 
L 294.903902 250.094871 
L 294.950562 250.495892 
L 295.183857 250.242376 
L 295.230517 249.845961 
L 295.277176 250.085654 
L 295.323835 250.210108 
L 295.370494 250.164016 
L 295.930404 250.19628 
L 296.023723 250.339173 
L 296.350337 248.868752 
L 296.490314 248.559922 
L 296.536974 248.642889 
L 296.583633 249.1822 
L 296.630292 249.090008 
L 296.676951 248.448081 
L 296.910247 248.252714 
L 296.956906 248.406218 
L 297.003565 248.345745 
L 297.143543 248.150376 
L 297.236861 248.862078 
L 297.33018 249.53657 
L 297.563475 249.806365 
L 297.610135 249.610998 
L 297.796771 249.53192 
L 297.84343 249.713332 
L 297.983408 248.58763 
L 298.170045 248.58763 
L 298.263363 248.336437 
L 298.310022 248.931852 
L 298.543318 248.662058 
L 298.589977 248.624847 
L 298.636636 248.443428 
L 298.776614 248.64345 
L 298.823273 248.592281 
L 298.916591 249.452841 
L 298.963251 249.159787 
L 299.103228 248.717873 
L 299.149887 248.764392 
L 299.196547 249.178389 
L 299.243206 249.001629 
L 299.289865 248.685319 
L 299.429842 248.88534 
L 299.476502 249.215607 
L 299.56982 249.159787 
L 299.616479 248.745789 
L 299.803116 248.629494 
L 299.849775 248.708576 
L 299.943093 248.401565 
L 300.12973 248.689972 
L 300.176389 249.020233 
L 300.409685 247.159572 
L 300.549663 246.903727 
L 300.596322 246.847911 
L 300.829618 247.284073 
L 300.922936 247.232481 
L 301.109573 247.443531 
L 301.202891 247.124612 
L 301.24955 247.171517 
L 301.482846 246.48679 
L 301.529505 246.904188 
L 301.576165 246.725969 
L 301.716142 247.321588 
L 301.762801 247.232481 
L 301.80946 246.688455 
L 301.85612 246.951086 
L 302.042756 246.594651 
L 302.182734 245.384662 
L 302.369371 245.173614 
L 302.462689 245.609776 
L 302.509348 245.229891 
L 302.556007 245.492528 
L 302.789303 245.243963 
L 302.835962 245.3659 
L 302.882621 246.045931 
L 303.069258 246.144425 
L 303.162576 245.731712 
L 303.209236 245.877101 
L 303.349213 246.299191 
L 303.442532 245.623841 
L 303.489191 246.111595 
L 303.53585 246.196012 
L 303.675827 245.895859 
L 303.722487 245.938067 
L 303.769146 245.984967 
L 303.862464 245.131404 
L 304.002442 245.361203 
L 304.049101 245.342449 
L 304.329056 247.232481 
L 304.375715 246.796319 
L 304.469033 245.71295 
L 304.515693 247.452906 
L 304.65567 247.457596 
L 304.702329 248.067285 
L 304.748988 247.77182 
L 304.842307 247.866029 
L 305.122262 247.345649 
L 305.308899 246.957729 
L 305.355558 247.038151 
L 305.402217 246.574536 
L 305.448876 246.749575 
L 305.495535 247.383493 
L 305.962127 248.315448 
L 306.008786 248.25395 
L 306.148764 247.747762 
L 306.475378 246.37111 
L 306.662015 246.792149 
L 306.708674 247.014495 
L 306.801992 246.347461 
L 306.988629 246.044693 
L 307.081947 245.155311 
L 307.128606 245.926429 
L 307.315243 246.446801 
L 307.455221 245.585808 
L 307.595198 245.533772 
L 307.735176 245.174238 
L 307.781835 245.231009 
L 308.06179 246.314347 
L 308.108449 249.79144 
L 308.248427 249.360941 
L 308.295086 249.800906 
L 308.341745 249.493406 
L 308.435063 248.807449 
L 308.901655 250.808549 
L 308.948314 250.794208 
L 309.041633 251.711944 
L 309.088292 251.463394 
L 309.228269 251.573327 
L 309.274929 251.253076 
L 309.414906 253.040744 
L 309.648202 252.773071 
L 309.74152 253.633448 
L 309.974816 253.63823 
L 310.021475 253.819863 
L 310.30143 253.767285 
L 310.34809 253.977597 
L 310.534726 253.84854 
L 310.581385 253.628667 
L 310.628045 253.819863 
L 310.721363 253.819863 
L 310.861341 253.337096 
L 311.001318 255.153444 
L 311.047977 255.124768 
L 311.234614 255.186903 
L 311.281273 255.33986 
L 311.327932 255.292059 
L 311.374591 255.110425 
L 311.514569 255.401998 
L 311.607887 254.880991 
L 311.654546 255.091307 
L 311.841183 254.565524 
L 311.887842 254.990928 
L 311.934502 254.871433 
L 311.981161 254.469924 
L 312.02782 254.555961 
L 312.167797 254.049297 
L 312.261116 254.642001 
L 312.307775 254.632441 
L 312.634389 253.404015 
L 312.681048 253.905899 
L 313.14764 252.648797 
L 313.240958 252.424143 
L 313.287618 251.745401 
L 313.334277 252.282036 
L 313.474254 252.518929 
L 313.520914 252.818673 
L 313.567573 252.253028 
L 313.614232 252.663967 
L 313.800869 252.074151 
L 313.847528 252.499591 
L 313.894187 251.953288 
L 313.987505 252.475419 
L 314.127483 252.465748 
L 314.174142 252.789666 
L 314.26746 252.746154 
L 314.454097 252.833174 
L 314.547415 252.025806 
L 314.594075 252.040309 
L 314.920689 253.302127 
L 314.967348 253.123249 
L 315.153985 252.833174 
L 315.293962 252.011302 
L 315.853872 251.242609 
L 315.947191 251.523014 
L 316.087168 251.735732 
L 316.273805 252.833174 
L 316.413782 252.78483 
L 316.460442 252.625291 
L 316.600419 253.490674 
L 316.740397 253.350472 
L 316.833715 253.829092 
L 316.880374 253.577697 
L 317.067011 253.616372 
L 317.11367 253.505179 
L 317.206988 252.886354 
L 317.253648 253.456831 
L 317.440284 253.311796 
L 317.486943 253.384315 
L 317.813558 253.553712 
L 317.906876 254.386348 
L 318.093513 254.778174 
L 318.186831 254.680217 
L 318.373468 254.45002 
L 318.420127 254.7243 
L 318.466786 254.645934 
L 318.513445 254.484304 
L 318.560105 254.969191 
L 318.700082 254.890826 
L 318.886719 254.126762 
L 319.166674 254.484304 
L 319.353311 253.445961 
L 319.446629 253.250047 
L 319.493288 253.362696 
L 319.539947 253.671262 
L 319.773243 252.138234 
L 319.819902 252.192114 
L 319.866561 252.290071 
L 320.006539 252.255784 
L 320.099857 252.040279 
L 320.146517 252.113745 
L 320.333153 252.51537 
L 320.379812 253.05903 
L 320.473131 252.853323 
L 320.51979 252.667201 
L 320.706427 252.868017 
L 320.986382 251.839468 
L 321.0797 252.285171 
L 321.126359 252.113745 
L 321.173018 251.844365 
L 321.312996 251.971709 
L 321.452973 251.628861 
L 321.499633 253.303923 
L 321.63961 253.191274 
L 321.779588 253.651671 
L 321.826247 253.475349 
L 322.106202 253.59432 
L 322.152861 253.892074 
L 322.386157 253.966513 
L 322.619453 253.53477 
L 322.666112 253.624095 
L 322.75943 253.351153 
L 322.80609 253.390855 
L 323.086045 253.911924 
L 323.132704 253.688608 
L 323.272681 253.59432 
L 323.459318 254.140202 
L 323.599296 254.065763 
L 323.785932 254.785336 
L 323.92591 255.122788 
L 323.972569 255.063239 
L 324.065887 254.919325 
L 324.112546 254.968953 
L 324.252524 254.904439 
L 324.439161 255.519795 
L 324.579138 255.445358 
L 324.625797 255.688525 
L 324.765775 257.09293 
L 324.905752 256.83984 
L 324.952412 257.003606 
L 325.092389 256.303882 
L 325.419003 255.73815 
L 325.558981 255.73815 
L 325.652299 254.447883 
L 325.745618 254.566985 
L 326.072232 255.156345 
L 326.258869 254.844073 
L 326.398846 254.274929 
L 326.585483 254.088571 
L 326.632142 254.647643 
L 326.72546 254.57713 
L 326.958756 254.088571 
L 327.005415 254.758449 
L 327.052075 254.582166 
L 327.238711 254.310185 
L 327.378689 254.657716 
L 327.565325 254.602312 
L 327.611985 254.325297 
L 327.705303 255.030428 
L 327.938599 254.985099 
L 327.985258 254.929696 
L 328.031917 255.931993 
L 328.498509 255.327591 
L 328.545168 255.357812 
L 328.685146 255.136199 
L 328.825123 255.201675 
L 329.01176 254.919622 
L 329.245056 254.894437 
L 329.338374 254.456249 
L 329.478352 254.602312 
L 329.57167 254.395809 
L 329.618329 254.57713 
L 329.664988 254.501577 
L 329.898284 254.154047 
L 329.944943 254.506615 
L 329.991603 254.143975 
L 330.13158 254.023095 
L 330.178239 255.070721 
L 330.271558 254.798741 
L 330.318217 254.647643 
L 330.504854 254.954879 
L 330.551513 254.78867 
L 330.598172 254.78867 
L 330.644831 254.502262 
L 330.784809 255.008587 
L 330.831468 254.819355 
L 330.878127 254.763097 
L 330.924786 254.972786 
L 330.971445 254.77844 
L 331.111423 255.167135 
L 331.158082 255.100647 
L 331.204741 255.059732 
L 331.2514 255.126221 
L 331.29806 256.793514 
L 331.438037 256.7168 
L 331.624674 255.84735 
L 331.951288 256.302533 
L 332.184584 256.092844 
L 332.41788 255.673461 
L 332.511198 255.729719 
L 332.604516 255.520029 
L 332.791153 255.412627 
L 332.837812 255.284766 
L 332.931131 255.775748 
L 333.071108 255.729719 
L 333.257745 255.105761 
L 333.491041 254.619893 
L 333.584359 255.090418 
L 333.770996 254.865384 
L 333.864314 255.218278 
L 333.910973 254.993246 
L 334.050951 255.08019 
L 334.09761 255.791092 
L 334.144269 255.765519 
L 334.190928 255.300109 
L 334.237588 256.016125 
L 334.424224 255.837122 
L 334.470883 256.057041 
L 334.517543 255.729719 
L 334.564202 255.785975 
L 334.704179 255.687149 
L 334.844157 256.264522 
L 334.890816 255.931622 
L 335.030794 256.087671 
L 335.077453 255.947227 
L 335.124112 256.129282 
L 335.21743 256.670247 
L 335.357408 256.561016 
L 335.404067 256.644242 
L 335.450726 256.737869 
L 335.497385 256.696256 
L 336.010636 256.144887 
L 336.103955 256.191703 
L 336.197273 256.503797 
L 336.430569 256.462185 
L 336.477228 256.373758 
L 336.523887 256.446579 
L 336.757183 256.274927 
L 336.850501 256.571417 
L 336.990479 256.561016 
L 337.130457 256.092871 
L 337.177116 256.196903 
L 337.317093 256.098072 
L 337.410412 256.259324 
L 337.643707 255.848397 
L 337.783685 256.212509 
L 337.830344 256.061661 
L 337.970322 256.014848 
L 338.016981 256.493396 
L 338.110299 256.404967 
L 338.156958 256.342548 
L 338.296936 256.467387 
L 338.436913 256.051259 
L 338.483573 257.289238 
L 338.62355 257.419278 
L 338.763528 257.757382 
L 339.043483 257.320449 
L 339.090142 257.378813 
L 339.136801 257.219637 
L 339.276779 257.193108 
L 339.463415 256.61477 
L 339.79003 256.763335 
L 340.023325 256.317643 
L 340.116644 256.418455 
L 340.583236 256.689052 
L 340.629895 256.646606 
L 340.723213 257.033933 
L 340.769872 256.922511 
L 340.90985 257.081686 
L 341.096486 256.699665 
L 341.236464 256.620076 
L 341.563078 257.421259 
L 341.703056 257.559212 
L 341.936352 258.30203 
L 342.02967 258.063267 
L 342.076329 258.662827 
L 342.309625 258.890979 
L 342.356284 258.795474 
L 342.58958 258.503652 
L 342.729558 258.137549 
L 342.916194 257.288614 
L 342.962853 257.023321 
L 343.009513 257.234356 
L 343.056172 257.223535 
L 343.196149 256.882629 
L 343.242809 256.952974 
L 343.336127 257.299292 
L 343.382786 256.990854 
L 343.569423 257.039553 
L 343.7094 257.456215 
L 343.849378 257.283058 
L 343.942696 257.504916 
L 343.989355 257.396693 
L 344.036015 257.483271 
L 344.222651 257.364224 
L 344.362629 257.667252 
L 344.689243 257.272236 
L 344.969198 256.579603 
L 345.015857 257.770063 
L 345.202494 258.094736 
L 345.342471 257.569851 
L 345.622427 258.267893 
L 345.669086 258.148848 
L 345.855722 258.143437 
L 346.135677 258.911826 
L 346.228996 258.468108 
L 346.275655 258.814424 
L 346.322314 258.630444 
L 346.508951 258.949703 
L 346.648928 258.505986 
L 346.928883 258.928059 
L 346.975543 258.738667 
L 347.11552 258.679144 
L 347.162179 258.955115 
L 347.208838 258.890181 
L 347.442134 258.483685 
L 347.535453 258.544661 
L 347.582112 258.710952 
L 347.628771 258.594547 
L 348.142022 259.359493 
L 348.282 259.897171 
L 348.515295 259.536872 
L 348.561955 260.384964 
L 348.79525 260.168783 
L 348.888569 259.863913 
L 348.935228 259.935973 
L 349.121865 259.797396 
L 349.168524 259.708707 
L 349.215183 259.825112 
L 349.261842 259.836199 
L 349.448479 259.653276 
L 349.588456 260.240843 
L 350.101707 259.703164 
L 350.195026 260.268559 
L 350.241685 260.174326 
L 350.474981 260.213127 
L 350.52164 260.157697 
L 350.568299 260.335076 
L 350.848254 259.830655 
L 350.894913 260.473652 
L 351.128209 260.329532 
L 351.221528 260.357248 
L 351.454823 259.941516 
L 351.501483 260.063465 
L 351.734779 259.287433 
L 351.781438 259.387208 
L 351.874756 259.326235 
L 352.014734 259.246547 
L 352.108052 259.792974 
L 352.154711 260.066186 
L 352.388007 258.415523 
L 352.527985 258.546438 
L 353.041235 259.383154 
L 353.321191 258.574898 
L 353.414509 259.013178 
L 353.461168 258.791191 
L 353.507827 258.683044 
L 353.647805 258.717196 
L 353.741123 259.08148 
L 353.834441 258.796883 
L 354.021078 258.967642 
L 354.067737 259.121324 
L 354.114397 258.950566 
L 354.301033 259.013178 
L 354.347692 259.178244 
L 354.394352 258.996102 
L 354.441011 259.058714 
L 354.48767 258.927798 
L 354.627647 258.922107 
L 354.814284 258.660277 
L 354.954262 258.722889 
L 355.000921 258.557821 
L 355.04758 258.603357 
L 355.094239 258.717196 
L 355.140898 258.654585 
L 355.280876 258.358604 
L 355.374194 257.715413 
L 355.420853 257.840637 
L 355.467513 257.960168 
L 355.794127 259.827125 
L 355.980764 259.383154 
L 356.027423 258.125234 
L 356.120741 258.19923 
L 356.260719 258.273224 
L 356.307378 258.182153 
L 356.400696 257.681262 
L 356.447355 257.82356 
L 356.680651 257.712909 
L 356.77397 257.7595 
L 356.913947 258.341874 
L 356.960606 258.050687 
L 357.007265 258.301108 
L 357.053925 258.324403 
L 357.100584 258.487468 
L 357.240561 258.481645 
L 357.380539 258.749538 
L 357.427198 258.831069 
L 357.567176 258.656357 
L 357.707153 258.842718 
L 357.987108 258.45835 
L 358.080426 258.801951 
L 358.267063 258.487468 
L 358.313722 258.603944 
L 358.407041 259.395973 
L 358.733655 258.289461 
L 359.200247 259.29697 
L 359.246906 259.29697 
L 359.386883 259.931758 
L 359.526861 259.791988 
L 359.57352 260.228769 
L 359.620179 259.395973 
L 359.713498 259.518272 
L 359.946793 258.638885 
L 360.226749 259.518272 
L 360.506704 259.455375 
L 360.69334 259.736912 
L 360.973295 259.934587 
L 361.159932 260.389838 
L 361.25325 259.952558 
L 361.346569 260.02444 
L 361.579865 259.551218 
L 361.626524 259.611119 
L 361.673183 258.251357 
L 361.85982 257.909918 
L 361.953138 257.820067 
L 362.186434 258.077643 
L 362.326411 257.838037 
L 362.513048 258.233386 
L 362.559707 258.107594 
L 362.653026 257.856007 
L 362.793003 258.095613 
L 362.886322 260.671375 
L 362.932981 260.587513 
L 362.97964 260.647414 
L 363.119617 260.569542 
L 363.166277 260.317956 
L 363.212936 260.485679 
L 363.446232 260.611473 
L 363.492891 260.46172 
L 363.53955 260.50964 
L 363.586209 260.593503 
L 363.632868 260.533601 
L 363.912823 260.773207 
L 363.959483 260.569542 
L 364.286097 260.341917 
L 364.566052 260.437759 
L 364.612711 260.809147 
L 364.846007 260.443749 
L 364.939325 260.530456 
L 365.125962 260.59239 
L 365.26594 260.908252 
L 365.405917 261.100247 
L 365.452576 260.970186 
L 365.499235 261.007347 
L 365.592554 261.08786 
L 365.732531 260.9578 
L 365.82585 261.41611 
L 365.919168 261.273662 
L 366.152464 261.205535 
L 366.525737 261.94874 
L 366.712374 262.023061 
L 366.805692 261.800099 
L 366.852352 261.837259 
L 367.132307 262.109768 
L 367.225625 261.824873 
L 367.458921 261.998287 
L 367.692217 262.264603 
L 367.832194 262.010674 
L 367.878853 262.047834 
L 368.158808 262.611432 
L 368.205468 262.537111 
L 368.672059 262.75388 
L 368.718719 262.537111 
L 368.858696 264.271258 
L 369.138651 263.850108 
L 369.18531 263.893462 
L 369.418606 263.893462 
L 369.651902 264.054489 
L 369.838539 263.992556 
L 370.071835 264.09165 
L 370.165153 263.961589 
L 370.35179 264.09165 
L 370.771722 264.779115 
L 370.818381 264.704794 
L 371.144996 264.896789 
L 371.378292 264.890596 
L 371.47161 265.039237 
L 371.704906 265.020657 
L 371.751565 264.97111 
L 371.798224 265.156911 
L 372.03152 265.324132 
L 372.078179 265.39226 
L 372.124838 265.324132 
L 372.358134 265.187878 
L 372.404793 264.983496 
L 372.451453 265.119751 
L 372.684748 264.977303 
L 372.731408 264.760535 
L 372.778067 264.921563 
L 372.964704 265.020657 
L 373.291318 264.227904 
L 373.431295 264.649054 
L 373.617932 264.698601 
L 373.75791 264.469446 
L 374.27116 263.924429 
L 374.31782 264.085456 
L 374.364479 264.023523 
L 374.411138 263.943009 
L 374.551116 263.980169 
L 374.644434 264.289838 
L 374.691093 264.252678 
L 374.87773 263.924429 
L 374.924389 263.905848 
L 375.017707 263.645726 
L 375.064366 263.701467 
L 375.204344 263.70766 
L 375.344322 263.404185 
L 375.530958 263.546632 
L 375.670936 264.011136 
L 375.717595 263.763401 
L 375.904232 263.720047 
L 375.99755 263.528052 
L 376.044209 263.608566 
L 376.370823 263.738627 
L 376.650778 263.973976 
L 376.930733 263.447538 
L 377.164029 263.559019 
L 377.210689 263.589986 
L 377.350666 263.243157 
L 377.490644 263.459925 
L 377.537303 263.348444 
L 377.67728 264.004942 
L 377.817258 263.973976 
L 377.910576 263.565212 
L 377.957235 263.627146 
L 378.143872 263.905848 
L 378.28385 264.035909 
L 378.330509 263.72624 
L 378.610464 263.472312 
L 378.657123 263.738627 
L 378.797101 263.757207 
L 378.937078 263.943009 
L 378.983737 264.017329 
L 379.123715 264.017329 
L 379.217033 264.525186 
L 379.263692 264.518993 
L 379.310351 264.438479 
L 379.870262 264.822469 
L 379.96358 265.002077 
L 380.243535 264.816275 
L 380.290194 265.020657 
L 380.616808 264.890596 
L 380.943423 264.878209 
L 381.176718 265.280779 
L 381.223378 265.231232 
L 381.410014 265.00827 
L 381.456674 265.132138 
L 381.503333 265.04543 
L 381.549992 264.927756 
L 381.596651 264.95253 
L 381.736629 265.088784 
L 381.783288 264.760535 
L 381.829947 264.816275 
L 381.876606 264.915369 
L 381.923265 264.537573 
L 382.109902 264.760535 
L 382.24988 265.051624 
L 382.389857 265.020657 
L 382.529835 264.649054 
L 382.903108 265.646188 
L 383.136404 265.268392 
L 383.416359 263.695273 
L 383.556336 264.357965 
L 383.696314 263.905848 
L 383.836292 264.469446 
L 383.882951 264.426092 
L 384.116247 263.639533 
L 384.162906 263.831528 
L 384.209565 263.63334 
L 384.48952 264.364158 
L 384.536179 264.296031 
L 384.722816 264.56854 
L 384.816134 264.822469 
L 384.862793 264.766728 
L 385.002771 264.543767 
L 385.04943 264.630474 
L 385.142748 264.630474 
L 385.189408 264.791502 
L 385.422703 264.475639 
L 385.469363 264.698601 
L 385.516022 264.865822 
L 385.702659 264.791502 
L 385.795977 264.611894 
L 385.842636 264.816275 
L 386.075932 264.240291 
L 386.122591 264.673827 
L 386.16925 264.457059 
L 386.402546 264.432286 
L 386.449205 264.314611 
L 386.495865 264.357965 
L 386.682501 264.388932 
L 386.822479 264.686214 
L 387.102434 264.723375 
L 387.802321 264.927756 
L 387.942299 264.995883 
L 387.988958 264.896789 
L 388.082277 264.834855 
L 388.128936 264.884402 
L 388.45555 264.896789 
L 388.595527 264.810082 
L 388.688846 264.5128 
L 388.735505 264.636667 
L 388.782164 264.803888 
L 389.342074 264.457059 
L 389.388733 264.525186 
L 389.435393 264.265064 
L 389.57537 264.364158 
L 389.622029 264.296031 
L 389.762007 264.042103 
L 390.041962 262.537111 
L 390.088621 262.642399 
L 390.275258 262.611432 
L 390.415235 263.608566 
L 390.601872 262.989228 
L 390.74185 261.515204 
L 390.881827 261.961127 
L 390.928486 260.840125 
L 390.975145 261.162181 
L 391.021805 261.719585 
L 391.068464 261.174568 
L 391.208441 261.131214 
L 391.2551 260.970186 
L 391.30176 261.063087 
L 391.395078 261.564751 
L 391.535056 261.521397 
L 391.581715 261.725779 
L 391.628374 261.583331 
L 391.675033 259.025465 
L 391.721692 259.935892 
L 391.86167 260.072146 
L 391.908329 260.022599 
L 391.954988 259.793444 
L 392.001647 258.81489 
L 392.048306 259.136946 
L 392.374921 258.090265 
L 392.701535 260.895866 
L 392.841512 260.722451 
L 392.888172 260.214594 
L 392.98149 260.288914 
L 393.028149 260.034986 
L 393.214786 260.505683 
L 393.261445 260.103113 
L 393.308104 260.487103 
L 393.354763 260.561423 
L 393.494741 259.911118 
L 393.5414 260.177434 
L 393.588059 260.214594 
L 393.821355 258.771536 
L 393.868014 258.913984 
L 394.007992 257.42138 
L 394.147969 257.124098 
L 394.194629 257.594794 
L 394.241288 257.111711 
L 394.287947 257.396605 
L 394.334606 256.913522 
L 394.474584 257.254158 
L 394.521243 256.888748 
L 394.66122 259.136946 
L 394.801198 259.502355 
L 394.987835 257.700082 
L 395.127812 257.762015 
L 395.22113 254.640552 
L 395.26779 254.900674 
L 395.454426 254.38043 
L 395.594404 255.712007 
L 395.781041 256.696754 
L 395.8277 256.622433 
L 395.874359 256.009288 
L 395.921018 256.182704 
L 395.967677 256.424245 
L 396.154314 255.024541 
L 396.247632 242.662555 
L 396.294291 245.393836 
L 396.574247 240.730221 
L 396.620906 227.11717 
L 396.760883 219.821369 
L 396.854202 52.154182 
L 396.94752 66.095486 
L 397.087497 128.029286 
L 397.227475 234.245752 
L 397.274134 227.885151 
L 397.414112 230.220055 
L 397.460771 236.221439 
L 397.554089 235.732164 
L 397.600748 234.927022 
L 397.787385 236.716912 
L 397.927363 242.241405 
L 398.06734 238.890787 
L 398.113999 239.528704 
L 398.207318 200.039713 
L 398.253977 204.368888 
L 398.487273 190.470942 
L 398.487273 190.470942 
" style="fill:none;stroke:#1f77b4;stroke-linecap:square;stroke-width:1.5;"/>
   </g>
   <g id="patch_3">
    <path d="M 57.6 276.48 
L 57.6 41.472 
" style="fill:none;stroke:#000000;stroke-linecap:square;stroke-linejoin:miter;stroke-width:0.8;"/>
   </g>
   <g id="patch_4">
    <path d="M 414.72 276.48 
L 414.72 41.472 
" style="fill:none;stroke:#000000;stroke-linecap:square;stroke-linejoin:miter;stroke-width:0.8;"/>
   </g>
   <g id="patch_5">
    <path d="M 57.6 276.48 
L 414.72 276.48 
" style="fill:none;stroke:#000000;stroke-linecap:square;stroke-linejoin:miter;stroke-width:0.8;"/>
   </g>
   <g id="patch_6">
    <path d="M 57.6 41.472 
L 414.72 41.472 
" style="fill:none;stroke:#000000;stroke-linecap:square;stroke-linejoin:miter;stroke-width:0.8;"/>
   </g>
   <g id="text_21">
    <!-- GameStop Corp. -->
    <g transform="translate(186.705938 35.472)scale(0.12 -0.12)">
     <defs>
      <path d="M 59.515625 10.40625 
L 59.515625 29.984375 
L 43.40625 29.984375 
L 43.40625 38.09375 
L 69.28125 38.09375 
L 69.28125 6.78125 
Q 63.578125 2.734375 56.6875 0.65625 
Q 49.8125 -1.421875 42 -1.421875 
Q 24.90625 -1.421875 15.25 8.5625 
Q 5.609375 18.5625 5.609375 36.375 
Q 5.609375 54.25 15.25 64.234375 
Q 24.90625 74.21875 42 74.21875 
Q 49.125 74.21875 55.546875 72.453125 
Q 61.96875 70.703125 67.390625 67.28125 
L 67.390625 56.78125 
Q 61.921875 61.421875 55.765625 63.765625 
Q 49.609375 66.109375 42.828125 66.109375 
Q 29.4375 66.109375 22.71875 58.640625 
Q 16.015625 51.171875 16.015625 36.375 
Q 16.015625 21.625 22.71875 14.15625 
Q 29.4375 6.6875 42.828125 6.6875 
Q 48.046875 6.6875 52.140625 7.59375 
Q 56.25 8.5 59.515625 10.40625 
z
" id="DejaVuSans-71"/>
      <path d="M 52 44.1875 
Q 55.375 50.25 60.0625 53.125 
Q 64.75 56 71.09375 56 
Q 79.640625 56 84.28125 50.015625 
Q 88.921875 44.046875 88.921875 33.015625 
L 88.921875 0 
L 79.890625 0 
L 79.890625 32.71875 
Q 79.890625 40.578125 77.09375 44.375 
Q 74.3125 48.1875 68.609375 48.1875 
Q 61.625 48.1875 57.5625 43.546875 
Q 53.515625 38.921875 53.515625 30.90625 
L 53.515625 0 
L 44.484375 0 
L 44.484375 32.71875 
Q 44.484375 40.625 41.703125 44.40625 
Q 38.921875 48.1875 33.109375 48.1875 
Q 26.21875 48.1875 22.15625 43.53125 
Q 18.109375 38.875 18.109375 30.90625 
L 18.109375 0 
L 9.078125 0 
L 9.078125 54.6875 
L 18.109375 54.6875 
L 18.109375 46.1875 
Q 21.1875 51.21875 25.484375 53.609375 
Q 29.78125 56 35.6875 56 
Q 41.65625 56 45.828125 52.96875 
Q 50 49.953125 52 44.1875 
z
" id="DejaVuSans-109"/>
      <path d="M 53.515625 70.515625 
L 53.515625 60.890625 
Q 47.90625 63.578125 42.921875 64.890625 
Q 37.9375 66.21875 33.296875 66.21875 
Q 25.25 66.21875 20.875 63.09375 
Q 16.5 59.96875 16.5 54.203125 
Q 16.5 49.359375 19.40625 46.890625 
Q 22.3125 44.4375 30.421875 42.921875 
L 36.375 41.703125 
Q 47.40625 39.59375 52.65625 34.296875 
Q 57.90625 29 57.90625 20.125 
Q 57.90625 9.515625 50.796875 4.046875 
Q 43.703125 -1.421875 29.984375 -1.421875 
Q 24.8125 -1.421875 18.96875 -0.25 
Q 13.140625 0.921875 6.890625 3.21875 
L 6.890625 13.375 
Q 12.890625 10.015625 18.65625 8.296875 
Q 24.421875 6.59375 29.984375 6.59375 
Q 38.421875 6.59375 43.015625 9.90625 
Q 47.609375 13.234375 47.609375 19.390625 
Q 47.609375 24.75 44.3125 27.78125 
Q 41.015625 30.8125 33.5 32.328125 
L 27.484375 33.5 
Q 16.453125 35.6875 11.515625 40.375 
Q 6.59375 45.0625 6.59375 53.421875 
Q 6.59375 63.09375 13.40625 68.65625 
Q 20.21875 74.21875 32.171875 74.21875 
Q 37.3125 74.21875 42.625 73.28125 
Q 47.953125 72.359375 53.515625 70.515625 
z
" id="DejaVuSans-83"/>
      <path d="M 30.609375 48.390625 
Q 23.390625 48.390625 19.1875 42.75 
Q 14.984375 37.109375 14.984375 27.296875 
Q 14.984375 17.484375 19.15625 11.84375 
Q 23.34375 6.203125 30.609375 6.203125 
Q 37.796875 6.203125 41.984375 11.859375 
Q 46.1875 17.53125 46.1875 27.296875 
Q 46.1875 37.015625 41.984375 42.703125 
Q 37.796875 48.390625 30.609375 48.390625 
z
M 30.609375 56 
Q 42.328125 56 49.015625 48.375 
Q 55.71875 40.765625 55.71875 27.296875 
Q 55.71875 13.875 49.015625 6.21875 
Q 42.328125 -1.421875 30.609375 -1.421875 
Q 18.84375 -1.421875 12.171875 6.21875 
Q 5.515625 13.875 5.515625 27.296875 
Q 5.515625 40.765625 12.171875 48.375 
Q 18.84375 56 30.609375 56 
z
" id="DejaVuSans-111"/>
      <path d="M 18.109375 8.203125 
L 18.109375 -20.796875 
L 9.078125 -20.796875 
L 9.078125 54.6875 
L 18.109375 54.6875 
L 18.109375 46.390625 
Q 20.953125 51.265625 25.265625 53.625 
Q 29.59375 56 35.59375 56 
Q 45.5625 56 51.78125 48.09375 
Q 58.015625 40.1875 58.015625 27.296875 
Q 58.015625 14.40625 51.78125 6.484375 
Q 45.5625 -1.421875 35.59375 -1.421875 
Q 29.59375 -1.421875 25.265625 0.953125 
Q 20.953125 3.328125 18.109375 8.203125 
z
M 48.6875 27.296875 
Q 48.6875 37.203125 44.609375 42.84375 
Q 40.53125 48.484375 33.40625 48.484375 
Q 26.265625 48.484375 22.1875 42.84375 
Q 18.109375 37.203125 18.109375 27.296875 
Q 18.109375 17.390625 22.1875 11.75 
Q 26.265625 6.109375 33.40625 6.109375 
Q 40.53125 6.109375 44.609375 11.75 
Q 48.6875 17.390625 48.6875 27.296875 
z
" id="DejaVuSans-112"/>
      <path id="DejaVuSans-32"/>
      <path d="M 64.40625 67.28125 
L 64.40625 56.890625 
Q 59.421875 61.53125 53.78125 63.8125 
Q 48.140625 66.109375 41.796875 66.109375 
Q 29.296875 66.109375 22.65625 58.46875 
Q 16.015625 50.828125 16.015625 36.375 
Q 16.015625 21.96875 22.65625 14.328125 
Q 29.296875 6.6875 41.796875 6.6875 
Q 48.140625 6.6875 53.78125 8.984375 
Q 59.421875 11.28125 64.40625 15.921875 
L 64.40625 5.609375 
Q 59.234375 2.09375 53.4375 0.328125 
Q 47.65625 -1.421875 41.21875 -1.421875 
Q 24.65625 -1.421875 15.125 8.703125 
Q 5.609375 18.84375 5.609375 36.375 
Q 5.609375 53.953125 15.125 64.078125 
Q 24.65625 74.21875 41.21875 74.21875 
Q 47.75 74.21875 53.53125 72.484375 
Q 59.328125 70.75 64.40625 67.28125 
z
" id="DejaVuSans-67"/>
      <path d="M 41.109375 46.296875 
Q 39.59375 47.171875 37.8125 47.578125 
Q 36.03125 48 33.890625 48 
Q 26.265625 48 22.1875 43.046875 
Q 18.109375 38.09375 18.109375 28.8125 
L 18.109375 0 
L 9.078125 0 
L 9.078125 54.6875 
L 18.109375 54.6875 
L 18.109375 46.1875 
Q 20.953125 51.171875 25.484375 53.578125 
Q 30.03125 56 36.53125 56 
Q 37.453125 56 38.578125 55.875 
Q 39.703125 55.765625 41.0625 55.515625 
z
" id="DejaVuSans-114"/>
      <path d="M 10.6875 12.40625 
L 21 12.40625 
L 21 0 
L 10.6875 0 
z
" id="DejaVuSans-46"/>
     </defs>
     <use xlink:href="#DejaVuSans-71"/>
     <use x="77.490234" xlink:href="#DejaVuSans-97"/>
     <use x="138.769531" xlink:href="#DejaVuSans-109"/>
     <use x="236.181641" xlink:href="#DejaVuSans-101"/>
     <use x="297.705078" xlink:href="#DejaVuSans-83"/>
     <use x="361.181641" xlink:href="#DejaVuSans-116"/>
     <use x="400.390625" xlink:href="#DejaVuSans-111"/>
     <use x="461.572266" xlink:href="#DejaVuSans-112"/>
     <use x="525.048828" xlink:href="#DejaVuSans-32"/>
     <use x="556.835938" xlink:href="#DejaVuSans-67"/>
     <use x="626.660156" xlink:href="#DejaVuSans-111"/>
     <use x="687.841797" xlink:href="#DejaVuSans-114"/>
     <use x="728.955078" xlink:href="#DejaVuSans-112"/>
     <use x="792.431641" xlink:href="#DejaVuSans-46"/>
    </g>
   </g>
   <g id="legend_1">
    <g id="patch_7">
     <path d="M 64.6 64.150125 
L 142.8125 64.150125 
Q 144.8125 64.150125 144.8125 62.150125 
L 144.8125 48.472 
Q 144.8125 46.472 142.8125 46.472 
L 64.6 46.472 
Q 62.6 46.472 62.6 48.472 
L 62.6 62.150125 
Q 62.6 64.150125 64.6 64.150125 
z
" style="fill:#ffffff;opacity:0.8;stroke:#cccccc;stroke-linejoin:miter;"/>
    </g>
    <g id="line2d_21">
     <path d="M 66.6 54.570437 
L 86.6 54.570437 
" style="fill:none;stroke:#1f77b4;stroke-linecap:square;stroke-width:1.5;"/>
    </g>
    <g id="line2d_22"/>
    <g id="text_22">
     <!-- Adj Close -->
     <g transform="translate(94.6 58.070437)scale(0.1 -0.1)">
      <defs>
       <path d="M 34.1875 63.1875 
L 20.796875 26.90625 
L 47.609375 26.90625 
z
M 28.609375 72.90625 
L 39.796875 72.90625 
L 67.578125 0 
L 57.328125 0 
L 50.6875 18.703125 
L 17.828125 18.703125 
L 11.1875 0 
L 0.78125 0 
z
" id="DejaVuSans-65"/>
       <path d="M 45.40625 46.390625 
L 45.40625 75.984375 
L 54.390625 75.984375 
L 54.390625 0 
L 45.40625 0 
L 45.40625 8.203125 
Q 42.578125 3.328125 38.25 0.953125 
Q 33.9375 -1.421875 27.875 -1.421875 
Q 17.96875 -1.421875 11.734375 6.484375 
Q 5.515625 14.40625 5.515625 27.296875 
Q 5.515625 40.1875 11.734375 48.09375 
Q 17.96875 56 27.875 56 
Q 33.9375 56 38.25 53.625 
Q 42.578125 51.265625 45.40625 46.390625 
z
M 14.796875 27.296875 
Q 14.796875 17.390625 18.875 11.75 
Q 22.953125 6.109375 30.078125 6.109375 
Q 37.203125 6.109375 41.296875 11.75 
Q 45.40625 17.390625 45.40625 27.296875 
Q 45.40625 37.203125 41.296875 42.84375 
Q 37.203125 48.484375 30.078125 48.484375 
Q 22.953125 48.484375 18.875 42.84375 
Q 14.796875 37.203125 14.796875 27.296875 
z
" id="DejaVuSans-100"/>
       <path d="M 9.421875 54.6875 
L 18.40625 54.6875 
L 18.40625 -0.984375 
Q 18.40625 -11.421875 14.421875 -16.109375 
Q 10.453125 -20.796875 1.609375 -20.796875 
L -1.8125 -20.796875 
L -1.8125 -13.1875 
L 0.59375 -13.1875 
Q 5.71875 -13.1875 7.5625 -10.8125 
Q 9.421875 -8.453125 9.421875 -0.984375 
z
M 9.421875 75.984375 
L 18.40625 75.984375 
L 18.40625 64.59375 
L 9.421875 64.59375 
z
" id="DejaVuSans-106"/>
       <path d="M 9.421875 75.984375 
L 18.40625 75.984375 
L 18.40625 0 
L 9.421875 0 
z
" id="DejaVuSans-108"/>
       <path d="M 44.28125 53.078125 
L 44.28125 44.578125 
Q 40.484375 46.53125 36.375 47.5 
Q 32.28125 48.484375 27.875 48.484375 
Q 21.1875 48.484375 17.84375 46.4375 
Q 14.5 44.390625 14.5 40.28125 
Q 14.5 37.15625 16.890625 35.375 
Q 19.28125 33.59375 26.515625 31.984375 
L 29.59375 31.296875 
Q 39.15625 29.25 43.1875 25.515625 
Q 47.21875 21.78125 47.21875 15.09375 
Q 47.21875 7.46875 41.1875 3.015625 
Q 35.15625 -1.421875 24.609375 -1.421875 
Q 20.21875 -1.421875 15.453125 -0.5625 
Q 10.6875 0.296875 5.421875 2 
L 5.421875 11.28125 
Q 10.40625 8.6875 15.234375 7.390625 
Q 20.0625 6.109375 24.8125 6.109375 
Q 31.15625 6.109375 34.5625 8.28125 
Q 37.984375 10.453125 37.984375 14.40625 
Q 37.984375 18.0625 35.515625 20.015625 
Q 33.0625 21.96875 24.703125 23.78125 
L 21.578125 24.515625 
Q 13.234375 26.265625 9.515625 29.90625 
Q 5.8125 33.546875 5.8125 39.890625 
Q 5.8125 47.609375 11.28125 51.796875 
Q 16.75 56 26.8125 56 
Q 31.78125 56 36.171875 55.265625 
Q 40.578125 54.546875 44.28125 53.078125 
z
" id="DejaVuSans-115"/>
      </defs>
      <use xlink:href="#DejaVuSans-65"/>
      <use x="66.658203" xlink:href="#DejaVuSans-100"/>
      <use x="130.134766" xlink:href="#DejaVuSans-106"/>
      <use x="157.917969" xlink:href="#DejaVuSans-32"/>
      <use x="189.705078" xlink:href="#DejaVuSans-67"/>
      <use x="259.529297" xlink:href="#DejaVuSans-108"/>
      <use x="287.3125" xlink:href="#DejaVuSans-111"/>
      <use x="348.494141" xlink:href="#DejaVuSans-115"/>
      <use x="400.59375" xlink:href="#DejaVuSans-101"/>
     </g>
    </g>
   </g>
  </g>
 </g>
 <defs>
  <clipPath id="p7078bb3333">
   <rect height="235.008" width="357.12" x="57.6" y="41.472"/>
  </clipPath>
 </defs>
</svg>
