<?xml version="1.0" encoding="utf-8" standalone="no"?>
<!DOCTYPE svg PUBLIC "-//W3C//DTD SVG 1.1//EN"
  "http://www.w3.org/Graphics/SVG/1.1/DTD/svg11.dtd">
<!-- Created with matplotlib (https://matplotlib.org/) -->
<svg height="345.6pt" version="1.1" viewBox="0 0 460.8 345.6" width="460.8pt" xmlns="http://www.w3.org/2000/svg" xmlns:xlink="http://www.w3.org/1999/xlink">
 <metadata>
  <rdf:RDF xmlns:cc="http://creativecommons.org/ns#" xmlns:dc="http://purl.org/dc/elements/1.1/" xmlns:rdf="http://www.w3.org/1999/02/22-rdf-syntax-ns#">
   <cc:Work>
    <dc:type rdf:resource="http://purl.org/dc/dcmitype/StillImage"/>
    <dc:date>2021-03-05T01:51:51.348403</dc:date>
    <dc:format>image/svg+xml</dc:format>
    <dc:creator>
     <cc:Agent>
      <dc:title>Matplotlib v3.3.4, https://matplotlib.org/</dc:title>
     </cc:Agent>
    </dc:creator>
   </cc:Work>
  </rdf:RDF>
 </metadata>
 <defs>
  <style type="text/css">*{stroke-linecap:butt;stroke-linejoin:round;}</style>
 </defs>
 <g id="figure_1">
  <g id="patch_1">
   <path d="M 0 345.6 
L 460.8 345.6 
L 460.8 0 
L 0 0 
z
" style="fill:#ffffff;"/>
  </g>
  <g id="axes_1">
   <g id="patch_2">
    <path d="M 57.6 276.48 
L 414.72 276.48 
L 414.72 41.472 
L 57.6 41.472 
z
" style="fill:#ffffff;"/>
   </g>
   <g id="matplotlib.axis_1">
    <g id="xtick_1">
     <g id="line2d_1">
      <defs>
       <path d="M 0 0 
L 0 3.5 
" id="mb81d08745e" style="stroke:#000000;stroke-width:0.8;"/>
      </defs>
      <g>
       <use style="stroke:#000000;stroke-width:0.8;" x="86.07136" xlink:href="#mb81d08745e" y="276.48"/>
      </g>
     </g>
     <g id="text_1">
      <!-- 2016 -->
      <g transform="translate(62.99117 302.78544)rotate(-30)scale(0.1 -0.1)">
       <defs>
        <path d="M 19.1875 8.296875 
L 53.609375 8.296875 
L 53.609375 0 
L 7.328125 0 
L 7.328125 8.296875 
Q 12.9375 14.109375 22.625 23.890625 
Q 32.328125 33.6875 34.8125 36.53125 
Q 39.546875 41.84375 41.421875 45.53125 
Q 43.3125 49.21875 43.3125 52.78125 
Q 43.3125 58.59375 39.234375 62.25 
Q 35.15625 65.921875 28.609375 65.921875 
Q 23.96875 65.921875 18.8125 64.3125 
Q 13.671875 62.703125 7.8125 59.421875 
L 7.8125 69.390625 
Q 13.765625 71.78125 18.9375 73 
Q 24.125 74.21875 28.421875 74.21875 
Q 39.75 74.21875 46.484375 68.546875 
Q 53.21875 62.890625 53.21875 53.421875 
Q 53.21875 48.921875 51.53125 44.890625 
Q 49.859375 40.875 45.40625 35.40625 
Q 44.1875 33.984375 37.640625 27.21875 
Q 31.109375 20.453125 19.1875 8.296875 
z
" id="DejaVuSans-50"/>
        <path d="M 31.78125 66.40625 
Q 24.171875 66.40625 20.328125 58.90625 
Q 16.5 51.421875 16.5 36.375 
Q 16.5 21.390625 20.328125 13.890625 
Q 24.171875 6.390625 31.78125 6.390625 
Q 39.453125 6.390625 43.28125 13.890625 
Q 47.125 21.390625 47.125 36.375 
Q 47.125 51.421875 43.28125 58.90625 
Q 39.453125 66.40625 31.78125 66.40625 
z
M 31.78125 74.21875 
Q 44.046875 74.21875 50.515625 64.515625 
Q 56.984375 54.828125 56.984375 36.375 
Q 56.984375 17.96875 50.515625 8.265625 
Q 44.046875 -1.421875 31.78125 -1.421875 
Q 19.53125 -1.421875 13.0625 8.265625 
Q 6.59375 17.96875 6.59375 36.375 
Q 6.59375 54.828125 13.0625 64.515625 
Q 19.53125 74.21875 31.78125 74.21875 
z
" id="DejaVuSans-48"/>
        <path d="M 12.40625 8.296875 
L 28.515625 8.296875 
L 28.515625 63.921875 
L 10.984375 60.40625 
L 10.984375 69.390625 
L 28.421875 72.90625 
L 38.28125 72.90625 
L 38.28125 8.296875 
L 54.390625 8.296875 
L 54.390625 0 
L 12.40625 0 
z
" id="DejaVuSans-49"/>
        <path d="M 33.015625 40.375 
Q 26.375 40.375 22.484375 35.828125 
Q 18.609375 31.296875 18.609375 23.390625 
Q 18.609375 15.53125 22.484375 10.953125 
Q 26.375 6.390625 33.015625 6.390625 
Q 39.65625 6.390625 43.53125 10.953125 
Q 47.40625 15.53125 47.40625 23.390625 
Q 47.40625 31.296875 43.53125 35.828125 
Q 39.65625 40.375 33.015625 40.375 
z
M 52.59375 71.296875 
L 52.59375 62.3125 
Q 48.875 64.0625 45.09375 64.984375 
Q 41.3125 65.921875 37.59375 65.921875 
Q 27.828125 65.921875 22.671875 59.328125 
Q 17.53125 52.734375 16.796875 39.40625 
Q 19.671875 43.65625 24.015625 45.921875 
Q 28.375 48.1875 33.59375 48.1875 
Q 44.578125 48.1875 50.953125 41.515625 
Q 57.328125 34.859375 57.328125 23.390625 
Q 57.328125 12.15625 50.6875 5.359375 
Q 44.046875 -1.421875 33.015625 -1.421875 
Q 20.359375 -1.421875 13.671875 8.265625 
Q 6.984375 17.96875 6.984375 36.375 
Q 6.984375 53.65625 15.1875 63.9375 
Q 23.390625 74.21875 37.203125 74.21875 
Q 40.921875 74.21875 44.703125 73.484375 
Q 48.484375 72.75 52.59375 71.296875 
z
" id="DejaVuSans-54"/>
       </defs>
       <use xlink:href="#DejaVuSans-50"/>
       <use x="63.623047" xlink:href="#DejaVuSans-48"/>
       <use x="127.246094" xlink:href="#DejaVuSans-49"/>
       <use x="190.869141" xlink:href="#DejaVuSans-54"/>
      </g>
     </g>
    </g>
    <g id="xtick_2">
     <g id="line2d_2">
      <g>
       <use style="stroke:#000000;stroke-width:0.8;" x="146.602977" xlink:href="#mb81d08745e" y="276.48"/>
      </g>
     </g>
     <g id="text_2">
      <!-- 2017 -->
      <g transform="translate(123.522787 302.78544)rotate(-30)scale(0.1 -0.1)">
       <defs>
        <path d="M 8.203125 72.90625 
L 55.078125 72.90625 
L 55.078125 68.703125 
L 28.609375 0 
L 18.3125 0 
L 43.21875 64.59375 
L 8.203125 64.59375 
z
" id="DejaVuSans-55"/>
       </defs>
       <use xlink:href="#DejaVuSans-50"/>
       <use x="63.623047" xlink:href="#DejaVuSans-48"/>
       <use x="127.246094" xlink:href="#DejaVuSans-49"/>
       <use x="190.869141" xlink:href="#DejaVuSans-55"/>
      </g>
     </g>
    </g>
    <g id="xtick_3">
     <g id="line2d_3">
      <g>
       <use style="stroke:#000000;stroke-width:0.8;" x="206.969207" xlink:href="#mb81d08745e" y="276.48"/>
      </g>
     </g>
     <g id="text_3">
      <!-- 2018 -->
      <g transform="translate(183.889016 302.78544)rotate(-30)scale(0.1 -0.1)">
       <defs>
        <path d="M 31.78125 34.625 
Q 24.75 34.625 20.71875 30.859375 
Q 16.703125 27.09375 16.703125 20.515625 
Q 16.703125 13.921875 20.71875 10.15625 
Q 24.75 6.390625 31.78125 6.390625 
Q 38.8125 6.390625 42.859375 10.171875 
Q 46.921875 13.96875 46.921875 20.515625 
Q 46.921875 27.09375 42.890625 30.859375 
Q 38.875 34.625 31.78125 34.625 
z
M 21.921875 38.8125 
Q 15.578125 40.375 12.03125 44.71875 
Q 8.5 49.078125 8.5 55.328125 
Q 8.5 64.0625 14.71875 69.140625 
Q 20.953125 74.21875 31.78125 74.21875 
Q 42.671875 74.21875 48.875 69.140625 
Q 55.078125 64.0625 55.078125 55.328125 
Q 55.078125 49.078125 51.53125 44.71875 
Q 48 40.375 41.703125 38.8125 
Q 48.828125 37.15625 52.796875 32.3125 
Q 56.78125 27.484375 56.78125 20.515625 
Q 56.78125 9.90625 50.3125 4.234375 
Q 43.84375 -1.421875 31.78125 -1.421875 
Q 19.734375 -1.421875 13.25 4.234375 
Q 6.78125 9.90625 6.78125 20.515625 
Q 6.78125 27.484375 10.78125 32.3125 
Q 14.796875 37.15625 21.921875 38.8125 
z
M 18.3125 54.390625 
Q 18.3125 48.734375 21.84375 45.5625 
Q 25.390625 42.390625 31.78125 42.390625 
Q 38.140625 42.390625 41.71875 45.5625 
Q 45.3125 48.734375 45.3125 54.390625 
Q 45.3125 60.0625 41.71875 63.234375 
Q 38.140625 66.40625 31.78125 66.40625 
Q 25.390625 66.40625 21.84375 63.234375 
Q 18.3125 60.0625 18.3125 54.390625 
z
" id="DejaVuSans-56"/>
       </defs>
       <use xlink:href="#DejaVuSans-50"/>
       <use x="63.623047" xlink:href="#DejaVuSans-48"/>
       <use x="127.246094" xlink:href="#DejaVuSans-49"/>
       <use x="190.869141" xlink:href="#DejaVuSans-56"/>
      </g>
     </g>
    </g>
    <g id="xtick_4">
     <g id="line2d_4">
      <g>
       <use style="stroke:#000000;stroke-width:0.8;" x="267.335436" xlink:href="#mb81d08745e" y="276.48"/>
      </g>
     </g>
     <g id="text_4">
      <!-- 2019 -->
      <g transform="translate(244.255246 302.78544)rotate(-30)scale(0.1 -0.1)">
       <defs>
        <path d="M 10.984375 1.515625 
L 10.984375 10.5 
Q 14.703125 8.734375 18.5 7.8125 
Q 22.3125 6.890625 25.984375 6.890625 
Q 35.75 6.890625 40.890625 13.453125 
Q 46.046875 20.015625 46.78125 33.40625 
Q 43.953125 29.203125 39.59375 26.953125 
Q 35.25 24.703125 29.984375 24.703125 
Q 19.046875 24.703125 12.671875 31.3125 
Q 6.296875 37.9375 6.296875 49.421875 
Q 6.296875 60.640625 12.9375 67.421875 
Q 19.578125 74.21875 30.609375 74.21875 
Q 43.265625 74.21875 49.921875 64.515625 
Q 56.59375 54.828125 56.59375 36.375 
Q 56.59375 19.140625 48.40625 8.859375 
Q 40.234375 -1.421875 26.421875 -1.421875 
Q 22.703125 -1.421875 18.890625 -0.6875 
Q 15.09375 0.046875 10.984375 1.515625 
z
M 30.609375 32.421875 
Q 37.25 32.421875 41.125 36.953125 
Q 45.015625 41.5 45.015625 49.421875 
Q 45.015625 57.28125 41.125 61.84375 
Q 37.25 66.40625 30.609375 66.40625 
Q 23.96875 66.40625 20.09375 61.84375 
Q 16.21875 57.28125 16.21875 49.421875 
Q 16.21875 41.5 20.09375 36.953125 
Q 23.96875 32.421875 30.609375 32.421875 
z
" id="DejaVuSans-57"/>
       </defs>
       <use xlink:href="#DejaVuSans-50"/>
       <use x="63.623047" xlink:href="#DejaVuSans-48"/>
       <use x="127.246094" xlink:href="#DejaVuSans-49"/>
       <use x="190.869141" xlink:href="#DejaVuSans-57"/>
      </g>
     </g>
    </g>
    <g id="xtick_5">
     <g id="line2d_5">
      <g>
       <use style="stroke:#000000;stroke-width:0.8;" x="327.701666" xlink:href="#mb81d08745e" y="276.48"/>
      </g>
     </g>
     <g id="text_5">
      <!-- 2020 -->
      <g transform="translate(304.621476 302.78544)rotate(-30)scale(0.1 -0.1)">
       <use xlink:href="#DejaVuSans-50"/>
       <use x="63.623047" xlink:href="#DejaVuSans-48"/>
       <use x="127.246094" xlink:href="#DejaVuSans-50"/>
       <use x="190.869141" xlink:href="#DejaVuSans-48"/>
      </g>
     </g>
    </g>
    <g id="xtick_6">
     <g id="line2d_6">
      <g>
       <use style="stroke:#000000;stroke-width:0.8;" x="388.233283" xlink:href="#mb81d08745e" y="276.48"/>
      </g>
     </g>
     <g id="text_6">
      <!-- 2021 -->
      <g transform="translate(365.153093 302.78544)rotate(-30)scale(0.1 -0.1)">
       <use xlink:href="#DejaVuSans-50"/>
       <use x="63.623047" xlink:href="#DejaVuSans-48"/>
       <use x="127.246094" xlink:href="#DejaVuSans-50"/>
       <use x="190.869141" xlink:href="#DejaVuSans-49"/>
      </g>
     </g>
    </g>
    <g id="text_7">
     <!-- Date -->
     <g transform="translate(224.209219 316.18494)scale(0.1 -0.1)">
      <defs>
       <path d="M 19.671875 64.796875 
L 19.671875 8.109375 
L 31.59375 8.109375 
Q 46.6875 8.109375 53.6875 14.9375 
Q 60.6875 21.78125 60.6875 36.53125 
Q 60.6875 51.171875 53.6875 57.984375 
Q 46.6875 64.796875 31.59375 64.796875 
z
M 9.8125 72.90625 
L 30.078125 72.90625 
Q 51.265625 72.90625 61.171875 64.09375 
Q 71.09375 55.28125 71.09375 36.53125 
Q 71.09375 17.671875 61.125 8.828125 
Q 51.171875 0 30.078125 0 
L 9.8125 0 
z
" id="DejaVuSans-68"/>
       <path d="M 34.28125 27.484375 
Q 23.390625 27.484375 19.1875 25 
Q 14.984375 22.515625 14.984375 16.5 
Q 14.984375 11.71875 18.140625 8.90625 
Q 21.296875 6.109375 26.703125 6.109375 
Q 34.1875 6.109375 38.703125 11.40625 
Q 43.21875 16.703125 43.21875 25.484375 
L 43.21875 27.484375 
z
M 52.203125 31.203125 
L 52.203125 0 
L 43.21875 0 
L 43.21875 8.296875 
Q 40.140625 3.328125 35.546875 0.953125 
Q 30.953125 -1.421875 24.3125 -1.421875 
Q 15.921875 -1.421875 10.953125 3.296875 
Q 6 8.015625 6 15.921875 
Q 6 25.140625 12.171875 29.828125 
Q 18.359375 34.515625 30.609375 34.515625 
L 43.21875 34.515625 
L 43.21875 35.40625 
Q 43.21875 41.609375 39.140625 45 
Q 35.0625 48.390625 27.6875 48.390625 
Q 23 48.390625 18.546875 47.265625 
Q 14.109375 46.140625 10.015625 43.890625 
L 10.015625 52.203125 
Q 14.9375 54.109375 19.578125 55.046875 
Q 24.21875 56 28.609375 56 
Q 40.484375 56 46.34375 49.84375 
Q 52.203125 43.703125 52.203125 31.203125 
z
" id="DejaVuSans-97"/>
       <path d="M 18.3125 70.21875 
L 18.3125 54.6875 
L 36.8125 54.6875 
L 36.8125 47.703125 
L 18.3125 47.703125 
L 18.3125 18.015625 
Q 18.3125 11.328125 20.140625 9.421875 
Q 21.96875 7.515625 27.59375 7.515625 
L 36.8125 7.515625 
L 36.8125 0 
L 27.59375 0 
Q 17.1875 0 13.234375 3.875 
Q 9.28125 7.765625 9.28125 18.015625 
L 9.28125 47.703125 
L 2.6875 47.703125 
L 2.6875 54.6875 
L 9.28125 54.6875 
L 9.28125 70.21875 
z
" id="DejaVuSans-116"/>
       <path d="M 56.203125 29.59375 
L 56.203125 25.203125 
L 14.890625 25.203125 
Q 15.484375 15.921875 20.484375 11.0625 
Q 25.484375 6.203125 34.421875 6.203125 
Q 39.59375 6.203125 44.453125 7.46875 
Q 49.3125 8.734375 54.109375 11.28125 
L 54.109375 2.78125 
Q 49.265625 0.734375 44.1875 -0.34375 
Q 39.109375 -1.421875 33.890625 -1.421875 
Q 20.796875 -1.421875 13.15625 6.1875 
Q 5.515625 13.8125 5.515625 26.8125 
Q 5.515625 40.234375 12.765625 48.109375 
Q 20.015625 56 32.328125 56 
Q 43.359375 56 49.78125 48.890625 
Q 56.203125 41.796875 56.203125 29.59375 
z
M 47.21875 32.234375 
Q 47.125 39.59375 43.09375 43.984375 
Q 39.0625 48.390625 32.421875 48.390625 
Q 24.90625 48.390625 20.390625 44.140625 
Q 15.875 39.890625 15.1875 32.171875 
z
" id="DejaVuSans-101"/>
      </defs>
      <use xlink:href="#DejaVuSans-68"/>
      <use x="77.001953" xlink:href="#DejaVuSans-97"/>
      <use x="138.28125" xlink:href="#DejaVuSans-116"/>
      <use x="177.490234" xlink:href="#DejaVuSans-101"/>
     </g>
    </g>
   </g>
   <g id="matplotlib.axis_2">
    <g id="ytick_1">
     <g id="line2d_7">
      <defs>
       <path d="M 0 0 
L -3.5 0 
" id="m148846669e" style="stroke:#000000;stroke-width:0.8;"/>
      </defs>
      <g>
       <use style="stroke:#000000;stroke-width:0.8;" x="57.6" xlink:href="#m148846669e" y="268.905279"/>
      </g>
     </g>
     <g id="text_8">
      <!-- 6 -->
      <g transform="translate(44.2375 272.704498)scale(0.1 -0.1)">
       <use xlink:href="#DejaVuSans-54"/>
      </g>
     </g>
    </g>
    <g id="ytick_2">
     <g id="line2d_8">
      <g>
       <use style="stroke:#000000;stroke-width:0.8;" x="57.6" xlink:href="#m148846669e" y="231.426484"/>
      </g>
     </g>
     <g id="text_9">
      <!-- 8 -->
      <g transform="translate(44.2375 235.225702)scale(0.1 -0.1)">
       <use xlink:href="#DejaVuSans-56"/>
      </g>
     </g>
    </g>
    <g id="ytick_3">
     <g id="line2d_9">
      <g>
       <use style="stroke:#000000;stroke-width:0.8;" x="57.6" xlink:href="#m148846669e" y="193.947689"/>
      </g>
     </g>
     <g id="text_10">
      <!-- 10 -->
      <g transform="translate(37.875 197.746907)scale(0.1 -0.1)">
       <use xlink:href="#DejaVuSans-49"/>
       <use x="63.623047" xlink:href="#DejaVuSans-48"/>
      </g>
     </g>
    </g>
    <g id="ytick_4">
     <g id="line2d_10">
      <g>
       <use style="stroke:#000000;stroke-width:0.8;" x="57.6" xlink:href="#m148846669e" y="156.468893"/>
      </g>
     </g>
     <g id="text_11">
      <!-- 12 -->
      <g transform="translate(37.875 160.268112)scale(0.1 -0.1)">
       <use xlink:href="#DejaVuSans-49"/>
       <use x="63.623047" xlink:href="#DejaVuSans-50"/>
      </g>
     </g>
    </g>
    <g id="ytick_5">
     <g id="line2d_11">
      <g>
       <use style="stroke:#000000;stroke-width:0.8;" x="57.6" xlink:href="#m148846669e" y="118.990098"/>
      </g>
     </g>
     <g id="text_12">
      <!-- 14 -->
      <g transform="translate(37.875 122.789317)scale(0.1 -0.1)">
       <defs>
        <path d="M 37.796875 64.3125 
L 12.890625 25.390625 
L 37.796875 25.390625 
z
M 35.203125 72.90625 
L 47.609375 72.90625 
L 47.609375 25.390625 
L 58.015625 25.390625 
L 58.015625 17.1875 
L 47.609375 17.1875 
L 47.609375 0 
L 37.796875 0 
L 37.796875 17.1875 
L 4.890625 17.1875 
L 4.890625 26.703125 
z
" id="DejaVuSans-52"/>
       </defs>
       <use xlink:href="#DejaVuSans-49"/>
       <use x="63.623047" xlink:href="#DejaVuSans-52"/>
      </g>
     </g>
    </g>
    <g id="ytick_6">
     <g id="line2d_12">
      <g>
       <use style="stroke:#000000;stroke-width:0.8;" x="57.6" xlink:href="#m148846669e" y="81.511303"/>
      </g>
     </g>
     <g id="text_13">
      <!-- 16 -->
      <g transform="translate(37.875 85.310522)scale(0.1 -0.1)">
       <use xlink:href="#DejaVuSans-49"/>
       <use x="63.623047" xlink:href="#DejaVuSans-54"/>
      </g>
     </g>
    </g>
    <g id="ytick_7">
     <g id="line2d_13">
      <g>
       <use style="stroke:#000000;stroke-width:0.8;" x="57.6" xlink:href="#m148846669e" y="44.032508"/>
      </g>
     </g>
     <g id="text_14">
      <!-- 18 -->
      <g transform="translate(37.875 47.831727)scale(0.1 -0.1)">
       <use xlink:href="#DejaVuSans-49"/>
       <use x="63.623047" xlink:href="#DejaVuSans-56"/>
      </g>
     </g>
    </g>
   </g>
   <g id="line2d_14">
    <path clip-path="url(#p4b990122de)" d="M 73.832727 223.353214 
L 73.998114 220.298411 
L 74.163501 224.021405 
L 74.328888 219.534743 
L 74.494275 219.057451 
L 74.990436 224.594212 
L 75.155823 231.181016 
L 75.32121 225.930631 
L 75.486597 229.080855 
L 75.651984 240.822624 
L 76.148144 243.018225 
L 76.313531 244.259261 
L 76.644305 254.569059 
L 76.809692 243.87737 
L 77.305853 245.786578 
L 77.47124 243.781949 
L 77.967401 253.518978 
L 78.463561 253.614418 
L 78.628948 255.141791 
L 79.125109 245.691175 
L 79.786657 250.655111 
L 79.952044 246.550321 
L 80.282818 244.354682 
L 80.778978 239.48613 
L 80.944365 232.326556 
L 81.275139 241.777246 
L 81.440526 236.049549 
L 81.936687 233.31905 
L 82.598235 245.486616 
L 83.259782 241.845926 
L 83.425169 240.504616 
L 83.755943 245.678227 
L 84.252104 247.019518 
L 84.417491 246.636297 
L 84.582878 238.492642 
L 84.748265 237.438795 
L 85.409812 235.426783 
L 85.575199 235.714245 
L 85.740586 234.947766 
L 85.905973 235.714245 
L 86.567521 236.384891 
L 86.732908 237.342942 
L 86.898295 239.546527 
L 87.063682 249.989562 
L 87.229069 251.618259 
L 87.725229 254.300898 
L 87.890616 254.300898 
L 88.056003 259.187102 
L 88.22139 256.79187 
L 88.386777 261.199039 
L 89.048325 263.30679 
L 89.213712 265.797818 
L 89.379099 262.444515 
L 89.544486 253.438642 
L 90.040647 253.534419 
L 90.206033 251.043428 
L 90.536807 254.971525 
L 90.702194 249.510527 
L 91.198355 249.223102 
L 91.363742 252.480534 
L 91.529129 253.247013 
L 91.694516 248.648252 
L 91.859903 254.875766 
L 92.356064 261.486464 
L 92.686837 258.133198 
L 92.852224 262.54033 
L 93.017611 263.594196 
L 93.679159 263.210994 
L 94.009933 251.714093 
L 94.17532 250.372802 
L 94.671481 249.127325 
L 94.836868 255.929614 
L 95.167641 250.276987 
L 95.333028 252.576367 
L 95.829189 254.205083 
L 95.994576 254.109269 
L 96.159963 248.169198 
L 96.32535 251.043428 
L 96.490737 233.414865 
L 96.986898 227.790066 
L 97.152285 234.905153 
L 97.483058 228.46311 
L 97.648445 224.328712 
L 98.144606 223.559478 
L 98.47538 216.059784 
L 98.640767 216.34824 
L 98.806154 214.713677 
L 99.302315 211.060019 
L 99.467702 212.982981 
L 99.633089 213.463722 
L 99.798475 212.406108 
L 100.460023 212.982981 
L 100.62541 211.636912 
L 100.790797 209.329286 
L 100.956184 210.867697 
L 101.121571 204.425617 
L 101.617732 207.887027 
L 101.783119 212.021538 
L 101.948506 208.656223 
L 102.113892 210.771545 
L 102.279279 209.329286 
L 102.77544 210.867697 
L 102.940827 215.579006 
L 103.106214 213.079096 
L 103.271601 215.38674 
L 103.436988 214.040595 
L 103.933149 213.656007 
L 104.098536 215.579006 
L 104.429309 213.463722 
L 104.594696 213.175304 
L 105.090857 215.867443 
L 105.256244 214.425203 
L 105.421631 214.905999 
L 105.752405 221.15572 
L 106.248566 223.655649 
L 106.413953 228.174655 
L 106.57934 228.174655 
L 106.744727 230.193844 
L 106.910113 229.61697 
L 107.571661 228.559243 
L 107.737048 227.309307 
L 108.067822 229.713084 
L 108.563983 227.886199 
L 108.894757 230.674528 
L 109.22553 228.751603 
L 109.721691 226.828604 
L 109.887078 225.097908 
L 110.052465 214.521355 
L 110.217852 214.136803 
L 110.383239 205.771724 
L 111.044787 203.752572 
L 111.210174 205.483306 
L 111.375561 203.464154 
L 111.540948 204.906395 
L 112.533269 192.803292 
L 112.698656 196.950209 
L 113.360204 204.761745 
L 113.525591 200.036175 
L 113.690978 201.386405 
L 113.856365 198.686076 
L 114.352525 194.442746 
L 114.517912 190.778032 
L 114.683299 196.082237 
L 114.848686 191.838869 
L 115.014073 206.208295 
L 115.510234 215.466439 
L 115.675621 213.537705 
L 116.171782 203.025802 
L 116.833329 205.822545 
L 117.164103 203.218706 
L 117.32949 197.721653 
L 117.825651 194.828478 
L 117.991038 191.453119 
L 118.156425 193.285457 
L 118.321812 188.559999 
L 118.487199 190.68158 
L 119.148746 190.488733 
L 119.314133 187.884894 
L 119.47952 190.874502 
L 119.644907 187.981289 
L 120.141068 186.438325 
L 120.306455 184.123784 
L 120.637229 185.473958 
L 120.802616 178.626732 
L 121.298776 178.048116 
L 121.464163 181.037724 
L 121.794937 171.490245 
L 121.960324 170.043676 
L 122.456485 172.551101 
L 122.621872 172.068861 
L 122.787259 173.515468 
L 123.118033 170.236523 
L 123.77958 168.548853 
L 123.944967 172.647496 
L 124.110354 170.525859 
L 124.771902 169.754321 
L 124.937289 169.850791 
L 125.102676 172.165313 
L 125.268063 170.718762 
L 125.43345 171.29736 
L 125.929611 170.718762 
L 126.260384 174.190498 
L 126.425771 167.632665 
L 126.591158 167.1505 
L 127.252706 170.525859 
L 127.418093 168.307751 
L 127.748867 179.591155 
L 128.245028 176.022893 
L 128.410414 177.276596 
L 128.575801 175.347787 
L 128.741188 167.922001 
L 129.402736 162.617815 
L 129.568123 163.196506 
L 129.73351 158.374559 
L 129.898897 157.217251 
L 130.064284 159.724658 
L 130.560445 161.556996 
L 130.891218 159.146023 
L 131.221992 161.942746 
L 131.718153 162.90717 
L 131.88354 165.414576 
L 132.048927 161.460582 
L 132.214314 162.617815 
L 132.379701 165.373049 
L 132.875862 163.826281 
L 133.041249 168.853274 
L 133.206635 168.659958 
L 133.537409 173.203606 
L 134.03357 175.717084 
L 134.529731 169.820058 
L 134.695118 172.23686 
L 135.191279 171.753496 
L 135.356666 172.526889 
L 135.522053 170.593471 
L 135.687439 166.82316 
L 135.852826 167.016513 
L 136.348987 164.116292 
L 136.514374 167.886602 
L 136.679761 168.466643 
L 136.845148 170.593471 
L 137.010535 168.27329 
L 137.672083 156.672441 
L 137.83747 156.769117 
L 138.002856 158.315905 
L 138.168243 155.995742 
L 138.664404 155.609036 
L 138.829791 155.028996 
L 139.160565 153.19216 
L 139.325952 155.995742 
L 139.822113 157.832541 
L 139.9875 160.249286 
L 140.152887 153.67558 
L 140.48366 156.865775 
L 140.979821 155.705694 
L 141.145208 151.838782 
L 141.310595 151.258723 
L 141.475982 155.415646 
L 141.641369 150.775377 
L 142.13753 147.295096 
L 142.302917 149.711954 
L 142.468304 142.751467 
L 142.633691 143.138155 
L 142.799077 144.394875 
L 143.295238 149.677605 
L 143.460625 149.386807 
L 143.626012 149.483764 
L 143.956786 153.651781 
L 144.783721 149.774581 
L 144.949108 151.034637 
L 145.114495 150.453078 
L 145.776042 151.228515 
L 145.941429 155.49347 
L 146.106816 155.105752 
L 146.272203 157.04438 
L 146.933751 156.462803 
L 147.264525 152.973246 
L 147.429912 157.43208 
L 147.926072 162.666312 
L 148.091459 158.886032 
L 148.256846 160.727721 
L 148.422233 160.824623 
L 148.58762 158.98299 
L 149.249168 161.406238 
L 149.414555 159.758389 
L 149.579942 160.630764 
L 149.745329 159.564548 
L 150.241489 162.569411 
L 150.406876 159.467591 
L 150.572263 158.595272 
L 150.73765 162.084772 
L 150.903037 162.76327 
L 151.399198 166.640489 
L 151.564585 161.503176 
L 151.729972 162.375552 
L 151.895359 161.406238 
L 152.060746 153.554842 
L 152.556906 153.167143 
L 152.722293 151.713228 
L 152.88768 152.294768 
L 153.053067 147.932873 
L 153.218454 148.805267 
L 153.880002 147.351296 
L 154.045389 145.025006 
L 154.210776 145.509625 
L 155.203097 141.147749 
L 155.368484 142.310885 
L 155.533871 158.789131 
L 156.030032 165.089597 
L 156.360806 156.656606 
L 156.526193 158.886032 
L 156.69158 157.916737 
L 157.18774 157.722859 
L 157.683901 163.538743 
L 157.849288 164.50802 
L 158.345449 164.36219 
L 158.510836 165.237095 
L 158.676223 160.765313 
L 158.84161 161.251394 
L 159.006997 159.209905 
L 159.503158 158.23778 
L 159.668544 165.042693 
L 159.999318 159.695968 
L 160.164705 159.987571 
L 160.660866 160.473653 
L 160.826253 157.654479 
L 160.99164 151.238447 
L 161.157027 151.724472 
L 161.322414 150.946787 
L 161.818575 153.353431 
L 161.983961 149.071348 
L 162.149348 149.071348 
L 162.314735 147.514272 
L 162.480122 144.14045 
L 162.976283 143.880947 
L 163.472444 147.903508 
L 164.464765 145.697619 
L 164.630152 143.491673 
L 164.795539 145.957103 
L 165.622474 139.858404 
L 165.787861 139.598919 
L 165.953248 139.598919 
L 166.449409 138.301291 
L 166.780182 139.079876 
L 167.110956 137.003663 
L 167.607117 136.225116 
L 167.772504 137.652477 
L 167.937891 134.797755 
L 168.103278 136.614389 
L 168.268665 136.354886 
L 168.764826 134.927525 
L 168.930213 133.370412 
L 169.095599 137.392936 
L 169.260986 137.652477 
L 169.426373 140.896473 
L 170.253308 135.965631 
L 170.418695 136.87393 
L 170.584082 137.003663 
L 171.24563 136.744197 
L 171.411017 137.263222 
L 171.576403 154.002264 
L 171.74179 155.559377 
L 172.403338 160.360485 
L 172.568725 160.230715 
L 172.734112 160.100926 
L 172.899499 160.879511 
L 173.39566 161.85647 
L 173.561047 161.46566 
L 174.057207 166.545742 
L 174.553368 163.5498 
L 174.884142 165.5037 
L 175.214916 161.85647 
L 175.711077 162.377463 
L 175.876464 166.415466 
L 176.041851 161.205145 
L 176.207238 164.46164 
L 176.372624 165.243148 
L 176.868785 164.201106 
L 177.199559 160.684115 
L 177.364946 166.676037 
L 177.530333 164.982652 
L 178.191881 162.768273 
L 178.357268 162.638016 
L 178.688041 157.427676 
L 179.184202 156.906608 
L 179.349589 157.948725 
L 179.680363 148.179334 
L 179.84575 146.746501 
L 180.341911 148.960879 
L 180.507298 148.439905 
L 180.672685 151.95684 
L 181.003459 153.259397 
L 181.499619 153.259397 
L 181.665006 152.738367 
L 181.830393 155.34348 
L 181.99578 156.125082 
L 182.161167 153.259397 
L 182.657328 151.696306 
L 182.822715 151.696306 
L 182.988102 151.566086 
L 183.153489 158.33946 
L 183.318876 155.994805 
L 183.815036 152.347594 
L 183.980423 150.133197 
L 184.14581 152.087079 
L 184.476584 157.557934 
L 184.972745 155.864585 
L 185.138132 151.175276 
L 185.303519 150.654227 
L 185.468906 147.528065 
L 185.634293 147.528065 
L 186.130453 149.612167 
L 186.461227 147.137273 
L 186.626614 146.095194 
L 186.792001 141.072567 
L 187.453549 145.605983 
L 187.618936 150.139325 
L 187.784323 158.870291 
L 187.94971 161.053 
L 188.44587 157.19126 
L 188.611257 159.975185 
L 188.776644 158.119235 
L 188.942031 154.069876 
L 189.107418 153.226228 
L 189.603579 152.88875 
L 189.768966 153.732398 
L 190.09974 148.670662 
L 190.265127 140.740617 
L 190.926674 130.110975 
L 191.092061 130.785875 
L 191.257448 135.510152 
L 191.422835 133.148013 
L 191.918996 128.761158 
L 192.084383 133.485472 
L 192.24977 131.629503 
L 192.415157 131.123315 
L 192.580544 131.629503 
L 193.076704 131.629503 
L 193.242091 128.929887 
L 193.407478 129.267365 
L 193.572865 131.629503 
L 193.738252 130.110975 
L 194.234413 130.617164 
L 194.3998 134.835233 
L 194.565187 133.316743 
L 194.730574 147.489593 
L 194.895961 144.452573 
L 195.557508 139.896988 
L 195.722895 143.777655 
L 195.888282 140.909366 
L 196.053669 140.403158 
L 196.715217 146.477253 
L 196.880604 151.876429 
L 197.045991 151.370241 
L 197.211378 153.563706 
L 197.707539 151.370241 
L 198.038312 152.88875 
L 198.203699 149.85175 
L 198.369086 150.189153 
L 198.865247 153.901146 
L 199.196021 159.300285 
L 199.361408 157.444335 
L 199.526795 150.526612 
L 200.022956 143.608907 
L 200.188343 143.102756 
L 200.353729 160.312644 
L 200.684503 156.600706 
L 201.180664 154.069876 
L 201.346051 147.152152 
L 201.511438 145.633643 
L 201.676825 145.971064 
L 201.842212 137.703598 
L 202.338373 141.246806 
L 202.50376 143.777655 
L 203.496081 135.341422 
L 203.661468 135.426237 
L 203.992242 139.835767 
L 204.65379 128.642369 
L 204.984564 131.864702 
L 205.14995 131.695091 
L 205.315337 131.864702 
L 205.976885 131.355908 
L 206.307659 133.560655 
L 206.473046 137.800574 
L 207.299981 132.034274 
L 207.465367 125.92881 
L 207.630754 126.098402 
L 208.126915 129.999138 
L 208.292302 129.490326 
L 208.788463 113.20905 
L 209.450011 113.20905 
L 209.615398 108.799539 
L 209.780785 110.495492 
L 209.946171 108.629929 
L 210.442332 109.138741 
L 210.607719 98.623746 
L 210.773106 98.454061 
L 210.938493 101.846042 
L 211.10388 97.945361 
L 211.600041 93.535775 
L 211.765428 100.828399 
L 211.930815 103.202849 
L 212.096202 96.588517 
L 212.261588 98.962929 
L 212.757749 115.75298 
L 212.923136 114.565839 
L 213.088523 117.448933 
L 213.25391 126.267993 
L 213.419297 121.858482 
L 213.915458 114.226637 
L 214.080845 118.975313 
L 214.246232 107.44275 
L 214.411619 104.05077 
L 214.577006 103.372441 
L 215.238553 101.16762 
L 215.40394 105.746779 
L 215.569327 103.033202 
L 215.734714 73.692983 
L 216.230875 66.739505 
L 216.396262 62.160345 
L 216.727036 69.283415 
L 216.892423 62.838749 
L 217.388583 59.446768 
L 217.55397 52.154182 
L 217.884744 59.955562 
L 218.050131 56.394102 
L 218.546292 57.920463 
L 218.711679 59.878505 
L 219.704 62.943334 
L 219.869387 61.581186 
L 220.034774 62.773049 
L 220.200161 69.413448 
L 220.365548 81.161926 
L 220.861709 75.032175 
L 221.027096 82.353695 
L 221.192483 80.651052 
L 222.019417 89.845369 
L 222.184804 89.504931 
L 222.350191 87.631965 
L 222.515578 88.483296 
L 222.680965 96.996604 
L 223.177126 95.123677 
L 223.342513 87.631965 
L 223.5079 87.80225 
L 223.673287 84.907669 
L 223.838674 85.077973 
L 224.334834 82.353695 
L 224.500221 79.118582 
L 224.665608 80.310501 
L 224.996382 86.950882 
L 225.492543 84.73744 
L 225.823317 86.610368 
L 225.988704 85.248295 
L 226.154091 85.929285 
L 226.650251 91.037289 
L 226.815638 88.823828 
L 226.981025 89.845369 
L 227.146412 93.5913 
L 227.311799 88.31303 
L 227.80796 86.780653 
L 227.973347 85.248295 
L 228.138734 81.672649 
L 228.469508 80.480768 
L 228.965669 81.842878 
L 229.131055 85.077973 
L 229.296442 81.161926 
L 229.461829 80.480768 
L 229.627216 82.353695 
L 230.123377 83.205026 
L 230.288764 84.907669 
L 230.454151 116.06649 
L 230.619538 113.001643 
L 230.784925 117.088068 
L 231.446472 119.471813 
L 231.611859 116.236719 
L 231.777246 121.855521 
L 231.942633 116.917783 
L 232.438794 116.747536 
L 232.604181 107.893677 
L 232.769568 108.574722 
L 232.934955 110.27744 
L 233.100342 108.745007 
L 233.596503 108.574722 
L 233.76189 110.581019 
L 233.927276 110.581019 
L 234.092663 110.066585 
L 234.25805 107.837402 
L 234.919598 108.694786 
L 235.084985 121.555484 
L 235.250372 116.925616 
L 235.415759 120.012164 
L 235.91192 122.927283 
L 236.077307 121.212516 
L 236.242693 128.92895 
L 236.40808 129.100434 
L 236.573467 130.815164 
L 237.069628 127.557133 
L 237.235015 128.07151 
L 237.565789 127.214202 
L 237.731176 124.470604 
L 238.227337 120.183686 
L 238.392724 115.553799 
L 238.55811 122.412868 
L 238.888884 115.725283 
L 239.550432 112.810201 
L 239.715819 108.180371 
L 240.046593 116.068233 
L 240.542754 116.068233 
L 240.708141 118.983333 
L 241.038914 112.295786 
L 241.204301 114.010534 
L 241.700462 116.411201 
L 241.865849 116.582667 
L 242.031236 116.411201 
L 242.196623 114.696434 
L 242.36201 107.322949 
L 242.858171 106.808553 
L 243.023558 104.750855 
L 243.188945 104.236421 
L 243.354331 105.093767 
L 243.519718 109.552151 
L 244.015879 112.810201 
L 244.181266 107.151521 
L 244.346653 106.465585 
L 244.677427 95.491119 
L 245.173588 94.633754 
L 245.338975 110.752484 
L 245.504362 110.066585 
L 245.835135 103.550484 
L 246.331296 99.263603 
L 246.496683 94.290842 
L 246.66207 94.805238 
L 246.827457 93.433383 
L 246.992844 97.891785 
L 247.654392 95.491119 
L 247.985166 98.063251 
L 248.150552 97.891785 
L 248.646713 99.949502 
L 248.8121 97.307735 
L 248.977487 98.171059 
L 249.142874 95.753695 
L 249.308261 95.063073 
L 249.804422 100.243018 
L 250.135196 94.027141 
L 250.46597 87.465766 
L 250.96213 89.19247 
L 251.127517 95.581068 
L 251.292904 96.271708 
L 251.458291 100.243018 
L 251.623678 99.725042 
L 252.119839 101.969666 
L 252.450613 92.127772 
L 252.616 90.401124 
L 252.781387 102.660344 
L 253.277547 106.976945 
L 253.442934 110.430279 
L 253.773708 128.732749 
L 253.939095 115.092229 
L 254.435256 116.473528 
L 254.600643 113.538208 
L 254.76603 113.365562 
L 254.931417 116.646212 
L 255.592964 107.840251 
L 255.758351 111.120938 
L 255.923738 120.790167 
L 256.089125 119.754179 
L 256.254512 128.732749 
L 256.750673 129.768756 
L 257.412221 106.976945 
L 257.908381 106.286323 
L 258.073768 107.149629 
L 258.239155 100.933677 
L 258.404542 100.761012 
L 258.569929 109.912266 
L 259.06609 117.509517 
L 259.231477 116.473528 
L 259.396864 119.754179 
L 259.562251 116.818839 
L 260.223798 125.279434 
L 260.389185 130.459415 
L 260.554572 127.524076 
L 260.885346 130.286713 
L 261.546894 121.308143 
L 261.712281 114.401551 
L 262.043055 122.344151 
L 262.539215 113.710892 
L 262.704602 121.480845 
L 263.035376 104.732303 
L 263.200763 127.351449 
L 263.696924 129.768756 
L 263.862311 124.844099 
L 264.193085 129.194487 
L 264.854633 144.855808 
L 265.020019 144.159752 
L 265.350793 161.213222 
L 265.51618 161.90924 
L 266.012341 167.825718 
L 266.508502 153.382515 
L 266.673889 154.600632 
L 267.17005 151.468341 
L 267.500823 147.11799 
L 267.66621 151.990402 
L 267.831597 141.201513 
L 268.327758 136.503096 
L 268.493145 141.201513 
L 268.658532 136.677148 
L 268.989306 133.544857 
L 269.485467 134.936951 
L 269.650854 130.064595 
L 269.981627 133.022815 
L 270.147014 125.888202 
L 270.808562 129.890562 
L 270.973949 130.064595 
L 271.139336 124.496108 
L 271.304723 114.229223 
L 271.800884 108.834807 
L 271.966271 113.881195 
L 272.297044 110.052905 
L 272.462431 108.312764 
L 272.958592 106.572605 
L 273.123979 104.832427 
L 273.289366 101.352146 
L 273.454753 105.528502 
L 273.62014 104.310423 
L 274.116301 105.702516 
L 274.281688 102.91831 
L 274.447075 102.048259 
L 274.612461 103.092306 
L 274.777848 101.352146 
L 275.439396 101.352146 
L 275.604783 102.048259 
L 275.935557 97.349861 
L 276.431718 89.693149 
L 276.597105 88.997074 
L 276.762492 90.737271 
L 276.927878 96.30572 
L 277.093265 96.30572 
L 277.589426 100.134029 
L 277.754813 100.482076 
L 278.250974 109.704877 
L 278.747135 104.832427 
L 278.912522 113.01714 
L 279.408682 99.697308 
L 279.904843 103.728321 
L 280.07023 103.02728 
L 280.235617 103.202531 
L 280.401004 100.573581 
L 280.566391 113.367661 
L 281.062552 115.821322 
L 281.227939 113.01714 
L 281.393326 113.893451 
L 281.558713 113.893451 
L 282.22026 102.676741 
L 282.385647 104.078841 
L 282.551034 103.55307 
L 282.881808 98.295245 
L 283.377969 97.594185 
L 283.543356 101.80043 
L 283.708743 96.192085 
L 283.87413 96.192085 
L 284.039517 93.913711 
L 284.535677 92.336341 
L 284.701064 90.408488 
L 284.866451 90.934259 
L 285.031838 89.356927 
L 285.693386 90.583758 
L 285.858773 91.6353 
L 286.354934 104.955114 
L 286.851094 106.006694 
L 287.016481 104.254073 
L 287.181868 104.604631 
L 287.347255 105.480923 
L 287.512642 102.150988 
L 288.008803 106.883023 
L 288.339577 112.316099 
L 288.504964 114.594492 
L 288.670351 122.130728 
L 289.166511 133.172149 
L 289.331898 131.770049 
L 289.662672 126.687512 
L 289.828059 125.110161 
L 290.32422 122.831769 
L 290.489607 114.068683 
L 290.820381 130.367967 
L 290.985768 129.141155 
L 291.812702 133.697939 
L 291.978089 132.120588 
L 292.143476 140.883636 
L 292.639637 141.409426 
L 292.805024 133.697939 
L 292.970411 134.39898 
L 293.135798 136.15162 
L 293.301185 134.39898 
L 293.797345 131.419547 
L 293.962732 129.423258 
L 294.128119 131.543209 
L 294.293506 127.833333 
L 294.458893 131.366552 
L 294.955054 128.716614 
L 295.451215 116.350411 
L 295.616602 117.410348 
L 296.112762 116.173717 
L 296.278149 120.590218 
L 296.443536 117.057017 
L 296.608923 116.88038 
L 296.77431 117.233673 
L 297.270471 113.87711 
L 297.435858 114.937085 
L 297.601245 111.227209 
L 298.42818 115.820386 
L 298.92434 123.416794 
L 299.089727 117.940299 
L 299.585888 117.057017 
L 299.916662 121.826868 
L 300.247436 119.176949 
L 300.743597 128.716614 
L 301.07437 120.943549 
L 301.239757 125.006757 
L 301.405144 122.886844 
L 301.901305 122.356837 
L 302.066692 123.240156 
L 302.397466 131.543209 
L 302.562853 146.912681 
L 303.059014 153.449152 
L 303.224401 150.44592 
L 303.389787 150.622595 
L 303.555174 141.966211 
L 303.720561 144.792768 
L 304.216722 150.269264 
L 304.382109 144.616131 
L 304.712883 157.335684 
L 305.374431 149.739295 
L 305.539818 152.742527 
L 305.870591 147.266032 
L 306.035978 156.099071 
L 306.532139 152.742527 
L 306.697526 152.919183 
L 307.0283 139.669604 
L 307.193687 137.196341 
L 307.855235 143.026149 
L 308.020621 138.432992 
L 308.186008 126.950032 
L 308.351395 123.946763 
L 308.847556 117.233673 
L 309.17833 107.745954 
L 309.343717 107.923959 
L 309.509104 108.635982 
L 310.005265 112.196111 
L 310.170652 114.510183 
L 310.336039 118.96034 
L 310.501425 117.002261 
L 310.666812 124.478531 
L 311.162973 125.012585 
L 311.32836 127.682649 
L 311.493747 121.630442 
L 311.659134 120.91842 
L 311.824521 114.332196 
L 312.320682 111.306046 
L 312.651456 124.300544 
L 312.816842 123.232492 
L 312.982229 125.012585 
L 313.47839 125.902594 
L 313.643777 134.802889 
L 313.809164 130.886786 
L 313.974551 130.174727 
L 314.636099 115.222224 
L 314.801486 111.840081 
L 314.966873 112.730128 
L 315.297646 108.101927 
L 315.793807 97.065547 
L 315.959194 97.421595 
L 316.124581 96.175538 
L 316.289968 98.489628 
L 316.455355 93.68346 
L 317.116903 88.343257 
L 317.28229 91.013377 
L 317.613063 87.631253 
L 318.109224 84.961095 
L 318.770772 71.076626 
L 319.266933 70.542665 
L 319.763094 78.196866 
L 319.928481 74.636755 
L 320.424641 73.746728 
L 320.590028 70.898658 
L 320.755415 76.594797 
L 320.920802 77.306876 
L 321.086189 76.594797 
L 321.58235 70.720652 
L 321.747737 97.065547 
L 321.913124 97.599582 
L 322.243898 99.557662 
L 322.740058 100.8037 
L 322.905445 103.473802 
L 323.236219 97.777588 
L 323.401606 98.133599 
L 323.897767 98.489628 
L 324.228541 96.696025 
L 324.393928 87.189903 
L 324.559315 93.826217 
L 325.055475 92.929443 
L 325.220862 97.234089 
L 325.386249 95.978549 
L 325.717023 101.897463 
L 326.378571 95.799194 
L 326.709345 95.081757 
L 326.874732 96.157923 
L 327.370892 98.310255 
L 327.536279 96.875361 
L 327.867053 91.315194 
L 328.03244 98.48961 
L 328.528601 99.386402 
L 328.693988 100.821315 
L 328.859375 98.668965 
L 329.024762 100.283251 
L 329.190149 103.87044 
L 329.686309 102.435546 
L 329.851696 102.614919 
L 330.017083 103.511731 
L 330.18247 98.48961 
L 330.347857 110.506773 
L 331.009405 114.094019 
L 331.340179 109.430626 
L 331.505566 116.60506 
L 332.001726 120.909725 
L 332.167113 119.116121 
L 332.3325 122.703347 
L 332.497887 122.703347 
L 332.663274 131.492012 
L 333.159435 127.725431 
L 333.324822 122.703347 
L 333.490209 114.273373 
L 333.655596 113.73529 
L 333.820983 116.963807 
L 334.317144 116.425687 
L 334.647917 111.762331 
L 334.978691 122.3446 
L 335.640239 123.420767 
L 335.805626 121.806517 
L 335.971013 121.806517 
L 336.1364 127.007993 
L 336.632561 135.437967 
L 337.128721 155.705732 
L 337.294108 151.939131 
L 337.790269 150.145527 
L 338.28643 169.875246 
L 338.451817 166.288 
L 338.947978 181.533681 
L 339.113365 172.467991 
L 339.444138 215.983346 
L 339.609525 202.566106 
L 340.105686 229.944516 
L 340.271073 231.39502 
L 340.43646 226.680881 
L 340.601847 216.16465 
L 340.767234 224.867732 
L 341.263395 239.37285 
L 341.759555 190.418067 
L 341.924942 203.291358 
L 342.421103 199.12113 
L 342.751877 207.64289 
L 343.082651 212.719693 
L 343.578812 203.110036 
L 343.744199 206.192386 
L 344.074972 190.418067 
L 344.73652 193.500417 
L 344.901907 193.500417 
L 345.067294 208.730768 
L 345.232681 212.357048 
L 345.398068 205.285811 
L 345.894229 211.631796 
L 346.059616 217.252547 
L 346.225003 217.615173 
L 346.555776 208.549465 
L 347.051937 206.192386 
L 347.217324 203.653984 
L 347.382711 194.406954 
L 347.548098 198.939808 
L 347.713485 209.45602 
L 348.209646 211.26917 
L 348.375033 210.725221 
L 348.54042 211.813118 
L 348.705807 207.64289 
L 348.871193 195.494851 
L 349.532741 209.45602 
L 349.698128 216.708598 
L 349.863515 215.076772 
L 350.028902 216.16465 
L 350.525063 200.209027 
L 350.69045 199.302453 
L 351.021224 193.500417 
L 351.18661 215.076772 
L 351.848158 210.543917 
L 352.013545 204.379237 
L 352.178932 207.461568 
L 352.344319 205.285811 
L 352.84048 204.379237 
L 353.005867 200.934279 
L 353.502028 179.901873 
L 353.998188 171.198772 
L 354.328962 185.306053 
L 354.494349 202.711074 
L 354.659736 195.382639 
L 355.155897 194.283367 
L 355.321284 190.619141 
L 355.486671 197.397949 
L 355.652058 195.565817 
L 355.817445 201.428587 
L 356.478992 204.176739 
L 356.644379 211.505174 
L 356.809766 207.840947 
L 357.471314 205.825637 
L 357.636701 203.077504 
L 357.802088 208.757022 
L 357.967475 208.940237 
L 358.629022 205.642422 
L 358.794409 215.1694 
L 358.959796 212.604445 
L 359.125183 216.818299 
L 359.29057 211.688389 
L 359.952118 207.108124 
L 360.282892 203.260701 
L 360.944439 206.375282 
L 361.4406 201.428587 
L 361.605987 205.092814 
L 362.102148 202.711074 
L 362.267535 207.657769 
L 362.432922 203.443897 
L 362.598309 205.092814 
L 362.763696 200.512549 
L 363.259856 200.1461 
L 363.425243 198.863632 
L 363.59063 198.863632 
L 363.756017 196.115481 
L 363.921404 196.481892 
L 364.417565 194.283367 
L 364.748339 195.565817 
L 364.913726 205.276029 
L 365.079113 204.176739 
L 365.575273 208.024162 
L 365.74066 208.207396 
L 365.906047 208.757022 
L 366.071434 211.688389 
L 366.236821 210.405921 
L 366.732982 205.092814 
L 366.898369 210.405921 
L 367.063756 204.176739 
L 367.229143 206.008852 
L 367.39453 201.245372 
L 367.890691 204.176739 
L 368.056077 207.840947 
L 368.221464 201.245372 
L 368.386851 206.924909 
L 368.552238 205.642422 
L 369.213786 206.384558 
L 369.379173 205.827961 
L 369.54456 210.280741 
L 369.709947 209.909701 
L 370.206108 207.497772 
L 370.371494 209.167546 
L 370.702268 202.673914 
L 370.867655 205.085843 
L 371.363816 210.09524 
L 371.529203 208.610949 
L 371.69459 213.063748 
L 371.859977 211.950534 
L 372.025364 212.321612 
L 372.521525 205.456921 
L 372.686911 207.312233 
L 372.852298 207.497772 
L 373.017685 210.09524 
L 373.183072 206.570097 
L 373.679233 200.076446 
L 373.84462 203.972629 
L 374.175394 195.994762 
L 374.340781 199.334328 
L 374.836942 197.107938 
L 375.002329 199.890945 
L 375.167715 200.261985 
L 375.333102 198.035594 
L 375.498489 205.456921 
L 375.99465 207.868831 
L 376.160037 208.054351 
L 376.325424 208.425429 
L 376.490811 205.827961 
L 376.656198 205.456921 
L 377.152359 213.249268 
L 377.483132 226.051013 
L 377.813906 221.041616 
L 378.310067 216.032256 
L 378.475454 208.425429 
L 378.640841 217.702049 
L 378.806228 209.167546 
L 378.971615 210.837358 
L 379.633163 197.479016 
L 379.79855 196.736879 
L 379.963936 201.931796 
L 380.129323 193.211755 
L 380.625484 184.120655 
L 380.790871 186.903661 
L 380.956258 186.532584 
L 381.121645 186.718123 
L 381.287032 187.0892 
L 381.783193 175.957267 
L 381.94858 167.422765 
L 382.113967 172.803183 
L 382.44474 173.174261 
L 382.940901 176.513846 
L 383.106288 173.545338 
L 383.271675 167.608285 
L 383.437062 165.938492 
L 383.602449 152.394611 
L 384.09861 157.218469 
L 384.263997 154.594954 
L 384.429384 154.032772 
L 384.594771 154.220166 
L 384.760157 156.656287 
L 385.256318 158.905015 
L 385.421705 153.283196 
L 385.587092 153.47059 
L 385.752479 153.095802 
L 385.917866 154.220166 
L 386.579414 163.777259 
L 386.744801 161.153743 
L 386.910188 160.966349 
L 387.571735 160.404167 
L 387.737122 162.652895 
L 387.902509 162.465501 
L 388.067896 159.279803 
L 388.729444 164.526834 
L 389.060218 155.719318 
L 389.390992 158.717621 
L 389.887152 157.031075 
L 390.052539 153.845378 
L 390.217926 153.283196 
L 390.383313 147.473983 
L 390.5487 146.349619 
L 391.210248 150.65968 
L 391.375635 150.097498 
L 391.706409 153.845378 
L 392.202569 150.847074 
L 392.367956 152.346226 
L 392.533343 136.417738 
L 392.864117 150.097498 
L 393.360278 149.347922 
L 393.525665 149.910104 
L 393.856439 138.479072 
L 394.021826 135.10598 
L 394.683373 126.485857 
L 395.014147 115.429613 
L 395.179534 111.869127 
L 395.841082 113.368279 
L 396.006469 118.990098 
L 396.171856 120.114462 
L 396.337243 116.553977 
L 396.833403 110.182582 
L 396.99879 110.182582 
L 397.164177 103.249004 
L 397.329564 109.807794 
L 397.494951 108.496036 
L 397.991112 107.74646 
L 398.156499 109.6204 
L 398.321886 108.496036 
L 398.487273 118.240522 
L 398.487273 118.240522 
" style="fill:none;stroke:#1f77b4;stroke-linecap:square;stroke-width:1.5;"/>
   </g>
   <g id="patch_3">
    <path d="M 57.6 276.48 
L 57.6 41.472 
" style="fill:none;stroke:#000000;stroke-linecap:square;stroke-linejoin:miter;stroke-width:0.8;"/>
   </g>
   <g id="patch_4">
    <path d="M 414.72 276.48 
L 414.72 41.472 
" style="fill:none;stroke:#000000;stroke-linecap:square;stroke-linejoin:miter;stroke-width:0.8;"/>
   </g>
   <g id="patch_5">
    <path d="M 57.6 276.48 
L 414.72 276.48 
" style="fill:none;stroke:#000000;stroke-linecap:square;stroke-linejoin:miter;stroke-width:0.8;"/>
   </g>
   <g id="patch_6">
    <path d="M 57.6 41.472 
L 414.72 41.472 
" style="fill:none;stroke:#000000;stroke-linecap:square;stroke-linejoin:miter;stroke-width:0.8;"/>
   </g>
   <g id="text_15">
    <!-- Hewlett Packard Enterprise Company -->
    <g transform="translate(124.315313 35.472)scale(0.12 -0.12)">
     <defs>
      <path d="M 9.8125 72.90625 
L 19.671875 72.90625 
L 19.671875 43.015625 
L 55.515625 43.015625 
L 55.515625 72.90625 
L 65.375 72.90625 
L 65.375 0 
L 55.515625 0 
L 55.515625 34.71875 
L 19.671875 34.71875 
L 19.671875 0 
L 9.8125 0 
z
" id="DejaVuSans-72"/>
      <path d="M 4.203125 54.6875 
L 13.1875 54.6875 
L 24.421875 12.015625 
L 35.59375 54.6875 
L 46.1875 54.6875 
L 57.421875 12.015625 
L 68.609375 54.6875 
L 77.59375 54.6875 
L 63.28125 0 
L 52.6875 0 
L 40.921875 44.828125 
L 29.109375 0 
L 18.5 0 
z
" id="DejaVuSans-119"/>
      <path d="M 9.421875 75.984375 
L 18.40625 75.984375 
L 18.40625 0 
L 9.421875 0 
z
" id="DejaVuSans-108"/>
      <path id="DejaVuSans-32"/>
      <path d="M 19.671875 64.796875 
L 19.671875 37.40625 
L 32.078125 37.40625 
Q 38.96875 37.40625 42.71875 40.96875 
Q 46.484375 44.53125 46.484375 51.125 
Q 46.484375 57.671875 42.71875 61.234375 
Q 38.96875 64.796875 32.078125 64.796875 
z
M 9.8125 72.90625 
L 32.078125 72.90625 
Q 44.34375 72.90625 50.609375 67.359375 
Q 56.890625 61.8125 56.890625 51.125 
Q 56.890625 40.328125 50.609375 34.8125 
Q 44.34375 29.296875 32.078125 29.296875 
L 19.671875 29.296875 
L 19.671875 0 
L 9.8125 0 
z
" id="DejaVuSans-80"/>
      <path d="M 48.78125 52.59375 
L 48.78125 44.1875 
Q 44.96875 46.296875 41.140625 47.34375 
Q 37.3125 48.390625 33.40625 48.390625 
Q 24.65625 48.390625 19.8125 42.84375 
Q 14.984375 37.3125 14.984375 27.296875 
Q 14.984375 17.28125 19.8125 11.734375 
Q 24.65625 6.203125 33.40625 6.203125 
Q 37.3125 6.203125 41.140625 7.25 
Q 44.96875 8.296875 48.78125 10.40625 
L 48.78125 2.09375 
Q 45.015625 0.34375 40.984375 -0.53125 
Q 36.96875 -1.421875 32.421875 -1.421875 
Q 20.0625 -1.421875 12.78125 6.34375 
Q 5.515625 14.109375 5.515625 27.296875 
Q 5.515625 40.671875 12.859375 48.328125 
Q 20.21875 56 33.015625 56 
Q 37.15625 56 41.109375 55.140625 
Q 45.0625 54.296875 48.78125 52.59375 
z
" id="DejaVuSans-99"/>
      <path d="M 9.078125 75.984375 
L 18.109375 75.984375 
L 18.109375 31.109375 
L 44.921875 54.6875 
L 56.390625 54.6875 
L 27.390625 29.109375 
L 57.625 0 
L 45.90625 0 
L 18.109375 26.703125 
L 18.109375 0 
L 9.078125 0 
z
" id="DejaVuSans-107"/>
      <path d="M 41.109375 46.296875 
Q 39.59375 47.171875 37.8125 47.578125 
Q 36.03125 48 33.890625 48 
Q 26.265625 48 22.1875 43.046875 
Q 18.109375 38.09375 18.109375 28.8125 
L 18.109375 0 
L 9.078125 0 
L 9.078125 54.6875 
L 18.109375 54.6875 
L 18.109375 46.1875 
Q 20.953125 51.171875 25.484375 53.578125 
Q 30.03125 56 36.53125 56 
Q 37.453125 56 38.578125 55.875 
Q 39.703125 55.765625 41.0625 55.515625 
z
" id="DejaVuSans-114"/>
      <path d="M 45.40625 46.390625 
L 45.40625 75.984375 
L 54.390625 75.984375 
L 54.390625 0 
L 45.40625 0 
L 45.40625 8.203125 
Q 42.578125 3.328125 38.25 0.953125 
Q 33.9375 -1.421875 27.875 -1.421875 
Q 17.96875 -1.421875 11.734375 6.484375 
Q 5.515625 14.40625 5.515625 27.296875 
Q 5.515625 40.1875 11.734375 48.09375 
Q 17.96875 56 27.875 56 
Q 33.9375 56 38.25 53.625 
Q 42.578125 51.265625 45.40625 46.390625 
z
M 14.796875 27.296875 
Q 14.796875 17.390625 18.875 11.75 
Q 22.953125 6.109375 30.078125 6.109375 
Q 37.203125 6.109375 41.296875 11.75 
Q 45.40625 17.390625 45.40625 27.296875 
Q 45.40625 37.203125 41.296875 42.84375 
Q 37.203125 48.484375 30.078125 48.484375 
Q 22.953125 48.484375 18.875 42.84375 
Q 14.796875 37.203125 14.796875 27.296875 
z
" id="DejaVuSans-100"/>
      <path d="M 9.8125 72.90625 
L 55.90625 72.90625 
L 55.90625 64.59375 
L 19.671875 64.59375 
L 19.671875 43.015625 
L 54.390625 43.015625 
L 54.390625 34.71875 
L 19.671875 34.71875 
L 19.671875 8.296875 
L 56.78125 8.296875 
L 56.78125 0 
L 9.8125 0 
z
" id="DejaVuSans-69"/>
      <path d="M 54.890625 33.015625 
L 54.890625 0 
L 45.90625 0 
L 45.90625 32.71875 
Q 45.90625 40.484375 42.875 44.328125 
Q 39.84375 48.1875 33.796875 48.1875 
Q 26.515625 48.1875 22.3125 43.546875 
Q 18.109375 38.921875 18.109375 30.90625 
L 18.109375 0 
L 9.078125 0 
L 9.078125 54.6875 
L 18.109375 54.6875 
L 18.109375 46.1875 
Q 21.34375 51.125 25.703125 53.5625 
Q 30.078125 56 35.796875 56 
Q 45.21875 56 50.046875 50.171875 
Q 54.890625 44.34375 54.890625 33.015625 
z
" id="DejaVuSans-110"/>
      <path d="M 18.109375 8.203125 
L 18.109375 -20.796875 
L 9.078125 -20.796875 
L 9.078125 54.6875 
L 18.109375 54.6875 
L 18.109375 46.390625 
Q 20.953125 51.265625 25.265625 53.625 
Q 29.59375 56 35.59375 56 
Q 45.5625 56 51.78125 48.09375 
Q 58.015625 40.1875 58.015625 27.296875 
Q 58.015625 14.40625 51.78125 6.484375 
Q 45.5625 -1.421875 35.59375 -1.421875 
Q 29.59375 -1.421875 25.265625 0.953125 
Q 20.953125 3.328125 18.109375 8.203125 
z
M 48.6875 27.296875 
Q 48.6875 37.203125 44.609375 42.84375 
Q 40.53125 48.484375 33.40625 48.484375 
Q 26.265625 48.484375 22.1875 42.84375 
Q 18.109375 37.203125 18.109375 27.296875 
Q 18.109375 17.390625 22.1875 11.75 
Q 26.265625 6.109375 33.40625 6.109375 
Q 40.53125 6.109375 44.609375 11.75 
Q 48.6875 17.390625 48.6875 27.296875 
z
" id="DejaVuSans-112"/>
      <path d="M 9.421875 54.6875 
L 18.40625 54.6875 
L 18.40625 0 
L 9.421875 0 
z
M 9.421875 75.984375 
L 18.40625 75.984375 
L 18.40625 64.59375 
L 9.421875 64.59375 
z
" id="DejaVuSans-105"/>
      <path d="M 44.28125 53.078125 
L 44.28125 44.578125 
Q 40.484375 46.53125 36.375 47.5 
Q 32.28125 48.484375 27.875 48.484375 
Q 21.1875 48.484375 17.84375 46.4375 
Q 14.5 44.390625 14.5 40.28125 
Q 14.5 37.15625 16.890625 35.375 
Q 19.28125 33.59375 26.515625 31.984375 
L 29.59375 31.296875 
Q 39.15625 29.25 43.1875 25.515625 
Q 47.21875 21.78125 47.21875 15.09375 
Q 47.21875 7.46875 41.1875 3.015625 
Q 35.15625 -1.421875 24.609375 -1.421875 
Q 20.21875 -1.421875 15.453125 -0.5625 
Q 10.6875 0.296875 5.421875 2 
L 5.421875 11.28125 
Q 10.40625 8.6875 15.234375 7.390625 
Q 20.0625 6.109375 24.8125 6.109375 
Q 31.15625 6.109375 34.5625 8.28125 
Q 37.984375 10.453125 37.984375 14.40625 
Q 37.984375 18.0625 35.515625 20.015625 
Q 33.0625 21.96875 24.703125 23.78125 
L 21.578125 24.515625 
Q 13.234375 26.265625 9.515625 29.90625 
Q 5.8125 33.546875 5.8125 39.890625 
Q 5.8125 47.609375 11.28125 51.796875 
Q 16.75 56 26.8125 56 
Q 31.78125 56 36.171875 55.265625 
Q 40.578125 54.546875 44.28125 53.078125 
z
" id="DejaVuSans-115"/>
      <path d="M 64.40625 67.28125 
L 64.40625 56.890625 
Q 59.421875 61.53125 53.78125 63.8125 
Q 48.140625 66.109375 41.796875 66.109375 
Q 29.296875 66.109375 22.65625 58.46875 
Q 16.015625 50.828125 16.015625 36.375 
Q 16.015625 21.96875 22.65625 14.328125 
Q 29.296875 6.6875 41.796875 6.6875 
Q 48.140625 6.6875 53.78125 8.984375 
Q 59.421875 11.28125 64.40625 15.921875 
L 64.40625 5.609375 
Q 59.234375 2.09375 53.4375 0.328125 
Q 47.65625 -1.421875 41.21875 -1.421875 
Q 24.65625 -1.421875 15.125 8.703125 
Q 5.609375 18.84375 5.609375 36.375 
Q 5.609375 53.953125 15.125 64.078125 
Q 24.65625 74.21875 41.21875 74.21875 
Q 47.75 74.21875 53.53125 72.484375 
Q 59.328125 70.75 64.40625 67.28125 
z
" id="DejaVuSans-67"/>
      <path d="M 30.609375 48.390625 
Q 23.390625 48.390625 19.1875 42.75 
Q 14.984375 37.109375 14.984375 27.296875 
Q 14.984375 17.484375 19.15625 11.84375 
Q 23.34375 6.203125 30.609375 6.203125 
Q 37.796875 6.203125 41.984375 11.859375 
Q 46.1875 17.53125 46.1875 27.296875 
Q 46.1875 37.015625 41.984375 42.703125 
Q 37.796875 48.390625 30.609375 48.390625 
z
M 30.609375 56 
Q 42.328125 56 49.015625 48.375 
Q 55.71875 40.765625 55.71875 27.296875 
Q 55.71875 13.875 49.015625 6.21875 
Q 42.328125 -1.421875 30.609375 -1.421875 
Q 18.84375 -1.421875 12.171875 6.21875 
Q 5.515625 13.875 5.515625 27.296875 
Q 5.515625 40.765625 12.171875 48.375 
Q 18.84375 56 30.609375 56 
z
" id="DejaVuSans-111"/>
      <path d="M 52 44.1875 
Q 55.375 50.25 60.0625 53.125 
Q 64.75 56 71.09375 56 
Q 79.640625 56 84.28125 50.015625 
Q 88.921875 44.046875 88.921875 33.015625 
L 88.921875 0 
L 79.890625 0 
L 79.890625 32.71875 
Q 79.890625 40.578125 77.09375 44.375 
Q 74.3125 48.1875 68.609375 48.1875 
Q 61.625 48.1875 57.5625 43.546875 
Q 53.515625 38.921875 53.515625 30.90625 
L 53.515625 0 
L 44.484375 0 
L 44.484375 32.71875 
Q 44.484375 40.625 41.703125 44.40625 
Q 38.921875 48.1875 33.109375 48.1875 
Q 26.21875 48.1875 22.15625 43.53125 
Q 18.109375 38.875 18.109375 30.90625 
L 18.109375 0 
L 9.078125 0 
L 9.078125 54.6875 
L 18.109375 54.6875 
L 18.109375 46.1875 
Q 21.1875 51.21875 25.484375 53.609375 
Q 29.78125 56 35.6875 56 
Q 41.65625 56 45.828125 52.96875 
Q 50 49.953125 52 44.1875 
z
" id="DejaVuSans-109"/>
      <path d="M 32.171875 -5.078125 
Q 28.375 -14.84375 24.75 -17.8125 
Q 21.140625 -20.796875 15.09375 -20.796875 
L 7.90625 -20.796875 
L 7.90625 -13.28125 
L 13.1875 -13.28125 
Q 16.890625 -13.28125 18.9375 -11.515625 
Q 21 -9.765625 23.484375 -3.21875 
L 25.09375 0.875 
L 2.984375 54.6875 
L 12.5 54.6875 
L 29.59375 11.921875 
L 46.6875 54.6875 
L 56.203125 54.6875 
z
" id="DejaVuSans-121"/>
     </defs>
     <use xlink:href="#DejaVuSans-72"/>
     <use x="75.195312" xlink:href="#DejaVuSans-101"/>
     <use x="136.71875" xlink:href="#DejaVuSans-119"/>
     <use x="218.505859" xlink:href="#DejaVuSans-108"/>
     <use x="246.289062" xlink:href="#DejaVuSans-101"/>
     <use x="307.8125" xlink:href="#DejaVuSans-116"/>
     <use x="347.021484" xlink:href="#DejaVuSans-116"/>
     <use x="386.230469" xlink:href="#DejaVuSans-32"/>
     <use x="418.017578" xlink:href="#DejaVuSans-80"/>
     <use x="473.820312" xlink:href="#DejaVuSans-97"/>
     <use x="535.099609" xlink:href="#DejaVuSans-99"/>
     <use x="590.080078" xlink:href="#DejaVuSans-107"/>
     <use x="646.240234" xlink:href="#DejaVuSans-97"/>
     <use x="707.519531" xlink:href="#DejaVuSans-114"/>
     <use x="746.882812" xlink:href="#DejaVuSans-100"/>
     <use x="810.359375" xlink:href="#DejaVuSans-32"/>
     <use x="842.146484" xlink:href="#DejaVuSans-69"/>
     <use x="905.330078" xlink:href="#DejaVuSans-110"/>
     <use x="968.708984" xlink:href="#DejaVuSans-116"/>
     <use x="1007.917969" xlink:href="#DejaVuSans-101"/>
     <use x="1069.441406" xlink:href="#DejaVuSans-114"/>
     <use x="1110.554688" xlink:href="#DejaVuSans-112"/>
     <use x="1174.03125" xlink:href="#DejaVuSans-114"/>
     <use x="1215.144531" xlink:href="#DejaVuSans-105"/>
     <use x="1242.927734" xlink:href="#DejaVuSans-115"/>
     <use x="1295.027344" xlink:href="#DejaVuSans-101"/>
     <use x="1356.550781" xlink:href="#DejaVuSans-32"/>
     <use x="1388.337891" xlink:href="#DejaVuSans-67"/>
     <use x="1458.162109" xlink:href="#DejaVuSans-111"/>
     <use x="1519.34375" xlink:href="#DejaVuSans-109"/>
     <use x="1616.755859" xlink:href="#DejaVuSans-112"/>
     <use x="1680.232422" xlink:href="#DejaVuSans-97"/>
     <use x="1741.511719" xlink:href="#DejaVuSans-110"/>
     <use x="1804.890625" xlink:href="#DejaVuSans-121"/>
    </g>
   </g>
   <g id="legend_1">
    <g id="patch_7">
     <path d="M 329.5075 64.150125 
L 407.72 64.150125 
Q 409.72 64.150125 409.72 62.150125 
L 409.72 48.472 
Q 409.72 46.472 407.72 46.472 
L 329.5075 46.472 
Q 327.5075 46.472 327.5075 48.472 
L 327.5075 62.150125 
Q 327.5075 64.150125 329.5075 64.150125 
z
" style="fill:#ffffff;opacity:0.8;stroke:#cccccc;stroke-linejoin:miter;"/>
    </g>
    <g id="line2d_15">
     <path d="M 331.5075 54.570437 
L 351.5075 54.570437 
" style="fill:none;stroke:#1f77b4;stroke-linecap:square;stroke-width:1.5;"/>
    </g>
    <g id="line2d_16"/>
    <g id="text_16">
     <!-- Adj Close -->
     <g transform="translate(359.5075 58.070437)scale(0.1 -0.1)">
      <defs>
       <path d="M 34.1875 63.1875 
L 20.796875 26.90625 
L 47.609375 26.90625 
z
M 28.609375 72.90625 
L 39.796875 72.90625 
L 67.578125 0 
L 57.328125 0 
L 50.6875 18.703125 
L 17.828125 18.703125 
L 11.1875 0 
L 0.78125 0 
z
" id="DejaVuSans-65"/>
       <path d="M 9.421875 54.6875 
L 18.40625 54.6875 
L 18.40625 -0.984375 
Q 18.40625 -11.421875 14.421875 -16.109375 
Q 10.453125 -20.796875 1.609375 -20.796875 
L -1.8125 -20.796875 
L -1.8125 -13.1875 
L 0.59375 -13.1875 
Q 5.71875 -13.1875 7.5625 -10.8125 
Q 9.421875 -8.453125 9.421875 -0.984375 
z
M 9.421875 75.984375 
L 18.40625 75.984375 
L 18.40625 64.59375 
L 9.421875 64.59375 
z
" id="DejaVuSans-106"/>
      </defs>
      <use xlink:href="#DejaVuSans-65"/>
      <use x="66.658203" xlink:href="#DejaVuSans-100"/>
      <use x="130.134766" xlink:href="#DejaVuSans-106"/>
      <use x="157.917969" xlink:href="#DejaVuSans-32"/>
      <use x="189.705078" xlink:href="#DejaVuSans-67"/>
      <use x="259.529297" xlink:href="#DejaVuSans-108"/>
      <use x="287.3125" xlink:href="#DejaVuSans-111"/>
      <use x="348.494141" xlink:href="#DejaVuSans-115"/>
      <use x="400.59375" xlink:href="#DejaVuSans-101"/>
     </g>
    </g>
   </g>
  </g>
 </g>
 <defs>
  <clipPath id="p4b990122de">
   <rect height="235.008" width="357.12" x="57.6" y="41.472"/>
  </clipPath>
 </defs>
</svg>
