<?xml version="1.0" encoding="utf-8" standalone="no"?>
<!DOCTYPE svg PUBLIC "-//W3C//DTD SVG 1.1//EN"
  "http://www.w3.org/Graphics/SVG/1.1/DTD/svg11.dtd">
<!-- Created with matplotlib (https://matplotlib.org/) -->
<svg height="345.6pt" version="1.1" viewBox="0 0 460.8 345.6" width="460.8pt" xmlns="http://www.w3.org/2000/svg" xmlns:xlink="http://www.w3.org/1999/xlink">
 <metadata>
  <rdf:RDF xmlns:cc="http://creativecommons.org/ns#" xmlns:dc="http://purl.org/dc/elements/1.1/" xmlns:rdf="http://www.w3.org/1999/02/22-rdf-syntax-ns#">
   <cc:Work>
    <dc:type rdf:resource="http://purl.org/dc/dcmitype/StillImage"/>
    <dc:date>2021-03-05T02:01:30.741580</dc:date>
    <dc:format>image/svg+xml</dc:format>
    <dc:creator>
     <cc:Agent>
      <dc:title>Matplotlib v3.3.4, https://matplotlib.org/</dc:title>
     </cc:Agent>
    </dc:creator>
   </cc:Work>
  </rdf:RDF>
 </metadata>
 <defs>
  <style type="text/css">*{stroke-linecap:butt;stroke-linejoin:round;}</style>
 </defs>
 <g id="figure_1">
  <g id="patch_1">
   <path d="M 0 345.6 
L 460.8 345.6 
L 460.8 0 
L 0 0 
z
" style="fill:#ffffff;"/>
  </g>
  <g id="axes_1">
   <g id="patch_2">
    <path d="M 57.6 276.48 
L 414.72 276.48 
L 414.72 41.472 
L 57.6 41.472 
z
" style="fill:#ffffff;"/>
   </g>
   <g id="matplotlib.axis_1">
    <g id="xtick_1">
     <g id="line2d_1">
      <defs>
       <path d="M 0 0 
L 0 3.5 
" id="ma142189d77" style="stroke:#000000;stroke-width:0.8;"/>
      </defs>
      <g>
       <use style="stroke:#000000;stroke-width:0.8;" x="86.077598" xlink:href="#ma142189d77" y="276.48"/>
      </g>
     </g>
     <g id="text_1">
      <!-- 2016 -->
      <g transform="translate(62.997408 302.78544)rotate(-30)scale(0.1 -0.1)">
       <defs>
        <path d="M 19.1875 8.296875 
L 53.609375 8.296875 
L 53.609375 0 
L 7.328125 0 
L 7.328125 8.296875 
Q 12.9375 14.109375 22.625 23.890625 
Q 32.328125 33.6875 34.8125 36.53125 
Q 39.546875 41.84375 41.421875 45.53125 
Q 43.3125 49.21875 43.3125 52.78125 
Q 43.3125 58.59375 39.234375 62.25 
Q 35.15625 65.921875 28.609375 65.921875 
Q 23.96875 65.921875 18.8125 64.3125 
Q 13.671875 62.703125 7.8125 59.421875 
L 7.8125 69.390625 
Q 13.765625 71.78125 18.9375 73 
Q 24.125 74.21875 28.421875 74.21875 
Q 39.75 74.21875 46.484375 68.546875 
Q 53.21875 62.890625 53.21875 53.421875 
Q 53.21875 48.921875 51.53125 44.890625 
Q 49.859375 40.875 45.40625 35.40625 
Q 44.1875 33.984375 37.640625 27.21875 
Q 31.109375 20.453125 19.1875 8.296875 
z
" id="DejaVuSans-50"/>
        <path d="M 31.78125 66.40625 
Q 24.171875 66.40625 20.328125 58.90625 
Q 16.5 51.421875 16.5 36.375 
Q 16.5 21.390625 20.328125 13.890625 
Q 24.171875 6.390625 31.78125 6.390625 
Q 39.453125 6.390625 43.28125 13.890625 
Q 47.125 21.390625 47.125 36.375 
Q 47.125 51.421875 43.28125 58.90625 
Q 39.453125 66.40625 31.78125 66.40625 
z
M 31.78125 74.21875 
Q 44.046875 74.21875 50.515625 64.515625 
Q 56.984375 54.828125 56.984375 36.375 
Q 56.984375 17.96875 50.515625 8.265625 
Q 44.046875 -1.421875 31.78125 -1.421875 
Q 19.53125 -1.421875 13.0625 8.265625 
Q 6.59375 17.96875 6.59375 36.375 
Q 6.59375 54.828125 13.0625 64.515625 
Q 19.53125 74.21875 31.78125 74.21875 
z
" id="DejaVuSans-48"/>
        <path d="M 12.40625 8.296875 
L 28.515625 8.296875 
L 28.515625 63.921875 
L 10.984375 60.40625 
L 10.984375 69.390625 
L 28.421875 72.90625 
L 38.28125 72.90625 
L 38.28125 8.296875 
L 54.390625 8.296875 
L 54.390625 0 
L 12.40625 0 
z
" id="DejaVuSans-49"/>
        <path d="M 33.015625 40.375 
Q 26.375 40.375 22.484375 35.828125 
Q 18.609375 31.296875 18.609375 23.390625 
Q 18.609375 15.53125 22.484375 10.953125 
Q 26.375 6.390625 33.015625 6.390625 
Q 39.65625 6.390625 43.53125 10.953125 
Q 47.40625 15.53125 47.40625 23.390625 
Q 47.40625 31.296875 43.53125 35.828125 
Q 39.65625 40.375 33.015625 40.375 
z
M 52.59375 71.296875 
L 52.59375 62.3125 
Q 48.875 64.0625 45.09375 64.984375 
Q 41.3125 65.921875 37.59375 65.921875 
Q 27.828125 65.921875 22.671875 59.328125 
Q 17.53125 52.734375 16.796875 39.40625 
Q 19.671875 43.65625 24.015625 45.921875 
Q 28.375 48.1875 33.59375 48.1875 
Q 44.578125 48.1875 50.953125 41.515625 
Q 57.328125 34.859375 57.328125 23.390625 
Q 57.328125 12.15625 50.6875 5.359375 
Q 44.046875 -1.421875 33.015625 -1.421875 
Q 20.359375 -1.421875 13.671875 8.265625 
Q 6.984375 17.96875 6.984375 36.375 
Q 6.984375 53.65625 15.1875 63.9375 
Q 23.390625 74.21875 37.203125 74.21875 
Q 40.921875 74.21875 44.703125 73.484375 
Q 48.484375 72.75 52.59375 71.296875 
z
" id="DejaVuSans-54"/>
       </defs>
       <use xlink:href="#DejaVuSans-50"/>
       <use x="63.623047" xlink:href="#DejaVuSans-48"/>
       <use x="127.246094" xlink:href="#DejaVuSans-49"/>
       <use x="190.869141" xlink:href="#DejaVuSans-54"/>
      </g>
     </g>
    </g>
    <g id="xtick_2">
     <g id="line2d_2">
      <g>
       <use style="stroke:#000000;stroke-width:0.8;" x="146.640067" xlink:href="#ma142189d77" y="276.48"/>
      </g>
     </g>
     <g id="text_2">
      <!-- 2017 -->
      <g transform="translate(123.559876 302.78544)rotate(-30)scale(0.1 -0.1)">
       <defs>
        <path d="M 8.203125 72.90625 
L 55.078125 72.90625 
L 55.078125 68.703125 
L 28.609375 0 
L 18.3125 0 
L 43.21875 64.59375 
L 8.203125 64.59375 
z
" id="DejaVuSans-55"/>
       </defs>
       <use xlink:href="#DejaVuSans-50"/>
       <use x="63.623047" xlink:href="#DejaVuSans-48"/>
       <use x="127.246094" xlink:href="#DejaVuSans-49"/>
       <use x="190.869141" xlink:href="#DejaVuSans-55"/>
      </g>
     </g>
    </g>
    <g id="xtick_3">
     <g id="line2d_3">
      <g>
       <use style="stroke:#000000;stroke-width:0.8;" x="207.037064" xlink:href="#ma142189d77" y="276.48"/>
      </g>
     </g>
     <g id="text_3">
      <!-- 2018 -->
      <g transform="translate(183.956874 302.78544)rotate(-30)scale(0.1 -0.1)">
       <defs>
        <path d="M 31.78125 34.625 
Q 24.75 34.625 20.71875 30.859375 
Q 16.703125 27.09375 16.703125 20.515625 
Q 16.703125 13.921875 20.71875 10.15625 
Q 24.75 6.390625 31.78125 6.390625 
Q 38.8125 6.390625 42.859375 10.171875 
Q 46.921875 13.96875 46.921875 20.515625 
Q 46.921875 27.09375 42.890625 30.859375 
Q 38.875 34.625 31.78125 34.625 
z
M 21.921875 38.8125 
Q 15.578125 40.375 12.03125 44.71875 
Q 8.5 49.078125 8.5 55.328125 
Q 8.5 64.0625 14.71875 69.140625 
Q 20.953125 74.21875 31.78125 74.21875 
Q 42.671875 74.21875 48.875 69.140625 
Q 55.078125 64.0625 55.078125 55.328125 
Q 55.078125 49.078125 51.53125 44.71875 
Q 48 40.375 41.703125 38.8125 
Q 48.828125 37.15625 52.796875 32.3125 
Q 56.78125 27.484375 56.78125 20.515625 
Q 56.78125 9.90625 50.3125 4.234375 
Q 43.84375 -1.421875 31.78125 -1.421875 
Q 19.734375 -1.421875 13.25 4.234375 
Q 6.78125 9.90625 6.78125 20.515625 
Q 6.78125 27.484375 10.78125 32.3125 
Q 14.796875 37.15625 21.921875 38.8125 
z
M 18.3125 54.390625 
Q 18.3125 48.734375 21.84375 45.5625 
Q 25.390625 42.390625 31.78125 42.390625 
Q 38.140625 42.390625 41.71875 45.5625 
Q 45.3125 48.734375 45.3125 54.390625 
Q 45.3125 60.0625 41.71875 63.234375 
Q 38.140625 66.40625 31.78125 66.40625 
Q 25.390625 66.40625 21.84375 63.234375 
Q 18.3125 60.0625 18.3125 54.390625 
z
" id="DejaVuSans-56"/>
       </defs>
       <use xlink:href="#DejaVuSans-50"/>
       <use x="63.623047" xlink:href="#DejaVuSans-48"/>
       <use x="127.246094" xlink:href="#DejaVuSans-49"/>
       <use x="190.869141" xlink:href="#DejaVuSans-56"/>
      </g>
     </g>
    </g>
    <g id="xtick_4">
     <g id="line2d_4">
      <g>
       <use style="stroke:#000000;stroke-width:0.8;" x="267.434062" xlink:href="#ma142189d77" y="276.48"/>
      </g>
     </g>
     <g id="text_4">
      <!-- 2019 -->
      <g transform="translate(244.353871 302.78544)rotate(-30)scale(0.1 -0.1)">
       <defs>
        <path d="M 10.984375 1.515625 
L 10.984375 10.5 
Q 14.703125 8.734375 18.5 7.8125 
Q 22.3125 6.890625 25.984375 6.890625 
Q 35.75 6.890625 40.890625 13.453125 
Q 46.046875 20.015625 46.78125 33.40625 
Q 43.953125 29.203125 39.59375 26.953125 
Q 35.25 24.703125 29.984375 24.703125 
Q 19.046875 24.703125 12.671875 31.3125 
Q 6.296875 37.9375 6.296875 49.421875 
Q 6.296875 60.640625 12.9375 67.421875 
Q 19.578125 74.21875 30.609375 74.21875 
Q 43.265625 74.21875 49.921875 64.515625 
Q 56.59375 54.828125 56.59375 36.375 
Q 56.59375 19.140625 48.40625 8.859375 
Q 40.234375 -1.421875 26.421875 -1.421875 
Q 22.703125 -1.421875 18.890625 -0.6875 
Q 15.09375 0.046875 10.984375 1.515625 
z
M 30.609375 32.421875 
Q 37.25 32.421875 41.125 36.953125 
Q 45.015625 41.5 45.015625 49.421875 
Q 45.015625 57.28125 41.125 61.84375 
Q 37.25 66.40625 30.609375 66.40625 
Q 23.96875 66.40625 20.09375 61.84375 
Q 16.21875 57.28125 16.21875 49.421875 
Q 16.21875 41.5 20.09375 36.953125 
Q 23.96875 32.421875 30.609375 32.421875 
z
" id="DejaVuSans-57"/>
       </defs>
       <use xlink:href="#DejaVuSans-50"/>
       <use x="63.623047" xlink:href="#DejaVuSans-48"/>
       <use x="127.246094" xlink:href="#DejaVuSans-49"/>
       <use x="190.869141" xlink:href="#DejaVuSans-57"/>
      </g>
     </g>
    </g>
    <g id="xtick_5">
     <g id="line2d_5">
      <g>
       <use style="stroke:#000000;stroke-width:0.8;" x="327.831059" xlink:href="#ma142189d77" y="276.48"/>
      </g>
     </g>
     <g id="text_5">
      <!-- 2020 -->
      <g transform="translate(304.750869 302.78544)rotate(-30)scale(0.1 -0.1)">
       <use xlink:href="#DejaVuSans-50"/>
       <use x="63.623047" xlink:href="#DejaVuSans-48"/>
       <use x="127.246094" xlink:href="#DejaVuSans-50"/>
       <use x="190.869141" xlink:href="#DejaVuSans-48"/>
      </g>
     </g>
    </g>
    <g id="xtick_6">
     <g id="line2d_6">
      <g>
       <use style="stroke:#000000;stroke-width:0.8;" x="388.393528" xlink:href="#ma142189d77" y="276.48"/>
      </g>
     </g>
     <g id="text_6">
      <!-- 2021 -->
      <g transform="translate(365.313338 302.78544)rotate(-30)scale(0.1 -0.1)">
       <use xlink:href="#DejaVuSans-50"/>
       <use x="63.623047" xlink:href="#DejaVuSans-48"/>
       <use x="127.246094" xlink:href="#DejaVuSans-50"/>
       <use x="190.869141" xlink:href="#DejaVuSans-49"/>
      </g>
     </g>
    </g>
    <g id="text_7">
     <!-- Date -->
     <g transform="translate(224.209219 316.18494)scale(0.1 -0.1)">
      <defs>
       <path d="M 19.671875 64.796875 
L 19.671875 8.109375 
L 31.59375 8.109375 
Q 46.6875 8.109375 53.6875 14.9375 
Q 60.6875 21.78125 60.6875 36.53125 
Q 60.6875 51.171875 53.6875 57.984375 
Q 46.6875 64.796875 31.59375 64.796875 
z
M 9.8125 72.90625 
L 30.078125 72.90625 
Q 51.265625 72.90625 61.171875 64.09375 
Q 71.09375 55.28125 71.09375 36.53125 
Q 71.09375 17.671875 61.125 8.828125 
Q 51.171875 0 30.078125 0 
L 9.8125 0 
z
" id="DejaVuSans-68"/>
       <path d="M 34.28125 27.484375 
Q 23.390625 27.484375 19.1875 25 
Q 14.984375 22.515625 14.984375 16.5 
Q 14.984375 11.71875 18.140625 8.90625 
Q 21.296875 6.109375 26.703125 6.109375 
Q 34.1875 6.109375 38.703125 11.40625 
Q 43.21875 16.703125 43.21875 25.484375 
L 43.21875 27.484375 
z
M 52.203125 31.203125 
L 52.203125 0 
L 43.21875 0 
L 43.21875 8.296875 
Q 40.140625 3.328125 35.546875 0.953125 
Q 30.953125 -1.421875 24.3125 -1.421875 
Q 15.921875 -1.421875 10.953125 3.296875 
Q 6 8.015625 6 15.921875 
Q 6 25.140625 12.171875 29.828125 
Q 18.359375 34.515625 30.609375 34.515625 
L 43.21875 34.515625 
L 43.21875 35.40625 
Q 43.21875 41.609375 39.140625 45 
Q 35.0625 48.390625 27.6875 48.390625 
Q 23 48.390625 18.546875 47.265625 
Q 14.109375 46.140625 10.015625 43.890625 
L 10.015625 52.203125 
Q 14.9375 54.109375 19.578125 55.046875 
Q 24.21875 56 28.609375 56 
Q 40.484375 56 46.34375 49.84375 
Q 52.203125 43.703125 52.203125 31.203125 
z
" id="DejaVuSans-97"/>
       <path d="M 18.3125 70.21875 
L 18.3125 54.6875 
L 36.8125 54.6875 
L 36.8125 47.703125 
L 18.3125 47.703125 
L 18.3125 18.015625 
Q 18.3125 11.328125 20.140625 9.421875 
Q 21.96875 7.515625 27.59375 7.515625 
L 36.8125 7.515625 
L 36.8125 0 
L 27.59375 0 
Q 17.1875 0 13.234375 3.875 
Q 9.28125 7.765625 9.28125 18.015625 
L 9.28125 47.703125 
L 2.6875 47.703125 
L 2.6875 54.6875 
L 9.28125 54.6875 
L 9.28125 70.21875 
z
" id="DejaVuSans-116"/>
       <path d="M 56.203125 29.59375 
L 56.203125 25.203125 
L 14.890625 25.203125 
Q 15.484375 15.921875 20.484375 11.0625 
Q 25.484375 6.203125 34.421875 6.203125 
Q 39.59375 6.203125 44.453125 7.46875 
Q 49.3125 8.734375 54.109375 11.28125 
L 54.109375 2.78125 
Q 49.265625 0.734375 44.1875 -0.34375 
Q 39.109375 -1.421875 33.890625 -1.421875 
Q 20.796875 -1.421875 13.15625 6.1875 
Q 5.515625 13.8125 5.515625 26.8125 
Q 5.515625 40.234375 12.765625 48.109375 
Q 20.015625 56 32.328125 56 
Q 43.359375 56 49.78125 48.890625 
Q 56.203125 41.796875 56.203125 29.59375 
z
M 47.21875 32.234375 
Q 47.125 39.59375 43.09375 43.984375 
Q 39.0625 48.390625 32.421875 48.390625 
Q 24.90625 48.390625 20.390625 44.140625 
Q 15.875 39.890625 15.1875 32.171875 
z
" id="DejaVuSans-101"/>
      </defs>
      <use xlink:href="#DejaVuSans-68"/>
      <use x="77.001953" xlink:href="#DejaVuSans-97"/>
      <use x="138.28125" xlink:href="#DejaVuSans-116"/>
      <use x="177.490234" xlink:href="#DejaVuSans-101"/>
     </g>
    </g>
   </g>
   <g id="matplotlib.axis_2">
    <g id="ytick_1">
     <g id="line2d_7">
      <defs>
       <path d="M 0 0 
L -3.5 0 
" id="mc91ec9d575" style="stroke:#000000;stroke-width:0.8;"/>
      </defs>
      <g>
       <use style="stroke:#000000;stroke-width:0.8;" x="57.6" xlink:href="#mc91ec9d575" y="268.905279"/>
      </g>
     </g>
     <g id="text_8">
      <!-- 6 -->
      <g transform="translate(44.2375 272.704498)scale(0.1 -0.1)">
       <use xlink:href="#DejaVuSans-54"/>
      </g>
     </g>
    </g>
    <g id="ytick_2">
     <g id="line2d_8">
      <g>
       <use style="stroke:#000000;stroke-width:0.8;" x="57.6" xlink:href="#mc91ec9d575" y="231.426484"/>
      </g>
     </g>
     <g id="text_9">
      <!-- 8 -->
      <g transform="translate(44.2375 235.225702)scale(0.1 -0.1)">
       <use xlink:href="#DejaVuSans-56"/>
      </g>
     </g>
    </g>
    <g id="ytick_3">
     <g id="line2d_9">
      <g>
       <use style="stroke:#000000;stroke-width:0.8;" x="57.6" xlink:href="#mc91ec9d575" y="193.947689"/>
      </g>
     </g>
     <g id="text_10">
      <!-- 10 -->
      <g transform="translate(37.875 197.746907)scale(0.1 -0.1)">
       <use xlink:href="#DejaVuSans-49"/>
       <use x="63.623047" xlink:href="#DejaVuSans-48"/>
      </g>
     </g>
    </g>
    <g id="ytick_4">
     <g id="line2d_10">
      <g>
       <use style="stroke:#000000;stroke-width:0.8;" x="57.6" xlink:href="#mc91ec9d575" y="156.468893"/>
      </g>
     </g>
     <g id="text_11">
      <!-- 12 -->
      <g transform="translate(37.875 160.268112)scale(0.1 -0.1)">
       <use xlink:href="#DejaVuSans-49"/>
       <use x="63.623047" xlink:href="#DejaVuSans-50"/>
      </g>
     </g>
    </g>
    <g id="ytick_5">
     <g id="line2d_11">
      <g>
       <use style="stroke:#000000;stroke-width:0.8;" x="57.6" xlink:href="#mc91ec9d575" y="118.990098"/>
      </g>
     </g>
     <g id="text_12">
      <!-- 14 -->
      <g transform="translate(37.875 122.789317)scale(0.1 -0.1)">
       <defs>
        <path d="M 37.796875 64.3125 
L 12.890625 25.390625 
L 37.796875 25.390625 
z
M 35.203125 72.90625 
L 47.609375 72.90625 
L 47.609375 25.390625 
L 58.015625 25.390625 
L 58.015625 17.1875 
L 47.609375 17.1875 
L 47.609375 0 
L 37.796875 0 
L 37.796875 17.1875 
L 4.890625 17.1875 
L 4.890625 26.703125 
z
" id="DejaVuSans-52"/>
       </defs>
       <use xlink:href="#DejaVuSans-49"/>
       <use x="63.623047" xlink:href="#DejaVuSans-52"/>
      </g>
     </g>
    </g>
    <g id="ytick_6">
     <g id="line2d_12">
      <g>
       <use style="stroke:#000000;stroke-width:0.8;" x="57.6" xlink:href="#mc91ec9d575" y="81.511303"/>
      </g>
     </g>
     <g id="text_13">
      <!-- 16 -->
      <g transform="translate(37.875 85.310522)scale(0.1 -0.1)">
       <use xlink:href="#DejaVuSans-49"/>
       <use x="63.623047" xlink:href="#DejaVuSans-54"/>
      </g>
     </g>
    </g>
    <g id="ytick_7">
     <g id="line2d_13">
      <g>
       <use style="stroke:#000000;stroke-width:0.8;" x="57.6" xlink:href="#mc91ec9d575" y="44.032508"/>
      </g>
     </g>
     <g id="text_14">
      <!-- 18 -->
      <g transform="translate(37.875 47.831727)scale(0.1 -0.1)">
       <use xlink:href="#DejaVuSans-49"/>
       <use x="63.623047" xlink:href="#DejaVuSans-56"/>
      </g>
     </g>
    </g>
   </g>
   <g id="line2d_14">
    <path clip-path="url(#p06e2d59019)" d="M 73.832727 223.353214 
L 73.998198 220.298411 
L 74.16367 224.021405 
L 74.329141 219.534743 
L 74.494612 219.057451 
L 74.991026 224.594212 
L 75.156497 231.181016 
L 75.321968 225.930631 
L 75.48744 229.080855 
L 75.652911 240.822624 
L 76.149324 243.018225 
L 76.314796 244.259261 
L 76.645738 254.569059 
L 76.811209 243.87737 
L 77.307623 245.786578 
L 77.473094 243.781949 
L 77.969508 253.518978 
L 78.465922 253.614418 
L 78.631393 255.141791 
L 79.127807 245.691175 
L 79.789691 250.655111 
L 79.955163 246.550321 
L 80.286105 244.354682 
L 80.782519 239.48613 
L 80.94799 232.326556 
L 81.278932 241.777246 
L 81.444404 236.049549 
L 81.940817 233.31905 
L 82.602702 245.486616 
L 83.264587 241.845926 
L 83.430058 240.504616 
L 83.761001 245.678227 
L 84.257415 247.019518 
L 84.422886 246.636297 
L 84.588357 238.492642 
L 84.753828 237.438795 
L 85.415713 235.426783 
L 85.581184 235.714245 
L 85.746656 234.947766 
L 85.912127 235.714245 
L 86.574012 236.384891 
L 86.739483 237.342942 
L 86.904954 239.546527 
L 87.070425 249.989562 
L 87.235897 251.618259 
L 87.73231 254.300898 
L 87.897781 254.300898 
L 88.063253 259.187102 
L 88.228724 256.79187 
L 88.394195 261.199039 
L 89.05608 263.30679 
L 89.221551 265.797818 
L 89.387023 262.444515 
L 89.552494 253.438642 
L 90.048907 253.534419 
L 90.214379 251.043428 
L 90.545321 254.971525 
L 90.710792 249.510527 
L 91.207206 249.223102 
L 91.372677 252.480534 
L 91.538148 253.247013 
L 91.70362 248.648252 
L 91.869091 254.875766 
L 92.365505 261.486464 
L 92.696447 258.133198 
L 92.861918 262.54033 
L 93.027389 263.594196 
L 93.689274 263.210994 
L 94.020217 251.714093 
L 94.185688 250.372802 
L 94.682102 249.127325 
L 94.847573 255.929614 
L 95.178515 250.276987 
L 95.343987 252.576367 
L 95.8404 254.205083 
L 96.005872 254.109269 
L 96.171343 248.169198 
L 96.336814 251.043428 
L 96.502285 233.414865 
L 96.998699 227.790066 
L 97.16417 234.905153 
L 97.495113 228.46311 
L 97.660584 224.328712 
L 98.156997 223.559478 
L 98.48794 216.059784 
L 98.653411 216.34824 
L 98.818882 214.713677 
L 99.315296 211.060019 
L 99.480767 212.982981 
L 99.646239 213.463722 
L 99.81171 212.406108 
L 100.473595 212.982981 
L 100.639066 211.636912 
L 100.804537 209.329286 
L 100.970008 210.867697 
L 101.13548 204.425617 
L 101.631893 207.887027 
L 101.797364 212.021538 
L 101.962836 208.656223 
L 102.128307 210.771545 
L 102.293778 209.329286 
L 102.790192 210.867697 
L 102.955663 215.579006 
L 103.121134 213.079096 
L 103.286606 215.38674 
L 103.452077 214.040595 
L 103.94849 213.656007 
L 104.113962 215.579006 
L 104.444904 213.463722 
L 104.610375 213.175304 
L 105.106789 215.867443 
L 105.27226 214.425203 
L 105.437731 214.905999 
L 105.768674 221.15572 
L 106.265088 223.655649 
L 106.430559 228.174655 
L 106.59603 228.174655 
L 106.761501 230.193844 
L 106.926972 229.61697 
L 107.588857 228.559243 
L 107.754329 227.309307 
L 108.085271 229.713084 
L 108.581685 227.886199 
L 108.912627 230.674528 
L 109.24357 228.751603 
L 109.739983 226.828604 
L 109.905455 225.097908 
L 110.070926 214.521355 
L 110.236397 214.136803 
L 110.401868 205.771724 
L 111.063753 203.752572 
L 111.229224 205.483306 
L 111.394696 203.464154 
L 111.560167 204.906395 
L 112.552994 192.803292 
L 112.718465 196.950209 
L 113.38035 204.761745 
L 113.545822 200.036175 
L 113.711293 201.386405 
L 113.876764 198.686076 
L 114.373178 194.442746 
L 114.538649 190.778032 
L 114.70412 196.082237 
L 114.869591 191.838869 
L 115.035063 206.208295 
L 115.531476 215.466439 
L 115.696947 213.537705 
L 116.193361 203.025802 
L 116.855246 205.822545 
L 117.186188 203.218706 
L 117.35166 197.721653 
L 117.848073 194.828478 
L 118.013545 191.453119 
L 118.179016 193.285457 
L 118.344487 188.559999 
L 118.509958 190.68158 
L 119.171843 190.488733 
L 119.337314 187.884894 
L 119.502786 190.874502 
L 119.668257 187.981289 
L 120.164671 186.438325 
L 120.330142 184.123784 
L 120.661084 185.473958 
L 120.826555 178.626732 
L 121.322969 178.048116 
L 121.48844 181.037724 
L 121.819383 171.490245 
L 121.984854 170.043676 
L 122.481268 172.551101 
L 122.646739 172.068861 
L 122.81221 173.515468 
L 123.143153 170.236523 
L 123.805038 168.548853 
L 123.970509 172.647496 
L 124.13598 170.525859 
L 124.797865 169.754321 
L 124.963336 169.850791 
L 125.128807 172.165313 
L 125.294279 170.718762 
L 125.45975 171.29736 
L 125.956163 170.718762 
L 126.287106 174.190498 
L 126.452577 167.632665 
L 126.618048 167.1505 
L 127.279933 170.525859 
L 127.445405 168.307751 
L 127.776347 179.591155 
L 128.272761 176.022893 
L 128.438232 177.276596 
L 128.603703 175.347787 
L 128.769174 167.922001 
L 129.431059 162.617815 
L 129.59653 163.196506 
L 129.762002 158.374559 
L 129.927473 157.217251 
L 130.092944 159.724658 
L 130.589358 161.556996 
L 130.9203 159.146023 
L 131.251243 161.942746 
L 131.747656 162.90717 
L 131.913128 165.414576 
L 132.078599 161.460582 
L 132.24407 162.617815 
L 132.409541 165.373049 
L 132.905955 163.826281 
L 133.071426 168.853274 
L 133.236897 168.659958 
L 133.56784 173.203606 
L 134.064254 175.717084 
L 134.560667 169.820058 
L 134.726138 172.23686 
L 135.222552 171.753496 
L 135.388023 172.526889 
L 135.553495 170.593471 
L 135.718966 166.82316 
L 135.884437 167.016513 
L 136.380851 164.116292 
L 136.546322 167.886602 
L 136.711793 168.466643 
L 136.877264 170.593471 
L 137.042736 168.27329 
L 137.704621 156.672441 
L 137.870092 156.769117 
L 138.035563 158.315905 
L 138.201034 155.995742 
L 138.697448 155.609036 
L 138.862919 155.028996 
L 139.193862 153.19216 
L 139.359333 155.995742 
L 139.855746 157.832541 
L 140.021218 160.249286 
L 140.186689 153.67558 
L 140.517631 156.865775 
L 141.014045 155.705694 
L 141.179516 151.838782 
L 141.344987 151.258723 
L 141.510459 155.415646 
L 141.67593 150.775377 
L 142.172344 147.295096 
L 142.337815 149.711954 
L 142.503286 142.751467 
L 142.668757 143.138155 
L 142.834229 144.394875 
L 143.330642 149.677605 
L 143.496113 149.386807 
L 143.661585 149.483764 
L 143.992527 153.651781 
L 144.819883 149.774581 
L 144.985354 151.034637 
L 145.150826 150.453078 
L 145.812711 151.228515 
L 145.978182 155.49347 
L 146.143653 155.105752 
L 146.309124 157.04438 
L 146.971009 156.462803 
L 147.301952 152.973246 
L 147.467423 157.43208 
L 147.963837 162.666312 
L 148.129308 158.886032 
L 148.294779 160.727721 
L 148.46025 160.824623 
L 148.625721 158.98299 
L 149.287606 161.406238 
L 149.453078 159.758389 
L 149.618549 160.630764 
L 149.78402 159.564548 
L 150.280434 162.569411 
L 150.445905 159.467591 
L 150.611376 158.595272 
L 150.776847 162.084772 
L 150.942319 162.76327 
L 151.438732 166.640489 
L 151.604204 161.503176 
L 151.769675 162.375552 
L 151.935146 161.406238 
L 152.100617 153.554842 
L 152.597031 153.167143 
L 152.762502 151.713228 
L 152.927973 152.294768 
L 153.093445 147.932873 
L 153.258916 148.805267 
L 153.920801 147.351296 
L 154.086272 145.025006 
L 154.251743 145.509625 
L 155.24457 141.147749 
L 155.410042 142.310885 
L 155.575513 158.789131 
L 156.071927 165.089597 
L 156.402869 156.656606 
L 156.56834 158.886032 
L 156.733812 157.916737 
L 157.230225 157.722859 
L 157.726639 163.538743 
L 157.89211 164.50802 
L 158.388524 164.36219 
L 158.553995 165.237095 
L 158.719466 160.765313 
L 158.884937 161.251394 
L 159.050409 159.209905 
L 159.546822 158.23778 
L 159.712294 165.042693 
L 160.043236 159.695968 
L 160.208707 159.987571 
L 160.705121 160.473653 
L 160.870592 157.654479 
L 161.036063 151.238447 
L 161.201535 151.724472 
L 161.367006 150.946787 
L 161.86342 153.353431 
L 162.028891 149.071348 
L 162.194362 149.071348 
L 162.359833 147.514272 
L 162.525304 144.14045 
L 163.021718 143.880947 
L 163.518132 147.903508 
L 164.510959 145.697619 
L 164.67643 143.491673 
L 164.841902 145.957103 
L 165.669258 139.858404 
L 165.834729 139.598919 
L 166.0002 139.598919 
L 166.496614 138.301291 
L 166.827556 139.079876 
L 167.158499 137.003663 
L 167.654912 136.225116 
L 167.820384 137.652477 
L 167.985855 134.797755 
L 168.151326 136.614389 
L 168.316797 136.354886 
L 168.813211 134.927525 
L 168.978682 133.370412 
L 169.144153 137.392936 
L 169.309625 137.652477 
L 169.475096 140.896473 
L 170.302452 135.965631 
L 170.467923 136.87393 
L 170.633394 137.003663 
L 171.295279 136.744197 
L 171.460751 137.263222 
L 171.626222 154.002264 
L 171.791693 155.559377 
L 172.453578 160.360485 
L 172.619049 160.230715 
L 172.78452 160.100926 
L 172.949992 160.879511 
L 173.446405 161.85647 
L 173.611877 161.46566 
L 174.10829 166.545742 
L 174.604704 163.5498 
L 174.935646 165.5037 
L 175.266589 161.85647 
L 175.763003 162.377463 
L 175.928474 166.415466 
L 176.093945 161.205145 
L 176.259416 164.46164 
L 176.424887 165.243148 
L 176.921301 164.201106 
L 177.252244 160.684115 
L 177.417715 166.676037 
L 177.583186 164.982652 
L 178.245071 162.768273 
L 178.410542 162.638016 
L 178.741485 157.427676 
L 179.237898 156.906608 
L 179.403369 157.948725 
L 179.734312 148.179334 
L 179.899783 146.746501 
L 180.396197 148.960879 
L 180.561668 148.439905 
L 180.727139 151.95684 
L 181.058082 153.259397 
L 181.554495 153.259397 
L 181.719967 152.738367 
L 181.885438 155.34348 
L 182.050909 156.125082 
L 182.21638 153.259397 
L 182.712794 151.696306 
L 182.878265 151.696306 
L 183.043736 151.566086 
L 183.209208 158.33946 
L 183.374679 155.994805 
L 183.871093 152.347594 
L 184.036564 150.133197 
L 184.202035 152.087079 
L 184.532977 157.557934 
L 185.029391 155.864585 
L 185.194862 151.175276 
L 185.360334 150.654227 
L 185.525805 147.528065 
L 185.691276 147.528065 
L 186.18769 149.612167 
L 186.518632 147.137273 
L 186.684103 146.095194 
L 186.849575 141.072567 
L 187.51146 145.605983 
L 187.676931 150.139325 
L 187.842402 158.870291 
L 188.007873 161.053 
L 188.504287 157.19126 
L 188.669758 159.975185 
L 188.835229 158.119235 
L 189.000701 154.069876 
L 189.166172 153.226228 
L 189.662585 152.88875 
L 189.828057 153.732398 
L 190.158999 148.670662 
L 190.32447 140.740617 
L 190.986355 130.110975 
L 191.151827 130.785875 
L 191.317298 135.510152 
L 191.482769 133.148013 
L 191.979183 128.761158 
L 192.144654 133.485472 
L 192.310125 131.629503 
L 192.475596 131.123315 
L 192.641068 131.629503 
L 193.137481 131.629503 
L 193.302952 128.929887 
L 193.468424 129.267365 
L 193.633895 131.629503 
L 193.799366 130.110975 
L 194.29578 130.617164 
L 194.461251 134.835233 
L 194.626722 133.316743 
L 194.792193 147.489593 
L 194.957665 144.452573 
L 195.61955 139.896988 
L 195.785021 143.777655 
L 195.950492 140.909366 
L 196.115963 140.403158 
L 196.777848 146.477253 
L 196.943319 151.876429 
L 197.108791 151.370241 
L 197.274262 153.563706 
L 197.770676 151.370241 
L 198.101618 152.88875 
L 198.267089 149.85175 
L 198.43256 150.189153 
L 198.928974 153.901146 
L 199.259917 159.300285 
L 199.425388 157.444335 
L 199.590859 150.526612 
L 200.087273 143.608907 
L 200.252744 143.102756 
L 200.418215 160.312644 
L 200.749158 156.600706 
L 201.245571 154.069876 
L 201.411043 147.152152 
L 201.576514 145.633643 
L 201.741985 145.971064 
L 201.907456 137.703598 
L 202.40387 141.246806 
L 202.569341 143.777655 
L 203.562168 135.341422 
L 203.72764 135.426237 
L 204.058582 139.835767 
L 204.720467 128.642369 
L 205.05141 131.864702 
L 205.216881 131.695091 
L 205.382352 131.864702 
L 206.044237 131.355908 
L 206.375179 133.560655 
L 206.540651 137.800574 
L 207.368007 132.034274 
L 207.533478 125.92881 
L 207.698949 126.098402 
L 208.195363 129.999138 
L 208.360834 129.490326 
L 208.857248 113.20905 
L 209.519133 113.20905 
L 209.684604 108.799539 
L 209.850075 110.495492 
L 210.015546 108.629929 
L 210.51196 109.138741 
L 210.677431 98.623746 
L 210.842902 98.454061 
L 211.008374 101.846042 
L 211.173845 97.945361 
L 211.670259 93.535775 
L 211.83573 100.828399 
L 212.001201 103.202849 
L 212.166672 96.588517 
L 212.332143 98.962929 
L 212.828557 115.75298 
L 212.994028 114.565839 
L 213.1595 117.448933 
L 213.324971 126.267993 
L 213.490442 121.858482 
L 213.986856 114.226637 
L 214.152327 118.975313 
L 214.317798 107.44275 
L 214.483269 104.05077 
L 214.648741 103.372441 
L 215.310626 101.16762 
L 215.476097 105.746779 
L 215.641568 103.033202 
L 215.807039 73.692983 
L 216.303453 66.739505 
L 216.468924 62.160345 
L 216.799867 69.283415 
L 216.965338 62.838749 
L 217.461751 59.446768 
L 217.627223 52.154182 
L 217.958165 59.955562 
L 218.123636 56.394102 
L 218.62005 57.920463 
L 218.785521 59.878505 
L 219.778349 62.943334 
L 219.94382 61.581186 
L 220.109291 62.773049 
L 220.274762 69.413448 
L 220.440234 81.161926 
L 220.936647 75.032175 
L 221.102118 82.353695 
L 221.26759 80.651052 
L 222.094946 89.845369 
L 222.260417 89.504931 
L 222.425888 87.631965 
L 222.591359 88.483296 
L 222.756831 96.996604 
L 223.253244 95.123677 
L 223.418716 87.631965 
L 223.584187 87.80225 
L 223.749658 84.907669 
L 223.915129 85.077973 
L 224.411543 82.353695 
L 224.577014 79.118582 
L 224.742485 80.310501 
L 225.073428 86.950882 
L 225.569842 84.73744 
L 225.900784 86.610368 
L 226.066255 85.248295 
L 226.231726 85.929285 
L 226.72814 91.037289 
L 226.893611 88.823828 
L 227.059083 89.845369 
L 227.224554 93.5913 
L 227.390025 88.31303 
L 227.886439 86.780653 
L 228.05191 85.248295 
L 228.217381 81.672649 
L 228.548324 80.480768 
L 229.044737 81.842878 
L 229.210209 85.077973 
L 229.37568 81.161926 
L 229.541151 80.480768 
L 229.706622 82.353695 
L 230.203036 83.205026 
L 230.368507 84.907669 
L 230.533978 116.06649 
L 230.69945 113.001643 
L 230.864921 117.088068 
L 231.526806 119.471813 
L 231.692277 116.236719 
L 231.857748 121.855521 
L 232.023219 116.917783 
L 232.519633 116.747536 
L 232.685104 107.893677 
L 232.850575 108.574722 
L 233.016047 110.27744 
L 233.181518 108.745007 
L 233.677932 108.574722 
L 233.843403 110.581019 
L 234.008874 110.581019 
L 234.174345 110.066585 
L 234.339817 107.837402 
L 235.001701 108.694786 
L 235.167173 121.555484 
L 235.332644 116.925616 
L 235.498115 120.012164 
L 235.994529 122.927283 
L 236.16 121.212516 
L 236.325471 128.92895 
L 236.490942 129.100434 
L 236.656414 130.815164 
L 237.152827 127.557133 
L 237.318299 128.07151 
L 237.649241 127.214202 
L 237.814712 124.470604 
L 238.311126 120.183686 
L 238.476597 115.553799 
L 238.642068 122.412868 
L 238.973011 115.725283 
L 239.634896 112.810201 
L 239.800367 108.180371 
L 240.131309 116.068233 
L 240.627723 116.068233 
L 240.793194 118.983333 
L 241.124137 112.295786 
L 241.289608 114.010534 
L 241.786022 116.411201 
L 241.951493 116.582667 
L 242.116964 116.411201 
L 242.282435 114.696434 
L 242.447907 107.322949 
L 242.94432 106.808553 
L 243.109791 104.750855 
L 243.275263 104.236421 
L 243.440734 105.093767 
L 243.606205 109.552151 
L 244.102619 112.810201 
L 244.26809 107.151521 
L 244.433561 106.465585 
L 244.764504 95.491119 
L 245.260917 94.633754 
L 245.426389 110.752484 
L 245.59186 110.066585 
L 245.922802 103.550484 
L 246.419216 99.263603 
L 246.584687 94.290842 
L 246.750158 94.805238 
L 246.91563 93.433383 
L 247.081101 97.891785 
L 247.742986 95.491119 
L 248.073928 98.063251 
L 248.239399 97.891785 
L 248.735813 99.949502 
L 248.901284 97.307735 
L 249.066756 98.171059 
L 249.232227 95.753695 
L 249.397698 95.063073 
L 249.894112 100.243018 
L 250.225054 94.027141 
L 250.555997 87.465766 
L 251.05241 89.19247 
L 251.217882 95.581068 
L 251.383353 96.271708 
L 251.548824 100.243018 
L 251.714295 99.725042 
L 252.210709 101.969666 
L 252.541651 92.127772 
L 252.707123 90.401124 
L 252.872594 102.660344 
L 253.369008 106.976945 
L 253.534479 110.430279 
L 253.865421 128.732749 
L 254.030892 115.092229 
L 254.527306 116.473528 
L 254.692777 113.538208 
L 254.858249 113.365562 
L 255.02372 116.646212 
L 255.685605 107.840251 
L 255.851076 111.120938 
L 256.016547 120.790167 
L 256.182018 119.754179 
L 256.34749 128.732749 
L 256.843903 129.768756 
L 257.505788 106.976945 
L 258.002202 106.286323 
L 258.167673 107.149629 
L 258.333144 100.933677 
L 258.498616 100.761012 
L 258.664087 109.912266 
L 259.1605 117.509517 
L 259.325972 116.473528 
L 259.491443 119.754179 
L 259.656914 116.818839 
L 260.318799 125.279434 
L 260.48427 130.459415 
L 260.649741 127.524076 
L 260.980684 130.286713 
L 261.642569 121.308143 
L 261.80804 114.401551 
L 262.138982 122.344151 
L 262.635396 113.710892 
L 262.800867 121.480845 
L 263.13181 104.732303 
L 263.297281 127.351449 
L 263.793695 129.768756 
L 263.959166 124.844099 
L 264.290108 129.194487 
L 264.951993 144.855808 
L 265.117465 144.159752 
L 265.448407 161.213222 
L 265.613878 161.90924 
L 266.110292 167.825718 
L 266.606706 153.382515 
L 266.772177 154.600632 
L 267.26859 151.468341 
L 267.599533 147.11799 
L 267.765004 151.990402 
L 267.930475 141.201513 
L 268.426889 136.503096 
L 268.59236 141.201513 
L 268.757832 136.677148 
L 269.088774 133.544857 
L 269.585188 134.936951 
L 269.750659 130.064595 
L 270.081601 133.022815 
L 270.247073 125.888202 
L 270.908957 129.890562 
L 271.074429 130.064595 
L 271.2399 124.496108 
L 271.405371 114.229223 
L 271.901785 108.834807 
L 272.067256 113.881195 
L 272.398198 110.052905 
L 272.56367 108.312764 
L 273.060083 106.572605 
L 273.225555 104.832427 
L 273.391026 101.352146 
L 273.556497 105.528502 
L 273.721968 104.310423 
L 274.218382 105.702516 
L 274.383853 102.91831 
L 274.549324 102.048259 
L 274.714796 103.092306 
L 274.880267 101.352146 
L 275.542152 101.352146 
L 275.707623 102.048259 
L 276.038565 97.349861 
L 276.534979 89.693149 
L 276.70045 88.997074 
L 276.865922 90.737271 
L 277.031393 96.30572 
L 277.196864 96.30572 
L 277.693278 100.134029 
L 277.858749 100.482076 
L 278.355163 109.704877 
L 278.851576 104.832427 
L 279.017048 113.01714 
L 279.513461 99.697308 
L 280.009875 103.728321 
L 280.175346 103.02728 
L 280.340817 103.202531 
L 280.506289 100.573581 
L 280.67176 113.367661 
L 281.168173 115.821322 
L 281.333645 113.01714 
L 281.499116 113.893451 
L 281.664587 113.893451 
L 282.326472 102.676741 
L 282.491943 104.078841 
L 282.657415 103.55307 
L 282.988357 98.295245 
L 283.484771 97.594185 
L 283.650242 101.80043 
L 283.815713 96.192085 
L 283.981184 96.192085 
L 284.146656 93.913711 
L 284.643069 92.336341 
L 284.80854 90.408488 
L 284.974012 90.934259 
L 285.139483 89.356927 
L 285.801368 90.583758 
L 285.966839 91.6353 
L 286.463253 104.955114 
L 286.959666 106.006694 
L 287.125138 104.254073 
L 287.290609 104.604631 
L 287.45608 105.480923 
L 287.621551 102.150988 
L 288.117965 106.883023 
L 288.448907 112.316099 
L 288.614379 114.594492 
L 288.77985 122.130728 
L 289.276264 133.172149 
L 289.441735 131.770049 
L 289.772677 126.687512 
L 289.938148 125.110161 
L 290.434562 122.831769 
L 290.600033 114.068683 
L 290.930976 130.367967 
L 291.096447 129.141155 
L 291.923803 133.697939 
L 292.089274 132.120588 
L 292.254746 140.883636 
L 292.751159 141.409426 
L 292.916631 133.697939 
L 293.082102 134.39898 
L 293.247573 136.15162 
L 293.413044 134.39898 
L 293.909458 131.419547 
L 294.074929 129.423258 
L 294.2404 131.543209 
L 294.405872 127.833333 
L 294.571343 131.366552 
L 295.067756 128.716614 
L 295.56417 116.350411 
L 295.729641 117.410348 
L 296.226055 116.173717 
L 296.391526 120.590218 
L 296.556997 117.057017 
L 296.722469 116.88038 
L 296.88794 117.233673 
L 297.384354 113.87711 
L 297.549825 114.937085 
L 297.715296 111.227209 
L 298.542652 115.820386 
L 299.039066 123.416794 
L 299.204537 117.940299 
L 299.700951 117.057017 
L 300.031893 121.826868 
L 300.362836 119.176949 
L 300.859249 128.716614 
L 301.190192 120.943549 
L 301.355663 125.006757 
L 301.521134 122.886844 
L 302.017548 122.356837 
L 302.183019 123.240156 
L 302.513962 131.543209 
L 302.679433 146.912681 
L 303.175847 153.449152 
L 303.341318 150.44592 
L 303.506789 150.622595 
L 303.67226 141.966211 
L 303.837731 144.792768 
L 304.334145 150.269264 
L 304.499616 144.616131 
L 304.830559 157.335684 
L 305.492444 149.739295 
L 305.657915 152.742527 
L 305.988857 147.266032 
L 306.154329 156.099071 
L 306.650742 152.742527 
L 306.816214 152.919183 
L 307.147156 139.669604 
L 307.312627 137.196341 
L 307.974512 143.026149 
L 308.139983 138.432992 
L 308.305455 126.950032 
L 308.470926 123.946763 
L 308.967339 117.233673 
L 309.298282 107.745954 
L 309.463753 107.923959 
L 309.629224 108.635982 
L 310.125638 112.196111 
L 310.291109 114.510183 
L 310.45658 118.96034 
L 310.622052 117.002261 
L 310.787523 124.478531 
L 311.283937 125.012585 
L 311.449408 127.682649 
L 311.614879 121.630442 
L 311.78035 120.91842 
L 311.945822 114.332196 
L 312.442235 111.306046 
L 312.773178 124.300544 
L 312.938649 123.232492 
L 313.10412 125.012585 
L 313.600534 125.902594 
L 313.766005 134.802889 
L 313.931476 130.886786 
L 314.096947 130.174727 
L 314.758832 115.222224 
L 314.924304 111.840081 
L 315.089775 112.730128 
L 315.420717 108.101927 
L 315.917131 97.065547 
L 316.082602 97.421595 
L 316.248073 96.175538 
L 316.413545 98.489628 
L 316.579016 93.68346 
L 317.240901 88.343257 
L 317.406372 91.013377 
L 317.737314 87.631253 
L 318.233728 84.961095 
L 318.895613 71.076626 
L 319.392027 70.542665 
L 319.88844 78.196866 
L 320.053912 74.636755 
L 320.550325 73.746728 
L 320.715796 70.898658 
L 320.881268 76.594797 
L 321.046739 77.306876 
L 321.21221 76.594797 
L 321.708624 70.720652 
L 321.874095 97.065547 
L 322.039566 97.599582 
L 322.370509 99.557662 
L 322.866922 100.8037 
L 323.032394 103.473802 
L 323.363336 97.777588 
L 323.528807 98.133599 
L 324.025221 98.489628 
L 324.356163 96.696025 
L 324.521635 87.189903 
L 324.687106 93.826217 
L 325.18352 92.929443 
L 325.348991 97.234089 
L 325.514462 95.978549 
L 325.845405 101.897463 
L 326.507289 95.799194 
L 326.838232 95.081757 
L 327.003703 96.157923 
L 327.500117 98.310255 
L 327.665588 96.875361 
L 327.99653 91.315194 
L 328.162002 98.48961 
L 328.658415 99.386402 
L 328.823887 100.821315 
L 328.989358 98.668965 
L 329.154829 100.283251 
L 329.3203 103.87044 
L 329.816714 102.435546 
L 329.982185 102.614919 
L 330.147656 103.511731 
L 330.313128 98.48961 
L 330.478599 110.506773 
L 331.140484 114.094019 
L 331.471426 109.430626 
L 331.636897 116.60506 
L 332.133311 120.909725 
L 332.298782 119.116121 
L 332.464254 122.703347 
L 332.629725 122.703347 
L 332.795196 131.492012 
L 333.29161 127.725431 
L 333.457081 122.703347 
L 333.622552 114.273373 
L 333.788023 113.73529 
L 333.953495 116.963807 
L 334.449908 116.425687 
L 334.780851 111.762331 
L 335.111793 122.3446 
L 335.773678 123.420767 
L 335.939149 121.806517 
L 336.104621 121.806517 
L 336.270092 127.007993 
L 336.766505 135.437967 
L 337.262919 155.705732 
L 337.42839 151.939131 
L 337.924804 150.145527 
L 338.421218 169.875246 
L 338.586689 166.288 
L 339.083103 181.533681 
L 339.248574 172.467991 
L 339.579516 215.983346 
L 339.744987 202.566106 
L 340.241401 229.944516 
L 340.406872 231.39502 
L 340.572344 226.680881 
L 340.737815 216.16465 
L 340.903286 224.867732 
L 341.3997 239.37285 
L 341.896113 190.418067 
L 342.061585 203.291358 
L 342.557998 199.12113 
L 342.888941 207.64289 
L 343.219883 212.719693 
L 343.716297 203.110036 
L 343.881768 206.192386 
L 344.212711 190.418067 
L 344.874595 193.500417 
L 345.040067 193.500417 
L 345.205538 208.730768 
L 345.371009 212.357048 
L 345.53648 205.285811 
L 346.032894 211.631796 
L 346.198365 217.252547 
L 346.363837 217.615173 
L 346.694779 208.549465 
L 347.191193 206.192386 
L 347.356664 203.653984 
L 347.522135 194.406954 
L 347.687606 198.939808 
L 347.853078 209.45602 
L 348.349491 211.26917 
L 348.514962 210.725221 
L 348.680434 211.813118 
L 348.845905 207.64289 
L 349.011376 195.494851 
L 349.673261 209.45602 
L 349.838732 216.708598 
L 350.004204 215.076772 
L 350.169675 216.16465 
L 350.666088 200.209027 
L 350.83156 199.302453 
L 351.162502 193.500417 
L 351.327973 215.076772 
L 351.989858 210.543917 
L 352.155329 204.379237 
L 352.320801 207.461568 
L 352.486272 205.285811 
L 352.982686 204.379237 
L 353.148157 200.934279 
L 353.64457 179.901873 
L 354.140984 171.198772 
L 354.471927 185.306053 
L 354.637398 202.711074 
L 354.802869 195.382639 
L 355.299283 194.283367 
L 355.464754 190.619141 
L 355.630225 197.397949 
L 355.795696 195.565817 
L 355.961168 201.428587 
L 356.623053 204.176739 
L 356.788524 211.505174 
L 356.953995 207.840947 
L 357.61588 205.825637 
L 357.781351 203.077504 
L 357.946822 208.757022 
L 358.112294 208.940237 
L 358.774178 205.642422 
L 358.93965 215.1694 
L 359.105121 212.604445 
L 359.270592 216.818299 
L 359.436063 211.688389 
L 360.097948 207.108124 
L 360.428891 203.260701 
L 361.090776 206.375282 
L 361.587189 201.428587 
L 361.752661 205.092814 
L 362.249074 202.711074 
L 362.414545 207.657769 
L 362.580017 203.443897 
L 362.745488 205.092814 
L 362.910959 200.512549 
L 363.407373 200.1461 
L 363.572844 198.863632 
L 363.738315 198.863632 
L 363.903786 196.115481 
L 364.069258 196.481892 
L 364.565671 194.283367 
L 364.896614 195.565817 
L 365.062085 205.276029 
L 365.227556 204.176739 
L 365.72397 208.024162 
L 365.889441 208.207396 
L 366.054912 208.757022 
L 366.220384 211.688389 
L 366.385855 210.405921 
L 366.882269 205.092814 
L 367.04774 210.405921 
L 367.213211 204.176739 
L 367.378682 206.008852 
L 367.544153 201.245372 
L 368.040567 204.176739 
L 368.206038 207.840947 
L 368.37151 201.245372 
L 368.536981 206.924909 
L 368.702452 205.642422 
L 369.364337 206.384558 
L 369.529808 205.827961 
L 369.695279 210.280741 
L 369.860751 209.909701 
L 370.357164 207.497772 
L 370.522636 209.167546 
L 370.853578 202.673914 
L 371.019049 205.085843 
L 371.515463 210.09524 
L 371.680934 208.610949 
L 371.846405 213.063748 
L 372.011877 211.950534 
L 372.177348 212.321612 
L 372.673761 205.456921 
L 372.839233 207.312233 
L 373.004704 207.497772 
L 373.170175 210.09524 
L 373.335646 206.570097 
L 373.83206 200.076446 
L 373.997531 203.972629 
L 374.328474 195.994762 
L 374.493945 199.334328 
L 374.990359 197.107938 
L 375.15583 199.890945 
L 375.321301 200.261985 
L 375.486772 198.035594 
L 375.652244 205.456921 
L 376.148657 207.868831 
L 376.314128 208.054351 
L 376.4796 208.425429 
L 376.645071 205.827961 
L 376.810542 205.456921 
L 377.306956 213.249268 
L 377.637898 226.051013 
L 377.968841 221.041616 
L 378.465254 216.032256 
L 378.630726 208.425429 
L 378.796197 217.702049 
L 378.961668 209.167546 
L 379.127139 210.837358 
L 379.789024 197.479016 
L 379.954495 196.736879 
L 380.119967 201.931796 
L 380.285438 193.211755 
L 380.781852 184.120655 
L 380.947323 186.903661 
L 381.112794 186.532584 
L 381.278265 186.718123 
L 381.443736 187.0892 
L 381.94015 175.957267 
L 382.105621 167.422765 
L 382.271093 172.803183 
L 382.602035 173.174261 
L 383.098449 176.513846 
L 383.26392 173.545338 
L 383.429391 167.608285 
L 383.594862 165.938492 
L 383.760334 152.394611 
L 384.256747 157.218469 
L 384.422219 154.594954 
L 384.58769 154.032772 
L 384.753161 154.220166 
L 384.918632 156.656287 
L 385.415046 158.905015 
L 385.580517 153.283196 
L 385.745988 153.47059 
L 385.91146 153.095802 
L 386.076931 154.220166 
L 386.738816 163.777259 
L 386.904287 161.153743 
L 387.069758 160.966349 
L 387.731643 160.404167 
L 387.897114 162.652895 
L 388.062585 162.465501 
L 388.228057 159.279803 
L 388.889942 164.526834 
L 389.220884 155.719318 
L 389.551827 158.717621 
L 390.04824 157.031075 
L 390.213711 153.845378 
L 390.379183 153.283196 
L 390.544654 147.473983 
L 390.710125 146.349619 
L 391.37201 150.65968 
L 391.537481 150.097498 
L 391.868424 153.845378 
L 392.364837 150.847074 
L 392.530309 152.346226 
L 392.69578 136.417738 
L 393.026722 150.097498 
L 393.523136 149.347922 
L 393.688607 149.910104 
L 394.01955 138.479072 
L 394.185021 135.10598 
L 394.846906 126.485857 
L 395.177848 115.429613 
L 395.343319 111.869127 
L 396.005204 113.368279 
L 396.170676 118.990098 
L 396.336147 120.114462 
L 396.501618 116.553977 
L 396.998032 110.182582 
L 397.163503 110.182582 
L 397.328974 103.249004 
L 397.494445 109.807794 
L 397.659917 108.496036 
L 398.15633 107.74646 
L 398.321802 109.6204 
L 398.487273 108.496036 
L 398.487273 108.496036 
" style="fill:none;stroke:#1f77b4;stroke-linecap:square;stroke-width:1.5;"/>
   </g>
   <g id="patch_3">
    <path d="M 57.6 276.48 
L 57.6 41.472 
" style="fill:none;stroke:#000000;stroke-linecap:square;stroke-linejoin:miter;stroke-width:0.8;"/>
   </g>
   <g id="patch_4">
    <path d="M 414.72 276.48 
L 414.72 41.472 
" style="fill:none;stroke:#000000;stroke-linecap:square;stroke-linejoin:miter;stroke-width:0.8;"/>
   </g>
   <g id="patch_5">
    <path d="M 57.6 276.48 
L 414.72 276.48 
" style="fill:none;stroke:#000000;stroke-linecap:square;stroke-linejoin:miter;stroke-width:0.8;"/>
   </g>
   <g id="patch_6">
    <path d="M 57.6 41.472 
L 414.72 41.472 
" style="fill:none;stroke:#000000;stroke-linecap:square;stroke-linejoin:miter;stroke-width:0.8;"/>
   </g>
   <g id="text_15">
    <!-- Hewlett Packard Enterprise Company -->
    <g transform="translate(124.315313 35.472)scale(0.12 -0.12)">
     <defs>
      <path d="M 9.8125 72.90625 
L 19.671875 72.90625 
L 19.671875 43.015625 
L 55.515625 43.015625 
L 55.515625 72.90625 
L 65.375 72.90625 
L 65.375 0 
L 55.515625 0 
L 55.515625 34.71875 
L 19.671875 34.71875 
L 19.671875 0 
L 9.8125 0 
z
" id="DejaVuSans-72"/>
      <path d="M 4.203125 54.6875 
L 13.1875 54.6875 
L 24.421875 12.015625 
L 35.59375 54.6875 
L 46.1875 54.6875 
L 57.421875 12.015625 
L 68.609375 54.6875 
L 77.59375 54.6875 
L 63.28125 0 
L 52.6875 0 
L 40.921875 44.828125 
L 29.109375 0 
L 18.5 0 
z
" id="DejaVuSans-119"/>
      <path d="M 9.421875 75.984375 
L 18.40625 75.984375 
L 18.40625 0 
L 9.421875 0 
z
" id="DejaVuSans-108"/>
      <path id="DejaVuSans-32"/>
      <path d="M 19.671875 64.796875 
L 19.671875 37.40625 
L 32.078125 37.40625 
Q 38.96875 37.40625 42.71875 40.96875 
Q 46.484375 44.53125 46.484375 51.125 
Q 46.484375 57.671875 42.71875 61.234375 
Q 38.96875 64.796875 32.078125 64.796875 
z
M 9.8125 72.90625 
L 32.078125 72.90625 
Q 44.34375 72.90625 50.609375 67.359375 
Q 56.890625 61.8125 56.890625 51.125 
Q 56.890625 40.328125 50.609375 34.8125 
Q 44.34375 29.296875 32.078125 29.296875 
L 19.671875 29.296875 
L 19.671875 0 
L 9.8125 0 
z
" id="DejaVuSans-80"/>
      <path d="M 48.78125 52.59375 
L 48.78125 44.1875 
Q 44.96875 46.296875 41.140625 47.34375 
Q 37.3125 48.390625 33.40625 48.390625 
Q 24.65625 48.390625 19.8125 42.84375 
Q 14.984375 37.3125 14.984375 27.296875 
Q 14.984375 17.28125 19.8125 11.734375 
Q 24.65625 6.203125 33.40625 6.203125 
Q 37.3125 6.203125 41.140625 7.25 
Q 44.96875 8.296875 48.78125 10.40625 
L 48.78125 2.09375 
Q 45.015625 0.34375 40.984375 -0.53125 
Q 36.96875 -1.421875 32.421875 -1.421875 
Q 20.0625 -1.421875 12.78125 6.34375 
Q 5.515625 14.109375 5.515625 27.296875 
Q 5.515625 40.671875 12.859375 48.328125 
Q 20.21875 56 33.015625 56 
Q 37.15625 56 41.109375 55.140625 
Q 45.0625 54.296875 48.78125 52.59375 
z
" id="DejaVuSans-99"/>
      <path d="M 9.078125 75.984375 
L 18.109375 75.984375 
L 18.109375 31.109375 
L 44.921875 54.6875 
L 56.390625 54.6875 
L 27.390625 29.109375 
L 57.625 0 
L 45.90625 0 
L 18.109375 26.703125 
L 18.109375 0 
L 9.078125 0 
z
" id="DejaVuSans-107"/>
      <path d="M 41.109375 46.296875 
Q 39.59375 47.171875 37.8125 47.578125 
Q 36.03125 48 33.890625 48 
Q 26.265625 48 22.1875 43.046875 
Q 18.109375 38.09375 18.109375 28.8125 
L 18.109375 0 
L 9.078125 0 
L 9.078125 54.6875 
L 18.109375 54.6875 
L 18.109375 46.1875 
Q 20.953125 51.171875 25.484375 53.578125 
Q 30.03125 56 36.53125 56 
Q 37.453125 56 38.578125 55.875 
Q 39.703125 55.765625 41.0625 55.515625 
z
" id="DejaVuSans-114"/>
      <path d="M 45.40625 46.390625 
L 45.40625 75.984375 
L 54.390625 75.984375 
L 54.390625 0 
L 45.40625 0 
L 45.40625 8.203125 
Q 42.578125 3.328125 38.25 0.953125 
Q 33.9375 -1.421875 27.875 -1.421875 
Q 17.96875 -1.421875 11.734375 6.484375 
Q 5.515625 14.40625 5.515625 27.296875 
Q 5.515625 40.1875 11.734375 48.09375 
Q 17.96875 56 27.875 56 
Q 33.9375 56 38.25 53.625 
Q 42.578125 51.265625 45.40625 46.390625 
z
M 14.796875 27.296875 
Q 14.796875 17.390625 18.875 11.75 
Q 22.953125 6.109375 30.078125 6.109375 
Q 37.203125 6.109375 41.296875 11.75 
Q 45.40625 17.390625 45.40625 27.296875 
Q 45.40625 37.203125 41.296875 42.84375 
Q 37.203125 48.484375 30.078125 48.484375 
Q 22.953125 48.484375 18.875 42.84375 
Q 14.796875 37.203125 14.796875 27.296875 
z
" id="DejaVuSans-100"/>
      <path d="M 9.8125 72.90625 
L 55.90625 72.90625 
L 55.90625 64.59375 
L 19.671875 64.59375 
L 19.671875 43.015625 
L 54.390625 43.015625 
L 54.390625 34.71875 
L 19.671875 34.71875 
L 19.671875 8.296875 
L 56.78125 8.296875 
L 56.78125 0 
L 9.8125 0 
z
" id="DejaVuSans-69"/>
      <path d="M 54.890625 33.015625 
L 54.890625 0 
L 45.90625 0 
L 45.90625 32.71875 
Q 45.90625 40.484375 42.875 44.328125 
Q 39.84375 48.1875 33.796875 48.1875 
Q 26.515625 48.1875 22.3125 43.546875 
Q 18.109375 38.921875 18.109375 30.90625 
L 18.109375 0 
L 9.078125 0 
L 9.078125 54.6875 
L 18.109375 54.6875 
L 18.109375 46.1875 
Q 21.34375 51.125 25.703125 53.5625 
Q 30.078125 56 35.796875 56 
Q 45.21875 56 50.046875 50.171875 
Q 54.890625 44.34375 54.890625 33.015625 
z
" id="DejaVuSans-110"/>
      <path d="M 18.109375 8.203125 
L 18.109375 -20.796875 
L 9.078125 -20.796875 
L 9.078125 54.6875 
L 18.109375 54.6875 
L 18.109375 46.390625 
Q 20.953125 51.265625 25.265625 53.625 
Q 29.59375 56 35.59375 56 
Q 45.5625 56 51.78125 48.09375 
Q 58.015625 40.1875 58.015625 27.296875 
Q 58.015625 14.40625 51.78125 6.484375 
Q 45.5625 -1.421875 35.59375 -1.421875 
Q 29.59375 -1.421875 25.265625 0.953125 
Q 20.953125 3.328125 18.109375 8.203125 
z
M 48.6875 27.296875 
Q 48.6875 37.203125 44.609375 42.84375 
Q 40.53125 48.484375 33.40625 48.484375 
Q 26.265625 48.484375 22.1875 42.84375 
Q 18.109375 37.203125 18.109375 27.296875 
Q 18.109375 17.390625 22.1875 11.75 
Q 26.265625 6.109375 33.40625 6.109375 
Q 40.53125 6.109375 44.609375 11.75 
Q 48.6875 17.390625 48.6875 27.296875 
z
" id="DejaVuSans-112"/>
      <path d="M 9.421875 54.6875 
L 18.40625 54.6875 
L 18.40625 0 
L 9.421875 0 
z
M 9.421875 75.984375 
L 18.40625 75.984375 
L 18.40625 64.59375 
L 9.421875 64.59375 
z
" id="DejaVuSans-105"/>
      <path d="M 44.28125 53.078125 
L 44.28125 44.578125 
Q 40.484375 46.53125 36.375 47.5 
Q 32.28125 48.484375 27.875 48.484375 
Q 21.1875 48.484375 17.84375 46.4375 
Q 14.5 44.390625 14.5 40.28125 
Q 14.5 37.15625 16.890625 35.375 
Q 19.28125 33.59375 26.515625 31.984375 
L 29.59375 31.296875 
Q 39.15625 29.25 43.1875 25.515625 
Q 47.21875 21.78125 47.21875 15.09375 
Q 47.21875 7.46875 41.1875 3.015625 
Q 35.15625 -1.421875 24.609375 -1.421875 
Q 20.21875 -1.421875 15.453125 -0.5625 
Q 10.6875 0.296875 5.421875 2 
L 5.421875 11.28125 
Q 10.40625 8.6875 15.234375 7.390625 
Q 20.0625 6.109375 24.8125 6.109375 
Q 31.15625 6.109375 34.5625 8.28125 
Q 37.984375 10.453125 37.984375 14.40625 
Q 37.984375 18.0625 35.515625 20.015625 
Q 33.0625 21.96875 24.703125 23.78125 
L 21.578125 24.515625 
Q 13.234375 26.265625 9.515625 29.90625 
Q 5.8125 33.546875 5.8125 39.890625 
Q 5.8125 47.609375 11.28125 51.796875 
Q 16.75 56 26.8125 56 
Q 31.78125 56 36.171875 55.265625 
Q 40.578125 54.546875 44.28125 53.078125 
z
" id="DejaVuSans-115"/>
      <path d="M 64.40625 67.28125 
L 64.40625 56.890625 
Q 59.421875 61.53125 53.78125 63.8125 
Q 48.140625 66.109375 41.796875 66.109375 
Q 29.296875 66.109375 22.65625 58.46875 
Q 16.015625 50.828125 16.015625 36.375 
Q 16.015625 21.96875 22.65625 14.328125 
Q 29.296875 6.6875 41.796875 6.6875 
Q 48.140625 6.6875 53.78125 8.984375 
Q 59.421875 11.28125 64.40625 15.921875 
L 64.40625 5.609375 
Q 59.234375 2.09375 53.4375 0.328125 
Q 47.65625 -1.421875 41.21875 -1.421875 
Q 24.65625 -1.421875 15.125 8.703125 
Q 5.609375 18.84375 5.609375 36.375 
Q 5.609375 53.953125 15.125 64.078125 
Q 24.65625 74.21875 41.21875 74.21875 
Q 47.75 74.21875 53.53125 72.484375 
Q 59.328125 70.75 64.40625 67.28125 
z
" id="DejaVuSans-67"/>
      <path d="M 30.609375 48.390625 
Q 23.390625 48.390625 19.1875 42.75 
Q 14.984375 37.109375 14.984375 27.296875 
Q 14.984375 17.484375 19.15625 11.84375 
Q 23.34375 6.203125 30.609375 6.203125 
Q 37.796875 6.203125 41.984375 11.859375 
Q 46.1875 17.53125 46.1875 27.296875 
Q 46.1875 37.015625 41.984375 42.703125 
Q 37.796875 48.390625 30.609375 48.390625 
z
M 30.609375 56 
Q 42.328125 56 49.015625 48.375 
Q 55.71875 40.765625 55.71875 27.296875 
Q 55.71875 13.875 49.015625 6.21875 
Q 42.328125 -1.421875 30.609375 -1.421875 
Q 18.84375 -1.421875 12.171875 6.21875 
Q 5.515625 13.875 5.515625 27.296875 
Q 5.515625 40.765625 12.171875 48.375 
Q 18.84375 56 30.609375 56 
z
" id="DejaVuSans-111"/>
      <path d="M 52 44.1875 
Q 55.375 50.25 60.0625 53.125 
Q 64.75 56 71.09375 56 
Q 79.640625 56 84.28125 50.015625 
Q 88.921875 44.046875 88.921875 33.015625 
L 88.921875 0 
L 79.890625 0 
L 79.890625 32.71875 
Q 79.890625 40.578125 77.09375 44.375 
Q 74.3125 48.1875 68.609375 48.1875 
Q 61.625 48.1875 57.5625 43.546875 
Q 53.515625 38.921875 53.515625 30.90625 
L 53.515625 0 
L 44.484375 0 
L 44.484375 32.71875 
Q 44.484375 40.625 41.703125 44.40625 
Q 38.921875 48.1875 33.109375 48.1875 
Q 26.21875 48.1875 22.15625 43.53125 
Q 18.109375 38.875 18.109375 30.90625 
L 18.109375 0 
L 9.078125 0 
L 9.078125 54.6875 
L 18.109375 54.6875 
L 18.109375 46.1875 
Q 21.1875 51.21875 25.484375 53.609375 
Q 29.78125 56 35.6875 56 
Q 41.65625 56 45.828125 52.96875 
Q 50 49.953125 52 44.1875 
z
" id="DejaVuSans-109"/>
      <path d="M 32.171875 -5.078125 
Q 28.375 -14.84375 24.75 -17.8125 
Q 21.140625 -20.796875 15.09375 -20.796875 
L 7.90625 -20.796875 
L 7.90625 -13.28125 
L 13.1875 -13.28125 
Q 16.890625 -13.28125 18.9375 -11.515625 
Q 21 -9.765625 23.484375 -3.21875 
L 25.09375 0.875 
L 2.984375 54.6875 
L 12.5 54.6875 
L 29.59375 11.921875 
L 46.6875 54.6875 
L 56.203125 54.6875 
z
" id="DejaVuSans-121"/>
     </defs>
     <use xlink:href="#DejaVuSans-72"/>
     <use x="75.195312" xlink:href="#DejaVuSans-101"/>
     <use x="136.71875" xlink:href="#DejaVuSans-119"/>
     <use x="218.505859" xlink:href="#DejaVuSans-108"/>
     <use x="246.289062" xlink:href="#DejaVuSans-101"/>
     <use x="307.8125" xlink:href="#DejaVuSans-116"/>
     <use x="347.021484" xlink:href="#DejaVuSans-116"/>
     <use x="386.230469" xlink:href="#DejaVuSans-32"/>
     <use x="418.017578" xlink:href="#DejaVuSans-80"/>
     <use x="473.820312" xlink:href="#DejaVuSans-97"/>
     <use x="535.099609" xlink:href="#DejaVuSans-99"/>
     <use x="590.080078" xlink:href="#DejaVuSans-107"/>
     <use x="646.240234" xlink:href="#DejaVuSans-97"/>
     <use x="707.519531" xlink:href="#DejaVuSans-114"/>
     <use x="746.882812" xlink:href="#DejaVuSans-100"/>
     <use x="810.359375" xlink:href="#DejaVuSans-32"/>
     <use x="842.146484" xlink:href="#DejaVuSans-69"/>
     <use x="905.330078" xlink:href="#DejaVuSans-110"/>
     <use x="968.708984" xlink:href="#DejaVuSans-116"/>
     <use x="1007.917969" xlink:href="#DejaVuSans-101"/>
     <use x="1069.441406" xlink:href="#DejaVuSans-114"/>
     <use x="1110.554688" xlink:href="#DejaVuSans-112"/>
     <use x="1174.03125" xlink:href="#DejaVuSans-114"/>
     <use x="1215.144531" xlink:href="#DejaVuSans-105"/>
     <use x="1242.927734" xlink:href="#DejaVuSans-115"/>
     <use x="1295.027344" xlink:href="#DejaVuSans-101"/>
     <use x="1356.550781" xlink:href="#DejaVuSans-32"/>
     <use x="1388.337891" xlink:href="#DejaVuSans-67"/>
     <use x="1458.162109" xlink:href="#DejaVuSans-111"/>
     <use x="1519.34375" xlink:href="#DejaVuSans-109"/>
     <use x="1616.755859" xlink:href="#DejaVuSans-112"/>
     <use x="1680.232422" xlink:href="#DejaVuSans-97"/>
     <use x="1741.511719" xlink:href="#DejaVuSans-110"/>
     <use x="1804.890625" xlink:href="#DejaVuSans-121"/>
    </g>
   </g>
   <g id="legend_1">
    <g id="patch_7">
     <path d="M 329.5075 64.150125 
L 407.72 64.150125 
Q 409.72 64.150125 409.72 62.150125 
L 409.72 48.472 
Q 409.72 46.472 407.72 46.472 
L 329.5075 46.472 
Q 327.5075 46.472 327.5075 48.472 
L 327.5075 62.150125 
Q 327.5075 64.150125 329.5075 64.150125 
z
" style="fill:#ffffff;opacity:0.8;stroke:#cccccc;stroke-linejoin:miter;"/>
    </g>
    <g id="line2d_15">
     <path d="M 331.5075 54.570437 
L 351.5075 54.570437 
" style="fill:none;stroke:#1f77b4;stroke-linecap:square;stroke-width:1.5;"/>
    </g>
    <g id="line2d_16"/>
    <g id="text_16">
     <!-- Adj Close -->
     <g transform="translate(359.5075 58.070437)scale(0.1 -0.1)">
      <defs>
       <path d="M 34.1875 63.1875 
L 20.796875 26.90625 
L 47.609375 26.90625 
z
M 28.609375 72.90625 
L 39.796875 72.90625 
L 67.578125 0 
L 57.328125 0 
L 50.6875 18.703125 
L 17.828125 18.703125 
L 11.1875 0 
L 0.78125 0 
z
" id="DejaVuSans-65"/>
       <path d="M 9.421875 54.6875 
L 18.40625 54.6875 
L 18.40625 -0.984375 
Q 18.40625 -11.421875 14.421875 -16.109375 
Q 10.453125 -20.796875 1.609375 -20.796875 
L -1.8125 -20.796875 
L -1.8125 -13.1875 
L 0.59375 -13.1875 
Q 5.71875 -13.1875 7.5625 -10.8125 
Q 9.421875 -8.453125 9.421875 -0.984375 
z
M 9.421875 75.984375 
L 18.40625 75.984375 
L 18.40625 64.59375 
L 9.421875 64.59375 
z
" id="DejaVuSans-106"/>
      </defs>
      <use xlink:href="#DejaVuSans-65"/>
      <use x="66.658203" xlink:href="#DejaVuSans-100"/>
      <use x="130.134766" xlink:href="#DejaVuSans-106"/>
      <use x="157.917969" xlink:href="#DejaVuSans-32"/>
      <use x="189.705078" xlink:href="#DejaVuSans-67"/>
      <use x="259.529297" xlink:href="#DejaVuSans-108"/>
      <use x="287.3125" xlink:href="#DejaVuSans-111"/>
      <use x="348.494141" xlink:href="#DejaVuSans-115"/>
      <use x="400.59375" xlink:href="#DejaVuSans-101"/>
     </g>
    </g>
   </g>
  </g>
 </g>
 <defs>
  <clipPath id="p06e2d59019">
   <rect height="235.008" width="357.12" x="57.6" y="41.472"/>
  </clipPath>
 </defs>
</svg>
