<?xml version="1.0" encoding="utf-8" standalone="no"?>
<!DOCTYPE svg PUBLIC "-//W3C//DTD SVG 1.1//EN"
  "http://www.w3.org/Graphics/SVG/1.1/DTD/svg11.dtd">
<!-- Created with matplotlib (https://matplotlib.org/) -->
<svg height="345.6pt" version="1.1" viewBox="0 0 460.8 345.6" width="460.8pt" xmlns="http://www.w3.org/2000/svg" xmlns:xlink="http://www.w3.org/1999/xlink">
 <metadata>
  <rdf:RDF xmlns:cc="http://creativecommons.org/ns#" xmlns:dc="http://purl.org/dc/elements/1.1/" xmlns:rdf="http://www.w3.org/1999/02/22-rdf-syntax-ns#">
   <cc:Work>
    <dc:type rdf:resource="http://purl.org/dc/dcmitype/StillImage"/>
    <dc:date>2021-03-05T04:19:00.217334</dc:date>
    <dc:format>image/svg+xml</dc:format>
    <dc:creator>
     <cc:Agent>
      <dc:title>Matplotlib v3.3.4, https://matplotlib.org/</dc:title>
     </cc:Agent>
    </dc:creator>
   </cc:Work>
  </rdf:RDF>
 </metadata>
 <defs>
  <style type="text/css">*{stroke-linecap:butt;stroke-linejoin:round;}</style>
 </defs>
 <g id="figure_1">
  <g id="patch_1">
   <path d="M 0 345.6 
L 460.8 345.6 
L 460.8 0 
L 0 0 
z
" style="fill:#ffffff;"/>
  </g>
  <g id="axes_1">
   <g id="patch_2">
    <path d="M 57.6 307.584 
L 414.72 307.584 
L 414.72 41.472 
L 57.6 41.472 
z
" style="fill:#ffffff;"/>
   </g>
   <g id="matplotlib.axis_1">
    <g id="xtick_1">
     <g id="line2d_1">
      <defs>
       <path d="M 0 0 
L 0 3.5 
" id="me01b71e4aa" style="stroke:#000000;stroke-width:0.8;"/>
      </defs>
      <g>
       <use style="stroke:#000000;stroke-width:0.8;" x="73.832727" xlink:href="#me01b71e4aa" y="307.584"/>
      </g>
     </g>
     <g id="text_1">
      <!-- 0 -->
      <g transform="translate(70.651477 322.182437)scale(0.1 -0.1)">
       <defs>
        <path d="M 31.78125 66.40625 
Q 24.171875 66.40625 20.328125 58.90625 
Q 16.5 51.421875 16.5 36.375 
Q 16.5 21.390625 20.328125 13.890625 
Q 24.171875 6.390625 31.78125 6.390625 
Q 39.453125 6.390625 43.28125 13.890625 
Q 47.125 21.390625 47.125 36.375 
Q 47.125 51.421875 43.28125 58.90625 
Q 39.453125 66.40625 31.78125 66.40625 
z
M 31.78125 74.21875 
Q 44.046875 74.21875 50.515625 64.515625 
Q 56.984375 54.828125 56.984375 36.375 
Q 56.984375 17.96875 50.515625 8.265625 
Q 44.046875 -1.421875 31.78125 -1.421875 
Q 19.53125 -1.421875 13.0625 8.265625 
Q 6.59375 17.96875 6.59375 36.375 
Q 6.59375 54.828125 13.0625 64.515625 
Q 19.53125 74.21875 31.78125 74.21875 
z
" id="DejaVuSans-48"/>
       </defs>
       <use xlink:href="#DejaVuSans-48"/>
      </g>
     </g>
    </g>
    <g id="xtick_2">
     <g id="line2d_2">
      <g>
       <use style="stroke:#000000;stroke-width:0.8;" x="138.828632" xlink:href="#me01b71e4aa" y="307.584"/>
      </g>
     </g>
     <g id="text_2">
      <!-- 200 -->
      <g transform="translate(129.284882 322.182437)scale(0.1 -0.1)">
       <defs>
        <path d="M 19.1875 8.296875 
L 53.609375 8.296875 
L 53.609375 0 
L 7.328125 0 
L 7.328125 8.296875 
Q 12.9375 14.109375 22.625 23.890625 
Q 32.328125 33.6875 34.8125 36.53125 
Q 39.546875 41.84375 41.421875 45.53125 
Q 43.3125 49.21875 43.3125 52.78125 
Q 43.3125 58.59375 39.234375 62.25 
Q 35.15625 65.921875 28.609375 65.921875 
Q 23.96875 65.921875 18.8125 64.3125 
Q 13.671875 62.703125 7.8125 59.421875 
L 7.8125 69.390625 
Q 13.765625 71.78125 18.9375 73 
Q 24.125 74.21875 28.421875 74.21875 
Q 39.75 74.21875 46.484375 68.546875 
Q 53.21875 62.890625 53.21875 53.421875 
Q 53.21875 48.921875 51.53125 44.890625 
Q 49.859375 40.875 45.40625 35.40625 
Q 44.1875 33.984375 37.640625 27.21875 
Q 31.109375 20.453125 19.1875 8.296875 
z
" id="DejaVuSans-50"/>
       </defs>
       <use xlink:href="#DejaVuSans-50"/>
       <use x="63.623047" xlink:href="#DejaVuSans-48"/>
       <use x="127.246094" xlink:href="#DejaVuSans-48"/>
      </g>
     </g>
    </g>
    <g id="xtick_3">
     <g id="line2d_3">
      <g>
       <use style="stroke:#000000;stroke-width:0.8;" x="203.824537" xlink:href="#me01b71e4aa" y="307.584"/>
      </g>
     </g>
     <g id="text_3">
      <!-- 400 -->
      <g transform="translate(194.280787 322.182437)scale(0.1 -0.1)">
       <defs>
        <path d="M 37.796875 64.3125 
L 12.890625 25.390625 
L 37.796875 25.390625 
z
M 35.203125 72.90625 
L 47.609375 72.90625 
L 47.609375 25.390625 
L 58.015625 25.390625 
L 58.015625 17.1875 
L 47.609375 17.1875 
L 47.609375 0 
L 37.796875 0 
L 37.796875 17.1875 
L 4.890625 17.1875 
L 4.890625 26.703125 
z
" id="DejaVuSans-52"/>
       </defs>
       <use xlink:href="#DejaVuSans-52"/>
       <use x="63.623047" xlink:href="#DejaVuSans-48"/>
       <use x="127.246094" xlink:href="#DejaVuSans-48"/>
      </g>
     </g>
    </g>
    <g id="xtick_4">
     <g id="line2d_4">
      <g>
       <use style="stroke:#000000;stroke-width:0.8;" x="268.820442" xlink:href="#me01b71e4aa" y="307.584"/>
      </g>
     </g>
     <g id="text_4">
      <!-- 600 -->
      <g transform="translate(259.276692 322.182437)scale(0.1 -0.1)">
       <defs>
        <path d="M 33.015625 40.375 
Q 26.375 40.375 22.484375 35.828125 
Q 18.609375 31.296875 18.609375 23.390625 
Q 18.609375 15.53125 22.484375 10.953125 
Q 26.375 6.390625 33.015625 6.390625 
Q 39.65625 6.390625 43.53125 10.953125 
Q 47.40625 15.53125 47.40625 23.390625 
Q 47.40625 31.296875 43.53125 35.828125 
Q 39.65625 40.375 33.015625 40.375 
z
M 52.59375 71.296875 
L 52.59375 62.3125 
Q 48.875 64.0625 45.09375 64.984375 
Q 41.3125 65.921875 37.59375 65.921875 
Q 27.828125 65.921875 22.671875 59.328125 
Q 17.53125 52.734375 16.796875 39.40625 
Q 19.671875 43.65625 24.015625 45.921875 
Q 28.375 48.1875 33.59375 48.1875 
Q 44.578125 48.1875 50.953125 41.515625 
Q 57.328125 34.859375 57.328125 23.390625 
Q 57.328125 12.15625 50.6875 5.359375 
Q 44.046875 -1.421875 33.015625 -1.421875 
Q 20.359375 -1.421875 13.671875 8.265625 
Q 6.984375 17.96875 6.984375 36.375 
Q 6.984375 53.65625 15.1875 63.9375 
Q 23.390625 74.21875 37.203125 74.21875 
Q 40.921875 74.21875 44.703125 73.484375 
Q 48.484375 72.75 52.59375 71.296875 
z
" id="DejaVuSans-54"/>
       </defs>
       <use xlink:href="#DejaVuSans-54"/>
       <use x="63.623047" xlink:href="#DejaVuSans-48"/>
       <use x="127.246094" xlink:href="#DejaVuSans-48"/>
      </g>
     </g>
    </g>
    <g id="xtick_5">
     <g id="line2d_5">
      <g>
       <use style="stroke:#000000;stroke-width:0.8;" x="333.816347" xlink:href="#me01b71e4aa" y="307.584"/>
      </g>
     </g>
     <g id="text_5">
      <!-- 800 -->
      <g transform="translate(324.272597 322.182437)scale(0.1 -0.1)">
       <defs>
        <path d="M 31.78125 34.625 
Q 24.75 34.625 20.71875 30.859375 
Q 16.703125 27.09375 16.703125 20.515625 
Q 16.703125 13.921875 20.71875 10.15625 
Q 24.75 6.390625 31.78125 6.390625 
Q 38.8125 6.390625 42.859375 10.171875 
Q 46.921875 13.96875 46.921875 20.515625 
Q 46.921875 27.09375 42.890625 30.859375 
Q 38.875 34.625 31.78125 34.625 
z
M 21.921875 38.8125 
Q 15.578125 40.375 12.03125 44.71875 
Q 8.5 49.078125 8.5 55.328125 
Q 8.5 64.0625 14.71875 69.140625 
Q 20.953125 74.21875 31.78125 74.21875 
Q 42.671875 74.21875 48.875 69.140625 
Q 55.078125 64.0625 55.078125 55.328125 
Q 55.078125 49.078125 51.53125 44.71875 
Q 48 40.375 41.703125 38.8125 
Q 48.828125 37.15625 52.796875 32.3125 
Q 56.78125 27.484375 56.78125 20.515625 
Q 56.78125 9.90625 50.3125 4.234375 
Q 43.84375 -1.421875 31.78125 -1.421875 
Q 19.734375 -1.421875 13.25 4.234375 
Q 6.78125 9.90625 6.78125 20.515625 
Q 6.78125 27.484375 10.78125 32.3125 
Q 14.796875 37.15625 21.921875 38.8125 
z
M 18.3125 54.390625 
Q 18.3125 48.734375 21.84375 45.5625 
Q 25.390625 42.390625 31.78125 42.390625 
Q 38.140625 42.390625 41.71875 45.5625 
Q 45.3125 48.734375 45.3125 54.390625 
Q 45.3125 60.0625 41.71875 63.234375 
Q 38.140625 66.40625 31.78125 66.40625 
Q 25.390625 66.40625 21.84375 63.234375 
Q 18.3125 60.0625 18.3125 54.390625 
z
" id="DejaVuSans-56"/>
       </defs>
       <use xlink:href="#DejaVuSans-56"/>
       <use x="63.623047" xlink:href="#DejaVuSans-48"/>
       <use x="127.246094" xlink:href="#DejaVuSans-48"/>
      </g>
     </g>
    </g>
    <g id="xtick_6">
     <g id="line2d_6">
      <g>
       <use style="stroke:#000000;stroke-width:0.8;" x="398.812252" xlink:href="#me01b71e4aa" y="307.584"/>
      </g>
     </g>
     <g id="text_6">
      <!-- 1000 -->
      <g transform="translate(386.087252 322.182437)scale(0.1 -0.1)">
       <defs>
        <path d="M 12.40625 8.296875 
L 28.515625 8.296875 
L 28.515625 63.921875 
L 10.984375 60.40625 
L 10.984375 69.390625 
L 28.421875 72.90625 
L 38.28125 72.90625 
L 38.28125 8.296875 
L 54.390625 8.296875 
L 54.390625 0 
L 12.40625 0 
z
" id="DejaVuSans-49"/>
       </defs>
       <use xlink:href="#DejaVuSans-49"/>
       <use x="63.623047" xlink:href="#DejaVuSans-48"/>
       <use x="127.246094" xlink:href="#DejaVuSans-48"/>
       <use x="190.869141" xlink:href="#DejaVuSans-48"/>
      </g>
     </g>
    </g>
   </g>
   <g id="matplotlib.axis_2">
    <g id="ytick_1">
     <g id="line2d_7">
      <defs>
       <path d="M 0 0 
L -3.5 0 
" id="mf833f41756" style="stroke:#000000;stroke-width:0.8;"/>
      </defs>
      <g>
       <use style="stroke:#000000;stroke-width:0.8;" x="57.6" xlink:href="#mf833f41756" y="288.87923"/>
      </g>
     </g>
     <g id="text_7">
      <!-- −6 -->
      <g transform="translate(35.857813 292.678448)scale(0.1 -0.1)">
       <defs>
        <path d="M 10.59375 35.5 
L 73.1875 35.5 
L 73.1875 27.203125 
L 10.59375 27.203125 
z
" id="DejaVuSans-8722"/>
       </defs>
       <use xlink:href="#DejaVuSans-8722"/>
       <use x="83.789062" xlink:href="#DejaVuSans-54"/>
      </g>
     </g>
    </g>
    <g id="ytick_2">
     <g id="line2d_8">
      <g>
       <use style="stroke:#000000;stroke-width:0.8;" x="57.6" xlink:href="#mf833f41756" y="250.287329"/>
      </g>
     </g>
     <g id="text_8">
      <!-- −4 -->
      <g transform="translate(35.857813 254.086548)scale(0.1 -0.1)">
       <use xlink:href="#DejaVuSans-8722"/>
       <use x="83.789062" xlink:href="#DejaVuSans-52"/>
      </g>
     </g>
    </g>
    <g id="ytick_3">
     <g id="line2d_9">
      <g>
       <use style="stroke:#000000;stroke-width:0.8;" x="57.6" xlink:href="#mf833f41756" y="211.695429"/>
      </g>
     </g>
     <g id="text_9">
      <!-- −2 -->
      <g transform="translate(35.857813 215.494647)scale(0.1 -0.1)">
       <use xlink:href="#DejaVuSans-8722"/>
       <use x="83.789062" xlink:href="#DejaVuSans-50"/>
      </g>
     </g>
    </g>
    <g id="ytick_4">
     <g id="line2d_10">
      <g>
       <use style="stroke:#000000;stroke-width:0.8;" x="57.6" xlink:href="#mf833f41756" y="173.103528"/>
      </g>
     </g>
     <g id="text_10">
      <!-- 0 -->
      <g transform="translate(44.2375 176.902747)scale(0.1 -0.1)">
       <use xlink:href="#DejaVuSans-48"/>
      </g>
     </g>
    </g>
    <g id="ytick_5">
     <g id="line2d_11">
      <g>
       <use style="stroke:#000000;stroke-width:0.8;" x="57.6" xlink:href="#mf833f41756" y="134.511628"/>
      </g>
     </g>
     <g id="text_11">
      <!-- 2 -->
      <g transform="translate(44.2375 138.310847)scale(0.1 -0.1)">
       <use xlink:href="#DejaVuSans-50"/>
      </g>
     </g>
    </g>
    <g id="ytick_6">
     <g id="line2d_12">
      <g>
       <use style="stroke:#000000;stroke-width:0.8;" x="57.6" xlink:href="#mf833f41756" y="95.919727"/>
      </g>
     </g>
     <g id="text_12">
      <!-- 4 -->
      <g transform="translate(44.2375 99.718946)scale(0.1 -0.1)">
       <use xlink:href="#DejaVuSans-52"/>
      </g>
     </g>
    </g>
    <g id="ytick_7">
     <g id="line2d_13">
      <g>
       <use style="stroke:#000000;stroke-width:0.8;" x="57.6" xlink:href="#mf833f41756" y="57.327827"/>
      </g>
     </g>
     <g id="text_13">
      <!-- 6 -->
      <g transform="translate(44.2375 61.127046)scale(0.1 -0.1)">
       <use xlink:href="#DejaVuSans-54"/>
      </g>
     </g>
    </g>
   </g>
   <g id="line2d_14">
    <path clip-path="url(#paf608ddad6)" d="M 73.832727 171.667171 
L 74.157707 175.636176 
L 74.482686 172.629723 
L 74.807666 173.694163 
L 75.132645 171.066992 
L 75.457625 175.640255 
L 75.782604 176.433827 
L 76.107584 176.512349 
L 76.432563 178.452596 
L 76.757543 178.030952 
L 77.082523 178.956598 
L 77.407502 178.347051 
L 77.732482 178.488366 
L 78.382441 181.827161 
L 78.70742 181.353658 
L 79.0324 178.641277 
L 79.357379 180.13797 
L 79.682359 178.557927 
L 80.332318 180.656727 
L 80.657297 182.3821 
L 80.982277 180.247614 
L 81.307256 181.403322 
L 81.632236 181.332042 
L 81.957215 180.369354 
L 82.607174 177.002081 
L 82.932154 177.630192 
L 83.257133 179.043934 
L 83.582113 181.329366 
L 83.907093 181.135017 
L 84.232072 180.808637 
L 84.557052 179.002816 
L 84.882031 181.025941 
L 85.207011 181.325014 
L 85.53199 184.286487 
L 85.85697 182.055684 
L 86.181949 182.490045 
L 86.506929 183.232169 
L 86.831908 181.37186 
L 87.156888 181.380891 
L 87.481867 179.967207 
L 87.806847 179.789777 
L 88.131826 179.290085 
L 88.456806 179.393818 
L 89.106765 173.08837 
L 89.756724 169.79327 
L 90.081704 168.958132 
L 90.406683 169.510176 
L 91.056642 164.776151 
L 91.381622 164.323342 
L 91.706601 164.439735 
L 92.35656 166.012624 
L 92.68154 164.37467 
L 93.006519 165.189656 
L 93.331499 162.69176 
L 93.656478 163.13152 
L 93.981458 164.71229 
L 94.306437 165.370996 
L 94.631417 165.252545 
L 94.956396 160.492034 
L 95.281376 157.410662 
L 95.931335 155.97865 
L 96.256314 153.750228 
L 96.581294 157.710514 
L 96.906274 155.413629 
L 97.231253 154.727308 
L 97.556233 151.173393 
L 97.881212 150.997903 
L 98.206192 150.396873 
L 98.531171 151.692398 
L 98.856151 151.862042 
L 99.50611 156.428789 
L 99.831089 155.064407 
L 100.156069 153.148121 
L 100.481048 153.917864 
L 100.806028 152.769328 
L 101.131007 151.025993 
L 101.455987 152.158788 
L 101.780966 151.563502 
L 102.105946 153.079355 
L 102.430925 153.269303 
L 102.755905 151.920582 
L 103.080885 152.711245 
L 103.405864 151.776141 
L 103.730844 152.643552 
L 104.055823 151.618007 
L 104.380803 151.330968 
L 104.705782 150.88241 
L 105.680721 147.879041 
L 106.0057 147.913625 
L 106.33068 146.960301 
L 106.655659 151.738606 
L 106.980639 150.743864 
L 107.305618 148.591153 
L 107.630598 143.660062 
L 107.955577 143.188472 
L 108.280557 144.561673 
L 108.605536 148.059057 
L 108.930516 149.143913 
L 109.580475 144.923943 
L 109.905455 145.19029 
L 110.555414 143.06149 
L 110.880393 142.417317 
L 111.205373 140.759536 
L 111.530352 140.467721 
L 112.180311 142.328289 
L 112.83027 141.690865 
L 113.15525 141.73935 
L 113.480229 140.651522 
L 113.805209 142.01278 
L 114.130188 141.823825 
L 114.455168 141.947521 
L 114.780147 145.105423 
L 115.105127 144.225145 
L 115.430106 142.839806 
L 115.755086 142.170009 
L 116.080066 143.901577 
L 116.405045 147.075524 
L 116.730025 148.724718 
L 117.055004 147.277802 
L 117.379984 149.493207 
L 117.704963 149.963093 
L 118.354922 150.146233 
L 118.679902 152.4451 
L 119.004881 156.428904 
L 119.329861 155.347482 
L 119.65484 155.459714 
L 119.97982 157.773588 
L 120.629779 153.536018 
L 120.954758 157.054495 
L 121.279738 156.673592 
L 121.604717 155.720208 
L 121.929697 154.009536 
L 122.254676 154.463653 
L 122.579656 152.226692 
L 122.904636 150.804205 
L 123.229615 156.461848 
L 123.554595 154.2902 
L 123.879574 156.378742 
L 124.204554 161.168765 
L 124.854513 159.568812 
L 125.179492 153.317674 
L 125.829451 155.56165 
L 126.154431 154.34999 
L 126.47941 153.663999 
L 126.80439 153.688952 
L 127.129369 153.03186 
L 127.454349 152.090218 
L 127.779328 154.101407 
L 128.104308 153.977566 
L 128.429287 156.630946 
L 128.754267 156.405537 
L 129.079247 156.659706 
L 129.404226 157.792836 
L 129.729206 160.557235 
L 130.054185 160.918451 
L 130.379165 163.836905 
L 130.704144 164.51244 
L 131.029124 165.594027 
L 131.354103 161.255254 
L 131.679083 161.677329 
L 132.004062 162.860702 
L 132.329042 164.923582 
L 132.654021 164.119296 
L 132.979001 161.462269 
L 133.30398 162.901223 
L 133.62896 165.247487 
L 133.953939 165.618612 
L 134.603898 162.546231 
L 134.928878 162.562231 
L 135.253857 162.814528 
L 135.578837 164.527861 
L 135.903817 168.260184 
L 136.228796 167.875313 
L 136.553776 166.866987 
L 136.878755 165.378945 
L 137.203735 166.372957 
L 137.528714 164.329578 
L 137.853694 164.181274 
L 138.178673 166.873239 
L 138.503653 166.653561 
L 138.828632 167.365689 
L 139.478591 171.085282 
L 139.803571 176.116203 
L 140.12855 174.88275 
L 140.45353 175.527832 
L 140.778509 180.306083 
L 141.428468 184.965897 
L 141.753448 184.848963 
L 142.078428 184.412891 
L 142.403407 186.474196 
L 142.728387 185.429747 
L 143.053366 184.813417 
L 143.378346 187.947394 
L 143.703325 187.683469 
L 144.028305 188.727229 
L 144.353284 187.510101 
L 144.678264 189.528911 
L 145.003243 190.106511 
L 145.328223 191.627135 
L 145.653202 191.217603 
L 145.978182 188.012117 
L 146.303161 188.578533 
L 146.95312 184.155633 
L 147.2781 184.814931 
L 147.603079 184.913659 
L 147.928059 187.273985 
L 148.253038 187.515761 
L 148.578018 186.872336 
L 148.902998 186.626495 
L 149.227977 188.286334 
L 149.552957 187.669304 
L 149.877936 185.683386 
L 150.202916 180.098321 
L 150.527895 180.090624 
L 150.852875 176.372723 
L 151.177854 178.019492 
L 151.502834 177.814027 
L 152.152793 172.937952 
L 152.477772 177.734852 
L 152.802752 178.137798 
L 153.127731 176.284573 
L 153.452711 176.669133 
L 153.77769 173.359553 
L 154.10267 174.130835 
L 154.427649 171.925654 
L 154.752629 171.320256 
L 155.077609 170.95715 
L 155.402588 172.499646 
L 155.727568 175.450446 
L 156.052547 175.064645 
L 156.377527 174.987759 
L 156.702506 174.010913 
L 157.027486 171.757311 
L 157.677445 166.125732 
L 158.002424 166.576314 
L 158.327404 166.365068 
L 158.652383 165.459123 
L 158.977363 168.795697 
L 159.302342 169.963191 
L 159.627322 168.555764 
L 160.277281 171.965799 
L 160.60226 168.782503 
L 160.92724 170.05968 
L 161.577199 166.765383 
L 161.902179 164.025678 
L 162.227158 167.078712 
L 162.552138 167.800417 
L 162.877117 163.651486 
L 163.202097 165.155476 
L 163.527076 164.454111 
L 163.852056 161.573994 
L 164.177035 164.851996 
L 164.826994 163.188098 
L 165.151974 162.899351 
L 165.476953 163.218368 
L 165.801933 163.183037 
L 166.126912 165.591841 
L 166.451892 165.786708 
L 167.101851 169.298257 
L 167.42683 166.704298 
L 167.75181 166.479479 
L 168.401769 170.67701 
L 168.726749 169.846595 
L 169.376708 172.950976 
L 169.701687 178.580062 
L 170.026667 176.98978 
L 170.351646 174.723873 
L 170.676626 173.939806 
L 171.001605 174.36261 
L 171.326585 177.229355 
L 171.976544 180.451043 
L 172.301523 177.71814 
L 172.626503 180.728829 
L 172.951482 180.369988 
L 173.601441 186.763771 
L 173.926421 187.095964 
L 174.2514 188.121939 
L 174.57638 191.24641 
L 174.90136 192.948691 
L 175.226339 194.011574 
L 175.551319 193.641824 
L 175.876298 191.690298 
L 176.201278 191.294496 
L 176.526257 190.388587 
L 176.851237 188.032717 
L 177.176216 186.70117 
L 177.501196 190.280261 
L 177.826175 187.901776 
L 178.151155 188.834615 
L 178.476134 187.555721 
L 178.801114 188.030702 
L 179.126093 186.661375 
L 179.451073 186.183921 
L 179.776052 188.6722 
L 180.101032 188.97949 
L 180.426011 188.060103 
L 180.750991 188.567771 
L 181.075971 191.430405 
L 181.40095 191.093196 
L 181.72593 194.202229 
L 182.050909 193.045398 
L 182.375889 194.787644 
L 182.700868 192.837856 
L 183.350827 186.663276 
L 183.675807 186.794517 
L 184.000786 185.057457 
L 184.325766 184.213786 
L 184.650745 186.028703 
L 184.975725 184.8385 
L 185.300704 188.339322 
L 185.625684 190.477992 
L 185.950663 186.348073 
L 186.275643 187.958442 
L 186.925602 189.68779 
L 187.250581 186.640937 
L 187.575561 186.456186 
L 187.900541 182.518812 
L 188.22552 181.952761 
L 188.5505 181.731258 
L 188.875479 180.791223 
L 189.200459 183.624972 
L 189.525438 189.05653 
L 189.850418 190.425451 
L 190.175397 191.005896 
L 190.500377 190.572372 
L 190.825356 192.764033 
L 191.150336 196.546377 
L 191.475315 196.08367 
L 191.800295 193.433458 
L 192.125274 195.003251 
L 192.450254 193.724612 
L 192.775233 194.294485 
L 193.100213 195.157352 
L 193.425192 198.25138 
L 193.750172 197.552444 
L 194.075152 193.649234 
L 194.400131 197.028647 
L 194.725111 197.12866 
L 195.05009 197.491692 
L 195.37507 198.553524 
L 195.700049 203.079536 
L 196.025029 201.528034 
L 196.350008 204.733324 
L 196.674988 204.488447 
L 196.999967 205.630622 
L 197.324947 204.662483 
L 197.649926 205.9833 
L 197.974906 205.018256 
L 198.299885 205.518952 
L 198.624865 207.797074 
L 198.949844 208.299204 
L 199.274824 209.445378 
L 199.924783 205.453551 
L 200.249762 204.923155 
L 200.574742 202.503054 
L 200.899722 204.575604 
L 201.224701 205.859313 
L 201.549681 206.342232 
L 202.524619 209.567873 
L 202.849599 209.323919 
L 203.174578 210.123715 
L 203.499558 209.845275 
L 203.824537 208.998941 
L 204.474496 212.328733 
L 204.799476 209.959208 
L 205.124455 212.85664 
L 205.449435 211.820552 
L 205.774414 213.337747 
L 206.424373 218.732474 
L 206.749353 216.545661 
L 207.074333 215.718773 
L 207.399312 214.216971 
L 207.724292 215.547937 
L 208.049271 218.25478 
L 208.374251 214.398704 
L 208.69923 214.945269 
L 209.02421 217.846646 
L 209.349189 215.860937 
L 209.674169 216.23325 
L 209.999148 215.001597 
L 210.324128 215.135501 
L 210.974087 213.181795 
L 211.299066 215.352282 
L 211.624046 215.404153 
L 211.949025 216.741146 
L 212.274005 214.375059 
L 212.923964 217.175756 
L 213.248943 217.125596 
L 213.573923 218.335544 
L 213.898903 215.371107 
L 214.223882 217.742873 
L 214.548862 219.094841 
L 214.873841 219.228818 
L 215.84878 221.858856 
L 216.173759 222.64802 
L 216.498739 219.543888 
L 216.823718 219.855501 
L 217.148698 221.846666 
L 217.473677 221.082404 
L 217.798657 225.195747 
L 218.123636 226.34722 
L 218.448616 228.427262 
L 218.773595 229.577717 
L 219.098575 232.152431 
L 219.423554 232.358842 
L 220.073514 230.648037 
L 220.398493 228.213804 
L 220.723473 222.935801 
L 221.048452 222.264069 
L 221.373432 220.53843 
L 221.698411 218.073455 
L 222.023391 218.245466 
L 222.67335 214.832818 
L 222.998329 213.607104 
L 223.323309 214.216152 
L 223.973268 216.993485 
L 224.298247 217.660932 
L 224.623227 218.720901 
L 224.948206 219.039322 
L 225.598165 224.93341 
L 225.923145 227.955443 
L 226.248124 226.104233 
L 226.573104 226.358417 
L 226.898084 228.858489 
L 227.223063 226.723263 
L 227.548043 227.874474 
L 228.198002 224.170655 
L 228.522981 223.96793 
L 228.847961 222.273686 
L 229.17294 218.308832 
L 229.49792 216.271843 
L 229.822899 215.405756 
L 230.147879 211.547106 
L 230.472858 210.747472 
L 231.122817 206.476305 
L 231.447797 206.411857 
L 231.772776 205.992487 
L 232.097756 207.135007 
L 232.422735 209.631268 
L 232.747715 210.416443 
L 233.072695 208.915019 
L 233.397674 210.11216 
L 233.722654 208.129962 
L 234.697592 213.649116 
L 235.022572 216.249052 
L 235.347551 216.21501 
L 235.672531 213.56649 
L 235.99751 216.073322 
L 236.32249 223.618647 
L 236.647469 224.988335 
L 236.972449 220.807543 
L 237.297428 220.160655 
L 237.622408 222.746882 
L 237.947387 221.338096 
L 238.597346 224.949239 
L 238.922326 223.798979 
L 239.247305 224.439104 
L 239.572285 224.650328 
L 239.897265 220.921543 
L 240.222244 220.985698 
L 240.547224 222.11545 
L 241.197183 223.684803 
L 241.847142 223.195486 
L 242.172121 224.02669 
L 242.497101 225.253844 
L 243.14706 224.980412 
L 243.797019 225.617965 
L 244.121998 228.799663 
L 244.446978 228.310214 
L 244.771957 226.286687 
L 245.096937 225.027539 
L 245.421916 225.15638 
L 245.746896 226.899748 
L 246.396855 222.836662 
L 246.721835 222.025995 
L 247.046814 223.053498 
L 247.371794 221.869936 
L 247.696773 222.738561 
L 248.021753 220.946256 
L 248.346732 221.155113 
L 248.671712 223.29615 
L 248.996691 224.573981 
L 249.321671 224.471539 
L 249.64665 220.821663 
L 249.97163 221.875253 
L 250.296609 219.733049 
L 250.621589 219.533564 
L 250.946568 218.236222 
L 251.271548 218.875854 
L 251.596527 222.438043 
L 251.921507 221.347067 
L 252.246486 222.314296 
L 252.571466 221.111136 
L 252.896446 223.178689 
L 253.221425 222.5665 
L 253.546405 223.259126 
L 253.871384 225.201911 
L 254.196364 222.971236 
L 254.521343 218.824943 
L 254.846323 220.82937 
L 255.171302 220.645297 
L 255.496282 222.252665 
L 255.821261 220.244442 
L 256.146241 221.20517 
L 256.47122 221.660101 
L 256.7962 223.613538 
L 257.121179 223.426986 
L 257.446159 222.296566 
L 257.771138 220.297911 
L 258.096118 222.514756 
L 258.421097 222.261586 
L 258.746077 222.218351 
L 259.071057 223.059486 
L 259.396036 225.378484 
L 260.045995 223.491987 
L 260.370975 221.191847 
L 260.695954 220.719697 
L 261.020934 217.885408 
L 261.345913 217.503642 
L 261.670893 219.218299 
L 261.995872 216.00632 
L 262.320852 215.00934 
L 262.645831 215.895729 
L 262.970811 214.161765 
L 263.29579 216.086577 
L 263.62077 216.245077 
L 263.945749 213.759521 
L 264.595708 207.110545 
L 264.920688 207.401979 
L 265.245667 203.976904 
L 265.570647 203.57516 
L 266.220606 206.868399 
L 266.545586 207.302535 
L 266.870565 208.642802 
L 267.195545 210.760933 
L 267.520524 211.618802 
L 267.845504 215.581525 
L 268.170483 216.181161 
L 268.495463 214.683609 
L 268.820442 214.039712 
L 269.145422 216.765779 
L 269.470401 217.443419 
L 269.795381 216.278487 
L 270.12036 213.722618 
L 270.44534 213.794701 
L 270.770319 212.540987 
L 271.420278 210.946554 
L 271.745258 211.389372 
L 272.070238 212.270782 
L 272.395217 216.779521 
L 272.720197 216.809414 
L 273.045176 219.85434 
L 273.695135 215.679103 
L 274.020115 216.893624 
L 274.345094 214.201066 
L 274.670074 212.614076 
L 274.995053 213.458759 
L 275.320033 212.478024 
L 275.645012 212.503008 
L 276.294971 209.540642 
L 276.619951 209.00616 
L 276.94493 207.853036 
L 277.26991 210.891101 
L 277.594889 210.893146 
L 277.919869 210.753393 
L 278.569828 215.323455 
L 278.894808 212.992606 
L 279.219787 215.116469 
L 279.544767 215.341413 
L 279.869746 220.133563 
L 280.194726 216.880566 
L 280.519705 217.880537 
L 280.844685 219.320957 
L 281.169664 217.703334 
L 281.494644 221.121236 
L 281.819623 220.737453 
L 282.469582 219.003642 
L 282.794562 220.337776 
L 283.119541 220.743232 
L 283.444521 220.907611 
L 283.7695 221.405586 
L 284.09448 220.817197 
L 284.419459 219.889324 
L 284.744439 219.760248 
L 285.069419 220.69511 
L 285.394398 224.051856 
L 285.719378 220.203185 
L 286.044357 220.188922 
L 286.369337 225.704832 
L 286.694316 228.619279 
L 287.019296 228.652981 
L 287.344275 227.045519 
L 287.994234 225.735444 
L 288.644193 231.212808 
L 288.969173 229.63178 
L 289.294152 232.463097 
L 289.944111 235.227045 
L 290.269091 230.67421 
L 290.59407 232.117325 
L 290.91905 232.393655 
L 291.244029 227.849152 
L 291.569009 229.112306 
L 291.893989 225.160813 
L 292.218968 225.083354 
L 292.543948 226.946165 
L 292.868927 226.171193 
L 293.193907 231.014821 
L 293.518886 233.841541 
L 293.843866 234.049108 
L 294.168845 232.047563 
L 294.493825 231.712998 
L 294.818804 234.888547 
L 295.143784 235.017073 
L 295.468763 234.745667 
L 295.793743 235.925725 
L 296.118722 236.421334 
L 296.443702 235.476477 
L 296.768681 234.90748 
L 297.41864 238.275967 
L 297.74362 238.66618 
L 298.393579 237.767166 
L 298.718559 239.920969 
L 299.043538 241.166244 
L 299.368518 242.926824 
L 299.693497 245.657678 
L 300.018477 250.289777 
L 300.343456 251.915294 
L 300.668436 252.05689 
L 301.318395 254.376243 
L 301.643374 251.192995 
L 301.968354 251.249207 
L 302.293333 251.084174 
L 302.618313 250.30526 
L 302.943292 247.556408 
L 303.268272 247.100183 
L 303.593251 247.906225 
L 303.918231 247.92994 
L 304.24321 242.106769 
L 304.56819 244.707683 
L 304.89317 245.344488 
L 305.218149 246.937863 
L 305.543129 250.548384 
L 305.868108 249.788423 
L 306.193088 253.354007 
L 306.518067 254.112419 
L 306.843047 258.232202 
L 307.493006 262.185309 
L 307.817985 261.076595 
L 308.142965 258.313254 
L 308.792924 265.008818 
L 309.117903 266.233191 
L 309.442883 262.880924 
L 309.767862 267.462086 
L 310.417821 268.645289 
L 310.742801 266.174887 
L 311.067781 266.150472 
L 311.39276 266.901005 
L 311.71774 267.161265 
L 312.042719 268.964309 
L 312.367699 267.84116 
L 312.692678 270.881357 
L 313.017658 269.547438 
L 313.342637 269.427062 
L 313.667617 271.270659 
L 313.992596 273.894355 
L 314.317576 273.051262 
L 314.967535 272.447921 
L 315.292514 271.868051 
L 315.617494 275.004602 
L 316.267453 277.562262 
L 316.592432 275.117663 
L 316.917412 276.816135 
L 317.242391 275.143886 
L 317.567371 276.018311 
L 317.892351 275.532869 
L 318.21733 272.959366 
L 318.54231 275.317382 
L 318.867289 274.487097 
L 319.192269 273.343061 
L 319.517248 271.196965 
L 319.842228 270.172535 
L 320.167207 270.263741 
L 320.492187 267.728873 
L 320.817166 266.145943 
L 321.467125 270.15273 
L 321.792105 268.788845 
L 322.117084 268.919529 
L 322.442064 271.455104 
L 322.767043 270.619949 
L 323.092023 270.973253 
L 323.417002 272.696949 
L 323.741982 275.573474 
L 324.066962 276.160842 
L 324.716921 280.286137 
L 325.0419 276.427786 
L 325.36688 275.629024 
L 325.691859 277.842317 
L 326.016839 278.590648 
L 326.341818 281.141537 
L 326.666798 281.130667 
L 327.316757 285.26193 
L 327.641736 286.254665 
L 327.966716 291.129798 
L 328.291695 293.637726 
L 329.266634 288.894021 
L 329.591613 291.860229 
L 329.916593 289.393757 
L 330.241572 292.505336 
L 330.566552 290.544902 
L 330.891532 290.47001 
L 331.216511 291.756647 
L 331.86647 287.328266 
L 332.516429 286.569576 
L 332.841409 287.999717 
L 333.491368 287.847371 
L 333.816347 291.103391 
L 334.141327 291.887829 
L 334.466306 294.714786 
L 335.116265 291.928469 
L 335.441245 292.361522 
L 336.091204 287.946675 
L 336.416183 287.221601 
L 336.741163 286.864322 
L 337.391122 282.523038 
L 337.716102 281.887376 
L 338.041081 283.332235 
L 338.366061 280.002578 
L 338.69104 278.302375 
L 339.01602 281.701564 
L 339.340999 280.866048 
L 339.665979 282.019782 
L 339.990958 279.423192 
L 340.315938 280.093109 
L 340.640917 281.615456 
L 340.965897 287.369383 
L 341.290876 287.630457 
L 341.615856 288.191346 
L 341.940835 285.129709 
L 342.265815 286.244855 
L 342.590794 285.828101 
L 342.915774 284.130215 
L 343.240753 285.580362 
L 343.890713 279.198155 
L 344.215692 279.36403 
L 344.540672 280.22115 
L 344.865651 279.245269 
L 345.190631 279.717429 
L 345.51561 278.134275 
L 346.165569 279.705006 
L 346.815528 279.238844 
L 347.140508 279.356313 
L 347.465487 282.153616 
L 347.790467 281.594979 
L 348.765405 276.54297 
L 349.090385 276.091035 
L 349.415364 274.221953 
L 349.740344 274.415269 
L 350.065324 276.043365 
L 350.390303 276.621972 
L 351.365242 271.789995 
L 351.690221 275.181854 
L 352.015201 276.725545 
L 352.34018 279.086441 
L 352.66516 278.701254 
L 353.315119 283.011558 
L 353.640098 285.411623 
L 353.965078 283.752877 
L 354.615037 288.645483 
L 354.940016 289.151903 
L 355.264996 290.477233 
L 355.589975 287.116239 
L 355.914955 288.345654 
L 356.239934 291.869617 
L 356.564914 292.298059 
L 356.889894 293.363435 
L 357.214873 290.037989 
L 357.539853 288.431881 
L 358.189812 286.147529 
L 358.514791 284.255739 
L 359.16475 276.959783 
L 359.48973 276.514016 
L 360.139689 275.29372 
L 360.464668 273.612133 
L 360.789648 272.724579 
L 361.764586 268.623838 
L 362.089566 268.805777 
L 362.739525 268.187005 
L 363.064505 271.620482 
L 363.714464 265.350641 
L 364.039443 267.552914 
L 364.689402 274.281844 
L 365.014382 274.502999 
L 365.339361 274.917905 
L 365.664341 272.945558 
L 365.98932 270.221725 
L 366.3143 273.56929 
L 366.639279 272.692685 
L 366.964259 270.066317 
L 367.289238 270.253979 
L 367.614218 268.905146 
L 367.939197 272.709311 
L 368.264177 272.513765 
L 368.589156 277.153476 
L 368.914136 277.863935 
L 369.239115 279.220363 
L 369.564095 278.993815 
L 369.889075 281.426629 
L 370.214054 280.847069 
L 370.539034 278.527111 
L 370.864013 279.411082 
L 371.188993 280.645233 
L 371.513972 286.296633 
L 372.163931 283.764575 
L 372.488911 283.616016 
L 372.81389 283.274176 
L 373.13887 283.425398 
L 373.463849 282.106753 
L 373.788829 282.881967 
L 374.113808 284.021694 
L 374.438788 285.815315 
L 374.763767 289.647256 
L 375.088747 290.867264 
L 375.413726 290.251379 
L 375.738706 289.983377 
L 376.063686 290.367734 
L 376.388665 289.043379 
L 376.713645 289.177807 
L 377.038624 293.59984 
L 377.363604 292.807461 
L 377.688583 295.488 
L 378.013563 293.743413 
L 378.338542 293.06484 
L 378.663522 293.812322 
L 378.988501 289.993742 
L 379.313481 288.701083 
L 379.96344 289.905351 
L 380.288419 287.088589 
L 380.613399 285.569272 
L 380.938378 289.084826 
L 381.263358 289.987232 
L 381.588337 293.263002 
L 381.913317 292.807331 
L 382.238296 289.723269 
L 382.563276 290.547725 
L 382.888256 292.900993 
L 383.213235 291.443517 
L 383.863194 290.139697 
L 384.188174 291.222995 
L 384.513153 295.240192 
L 385.163112 291.194976 
L 385.488092 293.218551 
L 385.813071 293.830256 
L 386.138051 295.237193 
L 386.46303 291.119656 
L 386.78801 290.474329 
L 387.112989 290.815215 
L 387.762948 283.724293 
L 388.087928 282.475415 
L 388.412907 283.695087 
L 388.737887 287.063847 
L 389.062867 285.743549 
L 389.387846 282.548502 
L 389.712826 283.364969 
L 390.037805 283.599891 
L 390.362785 284.447929 
L 390.687764 286.346368 
L 391.012744 290.25918 
L 391.337723 287.992484 
L 391.987682 285.190661 
L 392.962621 279.112031 
L 393.2876 278.439986 
L 393.61258 282.263148 
L 393.937559 282.705853 
L 394.262539 282.688932 
L 394.587518 282.833744 
L 395.237477 279.750573 
L 395.562457 277.539131 
L 395.887437 276.417947 
L 396.537396 279.598936 
L 396.862375 278.938559 
L 397.187355 283.478878 
L 397.512334 281.397799 
L 397.837314 281.72003 
L 398.487273 286.529652 
L 398.487273 286.529652 
" style="fill:none;stroke:#1f77b4;stroke-linecap:square;stroke-width:1.5;"/>
   </g>
   <g id="line2d_15">
    <path clip-path="url(#paf608ddad6)" d="M 73.832727 173.103528 
L 398.487273 173.103528 
L 398.487273 173.103528 
" style="fill:none;stroke:#000000;stroke-dasharray:5.55,2.4;stroke-dashoffset:0;stroke-width:1.5;"/>
   </g>
   <g id="line2d_16">
    <path clip-path="url(#paf608ddad6)" d="M 73.832727 173.103528 
L 74.157707 176.885465 
L 74.807666 179.654035 
L 75.782604 182.367344 
L 77.082523 185.063062 
L 78.382441 187.25424 
L 80.007338 189.588608 
L 81.957215 192.013212 
L 84.232072 194.497393 
L 86.831908 197.022596 
L 90.081704 199.845859 
L 93.656478 202.641399 
L 97.556233 205.41641 
L 102.105946 208.379086 
L 107.305618 211.485994 
L 113.15525 214.704832 
L 119.65484 218.011539 
L 126.80439 221.388064 
L 134.603898 224.820735 
L 143.053366 228.299078 
L 152.477772 231.936657 
L 162.877117 235.705721 
L 174.2514 239.583909 
L 186.600622 243.553204 
L 199.924783 247.599043 
L 214.548862 251.800534 
L 230.147879 256.047877 
L 247.046814 260.416318 
L 265.245667 264.88857 
L 284.744439 269.450176 
L 305.868108 274.159822 
L 328.291695 278.930201 
L 352.34018 283.818071 
L 378.013563 288.808544 
L 398.487273 292.639057 
L 398.487273 292.639057 
" style="fill:none;stroke:#000000;stroke-linecap:square;stroke-width:1.5;"/>
   </g>
   <g id="line2d_17">
    <path clip-path="url(#paf608ddad6)" d="M 73.832727 173.103528 
L 74.157707 169.321592 
L 74.807666 166.553022 
L 75.782604 163.839713 
L 77.082523 161.143994 
L 78.382441 158.952817 
L 80.007338 156.618448 
L 81.957215 154.193845 
L 84.232072 151.709663 
L 86.831908 149.18446 
L 90.081704 146.361197 
L 93.656478 143.565658 
L 97.556233 140.790647 
L 102.105946 137.827971 
L 107.305618 134.721062 
L 113.15525 131.502224 
L 119.65484 128.195518 
L 126.80439 124.818992 
L 134.603898 121.386321 
L 143.053366 117.907979 
L 152.477772 114.2704 
L 162.877117 110.501336 
L 174.2514 106.623147 
L 186.600622 102.653853 
L 199.924783 98.608014 
L 214.548862 94.406522 
L 230.147879 90.15918 
L 247.046814 85.790738 
L 265.245667 81.318487 
L 284.744439 76.75688 
L 305.868108 72.047234 
L 328.291695 67.276855 
L 352.34018 62.388985 
L 378.013563 57.398513 
L 398.487273 53.568 
L 398.487273 53.568 
" style="fill:none;stroke:#000000;stroke-linecap:square;stroke-width:1.5;"/>
   </g>
   <g id="patch_3">
    <path d="M 57.6 307.584 
L 57.6 41.472 
" style="fill:none;stroke:#000000;stroke-linecap:square;stroke-linejoin:miter;stroke-width:0.8;"/>
   </g>
   <g id="patch_4">
    <path d="M 414.72 307.584 
L 414.72 41.472 
" style="fill:none;stroke:#000000;stroke-linecap:square;stroke-linejoin:miter;stroke-width:0.8;"/>
   </g>
   <g id="patch_5">
    <path d="M 57.6 307.584 
L 414.72 307.584 
" style="fill:none;stroke:#000000;stroke-linecap:square;stroke-linejoin:miter;stroke-width:0.8;"/>
   </g>
   <g id="patch_6">
    <path d="M 57.6 41.472 
L 414.72 41.472 
" style="fill:none;stroke:#000000;stroke-linecap:square;stroke-linejoin:miter;stroke-width:0.8;"/>
   </g>
   <g id="text_14">
    <!-- Random walk - n=1000, drift=0.0 -->
    <g transform="translate(134.925938 35.472)scale(0.12 -0.12)">
     <defs>
      <path d="M 44.390625 34.1875 
Q 47.5625 33.109375 50.5625 29.59375 
Q 53.5625 26.078125 56.59375 19.921875 
L 66.609375 0 
L 56 0 
L 46.6875 18.703125 
Q 43.0625 26.03125 39.671875 28.421875 
Q 36.28125 30.8125 30.421875 30.8125 
L 19.671875 30.8125 
L 19.671875 0 
L 9.8125 0 
L 9.8125 72.90625 
L 32.078125 72.90625 
Q 44.578125 72.90625 50.734375 67.671875 
Q 56.890625 62.453125 56.890625 51.90625 
Q 56.890625 45.015625 53.6875 40.46875 
Q 50.484375 35.9375 44.390625 34.1875 
z
M 19.671875 64.796875 
L 19.671875 38.921875 
L 32.078125 38.921875 
Q 39.203125 38.921875 42.84375 42.21875 
Q 46.484375 45.515625 46.484375 51.90625 
Q 46.484375 58.296875 42.84375 61.546875 
Q 39.203125 64.796875 32.078125 64.796875 
z
" id="DejaVuSans-82"/>
      <path d="M 34.28125 27.484375 
Q 23.390625 27.484375 19.1875 25 
Q 14.984375 22.515625 14.984375 16.5 
Q 14.984375 11.71875 18.140625 8.90625 
Q 21.296875 6.109375 26.703125 6.109375 
Q 34.1875 6.109375 38.703125 11.40625 
Q 43.21875 16.703125 43.21875 25.484375 
L 43.21875 27.484375 
z
M 52.203125 31.203125 
L 52.203125 0 
L 43.21875 0 
L 43.21875 8.296875 
Q 40.140625 3.328125 35.546875 0.953125 
Q 30.953125 -1.421875 24.3125 -1.421875 
Q 15.921875 -1.421875 10.953125 3.296875 
Q 6 8.015625 6 15.921875 
Q 6 25.140625 12.171875 29.828125 
Q 18.359375 34.515625 30.609375 34.515625 
L 43.21875 34.515625 
L 43.21875 35.40625 
Q 43.21875 41.609375 39.140625 45 
Q 35.0625 48.390625 27.6875 48.390625 
Q 23 48.390625 18.546875 47.265625 
Q 14.109375 46.140625 10.015625 43.890625 
L 10.015625 52.203125 
Q 14.9375 54.109375 19.578125 55.046875 
Q 24.21875 56 28.609375 56 
Q 40.484375 56 46.34375 49.84375 
Q 52.203125 43.703125 52.203125 31.203125 
z
" id="DejaVuSans-97"/>
      <path d="M 54.890625 33.015625 
L 54.890625 0 
L 45.90625 0 
L 45.90625 32.71875 
Q 45.90625 40.484375 42.875 44.328125 
Q 39.84375 48.1875 33.796875 48.1875 
Q 26.515625 48.1875 22.3125 43.546875 
Q 18.109375 38.921875 18.109375 30.90625 
L 18.109375 0 
L 9.078125 0 
L 9.078125 54.6875 
L 18.109375 54.6875 
L 18.109375 46.1875 
Q 21.34375 51.125 25.703125 53.5625 
Q 30.078125 56 35.796875 56 
Q 45.21875 56 50.046875 50.171875 
Q 54.890625 44.34375 54.890625 33.015625 
z
" id="DejaVuSans-110"/>
      <path d="M 45.40625 46.390625 
L 45.40625 75.984375 
L 54.390625 75.984375 
L 54.390625 0 
L 45.40625 0 
L 45.40625 8.203125 
Q 42.578125 3.328125 38.25 0.953125 
Q 33.9375 -1.421875 27.875 -1.421875 
Q 17.96875 -1.421875 11.734375 6.484375 
Q 5.515625 14.40625 5.515625 27.296875 
Q 5.515625 40.1875 11.734375 48.09375 
Q 17.96875 56 27.875 56 
Q 33.9375 56 38.25 53.625 
Q 42.578125 51.265625 45.40625 46.390625 
z
M 14.796875 27.296875 
Q 14.796875 17.390625 18.875 11.75 
Q 22.953125 6.109375 30.078125 6.109375 
Q 37.203125 6.109375 41.296875 11.75 
Q 45.40625 17.390625 45.40625 27.296875 
Q 45.40625 37.203125 41.296875 42.84375 
Q 37.203125 48.484375 30.078125 48.484375 
Q 22.953125 48.484375 18.875 42.84375 
Q 14.796875 37.203125 14.796875 27.296875 
z
" id="DejaVuSans-100"/>
      <path d="M 30.609375 48.390625 
Q 23.390625 48.390625 19.1875 42.75 
Q 14.984375 37.109375 14.984375 27.296875 
Q 14.984375 17.484375 19.15625 11.84375 
Q 23.34375 6.203125 30.609375 6.203125 
Q 37.796875 6.203125 41.984375 11.859375 
Q 46.1875 17.53125 46.1875 27.296875 
Q 46.1875 37.015625 41.984375 42.703125 
Q 37.796875 48.390625 30.609375 48.390625 
z
M 30.609375 56 
Q 42.328125 56 49.015625 48.375 
Q 55.71875 40.765625 55.71875 27.296875 
Q 55.71875 13.875 49.015625 6.21875 
Q 42.328125 -1.421875 30.609375 -1.421875 
Q 18.84375 -1.421875 12.171875 6.21875 
Q 5.515625 13.875 5.515625 27.296875 
Q 5.515625 40.765625 12.171875 48.375 
Q 18.84375 56 30.609375 56 
z
" id="DejaVuSans-111"/>
      <path d="M 52 44.1875 
Q 55.375 50.25 60.0625 53.125 
Q 64.75 56 71.09375 56 
Q 79.640625 56 84.28125 50.015625 
Q 88.921875 44.046875 88.921875 33.015625 
L 88.921875 0 
L 79.890625 0 
L 79.890625 32.71875 
Q 79.890625 40.578125 77.09375 44.375 
Q 74.3125 48.1875 68.609375 48.1875 
Q 61.625 48.1875 57.5625 43.546875 
Q 53.515625 38.921875 53.515625 30.90625 
L 53.515625 0 
L 44.484375 0 
L 44.484375 32.71875 
Q 44.484375 40.625 41.703125 44.40625 
Q 38.921875 48.1875 33.109375 48.1875 
Q 26.21875 48.1875 22.15625 43.53125 
Q 18.109375 38.875 18.109375 30.90625 
L 18.109375 0 
L 9.078125 0 
L 9.078125 54.6875 
L 18.109375 54.6875 
L 18.109375 46.1875 
Q 21.1875 51.21875 25.484375 53.609375 
Q 29.78125 56 35.6875 56 
Q 41.65625 56 45.828125 52.96875 
Q 50 49.953125 52 44.1875 
z
" id="DejaVuSans-109"/>
      <path id="DejaVuSans-32"/>
      <path d="M 4.203125 54.6875 
L 13.1875 54.6875 
L 24.421875 12.015625 
L 35.59375 54.6875 
L 46.1875 54.6875 
L 57.421875 12.015625 
L 68.609375 54.6875 
L 77.59375 54.6875 
L 63.28125 0 
L 52.6875 0 
L 40.921875 44.828125 
L 29.109375 0 
L 18.5 0 
z
" id="DejaVuSans-119"/>
      <path d="M 9.421875 75.984375 
L 18.40625 75.984375 
L 18.40625 0 
L 9.421875 0 
z
" id="DejaVuSans-108"/>
      <path d="M 9.078125 75.984375 
L 18.109375 75.984375 
L 18.109375 31.109375 
L 44.921875 54.6875 
L 56.390625 54.6875 
L 27.390625 29.109375 
L 57.625 0 
L 45.90625 0 
L 18.109375 26.703125 
L 18.109375 0 
L 9.078125 0 
z
" id="DejaVuSans-107"/>
      <path d="M 4.890625 31.390625 
L 31.203125 31.390625 
L 31.203125 23.390625 
L 4.890625 23.390625 
z
" id="DejaVuSans-45"/>
      <path d="M 10.59375 45.40625 
L 73.1875 45.40625 
L 73.1875 37.203125 
L 10.59375 37.203125 
z
M 10.59375 25.484375 
L 73.1875 25.484375 
L 73.1875 17.1875 
L 10.59375 17.1875 
z
" id="DejaVuSans-61"/>
      <path d="M 11.71875 12.40625 
L 22.015625 12.40625 
L 22.015625 4 
L 14.015625 -11.625 
L 7.71875 -11.625 
L 11.71875 4 
z
" id="DejaVuSans-44"/>
      <path d="M 41.109375 46.296875 
Q 39.59375 47.171875 37.8125 47.578125 
Q 36.03125 48 33.890625 48 
Q 26.265625 48 22.1875 43.046875 
Q 18.109375 38.09375 18.109375 28.8125 
L 18.109375 0 
L 9.078125 0 
L 9.078125 54.6875 
L 18.109375 54.6875 
L 18.109375 46.1875 
Q 20.953125 51.171875 25.484375 53.578125 
Q 30.03125 56 36.53125 56 
Q 37.453125 56 38.578125 55.875 
Q 39.703125 55.765625 41.0625 55.515625 
z
" id="DejaVuSans-114"/>
      <path d="M 9.421875 54.6875 
L 18.40625 54.6875 
L 18.40625 0 
L 9.421875 0 
z
M 9.421875 75.984375 
L 18.40625 75.984375 
L 18.40625 64.59375 
L 9.421875 64.59375 
z
" id="DejaVuSans-105"/>
      <path d="M 37.109375 75.984375 
L 37.109375 68.5 
L 28.515625 68.5 
Q 23.6875 68.5 21.796875 66.546875 
Q 19.921875 64.59375 19.921875 59.515625 
L 19.921875 54.6875 
L 34.71875 54.6875 
L 34.71875 47.703125 
L 19.921875 47.703125 
L 19.921875 0 
L 10.890625 0 
L 10.890625 47.703125 
L 2.296875 47.703125 
L 2.296875 54.6875 
L 10.890625 54.6875 
L 10.890625 58.5 
Q 10.890625 67.625 15.140625 71.796875 
Q 19.390625 75.984375 28.609375 75.984375 
z
" id="DejaVuSans-102"/>
      <path d="M 18.3125 70.21875 
L 18.3125 54.6875 
L 36.8125 54.6875 
L 36.8125 47.703125 
L 18.3125 47.703125 
L 18.3125 18.015625 
Q 18.3125 11.328125 20.140625 9.421875 
Q 21.96875 7.515625 27.59375 7.515625 
L 36.8125 7.515625 
L 36.8125 0 
L 27.59375 0 
Q 17.1875 0 13.234375 3.875 
Q 9.28125 7.765625 9.28125 18.015625 
L 9.28125 47.703125 
L 2.6875 47.703125 
L 2.6875 54.6875 
L 9.28125 54.6875 
L 9.28125 70.21875 
z
" id="DejaVuSans-116"/>
      <path d="M 10.6875 12.40625 
L 21 12.40625 
L 21 0 
L 10.6875 0 
z
" id="DejaVuSans-46"/>
     </defs>
     <use xlink:href="#DejaVuSans-82"/>
     <use x="67.232422" xlink:href="#DejaVuSans-97"/>
     <use x="128.511719" xlink:href="#DejaVuSans-110"/>
     <use x="191.890625" xlink:href="#DejaVuSans-100"/>
     <use x="255.367188" xlink:href="#DejaVuSans-111"/>
     <use x="316.548828" xlink:href="#DejaVuSans-109"/>
     <use x="413.960938" xlink:href="#DejaVuSans-32"/>
     <use x="445.748047" xlink:href="#DejaVuSans-119"/>
     <use x="527.535156" xlink:href="#DejaVuSans-97"/>
     <use x="588.814453" xlink:href="#DejaVuSans-108"/>
     <use x="616.597656" xlink:href="#DejaVuSans-107"/>
     <use x="674.507812" xlink:href="#DejaVuSans-32"/>
     <use x="706.294922" xlink:href="#DejaVuSans-45"/>
     <use x="742.378906" xlink:href="#DejaVuSans-32"/>
     <use x="774.166016" xlink:href="#DejaVuSans-110"/>
     <use x="837.544922" xlink:href="#DejaVuSans-61"/>
     <use x="921.333984" xlink:href="#DejaVuSans-49"/>
     <use x="984.957031" xlink:href="#DejaVuSans-48"/>
     <use x="1048.580078" xlink:href="#DejaVuSans-48"/>
     <use x="1112.203125" xlink:href="#DejaVuSans-48"/>
     <use x="1175.826172" xlink:href="#DejaVuSans-44"/>
     <use x="1207.613281" xlink:href="#DejaVuSans-32"/>
     <use x="1239.400391" xlink:href="#DejaVuSans-100"/>
     <use x="1302.876953" xlink:href="#DejaVuSans-114"/>
     <use x="1343.990234" xlink:href="#DejaVuSans-105"/>
     <use x="1371.773438" xlink:href="#DejaVuSans-102"/>
     <use x="1405.228516" xlink:href="#DejaVuSans-116"/>
     <use x="1444.4375" xlink:href="#DejaVuSans-61"/>
     <use x="1528.226562" xlink:href="#DejaVuSans-48"/>
     <use x="1591.849609" xlink:href="#DejaVuSans-46"/>
     <use x="1623.636719" xlink:href="#DejaVuSans-48"/>
    </g>
   </g>
  </g>
 </g>
 <defs>
  <clipPath id="paf608ddad6">
   <rect height="266.112" width="357.12" x="57.6" y="41.472"/>
  </clipPath>
 </defs>
</svg>
