<?xml version="1.0" encoding="utf-8" standalone="no"?>
<!DOCTYPE svg PUBLIC "-//W3C//DTD SVG 1.1//EN"
  "http://www.w3.org/Graphics/SVG/1.1/DTD/svg11.dtd">
<!-- Created with matplotlib (https://matplotlib.org/) -->
<svg height="345.6pt" version="1.1" viewBox="0 0 460.8 345.6" width="460.8pt" xmlns="http://www.w3.org/2000/svg" xmlns:xlink="http://www.w3.org/1999/xlink">
 <metadata>
  <rdf:RDF xmlns:cc="http://creativecommons.org/ns#" xmlns:dc="http://purl.org/dc/elements/1.1/" xmlns:rdf="http://www.w3.org/1999/02/22-rdf-syntax-ns#">
   <cc:Work>
    <dc:type rdf:resource="http://purl.org/dc/dcmitype/StillImage"/>
    <dc:date>2021-03-05T04:19:00.404954</dc:date>
    <dc:format>image/svg+xml</dc:format>
    <dc:creator>
     <cc:Agent>
      <dc:title>Matplotlib v3.3.4, https://matplotlib.org/</dc:title>
     </cc:Agent>
    </dc:creator>
   </cc:Work>
  </rdf:RDF>
 </metadata>
 <defs>
  <style type="text/css">*{stroke-linecap:butt;stroke-linejoin:round;}</style>
 </defs>
 <g id="figure_1">
  <g id="patch_1">
   <path d="M 0 345.6 
L 460.8 345.6 
L 460.8 0 
L 0 0 
z
" style="fill:#ffffff;"/>
  </g>
  <g id="axes_1">
   <g id="patch_2">
    <path d="M 57.6 307.584 
L 414.72 307.584 
L 414.72 41.472 
L 57.6 41.472 
z
" style="fill:#ffffff;"/>
   </g>
   <g id="matplotlib.axis_1">
    <g id="xtick_1">
     <g id="line2d_1">
      <defs>
       <path d="M 0 0 
L 0 3.5 
" id="mf4622db5c9" style="stroke:#000000;stroke-width:0.8;"/>
      </defs>
      <g>
       <use style="stroke:#000000;stroke-width:0.8;" x="73.832727" xlink:href="#mf4622db5c9" y="307.584"/>
      </g>
     </g>
     <g id="text_1">
      <!-- 0 -->
      <g transform="translate(70.651477 322.182437)scale(0.1 -0.1)">
       <defs>
        <path d="M 31.78125 66.40625 
Q 24.171875 66.40625 20.328125 58.90625 
Q 16.5 51.421875 16.5 36.375 
Q 16.5 21.390625 20.328125 13.890625 
Q 24.171875 6.390625 31.78125 6.390625 
Q 39.453125 6.390625 43.28125 13.890625 
Q 47.125 21.390625 47.125 36.375 
Q 47.125 51.421875 43.28125 58.90625 
Q 39.453125 66.40625 31.78125 66.40625 
z
M 31.78125 74.21875 
Q 44.046875 74.21875 50.515625 64.515625 
Q 56.984375 54.828125 56.984375 36.375 
Q 56.984375 17.96875 50.515625 8.265625 
Q 44.046875 -1.421875 31.78125 -1.421875 
Q 19.53125 -1.421875 13.0625 8.265625 
Q 6.59375 17.96875 6.59375 36.375 
Q 6.59375 54.828125 13.0625 64.515625 
Q 19.53125 74.21875 31.78125 74.21875 
z
" id="DejaVuSans-48"/>
       </defs>
       <use xlink:href="#DejaVuSans-48"/>
      </g>
     </g>
    </g>
    <g id="xtick_2">
     <g id="line2d_2">
      <g>
       <use style="stroke:#000000;stroke-width:0.8;" x="138.828632" xlink:href="#mf4622db5c9" y="307.584"/>
      </g>
     </g>
     <g id="text_2">
      <!-- 200 -->
      <g transform="translate(129.284882 322.182437)scale(0.1 -0.1)">
       <defs>
        <path d="M 19.1875 8.296875 
L 53.609375 8.296875 
L 53.609375 0 
L 7.328125 0 
L 7.328125 8.296875 
Q 12.9375 14.109375 22.625 23.890625 
Q 32.328125 33.6875 34.8125 36.53125 
Q 39.546875 41.84375 41.421875 45.53125 
Q 43.3125 49.21875 43.3125 52.78125 
Q 43.3125 58.59375 39.234375 62.25 
Q 35.15625 65.921875 28.609375 65.921875 
Q 23.96875 65.921875 18.8125 64.3125 
Q 13.671875 62.703125 7.8125 59.421875 
L 7.8125 69.390625 
Q 13.765625 71.78125 18.9375 73 
Q 24.125 74.21875 28.421875 74.21875 
Q 39.75 74.21875 46.484375 68.546875 
Q 53.21875 62.890625 53.21875 53.421875 
Q 53.21875 48.921875 51.53125 44.890625 
Q 49.859375 40.875 45.40625 35.40625 
Q 44.1875 33.984375 37.640625 27.21875 
Q 31.109375 20.453125 19.1875 8.296875 
z
" id="DejaVuSans-50"/>
       </defs>
       <use xlink:href="#DejaVuSans-50"/>
       <use x="63.623047" xlink:href="#DejaVuSans-48"/>
       <use x="127.246094" xlink:href="#DejaVuSans-48"/>
      </g>
     </g>
    </g>
    <g id="xtick_3">
     <g id="line2d_3">
      <g>
       <use style="stroke:#000000;stroke-width:0.8;" x="203.824537" xlink:href="#mf4622db5c9" y="307.584"/>
      </g>
     </g>
     <g id="text_3">
      <!-- 400 -->
      <g transform="translate(194.280787 322.182437)scale(0.1 -0.1)">
       <defs>
        <path d="M 37.796875 64.3125 
L 12.890625 25.390625 
L 37.796875 25.390625 
z
M 35.203125 72.90625 
L 47.609375 72.90625 
L 47.609375 25.390625 
L 58.015625 25.390625 
L 58.015625 17.1875 
L 47.609375 17.1875 
L 47.609375 0 
L 37.796875 0 
L 37.796875 17.1875 
L 4.890625 17.1875 
L 4.890625 26.703125 
z
" id="DejaVuSans-52"/>
       </defs>
       <use xlink:href="#DejaVuSans-52"/>
       <use x="63.623047" xlink:href="#DejaVuSans-48"/>
       <use x="127.246094" xlink:href="#DejaVuSans-48"/>
      </g>
     </g>
    </g>
    <g id="xtick_4">
     <g id="line2d_4">
      <g>
       <use style="stroke:#000000;stroke-width:0.8;" x="268.820442" xlink:href="#mf4622db5c9" y="307.584"/>
      </g>
     </g>
     <g id="text_4">
      <!-- 600 -->
      <g transform="translate(259.276692 322.182437)scale(0.1 -0.1)">
       <defs>
        <path d="M 33.015625 40.375 
Q 26.375 40.375 22.484375 35.828125 
Q 18.609375 31.296875 18.609375 23.390625 
Q 18.609375 15.53125 22.484375 10.953125 
Q 26.375 6.390625 33.015625 6.390625 
Q 39.65625 6.390625 43.53125 10.953125 
Q 47.40625 15.53125 47.40625 23.390625 
Q 47.40625 31.296875 43.53125 35.828125 
Q 39.65625 40.375 33.015625 40.375 
z
M 52.59375 71.296875 
L 52.59375 62.3125 
Q 48.875 64.0625 45.09375 64.984375 
Q 41.3125 65.921875 37.59375 65.921875 
Q 27.828125 65.921875 22.671875 59.328125 
Q 17.53125 52.734375 16.796875 39.40625 
Q 19.671875 43.65625 24.015625 45.921875 
Q 28.375 48.1875 33.59375 48.1875 
Q 44.578125 48.1875 50.953125 41.515625 
Q 57.328125 34.859375 57.328125 23.390625 
Q 57.328125 12.15625 50.6875 5.359375 
Q 44.046875 -1.421875 33.015625 -1.421875 
Q 20.359375 -1.421875 13.671875 8.265625 
Q 6.984375 17.96875 6.984375 36.375 
Q 6.984375 53.65625 15.1875 63.9375 
Q 23.390625 74.21875 37.203125 74.21875 
Q 40.921875 74.21875 44.703125 73.484375 
Q 48.484375 72.75 52.59375 71.296875 
z
" id="DejaVuSans-54"/>
       </defs>
       <use xlink:href="#DejaVuSans-54"/>
       <use x="63.623047" xlink:href="#DejaVuSans-48"/>
       <use x="127.246094" xlink:href="#DejaVuSans-48"/>
      </g>
     </g>
    </g>
    <g id="xtick_5">
     <g id="line2d_5">
      <g>
       <use style="stroke:#000000;stroke-width:0.8;" x="333.816347" xlink:href="#mf4622db5c9" y="307.584"/>
      </g>
     </g>
     <g id="text_5">
      <!-- 800 -->
      <g transform="translate(324.272597 322.182437)scale(0.1 -0.1)">
       <defs>
        <path d="M 31.78125 34.625 
Q 24.75 34.625 20.71875 30.859375 
Q 16.703125 27.09375 16.703125 20.515625 
Q 16.703125 13.921875 20.71875 10.15625 
Q 24.75 6.390625 31.78125 6.390625 
Q 38.8125 6.390625 42.859375 10.171875 
Q 46.921875 13.96875 46.921875 20.515625 
Q 46.921875 27.09375 42.890625 30.859375 
Q 38.875 34.625 31.78125 34.625 
z
M 21.921875 38.8125 
Q 15.578125 40.375 12.03125 44.71875 
Q 8.5 49.078125 8.5 55.328125 
Q 8.5 64.0625 14.71875 69.140625 
Q 20.953125 74.21875 31.78125 74.21875 
Q 42.671875 74.21875 48.875 69.140625 
Q 55.078125 64.0625 55.078125 55.328125 
Q 55.078125 49.078125 51.53125 44.71875 
Q 48 40.375 41.703125 38.8125 
Q 48.828125 37.15625 52.796875 32.3125 
Q 56.78125 27.484375 56.78125 20.515625 
Q 56.78125 9.90625 50.3125 4.234375 
Q 43.84375 -1.421875 31.78125 -1.421875 
Q 19.734375 -1.421875 13.25 4.234375 
Q 6.78125 9.90625 6.78125 20.515625 
Q 6.78125 27.484375 10.78125 32.3125 
Q 14.796875 37.15625 21.921875 38.8125 
z
M 18.3125 54.390625 
Q 18.3125 48.734375 21.84375 45.5625 
Q 25.390625 42.390625 31.78125 42.390625 
Q 38.140625 42.390625 41.71875 45.5625 
Q 45.3125 48.734375 45.3125 54.390625 
Q 45.3125 60.0625 41.71875 63.234375 
Q 38.140625 66.40625 31.78125 66.40625 
Q 25.390625 66.40625 21.84375 63.234375 
Q 18.3125 60.0625 18.3125 54.390625 
z
" id="DejaVuSans-56"/>
       </defs>
       <use xlink:href="#DejaVuSans-56"/>
       <use x="63.623047" xlink:href="#DejaVuSans-48"/>
       <use x="127.246094" xlink:href="#DejaVuSans-48"/>
      </g>
     </g>
    </g>
    <g id="xtick_6">
     <g id="line2d_6">
      <g>
       <use style="stroke:#000000;stroke-width:0.8;" x="398.812252" xlink:href="#mf4622db5c9" y="307.584"/>
      </g>
     </g>
     <g id="text_6">
      <!-- 1000 -->
      <g transform="translate(386.087252 322.182437)scale(0.1 -0.1)">
       <defs>
        <path d="M 12.40625 8.296875 
L 28.515625 8.296875 
L 28.515625 63.921875 
L 10.984375 60.40625 
L 10.984375 69.390625 
L 28.421875 72.90625 
L 38.28125 72.90625 
L 38.28125 8.296875 
L 54.390625 8.296875 
L 54.390625 0 
L 12.40625 0 
z
" id="DejaVuSans-49"/>
       </defs>
       <use xlink:href="#DejaVuSans-49"/>
       <use x="63.623047" xlink:href="#DejaVuSans-48"/>
       <use x="127.246094" xlink:href="#DejaVuSans-48"/>
       <use x="190.869141" xlink:href="#DejaVuSans-48"/>
      </g>
     </g>
    </g>
   </g>
   <g id="matplotlib.axis_2">
    <g id="ytick_1">
     <g id="line2d_7">
      <defs>
       <path d="M 0 0 
L -3.5 0 
" id="m3f690fa54f" style="stroke:#000000;stroke-width:0.8;"/>
      </defs>
      <g>
       <use style="stroke:#000000;stroke-width:0.8;" x="57.6" xlink:href="#m3f690fa54f" y="281.937198"/>
      </g>
     </g>
     <g id="text_7">
      <!-- 0.0 -->
      <g transform="translate(34.696875 285.736417)scale(0.1 -0.1)">
       <defs>
        <path d="M 10.6875 12.40625 
L 21 12.40625 
L 21 0 
L 10.6875 0 
z
" id="DejaVuSans-46"/>
       </defs>
       <use xlink:href="#DejaVuSans-48"/>
       <use x="63.623047" xlink:href="#DejaVuSans-46"/>
       <use x="95.410156" xlink:href="#DejaVuSans-48"/>
      </g>
     </g>
    </g>
    <g id="ytick_2">
     <g id="line2d_8">
      <g>
       <use style="stroke:#000000;stroke-width:0.8;" x="57.6" xlink:href="#m3f690fa54f" y="246.66205"/>
      </g>
     </g>
     <g id="text_8">
      <!-- 2.5 -->
      <g transform="translate(34.696875 250.461269)scale(0.1 -0.1)">
       <defs>
        <path d="M 10.796875 72.90625 
L 49.515625 72.90625 
L 49.515625 64.59375 
L 19.828125 64.59375 
L 19.828125 46.734375 
Q 21.96875 47.46875 24.109375 47.828125 
Q 26.265625 48.1875 28.421875 48.1875 
Q 40.625 48.1875 47.75 41.5 
Q 54.890625 34.8125 54.890625 23.390625 
Q 54.890625 11.625 47.5625 5.09375 
Q 40.234375 -1.421875 26.90625 -1.421875 
Q 22.3125 -1.421875 17.546875 -0.640625 
Q 12.796875 0.140625 7.71875 1.703125 
L 7.71875 11.625 
Q 12.109375 9.234375 16.796875 8.0625 
Q 21.484375 6.890625 26.703125 6.890625 
Q 35.15625 6.890625 40.078125 11.328125 
Q 45.015625 15.765625 45.015625 23.390625 
Q 45.015625 31 40.078125 35.4375 
Q 35.15625 39.890625 26.703125 39.890625 
Q 22.75 39.890625 18.8125 39.015625 
Q 14.890625 38.140625 10.796875 36.28125 
z
" id="DejaVuSans-53"/>
       </defs>
       <use xlink:href="#DejaVuSans-50"/>
       <use x="63.623047" xlink:href="#DejaVuSans-46"/>
       <use x="95.410156" xlink:href="#DejaVuSans-53"/>
      </g>
     </g>
    </g>
    <g id="ytick_3">
     <g id="line2d_9">
      <g>
       <use style="stroke:#000000;stroke-width:0.8;" x="57.6" xlink:href="#m3f690fa54f" y="211.386902"/>
      </g>
     </g>
     <g id="text_9">
      <!-- 5.0 -->
      <g transform="translate(34.696875 215.186121)scale(0.1 -0.1)">
       <use xlink:href="#DejaVuSans-53"/>
       <use x="63.623047" xlink:href="#DejaVuSans-46"/>
       <use x="95.410156" xlink:href="#DejaVuSans-48"/>
      </g>
     </g>
    </g>
    <g id="ytick_4">
     <g id="line2d_10">
      <g>
       <use style="stroke:#000000;stroke-width:0.8;" x="57.6" xlink:href="#m3f690fa54f" y="176.111755"/>
      </g>
     </g>
     <g id="text_10">
      <!-- 7.5 -->
      <g transform="translate(34.696875 179.910973)scale(0.1 -0.1)">
       <defs>
        <path d="M 8.203125 72.90625 
L 55.078125 72.90625 
L 55.078125 68.703125 
L 28.609375 0 
L 18.3125 0 
L 43.21875 64.59375 
L 8.203125 64.59375 
z
" id="DejaVuSans-55"/>
       </defs>
       <use xlink:href="#DejaVuSans-55"/>
       <use x="63.623047" xlink:href="#DejaVuSans-46"/>
       <use x="95.410156" xlink:href="#DejaVuSans-53"/>
      </g>
     </g>
    </g>
    <g id="ytick_5">
     <g id="line2d_11">
      <g>
       <use style="stroke:#000000;stroke-width:0.8;" x="57.6" xlink:href="#m3f690fa54f" y="140.836607"/>
      </g>
     </g>
     <g id="text_11">
      <!-- 10.0 -->
      <g transform="translate(28.334375 144.635826)scale(0.1 -0.1)">
       <use xlink:href="#DejaVuSans-49"/>
       <use x="63.623047" xlink:href="#DejaVuSans-48"/>
       <use x="127.246094" xlink:href="#DejaVuSans-46"/>
       <use x="159.033203" xlink:href="#DejaVuSans-48"/>
      </g>
     </g>
    </g>
    <g id="ytick_6">
     <g id="line2d_12">
      <g>
       <use style="stroke:#000000;stroke-width:0.8;" x="57.6" xlink:href="#m3f690fa54f" y="105.561459"/>
      </g>
     </g>
     <g id="text_12">
      <!-- 12.5 -->
      <g transform="translate(28.334375 109.360678)scale(0.1 -0.1)">
       <use xlink:href="#DejaVuSans-49"/>
       <use x="63.623047" xlink:href="#DejaVuSans-50"/>
       <use x="127.246094" xlink:href="#DejaVuSans-46"/>
       <use x="159.033203" xlink:href="#DejaVuSans-53"/>
      </g>
     </g>
    </g>
    <g id="ytick_7">
     <g id="line2d_13">
      <g>
       <use style="stroke:#000000;stroke-width:0.8;" x="57.6" xlink:href="#m3f690fa54f" y="70.286312"/>
      </g>
     </g>
     <g id="text_13">
      <!-- 15.0 -->
      <g transform="translate(28.334375 74.08553)scale(0.1 -0.1)">
       <use xlink:href="#DejaVuSans-49"/>
       <use x="63.623047" xlink:href="#DejaVuSans-53"/>
       <use x="127.246094" xlink:href="#DejaVuSans-46"/>
       <use x="159.033203" xlink:href="#DejaVuSans-48"/>
      </g>
     </g>
    </g>
   </g>
   <g id="line2d_14">
    <path clip-path="url(#pd765fecc8d)" d="M 73.832727 280.852157 
L 74.157707 280.185829 
L 74.482686 278.734844 
L 74.807666 279.170922 
L 75.132645 280.541637 
L 75.457625 279.94454 
L 75.782604 281.308721 
L 76.432563 276.786957 
L 76.757543 275.833277 
L 77.082523 276.070145 
L 77.407502 275.642497 
L 77.732482 276.198355 
L 78.057461 273.447389 
L 78.70742 276.01426 
L 79.0324 275.584395 
L 79.357379 279.608217 
L 79.682359 281.195863 
L 80.007338 280.62545 
L 80.332318 281.552105 
L 81.307256 279.031835 
L 81.957215 276.210054 
L 82.282195 277.935878 
L 82.607174 276.785127 
L 82.932154 277.188701 
L 83.257133 277.184128 
L 83.907093 278.747278 
L 84.557052 281.026982 
L 84.882031 284.042902 
L 85.207011 283.651407 
L 85.53199 283.694593 
L 86.181949 281.593167 
L 86.506929 281.767468 
L 86.831908 280.127298 
L 87.156888 280.641385 
L 87.481867 280.182866 
L 87.806847 281.557402 
L 88.131826 279.508383 
L 88.456806 281.208767 
L 88.781785 280.582305 
L 89.431744 283.050158 
L 89.756724 283.771426 
L 90.081704 282.889947 
L 90.406683 282.608195 
L 90.731663 283.344495 
L 91.056642 281.89673 
L 91.381622 283.43111 
L 91.706601 283.939776 
L 92.031581 282.005539 
L 92.35656 284.58496 
L 92.68154 283.243816 
L 93.006519 284.204627 
L 93.331499 283.892065 
L 93.656478 282.303598 
L 93.981458 282.09407 
L 94.306437 283.720417 
L 94.631417 283.387803 
L 94.956396 283.556724 
L 95.281376 285.357801 
L 95.606355 284.98409 
L 95.931335 283.082414 
L 96.581294 282.304535 
L 96.906274 281.313495 
L 97.231253 281.751223 
L 97.556233 282.82626 
L 97.881212 281.819137 
L 98.206192 279.673404 
L 98.531171 279.591428 
L 98.856151 280.608375 
L 99.18113 277.925077 
L 99.50611 276.927087 
L 99.831089 276.477552 
L 100.156069 274.488079 
L 100.481048 274.488328 
L 100.806028 274.234251 
L 101.455987 270.669 
L 101.780966 270.166355 
L 102.105946 269.04804 
L 102.430925 271.46324 
L 102.755905 272.03922 
L 103.080885 271.791657 
L 103.405864 272.021342 
L 103.730844 273.279257 
L 104.055823 275.380605 
L 104.380803 275.186287 
L 104.705782 272.898085 
L 105.030762 271.884672 
L 105.355741 272.505954 
L 105.680721 271.128488 
L 106.33068 274.313404 
L 106.655659 273.921875 
L 106.980639 274.949373 
L 107.305618 275.294062 
L 107.630598 276.290953 
L 107.955577 275.59523 
L 108.280557 274.47614 
L 108.605536 274.040934 
L 108.930516 275.277007 
L 109.255495 275.16129 
L 109.580475 274.39933 
L 109.905455 274.424874 
L 110.230434 275.369587 
L 110.555414 274.440887 
L 110.880393 274.972519 
L 111.205373 275.211286 
L 111.530352 277.342933 
L 111.855332 275.869767 
L 112.180311 275.726586 
L 112.505291 276.151066 
L 112.83027 276.890017 
L 113.15525 278.136525 
L 113.480229 277.513969 
L 113.805209 277.419155 
L 114.130188 276.876346 
L 114.455168 279.117534 
L 114.780147 277.70762 
L 115.105127 276.81202 
L 115.430106 277.406513 
L 115.755086 278.808133 
L 116.080066 279.52107 
L 116.405045 281.51104 
L 116.730025 280.204326 
L 117.055004 280.499579 
L 117.379984 282.244353 
L 117.704963 282.264991 
L 118.029943 282.528229 
L 118.354922 282.531515 
L 118.679902 281.98651 
L 119.004881 283.589031 
L 119.329861 280.977948 
L 119.65484 282.287338 
L 119.97982 283.108554 
L 120.304799 282.133452 
L 120.629779 282.684876 
L 120.954758 285.058994 
L 121.279738 285.385954 
L 121.604717 285.972198 
L 121.929697 285.376398 
L 122.254676 281.913919 
L 122.904636 277.190542 
L 123.229615 277.624987 
L 123.879574 275.596066 
L 124.529533 281.844208 
L 124.854513 282.544388 
L 125.179492 282.410916 
L 125.829451 281.136018 
L 126.154431 283.733706 
L 126.80439 282.038274 
L 127.454349 281.649868 
L 127.779328 284.703994 
L 128.104308 284.930418 
L 128.429287 285.383867 
L 128.754267 286.29611 
L 129.079247 285.298398 
L 129.729206 284.373554 
L 130.054185 285.333834 
L 130.379165 283.838737 
L 130.704144 285.132179 
L 131.029124 282.363868 
L 131.354103 281.433289 
L 131.679083 281.611466 
L 132.004062 279.46094 
L 132.329042 280.400829 
L 132.979001 280.786556 
L 133.30398 283.138833 
L 133.62896 279.553163 
L 133.953939 279.839878 
L 134.278919 279.732945 
L 134.603898 279.980418 
L 134.928878 279.543375 
L 135.253857 280.082864 
L 135.578837 282.692491 
L 135.903817 281.638834 
L 136.228796 279.415681 
L 136.553776 280.334829 
L 136.878755 278.470029 
L 137.203735 278.636359 
L 137.528714 278.193796 
L 137.853694 279.690509 
L 138.178673 278.811695 
L 138.503653 279.081302 
L 138.828632 279.624995 
L 139.153612 277.997205 
L 139.478591 281.138944 
L 139.803571 277.444119 
L 140.45353 282.033243 
L 140.778509 281.656724 
L 141.103489 283.270167 
L 141.428468 281.943081 
L 142.078428 281.2235 
L 142.403407 281.206243 
L 142.728387 280.029014 
L 143.053366 277.569607 
L 143.378346 277.440671 
L 143.703325 275.892794 
L 144.028305 275.66835 
L 144.353284 273.522787 
L 144.678264 276.067148 
L 145.003243 275.597905 
L 145.328223 274.140353 
L 145.653202 274.172873 
L 145.978182 273.074625 
L 146.303161 272.419377 
L 146.628141 269.9026 
L 146.95312 270.499309 
L 147.603079 266.588152 
L 147.928059 268.735758 
L 148.578018 269.228917 
L 148.902998 272.456702 
L 149.227977 273.128725 
L 150.202916 269.809334 
L 150.527895 269.792061 
L 150.852875 271.068978 
L 151.827813 266.168116 
L 152.152793 267.01179 
L 152.477772 266.306869 
L 152.802752 267.945615 
L 153.127731 267.075173 
L 153.77769 264.295991 
L 154.10267 262.147193 
L 154.427649 265.517397 
L 154.752629 266.369235 
L 155.077609 266.544971 
L 155.402588 266.322034 
L 156.052547 264.03989 
L 156.377527 260.81083 
L 156.702506 262.84408 
L 157.027486 261.584883 
L 157.677445 256.948625 
L 158.002424 257.303059 
L 158.327404 257.439972 
L 158.652383 255.692638 
L 158.977363 256.463161 
L 159.302342 255.606937 
L 159.627322 255.824567 
L 159.952301 256.425243 
L 160.92724 261.726777 
L 161.252219 260.570351 
L 161.577199 258.966161 
L 161.902179 258.56374 
L 162.227158 259.7922 
L 162.552138 259.971425 
L 162.877117 258.130892 
L 163.202097 258.516261 
L 163.527076 258.503846 
L 163.852056 257.509058 
L 164.177035 254.591568 
L 164.502015 254.344793 
L 165.151974 257.095219 
L 165.476953 256.201227 
L 165.801933 254.25796 
L 166.126912 253.376116 
L 166.451892 255.660973 
L 167.101851 252.50357 
L 167.42683 252.99676 
L 167.75181 252.04382 
L 168.07679 252.33197 
L 168.726749 254.007775 
L 169.376708 255.260742 
L 170.026667 251.998987 
L 170.351646 250.646358 
L 170.676626 252.141505 
L 171.001605 251.729376 
L 171.326585 251.511046 
L 171.651564 251.136234 
L 171.976544 248.933628 
L 172.301523 247.6241 
L 172.626503 248.400028 
L 172.951482 247.979343 
L 173.276462 250.133177 
L 173.601441 249.848003 
L 174.2514 247.756411 
L 174.57638 247.638856 
L 174.90136 247.81109 
L 175.226339 246.935403 
L 175.551319 248.057363 
L 175.876298 244.935025 
L 176.201278 244.499566 
L 176.526257 244.513457 
L 176.851237 242.763529 
L 177.501196 245.1873 
L 177.826175 244.765773 
L 178.151155 243.563681 
L 178.476134 243.351634 
L 178.801114 240.323829 
L 179.126093 240.718013 
L 179.451073 241.632115 
L 179.776052 243.46232 
L 180.101032 243.458594 
L 180.750991 241.986696 
L 181.075971 242.901748 
L 181.40095 244.284179 
L 181.72593 241.491504 
L 182.050909 239.913686 
L 182.375889 240.203363 
L 183.025848 244.120745 
L 183.350827 243.462326 
L 183.675807 244.419758 
L 184.000786 243.295869 
L 184.325766 243.815317 
L 184.650745 247.444886 
L 184.975725 247.082717 
L 185.300704 248.328175 
L 185.625684 247.932173 
L 185.950663 248.739488 
L 186.275643 248.387685 
L 186.600622 249.770682 
L 186.925602 250.481529 
L 187.250581 250.224944 
L 187.575561 250.665335 
L 187.900541 250.619374 
L 188.22552 248.930034 
L 188.5505 250.775146 
L 188.875479 248.328584 
L 189.200459 248.411917 
L 189.525438 248.177052 
L 189.850418 247.509451 
L 190.175397 247.316387 
L 190.500377 246.859672 
L 190.825356 248.508602 
L 191.150336 248.265525 
L 191.475315 248.389601 
L 191.800295 248.866086 
L 192.125274 248.896906 
L 192.450254 250.075021 
L 192.775233 248.919507 
L 193.100213 246.995561 
L 193.425192 247.153024 
L 193.750172 246.716311 
L 194.725111 242.465984 
L 195.05009 244.803326 
L 195.37507 245.52066 
L 195.700049 244.071106 
L 196.025029 244.619034 
L 196.350008 243.149733 
L 196.674988 240.440155 
L 196.999967 241.082647 
L 197.324947 241.191713 
L 197.649926 245.839823 
L 197.974906 247.074949 
L 198.299885 245.944469 
L 198.624865 244.15723 
L 198.949844 243.36483 
L 199.274824 243.549469 
L 199.599803 240.790246 
L 199.924783 241.169105 
L 200.249762 242.307155 
L 200.574742 242.759732 
L 200.899722 239.546183 
L 201.224701 241.672725 
L 201.549681 241.149267 
L 202.19964 242.568532 
L 202.524619 240.942196 
L 202.849599 240.39686 
L 203.174578 241.988251 
L 203.499558 240.668715 
L 203.824537 243.559138 
L 204.474496 246.181755 
L 204.799476 243.567569 
L 205.124455 243.174623 
L 205.449435 239.582458 
L 205.774414 238.40029 
L 206.099394 237.793957 
L 206.424373 236.177166 
L 207.074333 239.012129 
L 207.399312 238.527016 
L 207.724292 237.182234 
L 208.049271 239.094136 
L 208.374251 236.436637 
L 208.69923 236.979906 
L 209.02421 236.629754 
L 209.349189 237.008071 
L 209.674169 236.90936 
L 209.999148 236.243996 
L 210.324128 236.055577 
L 210.649107 236.254432 
L 210.974087 236.234225 
L 211.299066 234.523357 
L 211.624046 236.413957 
L 211.949025 235.74177 
L 212.274005 235.389552 
L 212.598984 233.955426 
L 212.923964 233.146669 
L 213.248943 234.320569 
L 213.573923 234.024162 
L 213.898903 233.235008 
L 214.223882 233.50267 
L 214.548862 230.623598 
L 214.873841 232.236999 
L 215.198821 231.137049 
L 215.5238 230.4703 
L 216.173759 232.126087 
L 216.498739 229.545943 
L 217.148698 230.827457 
L 217.473677 229.429445 
L 217.798657 230.70761 
L 218.448616 231.218254 
L 218.773595 231.989208 
L 219.098575 231.967447 
L 219.423554 235.181974 
L 219.748534 234.057266 
L 220.073514 231.905167 
L 220.723473 232.889665 
L 221.048452 232.98598 
L 221.698411 235.928398 
L 222.023391 236.33071 
L 222.34837 235.64713 
L 222.67335 233.346537 
L 222.998329 232.871546 
L 223.323309 233.49493 
L 223.648288 230.469628 
L 223.973268 228.737312 
L 224.298247 228.339349 
L 224.623227 228.206091 
L 224.948206 229.779993 
L 225.273186 228.605265 
L 225.598165 228.656779 
L 225.923145 230.419039 
L 226.248124 230.603267 
L 226.573104 233.782006 
L 227.223063 237.330199 
L 227.548043 236.99248 
L 227.873022 235.309921 
L 228.198002 235.702012 
L 228.522981 237.532592 
L 229.17294 235.743384 
L 229.822899 231.707557 
L 230.147879 231.622953 
L 230.472858 231.744154 
L 231.122817 235.665931 
L 231.447797 236.747639 
L 231.772776 236.678794 
L 232.097756 235.964452 
L 232.422735 233.354916 
L 232.747715 233.209758 
L 233.397674 230.162162 
L 233.722654 230.697187 
L 234.047633 229.829885 
L 234.697592 234.22872 
L 235.347551 236.515513 
L 235.672531 235.04115 
L 236.32249 237.805687 
L 236.647469 239.929751 
L 236.972449 240.217208 
L 237.297428 240.187532 
L 237.622408 239.796806 
L 237.947387 242.608114 
L 238.272367 244.242293 
L 238.597346 246.939602 
L 238.922326 243.670236 
L 239.247305 242.435909 
L 239.572285 242.013535 
L 239.897265 244.144139 
L 240.222244 244.594587 
L 240.547224 242.259815 
L 240.872203 243.213257 
L 241.197183 241.745072 
L 241.522162 241.843497 
L 241.847142 241.676628 
L 242.172121 240.32436 
L 242.497101 241.12233 
L 242.82208 242.260144 
L 243.14706 240.86544 
L 243.472039 241.467592 
L 243.797019 241.302269 
L 244.121998 239.550235 
L 244.446978 238.709448 
L 244.771957 238.208933 
L 245.096937 238.41115 
L 245.421916 238.825722 
L 245.746896 237.582269 
L 246.071876 235.772016 
L 247.046814 234.573182 
L 247.371794 234.578377 
L 247.696773 234.696015 
L 248.021753 234.321324 
L 248.346732 235.192166 
L 248.671712 236.474898 
L 249.321671 229.067137 
L 249.64665 225.577067 
L 249.97163 228.646723 
L 250.296609 228.790764 
L 250.621589 230.215831 
L 250.946568 227.015404 
L 251.271548 225.60204 
L 251.596527 225.344966 
L 251.921507 225.884736 
L 252.246486 225.110336 
L 252.571466 226.579809 
L 252.896446 226.661158 
L 253.221425 226.467668 
L 253.546405 224.245807 
L 253.871384 224.625754 
L 254.196364 222.743337 
L 254.521343 225.232517 
L 254.846323 225.058497 
L 255.171302 225.216499 
L 255.821261 223.148397 
L 256.146241 222.371193 
L 256.7962 220.066274 
L 257.121179 220.222811 
L 257.446159 219.214329 
L 257.771138 217.5476 
L 258.096118 218.650381 
L 258.421097 218.050685 
L 258.746077 219.630634 
L 259.721016 213.458584 
L 260.045995 213.025351 
L 260.370975 210.144172 
L 260.695954 214.424641 
L 261.020934 215.12228 
L 261.345913 214.426132 
L 261.670893 214.211028 
L 261.995872 216.56493 
L 262.645831 214.135038 
L 262.970811 214.226334 
L 263.29579 214.042848 
L 263.62077 215.459609 
L 263.945749 213.436906 
L 264.270729 215.222146 
L 264.595708 216.038551 
L 265.245667 212.952776 
L 265.570647 213.870624 
L 265.895627 213.978691 
L 266.220606 215.426471 
L 266.545586 213.316801 
L 266.870565 213.132873 
L 267.195545 213.801775 
L 267.520524 211.390318 
L 268.170483 208.667046 
L 268.495463 208.776893 
L 269.145422 207.671596 
L 269.470401 208.435021 
L 270.12036 206.170646 
L 270.44534 205.723437 
L 270.770319 207.166742 
L 271.095299 207.075762 
L 271.420278 208.045855 
L 271.745258 206.96693 
L 272.070238 206.811371 
L 272.395217 205.11587 
L 272.720197 202.247772 
L 273.045176 201.391479 
L 273.370156 201.276449 
L 273.695135 200.842027 
L 274.020115 201.899688 
L 274.345094 201.61774 
L 274.670074 201.136466 
L 274.995053 201.052456 
L 275.320033 199.60932 
L 275.645012 200.122732 
L 275.969992 200.111941 
L 276.294971 200.614786 
L 276.619951 200.910465 
L 276.94493 199.126953 
L 277.26991 198.846016 
L 277.594889 197.948656 
L 277.919869 198.908715 
L 278.244848 200.567771 
L 278.569828 202.871227 
L 278.894808 203.335529 
L 279.219787 203.201326 
L 279.544767 205.253246 
L 279.869746 206.2915 
L 280.194726 206.301528 
L 280.519705 205.226507 
L 280.844685 205.123615 
L 281.169664 204.197407 
L 281.494644 205.191966 
L 281.819623 205.349014 
L 282.469582 203.34611 
L 282.794562 201.760853 
L 283.119541 201.684679 
L 283.444521 201.378729 
L 283.7695 201.362382 
L 284.09448 201.564649 
L 284.419459 203.852282 
L 284.744439 202.442156 
L 285.069419 201.654327 
L 285.394398 199.763076 
L 285.719378 201.438049 
L 286.044357 200.889474 
L 286.369337 201.431008 
L 286.694316 202.292379 
L 287.019296 201.277781 
L 287.669255 197.91083 
L 287.994234 198.210619 
L 288.319214 198.983764 
L 288.644193 196.730619 
L 288.969173 197.991541 
L 289.294152 197.190312 
L 289.619132 197.252256 
L 289.944111 198.00058 
L 290.269091 201.018649 
L 290.59407 202.131128 
L 290.91905 202.010425 
L 291.244029 201.769841 
L 291.569009 201.291229 
L 291.893989 201.336265 
L 292.868927 196.949651 
L 293.193907 197.776465 
L 293.518886 197.204039 
L 293.843866 199.542331 
L 294.168845 199.140283 
L 294.493825 198.215317 
L 294.818804 197.851329 
L 295.143784 198.485652 
L 295.468763 197.506388 
L 295.793743 197.990849 
L 296.118722 200.647529 
L 296.443702 200.234933 
L 296.768681 199.63722 
L 297.093661 199.507436 
L 297.41864 199.205612 
L 297.74362 196.018233 
L 298.0686 194.31644 
L 298.393579 193.677234 
L 298.718559 195.710249 
L 299.043538 194.881676 
L 299.368518 195.753422 
L 299.693497 196.00594 
L 300.018477 197.037318 
L 300.343456 195.841506 
L 300.668436 194.029207 
L 300.993415 192.916844 
L 301.643374 188.320288 
L 301.968354 188.814326 
L 302.293333 188.694955 
L 302.618313 186.556065 
L 302.943292 185.570403 
L 303.268272 187.069235 
L 303.593251 186.001739 
L 303.918231 185.519176 
L 304.24321 186.349932 
L 304.56819 188.739977 
L 304.89317 187.775812 
L 305.218149 187.190124 
L 305.543129 188.697246 
L 305.868108 187.801129 
L 306.193088 188.470102 
L 306.518067 190.272497 
L 306.843047 187.396244 
L 307.168026 186.06001 
L 307.493006 187.284431 
L 307.817985 185.605241 
L 308.142965 187.399376 
L 308.467944 187.942806 
L 308.792924 185.244584 
L 309.117903 185.062634 
L 309.442883 183.784084 
L 309.767862 182.993327 
L 310.092842 181.120704 
L 310.417821 181.980087 
L 311.067781 183.215242 
L 311.39276 184.321124 
L 311.71774 183.384922 
L 312.042719 181.988309 
L 312.367699 183.857061 
L 312.692678 182.94711 
L 313.017658 184.842032 
L 313.342637 180.370109 
L 313.667617 179.20946 
L 313.992596 181.786269 
L 314.317576 177.993036 
L 314.642555 178.674763 
L 314.967535 184.338214 
L 315.292514 183.920716 
L 315.942473 183.654095 
L 316.267453 184.009811 
L 316.592432 184.115546 
L 316.917412 183.095288 
L 317.242391 182.640671 
L 317.567371 183.471665 
L 317.892351 180.772785 
L 318.21733 180.494163 
L 318.54231 178.074675 
L 318.867289 177.380187 
L 319.517248 178.712935 
L 319.842228 180.282666 
L 320.167207 178.324851 
L 320.492187 181.628639 
L 320.817166 181.296859 
L 321.142146 180.0991 
L 321.792105 180.375514 
L 322.117084 183.275504 
L 322.442064 183.777249 
L 322.767043 184.783177 
L 323.092023 186.781552 
L 323.417002 184.882269 
L 323.741982 184.459965 
L 324.066962 183.25403 
L 324.716921 185.479552 
L 325.0419 185.590935 
L 325.36688 185.184781 
L 325.691859 185.457246 
L 326.016839 184.014524 
L 326.666798 180.276193 
L 327.316757 177.55499 
L 327.641736 179.504488 
L 327.966716 179.903012 
L 328.291695 179.331498 
L 328.616675 179.923868 
L 328.941654 180.051327 
L 329.266634 179.364269 
L 329.916593 175.652426 
L 330.241572 174.980087 
L 330.566552 176.284002 
L 330.891532 176.589299 
L 331.216511 177.808055 
L 331.541491 181.92669 
L 332.19145 179.774401 
L 333.166388 177.057515 
L 333.491368 180.499807 
L 334.141327 181.070164 
L 334.466306 179.414198 
L 334.791286 179.212046 
L 335.116265 181.285231 
L 335.766224 179.660214 
L 336.091204 177.485794 
L 336.416183 178.877905 
L 336.741163 179.643432 
L 337.066143 177.39963 
L 337.391122 177.38271 
L 337.716102 176.910648 
L 338.041081 177.208415 
L 338.366061 177.902143 
L 338.69104 176.953527 
L 339.01602 177.697835 
L 339.340999 177.626971 
L 339.990958 174.275772 
L 340.315938 176.309564 
L 340.640917 176.316877 
L 340.965897 175.956786 
L 341.290876 174.018543 
L 341.615856 173.488305 
L 341.940835 172.369454 
L 342.265815 173.486592 
L 342.590794 172.640784 
L 342.915774 173.69164 
L 343.240753 172.383802 
L 343.565733 174.010586 
L 343.890713 175.008258 
L 344.215692 176.37281 
L 344.540672 176.192483 
L 344.865651 177.348652 
L 345.190631 177.242879 
L 345.51561 176.173376 
L 345.84059 179.345274 
L 346.165569 179.441353 
L 346.490549 176.504574 
L 346.815528 176.980875 
L 347.140508 175.985037 
L 347.465487 173.960135 
L 347.790467 173.121702 
L 348.115446 173.729688 
L 348.440426 171.475647 
L 348.765405 172.636901 
L 349.090385 173.072932 
L 349.415364 172.513178 
L 349.740344 172.650778 
L 350.065324 173.207466 
L 350.715283 168.018761 
L 351.040262 167.583518 
L 351.365242 168.920435 
L 351.690221 167.230201 
L 352.015201 168.598266 
L 352.34018 168.993482 
L 352.66516 169.093935 
L 352.990139 169.407964 
L 353.315119 169.297019 
L 353.640098 170.624531 
L 353.965078 171.17312 
L 354.290057 170.425849 
L 354.615037 171.204035 
L 355.264996 174.852097 
L 355.589975 175.056287 
L 355.914955 174.414271 
L 356.239934 174.638847 
L 356.564914 175.877429 
L 356.889894 175.677511 
L 357.214873 176.636444 
L 357.539853 179.438095 
L 358.189812 175.661296 
L 358.514791 175.737522 
L 358.839771 178.872939 
L 359.16475 180.591648 
L 359.48973 177.649135 
L 360.139689 177.22359 
L 360.464668 177.122109 
L 360.789648 178.624726 
L 361.114627 180.781494 
L 361.439607 181.090215 
L 361.764586 181.184542 
L 362.089566 180.551435 
L 362.414545 178.774249 
L 362.739525 178.807902 
L 363.064505 179.747046 
L 363.714464 176.389864 
L 364.364423 175.79885 
L 364.689402 176.564303 
L 365.014382 178.538091 
L 365.339361 179.615328 
L 365.664341 178.994994 
L 365.98932 177.165338 
L 366.3143 178.566456 
L 366.639279 182.176724 
L 366.964259 181.504973 
L 367.289238 182.737822 
L 367.614218 180.932783 
L 367.939197 177.250792 
L 368.264177 176.014126 
L 368.589156 177.011804 
L 368.914136 176.416962 
L 369.239115 173.850139 
L 369.564095 173.09491 
L 369.889075 173.783347 
L 371.188993 170.642427 
L 371.513972 171.773173 
L 371.838952 170.82778 
L 372.163931 171.203045 
L 372.488911 170.689937 
L 372.81389 169.87476 
L 373.13887 172.025886 
L 373.463849 172.623505 
L 373.788829 175.614412 
L 374.113808 171.099919 
L 374.438788 173.359239 
L 374.763767 173.417901 
L 375.088747 172.63957 
L 375.738706 174.18641 
L 376.063686 173.626959 
L 376.388665 173.319863 
L 376.713645 172.655301 
L 377.038624 171.73428 
L 377.363604 170.115722 
L 377.688583 172.005176 
L 378.013563 169.94537 
L 378.338542 170.315875 
L 378.663522 168.161744 
L 378.988501 170.192868 
L 379.313481 170.477224 
L 379.63846 172.703754 
L 379.96344 171.741346 
L 380.288419 174.906794 
L 380.938378 177.898901 
L 381.263358 177.708195 
L 381.913317 181.865168 
L 382.238296 180.590953 
L 382.563276 177.523863 
L 383.213235 175.620254 
L 383.863194 177.755747 
L 384.188174 178.254635 
L 384.513153 177.42081 
L 384.838133 177.194809 
L 385.163112 177.140428 
L 385.488092 174.07355 
L 385.813071 173.97045 
L 386.138051 172.674912 
L 386.46303 170.595836 
L 387.112989 172.082537 
L 387.437969 172.560785 
L 387.762948 173.621675 
L 388.087928 173.508309 
L 388.412907 175.121042 
L 388.737887 176.121397 
L 389.062867 175.784675 
L 389.387846 173.181234 
L 389.712826 172.329683 
L 390.037805 171.041214 
L 390.687764 172.994314 
L 391.012744 171.92008 
L 391.337723 169.781181 
L 391.662703 169.959211 
L 391.987682 171.314423 
L 392.312662 173.660305 
L 392.637641 173.626359 
L 392.962621 173.327493 
L 393.2876 171.250447 
L 393.61258 172.144259 
L 393.937559 169.036013 
L 394.262539 170.874311 
L 394.587518 169.645247 
L 394.912498 171.209778 
L 395.237477 170.498531 
L 395.562457 172.999497 
L 395.887437 172.147971 
L 396.212416 169.591239 
L 396.862375 170.843523 
L 397.187355 170.448067 
L 397.512334 168.77243 
L 397.837314 170.086464 
L 398.162293 167.126762 
L 398.487273 166.385037 
L 398.487273 166.385037 
" style="fill:none;stroke:#1f77b4;stroke-linecap:square;stroke-width:1.5;"/>
   </g>
   <g id="line2d_15">
    <path clip-path="url(#pd765fecc8d)" d="M 73.832727 281.937198 
L 398.487273 140.977708 
L 398.487273 140.977708 
" style="fill:none;stroke:#000000;stroke-dasharray:5.55,2.4;stroke-dashoffset:0;stroke-width:1.5;"/>
   </g>
   <g id="line2d_16">
    <path clip-path="url(#pd765fecc8d)" d="M 73.832727 281.937198 
L 74.157707 284.561618 
L 74.807666 286.303918 
L 75.457625 287.415587 
L 76.432563 288.630467 
L 77.732482 289.824036 
L 79.357379 290.941022 
L 81.307256 291.954856 
L 83.582113 292.851561 
L 86.181949 293.62319 
L 89.106765 294.264925 
L 92.68154 294.814942 
L 96.906274 295.221748 
L 101.780966 295.448931 
L 107.305618 295.470807 
L 113.480229 295.269101 
L 120.629779 294.804962 
L 128.754267 294.042968 
L 137.853694 292.956315 
L 147.928059 291.524711 
L 159.302342 289.676952 
L 171.976544 287.384446 
L 185.950663 284.624762 
L 201.224701 281.380284 
L 218.123636 277.561674 
L 236.647469 273.146534 
L 257.121179 268.033944 
L 279.544767 262.199619 
L 303.918231 255.623701 
L 330.566552 248.198053 
L 359.48973 239.901756 
L 390.687764 230.71748 
L 398.487273 228.387415 
L 398.487273 228.387415 
" style="fill:none;stroke:#000000;stroke-linecap:square;stroke-width:1.5;"/>
   </g>
   <g id="line2d_17">
    <path clip-path="url(#pd765fecc8d)" d="M 73.832727 281.937198 
L 74.157707 279.030576 
L 74.807666 276.723874 
L 75.782604 274.316479 
L 77.082523 271.780847 
L 78.70742 269.109873 
L 80.982277 265.861543 
L 83.582113 262.556799 
L 86.831908 258.802485 
L 90.731663 254.657513 
L 95.281376 250.157362 
L 100.481048 245.324094 
L 106.655659 239.892898 
L 113.805209 233.910716 
L 121.929697 227.410298 
L 131.029124 220.414715 
L 141.428468 212.703367 
L 153.127731 204.309838 
L 166.126912 195.259246 
L 180.750991 185.3531 
L 196.999967 174.62113 
L 214.873841 163.086369 
L 234.697592 150.563453 
L 256.47122 137.077739 
L 280.194726 122.649394 
L 306.193088 107.101677 
L 334.466306 90.45607 
L 365.339361 72.542736 
L 398.487273 53.568 
L 398.487273 53.568 
" style="fill:none;stroke:#000000;stroke-linecap:square;stroke-width:1.5;"/>
   </g>
   <g id="patch_3">
    <path d="M 57.6 307.584 
L 57.6 41.472 
" style="fill:none;stroke:#000000;stroke-linecap:square;stroke-linejoin:miter;stroke-width:0.8;"/>
   </g>
   <g id="patch_4">
    <path d="M 414.72 307.584 
L 414.72 41.472 
" style="fill:none;stroke:#000000;stroke-linecap:square;stroke-linejoin:miter;stroke-width:0.8;"/>
   </g>
   <g id="patch_5">
    <path d="M 57.6 307.584 
L 414.72 307.584 
" style="fill:none;stroke:#000000;stroke-linecap:square;stroke-linejoin:miter;stroke-width:0.8;"/>
   </g>
   <g id="patch_6">
    <path d="M 57.6 41.472 
L 414.72 41.472 
" style="fill:none;stroke:#000000;stroke-linecap:square;stroke-linejoin:miter;stroke-width:0.8;"/>
   </g>
   <g id="text_14">
    <!-- Random walk - n=1000, drift=0.01 -->
    <g transform="translate(131.108437 35.472)scale(0.12 -0.12)">
     <defs>
      <path d="M 44.390625 34.1875 
Q 47.5625 33.109375 50.5625 29.59375 
Q 53.5625 26.078125 56.59375 19.921875 
L 66.609375 0 
L 56 0 
L 46.6875 18.703125 
Q 43.0625 26.03125 39.671875 28.421875 
Q 36.28125 30.8125 30.421875 30.8125 
L 19.671875 30.8125 
L 19.671875 0 
L 9.8125 0 
L 9.8125 72.90625 
L 32.078125 72.90625 
Q 44.578125 72.90625 50.734375 67.671875 
Q 56.890625 62.453125 56.890625 51.90625 
Q 56.890625 45.015625 53.6875 40.46875 
Q 50.484375 35.9375 44.390625 34.1875 
z
M 19.671875 64.796875 
L 19.671875 38.921875 
L 32.078125 38.921875 
Q 39.203125 38.921875 42.84375 42.21875 
Q 46.484375 45.515625 46.484375 51.90625 
Q 46.484375 58.296875 42.84375 61.546875 
Q 39.203125 64.796875 32.078125 64.796875 
z
" id="DejaVuSans-82"/>
      <path d="M 34.28125 27.484375 
Q 23.390625 27.484375 19.1875 25 
Q 14.984375 22.515625 14.984375 16.5 
Q 14.984375 11.71875 18.140625 8.90625 
Q 21.296875 6.109375 26.703125 6.109375 
Q 34.1875 6.109375 38.703125 11.40625 
Q 43.21875 16.703125 43.21875 25.484375 
L 43.21875 27.484375 
z
M 52.203125 31.203125 
L 52.203125 0 
L 43.21875 0 
L 43.21875 8.296875 
Q 40.140625 3.328125 35.546875 0.953125 
Q 30.953125 -1.421875 24.3125 -1.421875 
Q 15.921875 -1.421875 10.953125 3.296875 
Q 6 8.015625 6 15.921875 
Q 6 25.140625 12.171875 29.828125 
Q 18.359375 34.515625 30.609375 34.515625 
L 43.21875 34.515625 
L 43.21875 35.40625 
Q 43.21875 41.609375 39.140625 45 
Q 35.0625 48.390625 27.6875 48.390625 
Q 23 48.390625 18.546875 47.265625 
Q 14.109375 46.140625 10.015625 43.890625 
L 10.015625 52.203125 
Q 14.9375 54.109375 19.578125 55.046875 
Q 24.21875 56 28.609375 56 
Q 40.484375 56 46.34375 49.84375 
Q 52.203125 43.703125 52.203125 31.203125 
z
" id="DejaVuSans-97"/>
      <path d="M 54.890625 33.015625 
L 54.890625 0 
L 45.90625 0 
L 45.90625 32.71875 
Q 45.90625 40.484375 42.875 44.328125 
Q 39.84375 48.1875 33.796875 48.1875 
Q 26.515625 48.1875 22.3125 43.546875 
Q 18.109375 38.921875 18.109375 30.90625 
L 18.109375 0 
L 9.078125 0 
L 9.078125 54.6875 
L 18.109375 54.6875 
L 18.109375 46.1875 
Q 21.34375 51.125 25.703125 53.5625 
Q 30.078125 56 35.796875 56 
Q 45.21875 56 50.046875 50.171875 
Q 54.890625 44.34375 54.890625 33.015625 
z
" id="DejaVuSans-110"/>
      <path d="M 45.40625 46.390625 
L 45.40625 75.984375 
L 54.390625 75.984375 
L 54.390625 0 
L 45.40625 0 
L 45.40625 8.203125 
Q 42.578125 3.328125 38.25 0.953125 
Q 33.9375 -1.421875 27.875 -1.421875 
Q 17.96875 -1.421875 11.734375 6.484375 
Q 5.515625 14.40625 5.515625 27.296875 
Q 5.515625 40.1875 11.734375 48.09375 
Q 17.96875 56 27.875 56 
Q 33.9375 56 38.25 53.625 
Q 42.578125 51.265625 45.40625 46.390625 
z
M 14.796875 27.296875 
Q 14.796875 17.390625 18.875 11.75 
Q 22.953125 6.109375 30.078125 6.109375 
Q 37.203125 6.109375 41.296875 11.75 
Q 45.40625 17.390625 45.40625 27.296875 
Q 45.40625 37.203125 41.296875 42.84375 
Q 37.203125 48.484375 30.078125 48.484375 
Q 22.953125 48.484375 18.875 42.84375 
Q 14.796875 37.203125 14.796875 27.296875 
z
" id="DejaVuSans-100"/>
      <path d="M 30.609375 48.390625 
Q 23.390625 48.390625 19.1875 42.75 
Q 14.984375 37.109375 14.984375 27.296875 
Q 14.984375 17.484375 19.15625 11.84375 
Q 23.34375 6.203125 30.609375 6.203125 
Q 37.796875 6.203125 41.984375 11.859375 
Q 46.1875 17.53125 46.1875 27.296875 
Q 46.1875 37.015625 41.984375 42.703125 
Q 37.796875 48.390625 30.609375 48.390625 
z
M 30.609375 56 
Q 42.328125 56 49.015625 48.375 
Q 55.71875 40.765625 55.71875 27.296875 
Q 55.71875 13.875 49.015625 6.21875 
Q 42.328125 -1.421875 30.609375 -1.421875 
Q 18.84375 -1.421875 12.171875 6.21875 
Q 5.515625 13.875 5.515625 27.296875 
Q 5.515625 40.765625 12.171875 48.375 
Q 18.84375 56 30.609375 56 
z
" id="DejaVuSans-111"/>
      <path d="M 52 44.1875 
Q 55.375 50.25 60.0625 53.125 
Q 64.75 56 71.09375 56 
Q 79.640625 56 84.28125 50.015625 
Q 88.921875 44.046875 88.921875 33.015625 
L 88.921875 0 
L 79.890625 0 
L 79.890625 32.71875 
Q 79.890625 40.578125 77.09375 44.375 
Q 74.3125 48.1875 68.609375 48.1875 
Q 61.625 48.1875 57.5625 43.546875 
Q 53.515625 38.921875 53.515625 30.90625 
L 53.515625 0 
L 44.484375 0 
L 44.484375 32.71875 
Q 44.484375 40.625 41.703125 44.40625 
Q 38.921875 48.1875 33.109375 48.1875 
Q 26.21875 48.1875 22.15625 43.53125 
Q 18.109375 38.875 18.109375 30.90625 
L 18.109375 0 
L 9.078125 0 
L 9.078125 54.6875 
L 18.109375 54.6875 
L 18.109375 46.1875 
Q 21.1875 51.21875 25.484375 53.609375 
Q 29.78125 56 35.6875 56 
Q 41.65625 56 45.828125 52.96875 
Q 50 49.953125 52 44.1875 
z
" id="DejaVuSans-109"/>
      <path id="DejaVuSans-32"/>
      <path d="M 4.203125 54.6875 
L 13.1875 54.6875 
L 24.421875 12.015625 
L 35.59375 54.6875 
L 46.1875 54.6875 
L 57.421875 12.015625 
L 68.609375 54.6875 
L 77.59375 54.6875 
L 63.28125 0 
L 52.6875 0 
L 40.921875 44.828125 
L 29.109375 0 
L 18.5 0 
z
" id="DejaVuSans-119"/>
      <path d="M 9.421875 75.984375 
L 18.40625 75.984375 
L 18.40625 0 
L 9.421875 0 
z
" id="DejaVuSans-108"/>
      <path d="M 9.078125 75.984375 
L 18.109375 75.984375 
L 18.109375 31.109375 
L 44.921875 54.6875 
L 56.390625 54.6875 
L 27.390625 29.109375 
L 57.625 0 
L 45.90625 0 
L 18.109375 26.703125 
L 18.109375 0 
L 9.078125 0 
z
" id="DejaVuSans-107"/>
      <path d="M 4.890625 31.390625 
L 31.203125 31.390625 
L 31.203125 23.390625 
L 4.890625 23.390625 
z
" id="DejaVuSans-45"/>
      <path d="M 10.59375 45.40625 
L 73.1875 45.40625 
L 73.1875 37.203125 
L 10.59375 37.203125 
z
M 10.59375 25.484375 
L 73.1875 25.484375 
L 73.1875 17.1875 
L 10.59375 17.1875 
z
" id="DejaVuSans-61"/>
      <path d="M 11.71875 12.40625 
L 22.015625 12.40625 
L 22.015625 4 
L 14.015625 -11.625 
L 7.71875 -11.625 
L 11.71875 4 
z
" id="DejaVuSans-44"/>
      <path d="M 41.109375 46.296875 
Q 39.59375 47.171875 37.8125 47.578125 
Q 36.03125 48 33.890625 48 
Q 26.265625 48 22.1875 43.046875 
Q 18.109375 38.09375 18.109375 28.8125 
L 18.109375 0 
L 9.078125 0 
L 9.078125 54.6875 
L 18.109375 54.6875 
L 18.109375 46.1875 
Q 20.953125 51.171875 25.484375 53.578125 
Q 30.03125 56 36.53125 56 
Q 37.453125 56 38.578125 55.875 
Q 39.703125 55.765625 41.0625 55.515625 
z
" id="DejaVuSans-114"/>
      <path d="M 9.421875 54.6875 
L 18.40625 54.6875 
L 18.40625 0 
L 9.421875 0 
z
M 9.421875 75.984375 
L 18.40625 75.984375 
L 18.40625 64.59375 
L 9.421875 64.59375 
z
" id="DejaVuSans-105"/>
      <path d="M 37.109375 75.984375 
L 37.109375 68.5 
L 28.515625 68.5 
Q 23.6875 68.5 21.796875 66.546875 
Q 19.921875 64.59375 19.921875 59.515625 
L 19.921875 54.6875 
L 34.71875 54.6875 
L 34.71875 47.703125 
L 19.921875 47.703125 
L 19.921875 0 
L 10.890625 0 
L 10.890625 47.703125 
L 2.296875 47.703125 
L 2.296875 54.6875 
L 10.890625 54.6875 
L 10.890625 58.5 
Q 10.890625 67.625 15.140625 71.796875 
Q 19.390625 75.984375 28.609375 75.984375 
z
" id="DejaVuSans-102"/>
      <path d="M 18.3125 70.21875 
L 18.3125 54.6875 
L 36.8125 54.6875 
L 36.8125 47.703125 
L 18.3125 47.703125 
L 18.3125 18.015625 
Q 18.3125 11.328125 20.140625 9.421875 
Q 21.96875 7.515625 27.59375 7.515625 
L 36.8125 7.515625 
L 36.8125 0 
L 27.59375 0 
Q 17.1875 0 13.234375 3.875 
Q 9.28125 7.765625 9.28125 18.015625 
L 9.28125 47.703125 
L 2.6875 47.703125 
L 2.6875 54.6875 
L 9.28125 54.6875 
L 9.28125 70.21875 
z
" id="DejaVuSans-116"/>
     </defs>
     <use xlink:href="#DejaVuSans-82"/>
     <use x="67.232422" xlink:href="#DejaVuSans-97"/>
     <use x="128.511719" xlink:href="#DejaVuSans-110"/>
     <use x="191.890625" xlink:href="#DejaVuSans-100"/>
     <use x="255.367188" xlink:href="#DejaVuSans-111"/>
     <use x="316.548828" xlink:href="#DejaVuSans-109"/>
     <use x="413.960938" xlink:href="#DejaVuSans-32"/>
     <use x="445.748047" xlink:href="#DejaVuSans-119"/>
     <use x="527.535156" xlink:href="#DejaVuSans-97"/>
     <use x="588.814453" xlink:href="#DejaVuSans-108"/>
     <use x="616.597656" xlink:href="#DejaVuSans-107"/>
     <use x="674.507812" xlink:href="#DejaVuSans-32"/>
     <use x="706.294922" xlink:href="#DejaVuSans-45"/>
     <use x="742.378906" xlink:href="#DejaVuSans-32"/>
     <use x="774.166016" xlink:href="#DejaVuSans-110"/>
     <use x="837.544922" xlink:href="#DejaVuSans-61"/>
     <use x="921.333984" xlink:href="#DejaVuSans-49"/>
     <use x="984.957031" xlink:href="#DejaVuSans-48"/>
     <use x="1048.580078" xlink:href="#DejaVuSans-48"/>
     <use x="1112.203125" xlink:href="#DejaVuSans-48"/>
     <use x="1175.826172" xlink:href="#DejaVuSans-44"/>
     <use x="1207.613281" xlink:href="#DejaVuSans-32"/>
     <use x="1239.400391" xlink:href="#DejaVuSans-100"/>
     <use x="1302.876953" xlink:href="#DejaVuSans-114"/>
     <use x="1343.990234" xlink:href="#DejaVuSans-105"/>
     <use x="1371.773438" xlink:href="#DejaVuSans-102"/>
     <use x="1405.228516" xlink:href="#DejaVuSans-116"/>
     <use x="1444.4375" xlink:href="#DejaVuSans-61"/>
     <use x="1528.226562" xlink:href="#DejaVuSans-48"/>
     <use x="1591.849609" xlink:href="#DejaVuSans-46"/>
     <use x="1623.636719" xlink:href="#DejaVuSans-48"/>
     <use x="1687.259766" xlink:href="#DejaVuSans-49"/>
    </g>
   </g>
  </g>
 </g>
 <defs>
  <clipPath id="pd765fecc8d">
   <rect height="266.112" width="357.12" x="57.6" y="41.472"/>
  </clipPath>
 </defs>
</svg>
