<?xml version="1.0" encoding="utf-8" standalone="no"?>
<!DOCTYPE svg PUBLIC "-//W3C//DTD SVG 1.1//EN"
  "http://www.w3.org/Graphics/SVG/1.1/DTD/svg11.dtd">
<!-- Created with matplotlib (https://matplotlib.org/) -->
<svg height="345.6pt" version="1.1" viewBox="0 0 460.8 345.6" width="460.8pt" xmlns="http://www.w3.org/2000/svg" xmlns:xlink="http://www.w3.org/1999/xlink">
 <metadata>
  <rdf:RDF xmlns:cc="http://creativecommons.org/ns#" xmlns:dc="http://purl.org/dc/elements/1.1/" xmlns:rdf="http://www.w3.org/1999/02/22-rdf-syntax-ns#">
   <cc:Work>
    <dc:type rdf:resource="http://purl.org/dc/dcmitype/StillImage"/>
    <dc:date>2021-03-05T02:01:31.492231</dc:date>
    <dc:format>image/svg+xml</dc:format>
    <dc:creator>
     <cc:Agent>
      <dc:title>Matplotlib v3.3.4, https://matplotlib.org/</dc:title>
     </cc:Agent>
    </dc:creator>
   </cc:Work>
  </rdf:RDF>
 </metadata>
 <defs>
  <style type="text/css">*{stroke-linecap:butt;stroke-linejoin:round;}</style>
 </defs>
 <g id="figure_1">
  <g id="patch_1">
   <path d="M 0 345.6 
L 460.8 345.6 
L 460.8 0 
L 0 0 
z
" style="fill:#ffffff;"/>
  </g>
  <g id="axes_1">
   <g id="patch_2">
    <path d="M 57.6 276.48 
L 414.72 276.48 
L 414.72 41.472 
L 57.6 41.472 
z
" style="fill:#ffffff;"/>
   </g>
   <g id="matplotlib.axis_1">
    <g id="xtick_1">
     <g id="line2d_1">
      <defs>
       <path d="M 0 0 
L 0 3.5 
" id="ma37551d91d" style="stroke:#000000;stroke-width:0.8;"/>
      </defs>
      <g>
       <use style="stroke:#000000;stroke-width:0.8;" x="58.931916" xlink:href="#ma37551d91d" y="276.48"/>
      </g>
     </g>
     <g id="text_1">
      <!-- 2010 -->
      <g transform="translate(35.851726 302.78544)rotate(-30)scale(0.1 -0.1)">
       <defs>
        <path d="M 19.1875 8.296875 
L 53.609375 8.296875 
L 53.609375 0 
L 7.328125 0 
L 7.328125 8.296875 
Q 12.9375 14.109375 22.625 23.890625 
Q 32.328125 33.6875 34.8125 36.53125 
Q 39.546875 41.84375 41.421875 45.53125 
Q 43.3125 49.21875 43.3125 52.78125 
Q 43.3125 58.59375 39.234375 62.25 
Q 35.15625 65.921875 28.609375 65.921875 
Q 23.96875 65.921875 18.8125 64.3125 
Q 13.671875 62.703125 7.8125 59.421875 
L 7.8125 69.390625 
Q 13.765625 71.78125 18.9375 73 
Q 24.125 74.21875 28.421875 74.21875 
Q 39.75 74.21875 46.484375 68.546875 
Q 53.21875 62.890625 53.21875 53.421875 
Q 53.21875 48.921875 51.53125 44.890625 
Q 49.859375 40.875 45.40625 35.40625 
Q 44.1875 33.984375 37.640625 27.21875 
Q 31.109375 20.453125 19.1875 8.296875 
z
" id="DejaVuSans-50"/>
        <path d="M 31.78125 66.40625 
Q 24.171875 66.40625 20.328125 58.90625 
Q 16.5 51.421875 16.5 36.375 
Q 16.5 21.390625 20.328125 13.890625 
Q 24.171875 6.390625 31.78125 6.390625 
Q 39.453125 6.390625 43.28125 13.890625 
Q 47.125 21.390625 47.125 36.375 
Q 47.125 51.421875 43.28125 58.90625 
Q 39.453125 66.40625 31.78125 66.40625 
z
M 31.78125 74.21875 
Q 44.046875 74.21875 50.515625 64.515625 
Q 56.984375 54.828125 56.984375 36.375 
Q 56.984375 17.96875 50.515625 8.265625 
Q 44.046875 -1.421875 31.78125 -1.421875 
Q 19.53125 -1.421875 13.0625 8.265625 
Q 6.59375 17.96875 6.59375 36.375 
Q 6.59375 54.828125 13.0625 64.515625 
Q 19.53125 74.21875 31.78125 74.21875 
z
" id="DejaVuSans-48"/>
        <path d="M 12.40625 8.296875 
L 28.515625 8.296875 
L 28.515625 63.921875 
L 10.984375 60.40625 
L 10.984375 69.390625 
L 28.421875 72.90625 
L 38.28125 72.90625 
L 38.28125 8.296875 
L 54.390625 8.296875 
L 54.390625 0 
L 12.40625 0 
z
" id="DejaVuSans-49"/>
       </defs>
       <use xlink:href="#DejaVuSans-50"/>
       <use x="63.623047" xlink:href="#DejaVuSans-48"/>
       <use x="127.246094" xlink:href="#DejaVuSans-49"/>
       <use x="190.869141" xlink:href="#DejaVuSans-48"/>
      </g>
     </g>
    </g>
    <g id="xtick_2">
     <g id="line2d_2">
      <g>
       <use style="stroke:#000000;stroke-width:0.8;" x="119.700587" xlink:href="#ma37551d91d" y="276.48"/>
      </g>
     </g>
     <g id="text_2">
      <!-- 2012 -->
      <g transform="translate(96.620397 302.78544)rotate(-30)scale(0.1 -0.1)">
       <use xlink:href="#DejaVuSans-50"/>
       <use x="63.623047" xlink:href="#DejaVuSans-48"/>
       <use x="127.246094" xlink:href="#DejaVuSans-49"/>
       <use x="190.869141" xlink:href="#DejaVuSans-50"/>
      </g>
     </g>
    </g>
    <g id="xtick_3">
     <g id="line2d_3">
      <g>
       <use style="stroke:#000000;stroke-width:0.8;" x="180.552503" xlink:href="#ma37551d91d" y="276.48"/>
      </g>
     </g>
     <g id="text_3">
      <!-- 2014 -->
      <g transform="translate(157.472313 302.78544)rotate(-30)scale(0.1 -0.1)">
       <defs>
        <path d="M 37.796875 64.3125 
L 12.890625 25.390625 
L 37.796875 25.390625 
z
M 35.203125 72.90625 
L 47.609375 72.90625 
L 47.609375 25.390625 
L 58.015625 25.390625 
L 58.015625 17.1875 
L 47.609375 17.1875 
L 47.609375 0 
L 37.796875 0 
L 37.796875 17.1875 
L 4.890625 17.1875 
L 4.890625 26.703125 
z
" id="DejaVuSans-52"/>
       </defs>
       <use xlink:href="#DejaVuSans-50"/>
       <use x="63.623047" xlink:href="#DejaVuSans-48"/>
       <use x="127.246094" xlink:href="#DejaVuSans-49"/>
       <use x="190.869141" xlink:href="#DejaVuSans-52"/>
      </g>
     </g>
    </g>
    <g id="xtick_4">
     <g id="line2d_4">
      <g>
       <use style="stroke:#000000;stroke-width:0.8;" x="241.321175" xlink:href="#ma37551d91d" y="276.48"/>
      </g>
     </g>
     <g id="text_4">
      <!-- 2016 -->
      <g transform="translate(218.240985 302.78544)rotate(-30)scale(0.1 -0.1)">
       <defs>
        <path d="M 33.015625 40.375 
Q 26.375 40.375 22.484375 35.828125 
Q 18.609375 31.296875 18.609375 23.390625 
Q 18.609375 15.53125 22.484375 10.953125 
Q 26.375 6.390625 33.015625 6.390625 
Q 39.65625 6.390625 43.53125 10.953125 
Q 47.40625 15.53125 47.40625 23.390625 
Q 47.40625 31.296875 43.53125 35.828125 
Q 39.65625 40.375 33.015625 40.375 
z
M 52.59375 71.296875 
L 52.59375 62.3125 
Q 48.875 64.0625 45.09375 64.984375 
Q 41.3125 65.921875 37.59375 65.921875 
Q 27.828125 65.921875 22.671875 59.328125 
Q 17.53125 52.734375 16.796875 39.40625 
Q 19.671875 43.65625 24.015625 45.921875 
Q 28.375 48.1875 33.59375 48.1875 
Q 44.578125 48.1875 50.953125 41.515625 
Q 57.328125 34.859375 57.328125 23.390625 
Q 57.328125 12.15625 50.6875 5.359375 
Q 44.046875 -1.421875 33.015625 -1.421875 
Q 20.359375 -1.421875 13.671875 8.265625 
Q 6.984375 17.96875 6.984375 36.375 
Q 6.984375 53.65625 15.1875 63.9375 
Q 23.390625 74.21875 37.203125 74.21875 
Q 40.921875 74.21875 44.703125 73.484375 
Q 48.484375 72.75 52.59375 71.296875 
z
" id="DejaVuSans-54"/>
       </defs>
       <use xlink:href="#DejaVuSans-50"/>
       <use x="63.623047" xlink:href="#DejaVuSans-48"/>
       <use x="127.246094" xlink:href="#DejaVuSans-49"/>
       <use x="190.869141" xlink:href="#DejaVuSans-54"/>
      </g>
     </g>
    </g>
    <g id="xtick_5">
     <g id="line2d_5">
      <g>
       <use style="stroke:#000000;stroke-width:0.8;" x="302.173091" xlink:href="#ma37551d91d" y="276.48"/>
      </g>
     </g>
     <g id="text_5">
      <!-- 2018 -->
      <g transform="translate(279.092901 302.78544)rotate(-30)scale(0.1 -0.1)">
       <defs>
        <path d="M 31.78125 34.625 
Q 24.75 34.625 20.71875 30.859375 
Q 16.703125 27.09375 16.703125 20.515625 
Q 16.703125 13.921875 20.71875 10.15625 
Q 24.75 6.390625 31.78125 6.390625 
Q 38.8125 6.390625 42.859375 10.171875 
Q 46.921875 13.96875 46.921875 20.515625 
Q 46.921875 27.09375 42.890625 30.859375 
Q 38.875 34.625 31.78125 34.625 
z
M 21.921875 38.8125 
Q 15.578125 40.375 12.03125 44.71875 
Q 8.5 49.078125 8.5 55.328125 
Q 8.5 64.0625 14.71875 69.140625 
Q 20.953125 74.21875 31.78125 74.21875 
Q 42.671875 74.21875 48.875 69.140625 
Q 55.078125 64.0625 55.078125 55.328125 
Q 55.078125 49.078125 51.53125 44.71875 
Q 48 40.375 41.703125 38.8125 
Q 48.828125 37.15625 52.796875 32.3125 
Q 56.78125 27.484375 56.78125 20.515625 
Q 56.78125 9.90625 50.3125 4.234375 
Q 43.84375 -1.421875 31.78125 -1.421875 
Q 19.734375 -1.421875 13.25 4.234375 
Q 6.78125 9.90625 6.78125 20.515625 
Q 6.78125 27.484375 10.78125 32.3125 
Q 14.796875 37.15625 21.921875 38.8125 
z
M 18.3125 54.390625 
Q 18.3125 48.734375 21.84375 45.5625 
Q 25.390625 42.390625 31.78125 42.390625 
Q 38.140625 42.390625 41.71875 45.5625 
Q 45.3125 48.734375 45.3125 54.390625 
Q 45.3125 60.0625 41.71875 63.234375 
Q 38.140625 66.40625 31.78125 66.40625 
Q 25.390625 66.40625 21.84375 63.234375 
Q 18.3125 60.0625 18.3125 54.390625 
z
" id="DejaVuSans-56"/>
       </defs>
       <use xlink:href="#DejaVuSans-50"/>
       <use x="63.623047" xlink:href="#DejaVuSans-48"/>
       <use x="127.246094" xlink:href="#DejaVuSans-49"/>
       <use x="190.869141" xlink:href="#DejaVuSans-56"/>
      </g>
     </g>
    </g>
    <g id="xtick_6">
     <g id="line2d_6">
      <g>
       <use style="stroke:#000000;stroke-width:0.8;" x="362.941762" xlink:href="#ma37551d91d" y="276.48"/>
      </g>
     </g>
     <g id="text_6">
      <!-- 2020 -->
      <g transform="translate(339.861572 302.78544)rotate(-30)scale(0.1 -0.1)">
       <use xlink:href="#DejaVuSans-50"/>
       <use x="63.623047" xlink:href="#DejaVuSans-48"/>
       <use x="127.246094" xlink:href="#DejaVuSans-50"/>
       <use x="190.869141" xlink:href="#DejaVuSans-48"/>
      </g>
     </g>
    </g>
    <g id="text_7">
     <!-- Date -->
     <g transform="translate(224.209219 316.18494)scale(0.1 -0.1)">
      <defs>
       <path d="M 19.671875 64.796875 
L 19.671875 8.109375 
L 31.59375 8.109375 
Q 46.6875 8.109375 53.6875 14.9375 
Q 60.6875 21.78125 60.6875 36.53125 
Q 60.6875 51.171875 53.6875 57.984375 
Q 46.6875 64.796875 31.59375 64.796875 
z
M 9.8125 72.90625 
L 30.078125 72.90625 
Q 51.265625 72.90625 61.171875 64.09375 
Q 71.09375 55.28125 71.09375 36.53125 
Q 71.09375 17.671875 61.125 8.828125 
Q 51.171875 0 30.078125 0 
L 9.8125 0 
z
" id="DejaVuSans-68"/>
       <path d="M 34.28125 27.484375 
Q 23.390625 27.484375 19.1875 25 
Q 14.984375 22.515625 14.984375 16.5 
Q 14.984375 11.71875 18.140625 8.90625 
Q 21.296875 6.109375 26.703125 6.109375 
Q 34.1875 6.109375 38.703125 11.40625 
Q 43.21875 16.703125 43.21875 25.484375 
L 43.21875 27.484375 
z
M 52.203125 31.203125 
L 52.203125 0 
L 43.21875 0 
L 43.21875 8.296875 
Q 40.140625 3.328125 35.546875 0.953125 
Q 30.953125 -1.421875 24.3125 -1.421875 
Q 15.921875 -1.421875 10.953125 3.296875 
Q 6 8.015625 6 15.921875 
Q 6 25.140625 12.171875 29.828125 
Q 18.359375 34.515625 30.609375 34.515625 
L 43.21875 34.515625 
L 43.21875 35.40625 
Q 43.21875 41.609375 39.140625 45 
Q 35.0625 48.390625 27.6875 48.390625 
Q 23 48.390625 18.546875 47.265625 
Q 14.109375 46.140625 10.015625 43.890625 
L 10.015625 52.203125 
Q 14.9375 54.109375 19.578125 55.046875 
Q 24.21875 56 28.609375 56 
Q 40.484375 56 46.34375 49.84375 
Q 52.203125 43.703125 52.203125 31.203125 
z
" id="DejaVuSans-97"/>
       <path d="M 18.3125 70.21875 
L 18.3125 54.6875 
L 36.8125 54.6875 
L 36.8125 47.703125 
L 18.3125 47.703125 
L 18.3125 18.015625 
Q 18.3125 11.328125 20.140625 9.421875 
Q 21.96875 7.515625 27.59375 7.515625 
L 36.8125 7.515625 
L 36.8125 0 
L 27.59375 0 
Q 17.1875 0 13.234375 3.875 
Q 9.28125 7.765625 9.28125 18.015625 
L 9.28125 47.703125 
L 2.6875 47.703125 
L 2.6875 54.6875 
L 9.28125 54.6875 
L 9.28125 70.21875 
z
" id="DejaVuSans-116"/>
       <path d="M 56.203125 29.59375 
L 56.203125 25.203125 
L 14.890625 25.203125 
Q 15.484375 15.921875 20.484375 11.0625 
Q 25.484375 6.203125 34.421875 6.203125 
Q 39.59375 6.203125 44.453125 7.46875 
Q 49.3125 8.734375 54.109375 11.28125 
L 54.109375 2.78125 
Q 49.265625 0.734375 44.1875 -0.34375 
Q 39.109375 -1.421875 33.890625 -1.421875 
Q 20.796875 -1.421875 13.15625 6.1875 
Q 5.515625 13.8125 5.515625 26.8125 
Q 5.515625 40.234375 12.765625 48.109375 
Q 20.015625 56 32.328125 56 
Q 43.359375 56 49.78125 48.890625 
Q 56.203125 41.796875 56.203125 29.59375 
z
M 47.21875 32.234375 
Q 47.125 39.59375 43.09375 43.984375 
Q 39.0625 48.390625 32.421875 48.390625 
Q 24.90625 48.390625 20.390625 44.140625 
Q 15.875 39.890625 15.1875 32.171875 
z
" id="DejaVuSans-101"/>
      </defs>
      <use xlink:href="#DejaVuSans-68"/>
      <use x="77.001953" xlink:href="#DejaVuSans-97"/>
      <use x="138.28125" xlink:href="#DejaVuSans-116"/>
      <use x="177.490234" xlink:href="#DejaVuSans-101"/>
     </g>
    </g>
   </g>
   <g id="matplotlib.axis_2">
    <g id="ytick_1">
     <g id="line2d_7">
      <defs>
       <path d="M 0 0 
L -3.5 0 
" id="m9277e18798" style="stroke:#000000;stroke-width:0.8;"/>
      </defs>
      <g>
       <use style="stroke:#000000;stroke-width:0.8;" x="57.6" xlink:href="#m9277e18798" y="266.565054"/>
      </g>
     </g>
     <g id="text_8">
      <!-- 0 -->
      <g transform="translate(44.2375 270.364273)scale(0.1 -0.1)">
       <use xlink:href="#DejaVuSans-48"/>
      </g>
     </g>
    </g>
    <g id="ytick_2">
     <g id="line2d_8">
      <g>
       <use style="stroke:#000000;stroke-width:0.8;" x="57.6" xlink:href="#m9277e18798" y="218.005821"/>
      </g>
     </g>
     <g id="text_9">
      <!-- 200 -->
      <g transform="translate(31.5125 221.80504)scale(0.1 -0.1)">
       <use xlink:href="#DejaVuSans-50"/>
       <use x="63.623047" xlink:href="#DejaVuSans-48"/>
       <use x="127.246094" xlink:href="#DejaVuSans-48"/>
      </g>
     </g>
    </g>
    <g id="ytick_3">
     <g id="line2d_9">
      <g>
       <use style="stroke:#000000;stroke-width:0.8;" x="57.6" xlink:href="#m9277e18798" y="169.446588"/>
      </g>
     </g>
     <g id="text_10">
      <!-- 400 -->
      <g transform="translate(31.5125 173.245807)scale(0.1 -0.1)">
       <use xlink:href="#DejaVuSans-52"/>
       <use x="63.623047" xlink:href="#DejaVuSans-48"/>
       <use x="127.246094" xlink:href="#DejaVuSans-48"/>
      </g>
     </g>
    </g>
    <g id="ytick_4">
     <g id="line2d_10">
      <g>
       <use style="stroke:#000000;stroke-width:0.8;" x="57.6" xlink:href="#m9277e18798" y="120.887355"/>
      </g>
     </g>
     <g id="text_11">
      <!-- 600 -->
      <g transform="translate(31.5125 124.686574)scale(0.1 -0.1)">
       <use xlink:href="#DejaVuSans-54"/>
       <use x="63.623047" xlink:href="#DejaVuSans-48"/>
       <use x="127.246094" xlink:href="#DejaVuSans-48"/>
      </g>
     </g>
    </g>
    <g id="ytick_5">
     <g id="line2d_11">
      <g>
       <use style="stroke:#000000;stroke-width:0.8;" x="57.6" xlink:href="#m9277e18798" y="72.328122"/>
      </g>
     </g>
     <g id="text_12">
      <!-- 800 -->
      <g transform="translate(31.5125 76.127341)scale(0.1 -0.1)">
       <use xlink:href="#DejaVuSans-56"/>
       <use x="63.623047" xlink:href="#DejaVuSans-48"/>
       <use x="127.246094" xlink:href="#DejaVuSans-48"/>
      </g>
     </g>
    </g>
   </g>
   <g id="line2d_12">
    <path clip-path="url(#pda387a0ded)" d="M 73.832727 265.404974 
L 73.999217 265.498693 
L 74.082462 265.632717 
L 74.498685 265.797818 
L 74.665175 265.720123 
L 74.998154 265.68419 
L 75.247888 265.562791 
L 75.580867 265.579302 
L 76.663049 265.549195 
L 76.829538 265.532685 
L 77.245762 265.613293 
L 77.578741 265.675449 
L 79.82635 265.559392 
L 80.159329 265.558907 
L 80.492308 265.582701 
L 80.908531 265.600182 
L 81.324755 265.568133 
L 81.491245 265.497722 
L 81.657734 265.564734 
L 82.823161 265.567647 
L 83.905343 265.536084 
L 84.238322 265.525401 
L 84.404811 265.50792 
L 84.571301 265.378266 
L 84.90428 265.36904 
L 84.987524 265.139355 
L 85.070769 265.203453 
L 85.154014 265.116047 
L 86.735664 264.897044 
L 86.902154 265.035924 
L 87.235133 265.032525 
L 87.484867 265.034467 
L 88.06758 265.042237 
L 88.567049 265.103907 
L 88.983273 265.282605 
L 89.149762 265.278234 
L 90.315189 265.291831 
L 90.981147 265.446249 
L 91.480615 265.354958 
L 91.56386 265.399147 
L 93.312 265.439451 
L 93.811469 265.471015 
L 93.894713 265.418571 
L 95.309874 265.436052 
L 96.142322 265.480726 
L 96.64179 265.413715 
L 96.725035 265.217535 
L 96.80828 265.270465 
L 97.890462 265.344275 
L 98.473175 265.26658 
L 99.721846 265.248128 
L 100.304559 265.227247 
L 100.720783 265.285518 
L 100.887273 265.206852 
L 101.220252 265.267551 
L 101.386741 265.133528 
L 102.385678 265.187429 
L 102.552168 265.223848 
L 103.051636 265.238416 
L 103.218126 265.278234 
L 103.800839 265.226276 
L 104.799776 265.158779 
L 104.966266 265.166063 
L 106.048448 265.171404 
L 106.131692 265.142754 
L 107.796587 265.336505 
L 107.879832 265.287461 
L 108.379301 265.387007 
L 108.462545 265.482183 
L 109.045259 265.412743 
L 109.544727 265.399632 
L 109.627972 265.444793 
L 110.710154 265.359814 
L 110.793399 265.312226 
L 112.541538 265.25444 
L 113.124252 265.202968 
L 113.706965 265.203939 
L 115.788084 264.917439 
L 115.954573 264.929579 
L 116.287552 265.022813 
L 116.870266 264.983965 
L 117.12 264.982023 
L 117.536224 264.871794 
L 117.619469 264.904814 
L 117.785958 265.057775 
L 120.116811 265.258325 
L 120.61628 265.193256 
L 120.699524 265.458389 
L 121.198993 265.265609 
L 121.698462 265.206852 
L 121.864951 265.140812 
L 123.280112 265.035924 
L 123.529846 264.905299 
L 123.613091 264.866938 
L 125.361231 264.878106 
L 125.860699 264.865481 
L 126.360168 264.858197 
L 126.526657 264.910155 
L 126.942881 264.727087 
L 127.359105 264.788757 
L 127.44235 264.719318 
L 127.608839 264.890732 
L 128.607776 264.999504 
L 128.85751 264.95483 
L 129.273734 264.96697 
L 129.440224 264.946089 
L 130.272671 264.988336 
L 130.439161 265.105364 
L 130.60565 264.999019 
L 131.188364 265.226762 
L 132.187301 265.088368 
L 132.603524 265.211223 
L 133.519217 265.112647 
L 134.10193 264.924238 
L 135.68358 265.034953 
L 136.099804 264.818864 
L 136.349538 264.998048 
L 137.59821 265.240844 
L 138.763636 265.107791 
L 140.428531 265.178688 
L 140.511776 265.139841 
L 140.928 265.191799 
L 141.344224 264.984937 
L 141.677203 265.107306 
L 141.926937 265.076228 
L 142.093427 265.227733 
L 142.259916 265.14324 
L 145.173483 265.160721 
L 145.589706 265.033496 
L 146.255664 265.068459 
L 146.588643 264.966484 
L 149.751944 264.929094 
L 150.084923 264.920353 
L 150.417902 264.894616 
L 151.999552 264.816922 
L 152.166042 264.769334 
L 152.748755 264.705235 
L 153.664448 264.725145 
L 153.830937 264.706692 
L 153.914182 264.76642 
L 154.330406 264.693581 
L 154.41365 264.857711 
L 154.496895 264.81158 
L 154.996364 264.873736 
L 155.329343 264.837317 
L 155.662322 264.69698 
L 156.078545 264.672215 
L 156.245035 264.851399 
L 156.827748 264.786815 
L 157.327217 264.725145 
L 157.743441 264.411938 
L 157.826685 264.56927 
L 157.90993 264.525081 
L 158.326154 264.598405 
L 158.575888 264.440588 
L 158.825622 264.462439 
L 159.075357 264.284227 
L 159.65807 264.039974 
L 159.741315 264.078821 
L 160.074294 263.943341 
L 160.240783 263.937514 
L 160.324028 263.916148 
L 160.573762 263.67578 
L 160.740252 263.855934 
L 160.906741 262.837647 
L 161.156476 262.301554 
L 161.23972 262.522983 
L 161.322965 262.445289 
L 161.40621 262.085465 
L 161.489455 262.121884 
L 161.905678 262.328747 
L 162.072168 261.850924 
L 162.405147 261.207514 
L 162.654881 261.817903 
L 162.904615 262.068955 
L 163.237594 261.61007 
L 163.487329 261.706703 
L 163.570573 261.977664 
L 163.820308 261.694563 
L 164.236531 261.481873 
L 164.403021 261.730982 
L 164.736 261.592589 
L 164.90249 261.259958 
L 164.985734 261.351735 
L 165.318713 260.843805 
L 165.401958 260.969088 
L 165.568448 260.733576 
L 165.984671 260.627717 
L 166.151161 260.25721 
L 166.400895 260.385406 
L 166.48414 261.26967 
L 166.567385 260.725807 
L 166.650629 260.785049 
L 167.233343 260.54031 
L 167.316587 260.281975 
L 167.566322 260.02801 
L 167.649566 260.167861 
L 168.149035 259.539504 
L 168.23228 259.662359 
L 168.315524 260.046948 
L 168.398769 259.112183 
L 168.482014 259.135491 
L 168.814993 259.503085 
L 168.981483 259.782786 
L 169.064727 259.669643 
L 169.314462 259.528821 
L 169.647441 258.706228 
L 170.729622 258.313384 
L 171.062601 258.761586 
L 171.145846 258.486255 
L 171.229091 258.624649 
L 171.312336 258.55618 
L 171.811804 258.493539 
L 171.978294 257.659776 
L 172.311273 257.711249 
L 172.561007 257.295096 
L 172.893986 257.193123 
L 173.060476 258.149254 
L 173.14372 257.776804 
L 173.393455 257.675316 
L 173.559944 258.369226 
L 173.726434 257.887519 
L 173.976168 257.837989 
L 174.142657 257.651521 
L 174.309147 257.659291 
L 174.725371 258.57706 
L 174.808615 258.157023 
L 175.141594 258.656698 
L 175.224839 258.578517 
L 175.308084 258.833453 
L 175.391329 258.79849 
L 175.474573 258.690204 
L 175.807552 257.979296 
L 175.974042 259.77793 
L 176.057287 259.866308 
L 176.307021 259.538533 
L 176.390266 259.873592 
L 176.47351 259.829888 
L 176.64 259.987706 
L 176.889734 260.661223 
L 176.972979 260.44222 
L 177.056224 260.684045 
L 177.139469 260.635972 
L 177.555692 260.713666 
L 177.638937 260.400945 
L 177.805427 260.384435 
L 178.055161 260.535454 
L 178.138406 259.538533 
L 178.22165 259.817748 
L 178.304895 259.743453 
L 178.38814 259.894958 
L 178.721119 259.660417 
L 178.804364 259.783757 
L 178.970853 259.395283 
L 179.220587 259.381201 
L 179.303832 259.161713 
L 179.470322 259.731799 
L 179.553566 259.609429 
L 179.803301 259.594376 
L 179.886545 259.212701 
L 180.053035 259.014093 
L 180.13628 259.226783 
L 180.386014 259.162684 
L 180.469259 259.260289 
L 180.718993 259.302535 
L 180.968727 259.426847 
L 181.135217 259.219013 
L 181.301706 259.489003 
L 181.551441 259.798811 
L 181.71793 258.595027 
L 181.801175 258.262882 
L 181.88442 258.309499 
L 182.383888 257.751554 
L 182.467133 258.086612 
L 182.716867 258.328437 
L 182.800112 257.903058 
L 182.883357 258.056019 
L 182.966601 257.686484 
L 183.049846 257.755923 
L 183.29958 257.964728 
L 183.382825 257.886063 
L 183.46607 258.095353 
L 183.965538 257.017337 
L 184.048783 257.080465 
L 184.132028 256.871175 
L 184.215273 256.939157 
L 184.548252 256.673538 
L 184.631497 257.162044 
L 184.714741 256.369072 
L 184.797986 256.387039 
L 185.04772 255.996137 
L 185.21421 254.279569 
L 185.297455 254.301906 
L 185.380699 254.677268 
L 185.880168 254.282481 
L 185.963413 254.609285 
L 186.296392 255.182284 
L 186.379636 254.838485 
L 186.546126 255.349328 
L 186.79586 255.203164 
L 186.879105 254.908896 
L 187.378573 255.873768 
L 187.461818 255.860656 
L 187.628308 256.497754 
L 187.711552 256.25253 
L 187.961287 256.442882 
L 188.127776 255.382349 
L 188.211021 255.619802 
L 188.294266 256.259328 
L 188.544 256.488042 
L 188.71049 256.031099 
L 188.876979 256.669653 
L 189.209958 257.148933 
L 189.293203 256.896425 
L 189.376448 256.944499 
L 189.709427 256.640518 
L 189.792671 255.948063 
L 190.042406 256.860491 
L 190.29214 256.925561 
L 190.458629 256.470075 
L 190.541874 256.477844 
L 190.874853 256.046639 
L 191.124587 257.892861 
L 191.207832 257.714648 
L 191.457566 257.597621 
L 191.624056 257.308693 
L 191.707301 257.407269 
L 192.04028 257.043074 
L 192.123524 257.081436 
L 192.373259 256.498725 
L 192.789483 256.355961 
L 192.872727 256.355961 
L 192.955972 256.475902 
L 193.372196 256.659456 
L 193.538685 256.456479 
L 194.038154 256.682279 
L 194.121399 256.541457 
L 194.454378 255.315337 
L 194.537622 255.536281 
L 194.620867 255.503747 
L 194.953846 255.045833 
L 195.037091 255.275032 
L 195.120336 255.061858 
L 195.20358 255.124499 
L 195.286825 254.956484 
L 195.619804 254.924435 
L 195.786294 255.43285 
L 196.202517 255.927183 
L 196.285762 255.733432 
L 196.452252 255.972829 
L 196.701986 255.556676 
L 196.868476 256.019931 
L 196.95172 256.105395 
L 197.034965 255.881051 
L 197.451189 255.76111 
L 197.617678 255.708666 
L 197.950657 255.638741 
L 198.033902 255.448874 
L 198.117147 255.721777 
L 198.200392 255.237642 
L 198.533371 254.984162 
L 198.69986 254.309189 
L 198.783105 254.516052 
L 199.116084 253.941596 
L 199.615552 253.942567 
L 199.865287 254.214499 
L 200.198266 253.815828 
L 200.364755 253.781835 
L 200.448 253.752215 
L 200.531245 253.468629 
L 200.864224 252.768405 
L 200.947469 252.910684 
L 201.030713 252.675171 
L 201.113958 253.095208 
L 201.363692 252.866009 
L 201.446937 253.042279 
L 201.613427 252.953415 
L 201.696671 253.007316 
L 201.946406 254.237807 
L 202.112895 253.872641 
L 202.19614 253.754157 
L 202.529119 254.423789 
L 202.695608 254.321329 
L 202.862098 254.590347 
L 203.195077 254.7807 
L 203.278322 254.899184 
L 203.444811 254.172252 
L 203.77779 253.960534 
L 203.94428 254.084846 
L 204.027524 255.060886 
L 204.277259 255.659136 
L 204.443748 255.410998 
L 204.526993 255.573672 
L 204.610238 255.5188 
L 204.859972 255.373607 
L 204.943217 255.137124 
L 205.026462 255.343015 
L 205.192951 255.14198 
L 205.442685 255.800929 
L 205.52593 254.776329 
L 205.609175 255.003101 
L 205.69242 254.975908 
L 205.775664 254.828287 
L 206.025399 254.785069 
L 206.191888 255.349328 
L 206.275133 254.851596 
L 206.358378 254.901126 
L 206.608112 254.817118 
L 206.691357 254.372802 
L 206.774601 254.468949 
L 206.857846 254.342695 
L 206.941091 254.003752 
L 207.190825 254.23198 
L 207.27407 254.051339 
L 207.357315 254.53499 
L 207.440559 254.487887 
L 207.523804 254.775843 
L 207.940028 254.500998 
L 208.106517 254.691351 
L 208.439497 255.326991 
L 208.689231 255.701868 
L 208.938965 256.155896 
L 209.02221 256.033042 
L 209.188699 256.422001 
L 209.604923 256.959552 
L 209.854657 255.916499 
L 210.104392 255.755769 
L 210.270881 255.772279 
L 210.437371 255.50229 
L 210.687105 255.60475 
L 210.853594 255.764996 
L 211.020084 255.915529 
L 211.269818 256.363244 
L 211.353063 256.305459 
L 211.519552 256.337508 
L 211.602797 256.529803 
L 211.852531 256.745891 
L 211.935776 256.646831 
L 212.102266 257.247994 
L 212.18551 257.189723 
L 212.51849 257.24508 
L 212.768224 256.790566 
L 213.101203 256.562823 
L 213.184448 256.8838 
L 213.267692 256.600699 
L 213.350937 256.678394 
L 213.600671 256.321969 
L 213.767161 255.952434 
L 213.850406 255.833949 
L 213.93365 256.010219 
L 214.266629 256.062178 
L 214.349874 256.231649 
L 214.433119 256.713357 
L 214.516364 256.670139 
L 214.932587 256.636634 
L 215.099077 256.022359 
L 215.515301 256.670625 
L 215.598545 256.504067 
L 215.931524 256.982861 
L 216.098014 256.734723 
L 216.181259 256.822615 
L 216.264503 257.15039 
L 216.597483 257.323261 
L 216.680727 257.157188 
L 216.847217 257.402898 
L 217.263441 256.818731 
L 217.346685 257.06444 
L 217.42993 256.946441 
L 217.762909 256.769685 
L 218.012643 257.581596 
L 218.262378 257.311122 
L 218.428867 257.455827 
L 219.094825 256.363244 
L 219.17807 256.323912 
L 220.010517 256.5973 
L 220.593231 255.321163 
L 220.676476 255.373122 
L 220.75972 255.27746 
L 220.92621 255.58921 
L 221.259189 255.253181 
L 221.342434 255.37555 
L 221.508923 255.075454 
L 221.758657 254.935604 
L 221.841902 254.680667 
L 221.925147 254.756419 
L 222.008392 254.711745 
L 222.091636 254.481574 
L 222.424615 254.564125 
L 222.50786 254.699606 
L 222.591105 254.637935 
L 222.67435 254.535475 
L 223.090573 254.550043 
L 223.257063 254.386398 
L 223.839776 254.467007 
L 224.172755 254.13389 
L 224.256 254.391255 
L 224.339245 254.356777 
L 224.672224 254.406793 
L 224.755469 254.273741 
L 224.921958 253.847877 
L 225.005203 253.81777 
L 225.254937 253.949851 
L 225.338182 253.567204 
L 225.421427 253.688602 
L 225.504671 253.512818 
L 225.587916 253.595369 
L 225.83765 253.841564 
L 226.087385 252.967497 
L 226.420364 252.982065 
L 226.586853 254.184392 
L 226.670098 254.040657 
L 227.252811 253.615278 
L 227.336056 253.227775 
L 227.58579 252.858725 
L 227.669035 253.610907 
L 227.75228 253.557492 
L 227.918769 253.676948 
L 228.168503 254.279082 
L 228.251748 253.705598 
L 228.334993 253.754157 
L 228.501483 253.641014 
L 228.751217 253.940139 
L 228.917706 253.447748 
L 229.084196 254.788955 
L 229.33393 254.85548 
L 229.417175 255.038549 
L 229.50042 254.999702 
L 229.999888 253.904691 
L 230.166378 254.804979 
L 230.249622 255.35904 
L 230.499357 255.936895 
L 230.582601 255.880566 
L 230.665846 255.646996 
L 230.832336 254.499056 
L 231.08207 254.470891 
L 231.165315 254.977364 
L 231.248559 254.537418 
L 231.331804 254.640364 
L 231.415049 254.817118 
L 231.997762 254.413592 
L 232.330741 254.251889 
L 232.497231 253.839136 
L 232.580476 253.909546 
L 232.83021 253.735705 
L 232.996699 253.88818 
L 233.079944 253.788148 
L 233.163189 254.089701 
L 233.496168 254.587919 
L 233.579413 254.502941 
L 233.662657 254.916665 
L 233.745902 254.543245 
L 233.995636 254.612199 
L 234.245371 255.555704 
L 234.328615 255.848517 
L 234.57835 256.096654 
L 234.661594 255.918443 
L 234.744839 256.033528 
L 234.911329 255.541623 
L 235.161063 255.488693 
L 235.327552 256.363244 
L 235.410797 256.284093 
L 235.494042 256.411804 
L 235.743776 256.112194 
L 235.827021 256.350619 
L 235.910266 256.22388 
L 235.99351 256.288464 
L 236.076755 256.516691 
L 236.32649 256.183576 
L 236.409734 256.447738 
L 236.576224 255.310481 
L 236.659469 255.281831 
L 236.909203 255.623202 
L 236.992448 256.05198 
L 237.075692 255.926697 
L 237.242182 256.504067 
L 237.74165 255.794616 
L 237.824895 255.881537 
L 238.157874 255.967001 
L 238.241119 255.413912 
L 238.407608 255.31825 
L 238.657343 255.383806 
L 238.740587 255.04729 
L 238.823832 255.299798 
L 238.907077 255.264835 
L 238.990322 255.377978 
L 239.240056 255.341558 
L 239.406545 255.662535 
L 239.48979 255.538709 
L 239.573035 256.02673 
L 239.906014 255.829093 
L 239.989259 255.177428 
L 240.072503 255.231814 
L 240.155748 255.374093 
L 240.405483 255.272119 
L 240.571972 255.410998 
L 240.655217 255.368752 
L 240.988196 255.447417 
L 241.154685 255.003586 
L 241.23793 254.910353 
L 241.903888 256.319056 
L 242.153622 256.472017 
L 242.236867 256.369072 
L 242.320112 256.838154 
L 242.403357 256.553111 
L 242.486601 256.610897 
L 242.81958 256.624008 
L 242.902825 256.916334 
L 242.98607 256.854664 
L 243.069315 256.729382 
L 243.402294 257.165928 
L 243.485538 257.43252 
L 243.568783 257.353368 
L 243.901762 257.001799 
L 244.068252 258.140999 
L 244.151497 258.051163 
L 244.234741 258.669323 
L 244.650965 259.588549 
L 244.817455 259.230668 
L 245.150434 259.030118 
L 245.233678 258.374083 
L 245.316923 258.466831 
L 245.400168 258.476057 
L 245.733147 257.959872 
L 245.816392 257.872952 
L 245.982881 257.322289 
L 246.232615 257.24508 
L 246.31586 257.516041 
L 246.399105 257.419408 
L 246.565594 256.802706 
L 246.815329 256.596329 
L 246.898573 256.726953 
L 246.981818 256.429771 
L 247.065063 256.601671 
L 247.564531 255.788303 
L 247.980755 254.992417 
L 248.064 255.190539 
L 248.147245 255.75674 
L 248.23049 255.505689 
L 248.646713 255.390118 
L 248.729958 255.54745 
L 248.813203 255.407599 
L 248.896448 255.027865 
L 249.146182 254.571409 
L 249.312671 253.676462 
L 249.479161 254.421847 
L 249.81214 254.531105 
L 249.895385 254.205273 
L 249.978629 254.334925 
L 250.061874 254.206244 
L 250.311608 254.236836 
L 250.394853 254.552957 
L 250.478098 254.426703 
L 250.561343 254.508282 
L 250.644587 254.243149 
L 250.894322 254.336868 
L 250.977566 254.243634 
L 251.144056 254.536446 
L 251.227301 254.873933 
L 251.477035 254.823431 
L 251.726769 256.293319 
L 251.810014 256.128218 
L 252.142993 256.431228 
L 252.642462 256.450651 
L 252.725706 256.626922 
L 252.975441 255.868426 
L 253.225175 256.065577 
L 253.391664 255.902418 
L 253.474909 255.6334 
L 253.558154 255.734402 
L 253.891133 255.725176 
L 254.057622 255.932524 
L 254.390601 255.849002 
L 254.557091 255.128383 
L 254.72358 255.94078 
L 254.973315 255.985454 
L 255.056559 256.126761 
L 255.223049 255.982541 
L 255.306294 256.101996 
L 255.639273 255.900961 
L 255.805762 257.028021 
L 255.889007 257.185838 
L 256.221986 256.766286 
L 256.47172 256.05198 
L 256.887944 256.152012 
L 257.387413 255.656222 
L 257.470657 255.759168 
L 257.637147 255.862599 
L 258.053371 255.476067 
L 258.136615 255.857744 
L 258.21986 255.771794 
L 258.552839 255.420224 
L 258.636084 255.469754 
L 258.802573 255.163832 
L 259.218797 255.600865 
L 259.385287 255.394973 
L 259.635021 255.582898 
L 259.718266 255.441104 
L 259.884755 255.643597 
L 260.217734 255.610577 
L 260.384224 255.724691 
L 260.883692 255.646996 
L 261.466406 256.302545 
L 261.54965 256.270011 
L 261.71614 256.961009 
L 262.132364 256.770171 
L 262.298853 257.12174 
L 262.548587 256.935758 
L 262.715077 257.027535 
L 262.881566 256.590987 
L 263.714014 256.41666 
L 263.963748 256.819216 
L 264.296727 256.187945 
L 264.463217 256.442396 
L 264.629706 257.017823 
L 265.04593 256.779883 
L 265.462154 257.146505 
L 265.628643 256.680336 
L 265.711888 256.896911 
L 265.795133 256.848837 
L 266.294601 256.658485 
L 266.377846 256.854664 
L 266.62758 256.963437 
L 266.79407 257.434947 
L 266.877315 257.464082 
L 266.960559 257.311607 
L 267.293538 257.098917 
L 267.460028 257.5646 
L 267.543273 257.408725 
L 267.793007 257.753981 
L 268.042741 257.40387 
L 268.125986 257.580624 
L 268.37572 257.604905 
L 268.54221 257.186324 
L 268.708699 257.01588 
L 268.958434 257.041618 
L 269.208168 257.733101 
L 269.291413 257.75301 
L 269.874126 257.23294 
L 270.12386 257.220801 
L 270.29035 256.91682 
L 270.373594 256.970721 
L 270.456839 256.732295 
L 270.706573 256.72064 
L 270.789818 256.426372 
L 270.873063 256.479301 
L 270.956308 256.442882 
L 271.039552 256.205428 
L 271.455776 255.894648 
L 271.622266 256.188432 
L 271.955245 256.028186 
L 272.121734 255.554248 
L 272.204979 255.444505 
L 272.537958 255.402743 
L 272.704448 255.41634 
L 272.787692 255.020097 
L 273.120671 255.12547 
L 273.786629 254.208186 
L 273.953119 254.281996 
L 274.369343 254.462151 
L 274.785566 254.04794 
L 274.868811 254.062023 
L 275.36828 252.939334 
L 275.534769 252.980123 
L 275.618014 253.505048 
L 275.701259 253.345774 
L 276.034238 253.095208 
L 276.117483 253.283618 
L 276.200727 254.134376 
L 276.283972 254.085331 
L 276.533706 254.608315 
L 276.700196 254.424274 
L 277.11642 254.366489 
L 277.449399 254.731655 
L 277.699133 254.611227 
L 277.782378 254.036772 
L 277.865622 254.147001 
L 277.948867 253.840107 
L 278.032112 253.866815 
L 278.281846 253.84642 
L 278.365091 254.392225 
L 278.614825 253.786206 
L 278.864559 253.443378 
L 279.031049 253.095694 
L 279.197538 253.051019 
L 279.530517 251.817614 
L 279.613762 252.24008 
L 280.029986 251.395635 
L 280.113231 251.574333 
L 280.196476 252.150731 
L 280.27972 251.803047 
L 280.695944 251.985145 
L 280.779189 251.729237 
L 280.862434 251.875401 
L 280.945678 251.725353 
L 281.195413 251.607354 
L 281.278657 251.327653 
L 281.445147 251.578217 
L 281.778126 250.888676 
L 281.944615 251.462162 
L 282.02786 252.217743 
L 282.111105 251.591815 
L 282.360839 251.648143 
L 282.527329 250.772621 
L 282.610573 250.875565 
L 282.693818 250.79253 
L 283.110042 251.700587 
L 283.193287 251.363101 
L 283.276531 251.471388 
L 283.526266 251.494696 
L 283.60951 251.809846 
L 283.859245 250.776505 
L 284.774937 249.430929 
L 284.941427 248.598138 
L 285.024671 249.21387 
L 285.274406 249.131803 
L 285.440895 248.080495 
L 285.607385 248.530155 
L 285.857119 248.60785 
L 286.023608 248.287359 
L 286.190098 247.945016 
L 286.439832 248.234429 
L 286.523077 248.968645 
L 286.606322 248.537924 
L 286.689566 249.04731 
L 286.772811 249.00555 
L 287.022545 249.442097 
L 287.27228 251.568506 
L 287.355524 251.355331 
L 287.605259 251.217909 
L 287.771748 250.563816 
L 287.854993 250.860513 
L 287.938238 250.648309 
L 288.187972 251.04698 
L 288.271217 250.625971 
L 288.354462 250.770677 
L 288.770685 249.932546 
L 288.85393 250.074339 
L 288.937175 249.867962 
L 289.02042 250.323933 
L 289.103664 250.294312 
L 289.436643 251.04698 
L 289.519888 250.740085 
L 289.686378 249.233777 
L 289.936112 249.318272 
L 290.019357 248.830251 
L 290.102601 248.912316 
L 290.185846 249.307102 
L 290.269091 249.187162 
L 290.60207 248.970586 
L 290.685315 248.942423 
L 290.851804 249.692664 
L 291.101538 250.158832 
L 291.184783 249.989361 
L 291.351273 249.427044 
L 291.434517 249.664013 
L 291.767497 249.697519 
L 291.933986 249.282823 
L 292.017231 249.307102 
L 292.35021 249.589232 
L 292.433455 249.834942 
L 292.516699 249.539701 
L 292.599944 249.889813 
L 292.849678 248.904547 
L 292.932923 248.950192 
L 293.016168 248.781206 
L 293.182657 248.121772 
L 293.432392 247.869749 
L 293.765371 249.516392 
L 294.264839 250.074339 
L 294.348084 250.001499 
L 294.597818 249.980619 
L 294.847552 249.310501 
L 294.930797 249.235235 
L 295.180531 249.912151 
L 295.263776 249.297877 
L 295.347021 249.345951 
L 295.51351 249.298848 
L 295.763245 249.540186 
L 295.929734 249.100726 
L 296.096224 249.807263 
L 296.429203 250.184082 
L 296.512448 250.742514 
L 296.595692 250.726489 
L 296.678937 250.983852 
L 296.928671 251.022215 
L 297.011916 250.466212 
L 297.178406 252.033218 
L 297.26165 251.701559 
L 297.511385 251.862289 
L 297.594629 251.703501 
L 297.844364 251.852092 
L 298.094098 251.249471 
L 298.177343 251.574818 
L 298.427077 251.266468 
L 298.676811 251.572876 
L 298.760056 251.132444 
L 298.843301 251.385438 
L 299.00979 251.242188 
L 299.342769 251.14507 
L 299.426014 251.631148 
L 299.509259 251.567535 
L 299.592503 251.680192 
L 299.925483 251.817614 
L 300.008727 251.353389 
L 300.091972 251.451478 
L 300.424951 250.593437 
L 300.508196 250.004899 
L 300.591441 250.102017 
L 300.674685 250.157374 
L 300.75793 249.887385 
L 301.007664 250.109786 
L 301.174154 250.590038 
L 301.257399 250.459899 
L 301.340643 250.773591 
L 301.673622 251.157695 
L 301.756867 251.432055 
L 301.840112 251.251415 
L 301.923357 251.446137 
L 302.256336 251.000362 
L 302.422825 251.287348 
L 302.50607 251.192172 
L 302.755804 250.229243 
L 302.839049 250.361324 
L 302.922294 250.307423 
L 303.005538 250.154462 
L 303.088783 250.238468 
L 303.421762 250.052001 
L 303.505007 249.707231 
L 303.588252 249.832999 
L 303.671497 249.568352 
L 304.004476 249.433842 
L 304.170965 250.169515 
L 304.25421 249.916521 
L 304.503944 249.592146 
L 304.587189 249.7723 
L 304.670434 249.360032 
L 305.086657 250.388517 
L 305.169902 250.347727 
L 305.253147 249.812119 
L 305.419636 251.491297 
L 305.669371 251.233447 
L 305.919105 250.34287 
L 306.00235 250.273917 
L 306.418573 250.380261 
L 306.585063 249.469775 
L 306.834797 249.209013 
L 307.084531 250.495348 
L 307.167776 250.291883 
L 307.41751 250.377834 
L 307.500755 250.627914 
L 307.584 250.428821 
L 307.75049 250.67793 
L 308.000224 249.787354 
L 308.083469 249.965567 
L 308.249958 250.754167 
L 308.582937 251.33882 
L 308.666182 251.484984 
L 308.749427 251.1946 
L 308.915916 251.922503 
L 309.16565 251.794307 
L 309.33214 254.047455 
L 309.415385 253.641985 
L 309.748364 254.304819 
L 309.998098 251.719525 
L 310.081343 252.031275 
L 310.331077 252.499387 
L 310.414322 251.769056 
L 310.497566 251.952124 
L 310.580811 252.284754 
L 310.664056 251.980774 
L 310.997035 252.595049 
L 311.163524 251.9934 
L 311.246769 252.471222 
L 311.662993 252.934963 
L 311.829483 252.284754 
L 312.079217 252.293496 
L 312.245706 251.941441 
L 312.328951 252.75238 
L 312.412196 252.284269 
L 312.82842 251.664654 
L 312.994909 251.945811 
L 313.244643 252.387215 
L 313.327888 252.765491 
L 313.411133 252.653805 
L 313.494378 252.74801 
L 313.577622 253.122888 
L 313.827357 252.750438 
L 313.910601 253.21078 
L 313.993846 253.013629 
L 314.077091 253.072871 
L 314.493315 252.785886 
L 314.576559 252.399354 
L 314.659804 252.738784 
L 314.743049 252.394499 
L 314.992783 252.155587 
L 315.076028 252.428004 
L 315.159273 251.050379 
L 315.242517 251.215966 
L 315.325762 251.139728 
L 315.741986 249.822801 
L 315.908476 249.172593 
L 316.15821 248.557834 
L 316.241455 249.445496 
L 316.324699 248.975929 
L 316.491189 250.364238 
L 316.740923 250.394345 
L 316.990657 249.572722 
L 317.073902 249.911666 
L 317.323636 250.294312 
L 317.406881 251.469931 
L 317.656615 251.565107 
L 317.989594 250.906157 
L 318.156084 251.18586 
L 318.239329 251.080972 
L 318.489063 251.506836 
L 318.655552 250.839147 
L 319.155021 252.122081 
L 319.238266 251.572876 
L 319.32151 251.674365 
L 319.404755 252.134221 
L 319.65449 252.474621 
L 319.820979 251.956495 
L 319.904224 249.59166 
L 319.987469 249.658185 
L 320.237203 249.958281 
L 320.320448 248.133426 
L 320.403692 248.581627 
L 320.486937 249.450353 
L 320.570182 249.302732 
L 320.819916 249.258058 
L 321.06965 250.27586 
L 321.152895 251.730209 
L 321.402629 251.587444 
L 321.485874 250.933838 
L 321.569119 250.946462 
L 321.652364 251.021244 
L 321.735608 250.889162 
L 321.985343 251.061548 
L 322.235077 251.844322 
L 322.318322 251.916676 
L 322.651301 252.533863 
L 322.901035 253.782322 
L 323.150769 252.701394 
L 323.234014 252.995662 
L 323.317259 252.456654 
L 323.400503 252.509099 
L 323.483748 252.230368 
L 323.733483 252.24785 
L 323.816727 252.727615 
L 323.899972 252.044872 
L 323.983217 252.078378 
L 324.399441 251.94921 
L 324.482685 251.532087 
L 324.56593 251.632118 
L 324.649175 253.708026 
L 324.898909 251.477701 
L 325.481622 254.398053 
L 325.564867 253.803687 
L 325.731357 254.316959 
L 325.814601 253.998895 
L 326.064336 253.959563 
L 326.14758 253.134056 
L 326.230825 253.367626 
L 326.397315 253.939653 
L 326.647049 253.893522 
L 326.730294 252.281841 
L 326.813538 252.555715 
L 326.980028 250.496804 
L 327.229762 250.304995 
L 327.313007 250.545362 
L 327.562741 249.743651 
L 327.89572 250.003443 
L 328.06221 249.50134 
L 328.145455 249.544558 
L 328.395189 250.478352 
L 328.728168 249.360032 
L 328.977902 249.400822 
L 329.310881 250.742999 
L 329.560615 249.76356 
L 329.64386 249.864563 
L 329.727105 249.672754 
L 329.81035 249.9981 
L 329.893594 249.546014 
L 330.393063 248.935139 
L 330.476308 249.182305 
L 330.892531 248.763239 
L 330.975776 248.26842 
L 331.059021 248.806457 
L 331.475245 250.396286 
L 331.55849 251.250443 
L 331.641734 251.037268 
L 331.891469 252.221142 
L 332.057958 250.730373 
L 332.141203 251.214023 
L 332.224448 250.352582 
L 332.474182 250.404542 
L 332.723916 251.979803 
L 332.807161 251.138272 
L 333.306629 249.813575 
L 333.389874 249.702374 
L 333.639608 250.326847 
L 333.806098 249.761132 
L 333.889343 249.699947 
L 333.972587 251.88754 
L 334.305566 252.049728 
L 334.388811 252.599904 
L 334.472056 252.409553 
L 334.555301 252.141019 
L 334.88828 252.120624 
L 334.971524 251.571419 
L 335.054769 251.656399 
L 335.138014 251.404376 
L 335.387748 251.371356 
L 335.470993 250.960545 
L 335.720727 251.715641 
L 336.053706 251.4238 
L 336.220196 251.814215 
L 336.303441 251.614637 
L 336.63642 251.723411 
L 336.719664 251.872972 
L 336.802909 252.423149 
L 336.886154 252.254162 
L 337.219133 252.101201 
L 337.385622 251.031926 
L 337.468867 252.250278 
L 337.718601 252.708192 
L 337.885091 253.151051 
L 337.968336 253.134056 
L 338.05158 252.767434 
L 338.301315 252.438202 
L 338.384559 252.80531 
L 338.551049 252.484819 
L 338.634294 253.190385 
L 338.967273 253.576916 
L 339.133762 253.258853 
L 339.217007 253.719681 
L 339.466741 253.919259 
L 339.79972 252.975267 
L 340.049455 252.522695 
L 340.132699 252.682941 
L 340.215944 252.394984 
L 340.299189 253.561863 
L 340.382434 253.213207 
L 340.715413 253.341889 
L 340.798657 253.159792 
L 340.965147 253.565747 
L 341.214881 253.629845 
L 341.298126 253.290902 
L 341.381371 253.394334 
L 341.464615 253.295758 
L 341.964084 254.004723 
L 342.130573 255.146836 
L 342.380308 254.839456 
L 342.546797 255.201708 
L 342.713287 254.180993 
L 342.963021 254.165939 
L 343.12951 254.675812 
L 343.545734 255.541623 
L 343.712224 255.30174 
L 343.795469 255.477524 
L 343.878713 256.317599 
L 344.211692 256.606527 
L 344.294937 257.206233 
L 344.378182 257.07221 
L 344.461427 257.308208 
L 345.04414 257.573826 
L 345.293874 257.874408 
L 345.543608 256.56428 
L 345.626853 256.63469 
L 345.959832 256.022845 
L 346.043077 256.403549 
L 346.209566 256.128703 
L 346.542545 255.651852 
L 346.62579 255.569787 
L 346.709035 255.900475 
L 346.79228 255.791702 
L 347.042014 255.705267 
L 347.208503 255.917471 
L 347.374993 255.714008 
L 347.624727 255.533854 
L 347.707972 255.661078 
L 347.791217 255.15849 
L 348.290685 255.393517 
L 348.54042 254.664157 
L 348.956643 254.189248 
L 349.039888 254.253346 
L 349.123133 254.028031 
L 349.372867 254.149429 
L 349.539357 253.702684 
L 349.705846 255.491606 
L 350.12207 254.832658 
L 350.205315 255.209477 
L 350.288559 255.185683 
L 350.538294 255.47801 
L 350.788028 254.993389 
L 350.871273 255.153149 
L 351.121007 255.444505 
L 351.204252 255.153634 
L 351.370741 256.093742 
L 351.70372 255.550363 
L 351.786965 255.597465 
L 352.036699 256.299632 
L 352.452923 256.096169 
L 352.619413 255.609605 
L 352.952392 255.638741 
L 353.035636 255.849002 
L 353.118881 255.416825 
L 353.202126 255.520256 
L 353.535105 255.127412 
L 353.61835 254.566068 
L 353.701594 254.625795 
L 354.201063 254.741366 
L 354.284308 254.590347 
L 354.367552 254.880731 
L 354.617287 254.851111 
L 354.700531 255.726148 
L 354.783776 255.459557 
L 354.867021 254.786526 
L 354.950266 254.807407 
L 355.2 254.868592 
L 355.283245 254.683095 
L 355.36649 254.758848 
L 355.532979 255.326991 
L 356.115692 254.527706 
L 356.615161 253.843992 
L 356.698406 254.087759 
L 356.94814 254.255288 
L 357.114629 254.197988 
L 357.281119 250.631313 
L 357.530853 250.651708 
L 357.697343 251.26841 
L 357.863832 251.350961 
L 358.196811 251.161094 
L 358.446545 250.193794 
L 358.779524 249.572722 
L 358.862769 249.758218 
L 359.029259 249.463949 
L 359.278993 249.569808 
L 359.362238 249.107039 
L 359.611972 250.392887 
L 359.861706 250.232642 
L 359.944951 250.592952 
L 360.028196 250.477865 
L 360.194685 250.543421 
L 360.527664 250.23944 
L 360.694154 250.522541 
L 360.777399 250.254493 
L 361.027133 250.077738 
L 361.276867 249.09927 
L 361.360112 249.16191 
L 361.942825 246.869916 
L 362.442294 245.638937 
L 362.525538 245.666132 
L 362.775273 246.42754 
L 363.025007 245.671958 
L 363.108252 245.052829 
L 363.357986 244.638618 
L 363.524476 242.667113 
L 363.60772 243.191553 
L 363.690965 243.346457 
L 364.023944 240.444071 
L 364.190434 241.630374 
L 364.273678 241.775566 
L 364.606657 239.993441 
L 364.773147 238.77946 
L 364.856392 239.137829 
L 365.106126 239.468032 
L 365.272615 238.352626 
L 365.439105 234.973874 
L 365.688839 228.688852 
L 365.772084 223.4901 
L 365.855329 230.888585 
L 365.938573 230.196129 
L 366.021818 230.239349 
L 366.354797 228.961753 
L 366.438042 229.306042 
L 366.521287 227.52343 
L 366.604531 227.716212 
L 366.93751 224.88181 
L 367.020755 222.015844 
L 367.104 222.890393 
L 367.187245 222.813186 
L 367.603469 228.747125 
L 367.769958 234.12797 
L 368.102937 230.363659 
L 368.186182 230.16991 
L 368.602406 237.041041 
L 368.68565 235.228326 
L 368.768895 235.767331 
L 368.935385 240.021607 
L 369.351608 249.024487 
L 369.434853 245.799184 
L 369.518098 245.804526 
L 369.767832 245.476264 
L 369.934322 240.379488 
L 370.100811 241.588126 
L 370.350545 242.182006 
L 370.43379 241.120015 
L 370.60028 244.49634 
L 370.683524 243.256137 
L 370.933259 241.496835 
L 371.182993 238.740614 
L 371.515972 234.955421 
L 371.682462 231.125068 
L 371.848951 229.956734 
L 372.098685 230.322384 
L 372.18193 233.218459 
L 372.265175 231.014355 
L 372.34842 232.300201 
L 372.681399 227.778367 
L 372.764643 229.217176 
L 372.847888 227.692901 
L 372.931133 228.597559 
L 373.014378 232.509491 
L 373.430601 228.563568 
L 373.513846 228.686911 
L 373.597091 226.774647 
L 373.93007 227.260724 
L 374.013315 228.156643 
L 374.096559 227.555965 
L 374.179804 227.757972 
L 374.429538 227.055806 
L 374.512783 227.328707 
L 374.679273 226.377432 
L 374.762517 226.897986 
L 375.178741 226.735313 
L 375.261986 227.435538 
L 375.594965 222.954008 
L 375.844699 224.591422 
L 376.177678 220.437669 
L 376.260923 220.88684 
L 376.344168 216.789413 
L 376.510657 221.148575 
L 376.760392 218.447712 
L 376.843636 218.873576 
L 377.010126 217.813525 
L 377.093371 217.962119 
L 377.343105 218.281638 
L 377.42635 217.919385 
L 377.509594 219.906915 
L 377.592839 218.686622 
L 377.676084 219.960816 
L 377.925818 217.551793 
L 378.175552 207.873453 
L 378.591776 199.074522 
L 378.675021 200.23897 
L 378.758266 198.859889 
L 378.84151 191.558036 
L 379.091245 193.868972 
L 379.257734 191.491995 
L 379.340979 193.695129 
L 379.424224 193.685415 
L 379.673958 186.782233 
L 380.006937 197.756622 
L 380.256671 191.803256 
L 380.339916 194.867831 
L 380.423161 193.769424 
L 380.506406 194.333684 
L 380.58965 197.088444 
L 380.922629 194.357476 
L 381.005874 194.453622 
L 381.089119 194.232195 
L 381.172364 196.022573 
L 381.422098 197.680385 
L 381.505343 199.825732 
L 381.671832 187.850534 
L 381.755077 186.407843 
L 382.33779 167.019597 
L 382.587524 168.757048 
L 382.670769 168.313216 
L 382.837259 157.853071 
L 382.920503 159.084049 
L 383.170238 145.574867 
L 383.836196 186.391334 
L 384.002685 176.405127 
L 384.08593 176.070067 
L 384.418909 157.365048 
L 384.502154 159.307418 
L 384.585399 163.757875 
L 384.668643 159.212731 
L 384.918378 157.454882 
L 385.084867 174.215108 
L 385.168112 172.411127 
L 385.251357 167.664465 
L 385.501091 164.299306 
L 385.584336 164.816463 
L 385.750825 157.753524 
L 385.83407 165.782795 
L 386.083804 163.211584 
L 386.167049 166.052295 
L 386.416783 161.191518 
L 386.749762 158.120148 
L 386.833007 154.563186 
L 386.999497 159.814861 
L 387.249231 161.961185 
L 387.332476 164.11964 
L 387.41572 163.949679 
L 387.498965 163.184873 
L 387.58221 164.437702 
L 387.831944 164.522682 
L 387.915189 163.45438 
L 388.164923 172.350428 
L 388.414657 169.322759 
L 388.497902 163.643761 
L 388.581147 164.352722 
L 388.664392 160.198483 
L 388.747636 162.17484 
L 388.997371 164.284739 
L 389.080615 166.931223 
L 389.16386 165.287488 
L 389.33035 167.382821 
L 389.580084 167.482368 
L 389.829818 145.344215 
L 389.913063 147.689627 
L 390.162797 139.861881 
L 390.329287 127.200055 
L 390.495776 124.34477 
L 390.74551 128.753956 
L 390.828755 124.587566 
L 390.912 128.457738 
L 391.07849 121.120444 
L 391.411469 108.776681 
L 391.494713 119.799633 
L 391.577958 114.314861 
L 391.661203 118.461824 
L 391.910937 111.216779 
L 392.077427 115.358881 
L 392.243916 97.821719 
L 392.576895 111.092951 
L 392.66014 109.723592 
L 392.743385 105.889831 
L 393.076364 105.423667 
L 393.159608 104.865238 
L 393.326098 95.231088 
L 393.742322 88.083169 
L 393.825566 83.016014 
L 393.992056 52.899568 
L 394.24179 69.611232 
L 394.40828 59.117589 
L 394.574769 65.976581 
L 394.990993 60.079052 
L 395.074238 61.404725 
L 395.157483 61.004105 
L 395.490462 52.154182 
L 395.656951 63.725855 
L 395.740196 73.899006 
L 396.073175 54.654994 
L 396.15642 59.049599 
L 396.239664 60.190744 
L 396.322909 59.646883 
L 396.572643 56.929993 
L 396.655888 60.319418 
L 396.739133 71.157843 
L 396.822378 69.497125 
L 396.905622 68.414249 
L 397.238601 73.245898 
L 397.321846 72.777289 
L 397.488336 76.868413 
L 397.821315 96.889375 
L 397.904559 86.405439 
L 398.071049 102.556244 
L 398.320783 92.133007 
L 398.487273 107.970596 
L 398.487273 107.970596 
" style="fill:none;stroke:#1f77b4;stroke-linecap:square;stroke-width:1.5;"/>
   </g>
   <g id="patch_3">
    <path d="M 57.6 276.48 
L 57.6 41.472 
" style="fill:none;stroke:#000000;stroke-linecap:square;stroke-linejoin:miter;stroke-width:0.8;"/>
   </g>
   <g id="patch_4">
    <path d="M 414.72 276.48 
L 414.72 41.472 
" style="fill:none;stroke:#000000;stroke-linecap:square;stroke-linejoin:miter;stroke-width:0.8;"/>
   </g>
   <g id="patch_5">
    <path d="M 57.6 276.48 
L 414.72 276.48 
" style="fill:none;stroke:#000000;stroke-linecap:square;stroke-linejoin:miter;stroke-width:0.8;"/>
   </g>
   <g id="patch_6">
    <path d="M 57.6 41.472 
L 414.72 41.472 
" style="fill:none;stroke:#000000;stroke-linecap:square;stroke-linejoin:miter;stroke-width:0.8;"/>
   </g>
   <g id="text_13">
    <!-- Tesla, Inc. -->
    <g transform="translate(206.761875 35.472)scale(0.12 -0.12)">
     <defs>
      <path d="M -0.296875 72.90625 
L 61.375 72.90625 
L 61.375 64.59375 
L 35.5 64.59375 
L 35.5 0 
L 25.59375 0 
L 25.59375 64.59375 
L -0.296875 64.59375 
z
" id="DejaVuSans-84"/>
      <path d="M 44.28125 53.078125 
L 44.28125 44.578125 
Q 40.484375 46.53125 36.375 47.5 
Q 32.28125 48.484375 27.875 48.484375 
Q 21.1875 48.484375 17.84375 46.4375 
Q 14.5 44.390625 14.5 40.28125 
Q 14.5 37.15625 16.890625 35.375 
Q 19.28125 33.59375 26.515625 31.984375 
L 29.59375 31.296875 
Q 39.15625 29.25 43.1875 25.515625 
Q 47.21875 21.78125 47.21875 15.09375 
Q 47.21875 7.46875 41.1875 3.015625 
Q 35.15625 -1.421875 24.609375 -1.421875 
Q 20.21875 -1.421875 15.453125 -0.5625 
Q 10.6875 0.296875 5.421875 2 
L 5.421875 11.28125 
Q 10.40625 8.6875 15.234375 7.390625 
Q 20.0625 6.109375 24.8125 6.109375 
Q 31.15625 6.109375 34.5625 8.28125 
Q 37.984375 10.453125 37.984375 14.40625 
Q 37.984375 18.0625 35.515625 20.015625 
Q 33.0625 21.96875 24.703125 23.78125 
L 21.578125 24.515625 
Q 13.234375 26.265625 9.515625 29.90625 
Q 5.8125 33.546875 5.8125 39.890625 
Q 5.8125 47.609375 11.28125 51.796875 
Q 16.75 56 26.8125 56 
Q 31.78125 56 36.171875 55.265625 
Q 40.578125 54.546875 44.28125 53.078125 
z
" id="DejaVuSans-115"/>
      <path d="M 9.421875 75.984375 
L 18.40625 75.984375 
L 18.40625 0 
L 9.421875 0 
z
" id="DejaVuSans-108"/>
      <path d="M 11.71875 12.40625 
L 22.015625 12.40625 
L 22.015625 4 
L 14.015625 -11.625 
L 7.71875 -11.625 
L 11.71875 4 
z
" id="DejaVuSans-44"/>
      <path id="DejaVuSans-32"/>
      <path d="M 9.8125 72.90625 
L 19.671875 72.90625 
L 19.671875 0 
L 9.8125 0 
z
" id="DejaVuSans-73"/>
      <path d="M 54.890625 33.015625 
L 54.890625 0 
L 45.90625 0 
L 45.90625 32.71875 
Q 45.90625 40.484375 42.875 44.328125 
Q 39.84375 48.1875 33.796875 48.1875 
Q 26.515625 48.1875 22.3125 43.546875 
Q 18.109375 38.921875 18.109375 30.90625 
L 18.109375 0 
L 9.078125 0 
L 9.078125 54.6875 
L 18.109375 54.6875 
L 18.109375 46.1875 
Q 21.34375 51.125 25.703125 53.5625 
Q 30.078125 56 35.796875 56 
Q 45.21875 56 50.046875 50.171875 
Q 54.890625 44.34375 54.890625 33.015625 
z
" id="DejaVuSans-110"/>
      <path d="M 48.78125 52.59375 
L 48.78125 44.1875 
Q 44.96875 46.296875 41.140625 47.34375 
Q 37.3125 48.390625 33.40625 48.390625 
Q 24.65625 48.390625 19.8125 42.84375 
Q 14.984375 37.3125 14.984375 27.296875 
Q 14.984375 17.28125 19.8125 11.734375 
Q 24.65625 6.203125 33.40625 6.203125 
Q 37.3125 6.203125 41.140625 7.25 
Q 44.96875 8.296875 48.78125 10.40625 
L 48.78125 2.09375 
Q 45.015625 0.34375 40.984375 -0.53125 
Q 36.96875 -1.421875 32.421875 -1.421875 
Q 20.0625 -1.421875 12.78125 6.34375 
Q 5.515625 14.109375 5.515625 27.296875 
Q 5.515625 40.671875 12.859375 48.328125 
Q 20.21875 56 33.015625 56 
Q 37.15625 56 41.109375 55.140625 
Q 45.0625 54.296875 48.78125 52.59375 
z
" id="DejaVuSans-99"/>
      <path d="M 10.6875 12.40625 
L 21 12.40625 
L 21 0 
L 10.6875 0 
z
" id="DejaVuSans-46"/>
     </defs>
     <use xlink:href="#DejaVuSans-84"/>
     <use x="44.083984" xlink:href="#DejaVuSans-101"/>
     <use x="105.607422" xlink:href="#DejaVuSans-115"/>
     <use x="157.707031" xlink:href="#DejaVuSans-108"/>
     <use x="185.490234" xlink:href="#DejaVuSans-97"/>
     <use x="246.769531" xlink:href="#DejaVuSans-44"/>
     <use x="278.556641" xlink:href="#DejaVuSans-32"/>
     <use x="310.34375" xlink:href="#DejaVuSans-73"/>
     <use x="339.835938" xlink:href="#DejaVuSans-110"/>
     <use x="403.214844" xlink:href="#DejaVuSans-99"/>
     <use x="458.195312" xlink:href="#DejaVuSans-46"/>
    </g>
   </g>
   <g id="legend_1">
    <g id="patch_7">
     <path d="M 64.6 64.150125 
L 142.8125 64.150125 
Q 144.8125 64.150125 144.8125 62.150125 
L 144.8125 48.472 
Q 144.8125 46.472 142.8125 46.472 
L 64.6 46.472 
Q 62.6 46.472 62.6 48.472 
L 62.6 62.150125 
Q 62.6 64.150125 64.6 64.150125 
z
" style="fill:#ffffff;opacity:0.8;stroke:#cccccc;stroke-linejoin:miter;"/>
    </g>
    <g id="line2d_13">
     <path d="M 66.6 54.570437 
L 86.6 54.570437 
" style="fill:none;stroke:#1f77b4;stroke-linecap:square;stroke-width:1.5;"/>
    </g>
    <g id="line2d_14"/>
    <g id="text_14">
     <!-- Adj Close -->
     <g transform="translate(94.6 58.070437)scale(0.1 -0.1)">
      <defs>
       <path d="M 34.1875 63.1875 
L 20.796875 26.90625 
L 47.609375 26.90625 
z
M 28.609375 72.90625 
L 39.796875 72.90625 
L 67.578125 0 
L 57.328125 0 
L 50.6875 18.703125 
L 17.828125 18.703125 
L 11.1875 0 
L 0.78125 0 
z
" id="DejaVuSans-65"/>
       <path d="M 45.40625 46.390625 
L 45.40625 75.984375 
L 54.390625 75.984375 
L 54.390625 0 
L 45.40625 0 
L 45.40625 8.203125 
Q 42.578125 3.328125 38.25 0.953125 
Q 33.9375 -1.421875 27.875 -1.421875 
Q 17.96875 -1.421875 11.734375 6.484375 
Q 5.515625 14.40625 5.515625 27.296875 
Q 5.515625 40.1875 11.734375 48.09375 
Q 17.96875 56 27.875 56 
Q 33.9375 56 38.25 53.625 
Q 42.578125 51.265625 45.40625 46.390625 
z
M 14.796875 27.296875 
Q 14.796875 17.390625 18.875 11.75 
Q 22.953125 6.109375 30.078125 6.109375 
Q 37.203125 6.109375 41.296875 11.75 
Q 45.40625 17.390625 45.40625 27.296875 
Q 45.40625 37.203125 41.296875 42.84375 
Q 37.203125 48.484375 30.078125 48.484375 
Q 22.953125 48.484375 18.875 42.84375 
Q 14.796875 37.203125 14.796875 27.296875 
z
" id="DejaVuSans-100"/>
       <path d="M 9.421875 54.6875 
L 18.40625 54.6875 
L 18.40625 -0.984375 
Q 18.40625 -11.421875 14.421875 -16.109375 
Q 10.453125 -20.796875 1.609375 -20.796875 
L -1.8125 -20.796875 
L -1.8125 -13.1875 
L 0.59375 -13.1875 
Q 5.71875 -13.1875 7.5625 -10.8125 
Q 9.421875 -8.453125 9.421875 -0.984375 
z
M 9.421875 75.984375 
L 18.40625 75.984375 
L 18.40625 64.59375 
L 9.421875 64.59375 
z
" id="DejaVuSans-106"/>
       <path d="M 64.40625 67.28125 
L 64.40625 56.890625 
Q 59.421875 61.53125 53.78125 63.8125 
Q 48.140625 66.109375 41.796875 66.109375 
Q 29.296875 66.109375 22.65625 58.46875 
Q 16.015625 50.828125 16.015625 36.375 
Q 16.015625 21.96875 22.65625 14.328125 
Q 29.296875 6.6875 41.796875 6.6875 
Q 48.140625 6.6875 53.78125 8.984375 
Q 59.421875 11.28125 64.40625 15.921875 
L 64.40625 5.609375 
Q 59.234375 2.09375 53.4375 0.328125 
Q 47.65625 -1.421875 41.21875 -1.421875 
Q 24.65625 -1.421875 15.125 8.703125 
Q 5.609375 18.84375 5.609375 36.375 
Q 5.609375 53.953125 15.125 64.078125 
Q 24.65625 74.21875 41.21875 74.21875 
Q 47.75 74.21875 53.53125 72.484375 
Q 59.328125 70.75 64.40625 67.28125 
z
" id="DejaVuSans-67"/>
       <path d="M 30.609375 48.390625 
Q 23.390625 48.390625 19.1875 42.75 
Q 14.984375 37.109375 14.984375 27.296875 
Q 14.984375 17.484375 19.15625 11.84375 
Q 23.34375 6.203125 30.609375 6.203125 
Q 37.796875 6.203125 41.984375 11.859375 
Q 46.1875 17.53125 46.1875 27.296875 
Q 46.1875 37.015625 41.984375 42.703125 
Q 37.796875 48.390625 30.609375 48.390625 
z
M 30.609375 56 
Q 42.328125 56 49.015625 48.375 
Q 55.71875 40.765625 55.71875 27.296875 
Q 55.71875 13.875 49.015625 6.21875 
Q 42.328125 -1.421875 30.609375 -1.421875 
Q 18.84375 -1.421875 12.171875 6.21875 
Q 5.515625 13.875 5.515625 27.296875 
Q 5.515625 40.765625 12.171875 48.375 
Q 18.84375 56 30.609375 56 
z
" id="DejaVuSans-111"/>
      </defs>
      <use xlink:href="#DejaVuSans-65"/>
      <use x="66.658203" xlink:href="#DejaVuSans-100"/>
      <use x="130.134766" xlink:href="#DejaVuSans-106"/>
      <use x="157.917969" xlink:href="#DejaVuSans-32"/>
      <use x="189.705078" xlink:href="#DejaVuSans-67"/>
      <use x="259.529297" xlink:href="#DejaVuSans-108"/>
      <use x="287.3125" xlink:href="#DejaVuSans-111"/>
      <use x="348.494141" xlink:href="#DejaVuSans-115"/>
      <use x="400.59375" xlink:href="#DejaVuSans-101"/>
     </g>
    </g>
   </g>
  </g>
 </g>
 <defs>
  <clipPath id="pda387a0ded">
   <rect height="235.008" width="357.12" x="57.6" y="41.472"/>
  </clipPath>
 </defs>
</svg>
