<?xml version="1.0" encoding="utf-8" standalone="no"?>
<!DOCTYPE svg PUBLIC "-//W3C//DTD SVG 1.1//EN"
  "http://www.w3.org/Graphics/SVG/1.1/DTD/svg11.dtd">
<!-- Created with matplotlib (https://matplotlib.org/) -->
<svg height="345.6pt" version="1.1" viewBox="0 0 460.8 345.6" width="460.8pt" xmlns="http://www.w3.org/2000/svg" xmlns:xlink="http://www.w3.org/1999/xlink">
 <metadata>
  <rdf:RDF xmlns:cc="http://creativecommons.org/ns#" xmlns:dc="http://purl.org/dc/elements/1.1/" xmlns:rdf="http://www.w3.org/1999/02/22-rdf-syntax-ns#">
   <cc:Work>
    <dc:type rdf:resource="http://purl.org/dc/dcmitype/StillImage"/>
    <dc:date>2021-03-05T01:51:51.803538</dc:date>
    <dc:format>image/svg+xml</dc:format>
    <dc:creator>
     <cc:Agent>
      <dc:title>Matplotlib v3.3.4, https://matplotlib.org/</dc:title>
     </cc:Agent>
    </dc:creator>
   </cc:Work>
  </rdf:RDF>
 </metadata>
 <defs>
  <style type="text/css">*{stroke-linecap:butt;stroke-linejoin:round;}</style>
 </defs>
 <g id="figure_1">
  <g id="patch_1">
   <path d="M 0 345.6 
L 460.8 345.6 
L 460.8 0 
L 0 0 
z
" style="fill:#ffffff;"/>
  </g>
  <g id="axes_1">
   <g id="patch_2">
    <path d="M 57.6 276.48 
L 414.72 276.48 
L 414.72 41.472 
L 57.6 41.472 
z
" style="fill:#ffffff;"/>
   </g>
   <g id="matplotlib.axis_1">
    <g id="xtick_1">
     <g id="line2d_1">
      <defs>
       <path d="M 0 0 
L 0 3.5 
" id="m12990497df" style="stroke:#000000;stroke-width:0.8;"/>
      </defs>
      <g>
       <use style="stroke:#000000;stroke-width:0.8;" x="58.935736" xlink:href="#m12990497df" y="276.48"/>
      </g>
     </g>
     <g id="text_1">
      <!-- 2010 -->
      <g transform="translate(35.855546 302.78544)rotate(-30)scale(0.1 -0.1)">
       <defs>
        <path d="M 19.1875 8.296875 
L 53.609375 8.296875 
L 53.609375 0 
L 7.328125 0 
L 7.328125 8.296875 
Q 12.9375 14.109375 22.625 23.890625 
Q 32.328125 33.6875 34.8125 36.53125 
Q 39.546875 41.84375 41.421875 45.53125 
Q 43.3125 49.21875 43.3125 52.78125 
Q 43.3125 58.59375 39.234375 62.25 
Q 35.15625 65.921875 28.609375 65.921875 
Q 23.96875 65.921875 18.8125 64.3125 
Q 13.671875 62.703125 7.8125 59.421875 
L 7.8125 69.390625 
Q 13.765625 71.78125 18.9375 73 
Q 24.125 74.21875 28.421875 74.21875 
Q 39.75 74.21875 46.484375 68.546875 
Q 53.21875 62.890625 53.21875 53.421875 
Q 53.21875 48.921875 51.53125 44.890625 
Q 49.859375 40.875 45.40625 35.40625 
Q 44.1875 33.984375 37.640625 27.21875 
Q 31.109375 20.453125 19.1875 8.296875 
z
" id="DejaVuSans-50"/>
        <path d="M 31.78125 66.40625 
Q 24.171875 66.40625 20.328125 58.90625 
Q 16.5 51.421875 16.5 36.375 
Q 16.5 21.390625 20.328125 13.890625 
Q 24.171875 6.390625 31.78125 6.390625 
Q 39.453125 6.390625 43.28125 13.890625 
Q 47.125 21.390625 47.125 36.375 
Q 47.125 51.421875 43.28125 58.90625 
Q 39.453125 66.40625 31.78125 66.40625 
z
M 31.78125 74.21875 
Q 44.046875 74.21875 50.515625 64.515625 
Q 56.984375 54.828125 56.984375 36.375 
Q 56.984375 17.96875 50.515625 8.265625 
Q 44.046875 -1.421875 31.78125 -1.421875 
Q 19.53125 -1.421875 13.0625 8.265625 
Q 6.59375 17.96875 6.59375 36.375 
Q 6.59375 54.828125 13.0625 64.515625 
Q 19.53125 74.21875 31.78125 74.21875 
z
" id="DejaVuSans-48"/>
        <path d="M 12.40625 8.296875 
L 28.515625 8.296875 
L 28.515625 63.921875 
L 10.984375 60.40625 
L 10.984375 69.390625 
L 28.421875 72.90625 
L 38.28125 72.90625 
L 38.28125 8.296875 
L 54.390625 8.296875 
L 54.390625 0 
L 12.40625 0 
z
" id="DejaVuSans-49"/>
       </defs>
       <use xlink:href="#DejaVuSans-50"/>
       <use x="63.623047" xlink:href="#DejaVuSans-48"/>
       <use x="127.246094" xlink:href="#DejaVuSans-49"/>
       <use x="190.869141" xlink:href="#DejaVuSans-48"/>
      </g>
     </g>
    </g>
    <g id="xtick_2">
     <g id="line2d_2">
      <g>
       <use style="stroke:#000000;stroke-width:0.8;" x="119.688829" xlink:href="#m12990497df" y="276.48"/>
      </g>
     </g>
     <g id="text_2">
      <!-- 2012 -->
      <g transform="translate(96.608639 302.78544)rotate(-30)scale(0.1 -0.1)">
       <use xlink:href="#DejaVuSans-50"/>
       <use x="63.623047" xlink:href="#DejaVuSans-48"/>
       <use x="127.246094" xlink:href="#DejaVuSans-49"/>
       <use x="190.869141" xlink:href="#DejaVuSans-50"/>
      </g>
     </g>
    </g>
    <g id="xtick_3">
     <g id="line2d_3">
      <g>
       <use style="stroke:#000000;stroke-width:0.8;" x="180.525146" xlink:href="#m12990497df" y="276.48"/>
      </g>
     </g>
     <g id="text_3">
      <!-- 2014 -->
      <g transform="translate(157.444956 302.78544)rotate(-30)scale(0.1 -0.1)">
       <defs>
        <path d="M 37.796875 64.3125 
L 12.890625 25.390625 
L 37.796875 25.390625 
z
M 35.203125 72.90625 
L 47.609375 72.90625 
L 47.609375 25.390625 
L 58.015625 25.390625 
L 58.015625 17.1875 
L 47.609375 17.1875 
L 47.609375 0 
L 37.796875 0 
L 37.796875 17.1875 
L 4.890625 17.1875 
L 4.890625 26.703125 
z
" id="DejaVuSans-52"/>
       </defs>
       <use xlink:href="#DejaVuSans-50"/>
       <use x="63.623047" xlink:href="#DejaVuSans-48"/>
       <use x="127.246094" xlink:href="#DejaVuSans-49"/>
       <use x="190.869141" xlink:href="#DejaVuSans-52"/>
      </g>
     </g>
    </g>
    <g id="xtick_4">
     <g id="line2d_4">
      <g>
       <use style="stroke:#000000;stroke-width:0.8;" x="241.27824" xlink:href="#m12990497df" y="276.48"/>
      </g>
     </g>
     <g id="text_4">
      <!-- 2016 -->
      <g transform="translate(218.19805 302.78544)rotate(-30)scale(0.1 -0.1)">
       <defs>
        <path d="M 33.015625 40.375 
Q 26.375 40.375 22.484375 35.828125 
Q 18.609375 31.296875 18.609375 23.390625 
Q 18.609375 15.53125 22.484375 10.953125 
Q 26.375 6.390625 33.015625 6.390625 
Q 39.65625 6.390625 43.53125 10.953125 
Q 47.40625 15.53125 47.40625 23.390625 
Q 47.40625 31.296875 43.53125 35.828125 
Q 39.65625 40.375 33.015625 40.375 
z
M 52.59375 71.296875 
L 52.59375 62.3125 
Q 48.875 64.0625 45.09375 64.984375 
Q 41.3125 65.921875 37.59375 65.921875 
Q 27.828125 65.921875 22.671875 59.328125 
Q 17.53125 52.734375 16.796875 39.40625 
Q 19.671875 43.65625 24.015625 45.921875 
Q 28.375 48.1875 33.59375 48.1875 
Q 44.578125 48.1875 50.953125 41.515625 
Q 57.328125 34.859375 57.328125 23.390625 
Q 57.328125 12.15625 50.6875 5.359375 
Q 44.046875 -1.421875 33.015625 -1.421875 
Q 20.359375 -1.421875 13.671875 8.265625 
Q 6.984375 17.96875 6.984375 36.375 
Q 6.984375 53.65625 15.1875 63.9375 
Q 23.390625 74.21875 37.203125 74.21875 
Q 40.921875 74.21875 44.703125 73.484375 
Q 48.484375 72.75 52.59375 71.296875 
z
" id="DejaVuSans-54"/>
       </defs>
       <use xlink:href="#DejaVuSans-50"/>
       <use x="63.623047" xlink:href="#DejaVuSans-48"/>
       <use x="127.246094" xlink:href="#DejaVuSans-49"/>
       <use x="190.869141" xlink:href="#DejaVuSans-54"/>
      </g>
     </g>
    </g>
    <g id="xtick_5">
     <g id="line2d_5">
      <g>
       <use style="stroke:#000000;stroke-width:0.8;" x="302.114557" xlink:href="#m12990497df" y="276.48"/>
      </g>
     </g>
     <g id="text_5">
      <!-- 2018 -->
      <g transform="translate(279.034367 302.78544)rotate(-30)scale(0.1 -0.1)">
       <defs>
        <path d="M 31.78125 34.625 
Q 24.75 34.625 20.71875 30.859375 
Q 16.703125 27.09375 16.703125 20.515625 
Q 16.703125 13.921875 20.71875 10.15625 
Q 24.75 6.390625 31.78125 6.390625 
Q 38.8125 6.390625 42.859375 10.171875 
Q 46.921875 13.96875 46.921875 20.515625 
Q 46.921875 27.09375 42.890625 30.859375 
Q 38.875 34.625 31.78125 34.625 
z
M 21.921875 38.8125 
Q 15.578125 40.375 12.03125 44.71875 
Q 8.5 49.078125 8.5 55.328125 
Q 8.5 64.0625 14.71875 69.140625 
Q 20.953125 74.21875 31.78125 74.21875 
Q 42.671875 74.21875 48.875 69.140625 
Q 55.078125 64.0625 55.078125 55.328125 
Q 55.078125 49.078125 51.53125 44.71875 
Q 48 40.375 41.703125 38.8125 
Q 48.828125 37.15625 52.796875 32.3125 
Q 56.78125 27.484375 56.78125 20.515625 
Q 56.78125 9.90625 50.3125 4.234375 
Q 43.84375 -1.421875 31.78125 -1.421875 
Q 19.734375 -1.421875 13.25 4.234375 
Q 6.78125 9.90625 6.78125 20.515625 
Q 6.78125 27.484375 10.78125 32.3125 
Q 14.796875 37.15625 21.921875 38.8125 
z
M 18.3125 54.390625 
Q 18.3125 48.734375 21.84375 45.5625 
Q 25.390625 42.390625 31.78125 42.390625 
Q 38.140625 42.390625 41.71875 45.5625 
Q 45.3125 48.734375 45.3125 54.390625 
Q 45.3125 60.0625 41.71875 63.234375 
Q 38.140625 66.40625 31.78125 66.40625 
Q 25.390625 66.40625 21.84375 63.234375 
Q 18.3125 60.0625 18.3125 54.390625 
z
" id="DejaVuSans-56"/>
       </defs>
       <use xlink:href="#DejaVuSans-50"/>
       <use x="63.623047" xlink:href="#DejaVuSans-48"/>
       <use x="127.246094" xlink:href="#DejaVuSans-49"/>
       <use x="190.869141" xlink:href="#DejaVuSans-56"/>
      </g>
     </g>
    </g>
    <g id="xtick_6">
     <g id="line2d_6">
      <g>
       <use style="stroke:#000000;stroke-width:0.8;" x="362.867651" xlink:href="#m12990497df" y="276.48"/>
      </g>
     </g>
     <g id="text_6">
      <!-- 2020 -->
      <g transform="translate(339.78746 302.78544)rotate(-30)scale(0.1 -0.1)">
       <use xlink:href="#DejaVuSans-50"/>
       <use x="63.623047" xlink:href="#DejaVuSans-48"/>
       <use x="127.246094" xlink:href="#DejaVuSans-50"/>
       <use x="190.869141" xlink:href="#DejaVuSans-48"/>
      </g>
     </g>
    </g>
    <g id="text_7">
     <!-- Date -->
     <g transform="translate(224.209219 316.18494)scale(0.1 -0.1)">
      <defs>
       <path d="M 19.671875 64.796875 
L 19.671875 8.109375 
L 31.59375 8.109375 
Q 46.6875 8.109375 53.6875 14.9375 
Q 60.6875 21.78125 60.6875 36.53125 
Q 60.6875 51.171875 53.6875 57.984375 
Q 46.6875 64.796875 31.59375 64.796875 
z
M 9.8125 72.90625 
L 30.078125 72.90625 
Q 51.265625 72.90625 61.171875 64.09375 
Q 71.09375 55.28125 71.09375 36.53125 
Q 71.09375 17.671875 61.125 8.828125 
Q 51.171875 0 30.078125 0 
L 9.8125 0 
z
" id="DejaVuSans-68"/>
       <path d="M 34.28125 27.484375 
Q 23.390625 27.484375 19.1875 25 
Q 14.984375 22.515625 14.984375 16.5 
Q 14.984375 11.71875 18.140625 8.90625 
Q 21.296875 6.109375 26.703125 6.109375 
Q 34.1875 6.109375 38.703125 11.40625 
Q 43.21875 16.703125 43.21875 25.484375 
L 43.21875 27.484375 
z
M 52.203125 31.203125 
L 52.203125 0 
L 43.21875 0 
L 43.21875 8.296875 
Q 40.140625 3.328125 35.546875 0.953125 
Q 30.953125 -1.421875 24.3125 -1.421875 
Q 15.921875 -1.421875 10.953125 3.296875 
Q 6 8.015625 6 15.921875 
Q 6 25.140625 12.171875 29.828125 
Q 18.359375 34.515625 30.609375 34.515625 
L 43.21875 34.515625 
L 43.21875 35.40625 
Q 43.21875 41.609375 39.140625 45 
Q 35.0625 48.390625 27.6875 48.390625 
Q 23 48.390625 18.546875 47.265625 
Q 14.109375 46.140625 10.015625 43.890625 
L 10.015625 52.203125 
Q 14.9375 54.109375 19.578125 55.046875 
Q 24.21875 56 28.609375 56 
Q 40.484375 56 46.34375 49.84375 
Q 52.203125 43.703125 52.203125 31.203125 
z
" id="DejaVuSans-97"/>
       <path d="M 18.3125 70.21875 
L 18.3125 54.6875 
L 36.8125 54.6875 
L 36.8125 47.703125 
L 18.3125 47.703125 
L 18.3125 18.015625 
Q 18.3125 11.328125 20.140625 9.421875 
Q 21.96875 7.515625 27.59375 7.515625 
L 36.8125 7.515625 
L 36.8125 0 
L 27.59375 0 
Q 17.1875 0 13.234375 3.875 
Q 9.28125 7.765625 9.28125 18.015625 
L 9.28125 47.703125 
L 2.6875 47.703125 
L 2.6875 54.6875 
L 9.28125 54.6875 
L 9.28125 70.21875 
z
" id="DejaVuSans-116"/>
       <path d="M 56.203125 29.59375 
L 56.203125 25.203125 
L 14.890625 25.203125 
Q 15.484375 15.921875 20.484375 11.0625 
Q 25.484375 6.203125 34.421875 6.203125 
Q 39.59375 6.203125 44.453125 7.46875 
Q 49.3125 8.734375 54.109375 11.28125 
L 54.109375 2.78125 
Q 49.265625 0.734375 44.1875 -0.34375 
Q 39.109375 -1.421875 33.890625 -1.421875 
Q 20.796875 -1.421875 13.15625 6.1875 
Q 5.515625 13.8125 5.515625 26.8125 
Q 5.515625 40.234375 12.765625 48.109375 
Q 20.015625 56 32.328125 56 
Q 43.359375 56 49.78125 48.890625 
Q 56.203125 41.796875 56.203125 29.59375 
z
M 47.21875 32.234375 
Q 47.125 39.59375 43.09375 43.984375 
Q 39.0625 48.390625 32.421875 48.390625 
Q 24.90625 48.390625 20.390625 44.140625 
Q 15.875 39.890625 15.1875 32.171875 
z
" id="DejaVuSans-101"/>
      </defs>
      <use xlink:href="#DejaVuSans-68"/>
      <use x="77.001953" xlink:href="#DejaVuSans-97"/>
      <use x="138.28125" xlink:href="#DejaVuSans-116"/>
      <use x="177.490234" xlink:href="#DejaVuSans-101"/>
     </g>
    </g>
   </g>
   <g id="matplotlib.axis_2">
    <g id="ytick_1">
     <g id="line2d_7">
      <defs>
       <path d="M 0 0 
L -3.5 0 
" id="mdcbc162db8" style="stroke:#000000;stroke-width:0.8;"/>
      </defs>
      <g>
       <use style="stroke:#000000;stroke-width:0.8;" x="57.6" xlink:href="#mdcbc162db8" y="266.565054"/>
      </g>
     </g>
     <g id="text_8">
      <!-- 0 -->
      <g transform="translate(44.2375 270.364273)scale(0.1 -0.1)">
       <use xlink:href="#DejaVuSans-48"/>
      </g>
     </g>
    </g>
    <g id="ytick_2">
     <g id="line2d_8">
      <g>
       <use style="stroke:#000000;stroke-width:0.8;" x="57.6" xlink:href="#mdcbc162db8" y="218.005821"/>
      </g>
     </g>
     <g id="text_9">
      <!-- 200 -->
      <g transform="translate(31.5125 221.80504)scale(0.1 -0.1)">
       <use xlink:href="#DejaVuSans-50"/>
       <use x="63.623047" xlink:href="#DejaVuSans-48"/>
       <use x="127.246094" xlink:href="#DejaVuSans-48"/>
      </g>
     </g>
    </g>
    <g id="ytick_3">
     <g id="line2d_9">
      <g>
       <use style="stroke:#000000;stroke-width:0.8;" x="57.6" xlink:href="#mdcbc162db8" y="169.446588"/>
      </g>
     </g>
     <g id="text_10">
      <!-- 400 -->
      <g transform="translate(31.5125 173.245807)scale(0.1 -0.1)">
       <use xlink:href="#DejaVuSans-52"/>
       <use x="63.623047" xlink:href="#DejaVuSans-48"/>
       <use x="127.246094" xlink:href="#DejaVuSans-48"/>
      </g>
     </g>
    </g>
    <g id="ytick_4">
     <g id="line2d_10">
      <g>
       <use style="stroke:#000000;stroke-width:0.8;" x="57.6" xlink:href="#mdcbc162db8" y="120.887355"/>
      </g>
     </g>
     <g id="text_11">
      <!-- 600 -->
      <g transform="translate(31.5125 124.686574)scale(0.1 -0.1)">
       <use xlink:href="#DejaVuSans-54"/>
       <use x="63.623047" xlink:href="#DejaVuSans-48"/>
       <use x="127.246094" xlink:href="#DejaVuSans-48"/>
      </g>
     </g>
    </g>
    <g id="ytick_5">
     <g id="line2d_11">
      <g>
       <use style="stroke:#000000;stroke-width:0.8;" x="57.6" xlink:href="#mdcbc162db8" y="72.328122"/>
      </g>
     </g>
     <g id="text_12">
      <!-- 800 -->
      <g transform="translate(31.5125 76.127341)scale(0.1 -0.1)">
       <use xlink:href="#DejaVuSans-56"/>
       <use x="63.623047" xlink:href="#DejaVuSans-48"/>
       <use x="127.246094" xlink:href="#DejaVuSans-48"/>
      </g>
     </g>
    </g>
   </g>
   <g id="line2d_12">
    <path clip-path="url(#pafe74aa789)" d="M 73.832727 265.404974 
L 73.999174 265.498693 
L 74.082398 265.632717 
L 74.498515 265.797818 
L 74.664961 265.720123 
L 74.997855 265.68419 
L 75.247525 265.562791 
L 75.580419 265.579302 
L 76.662323 265.549195 
L 76.82877 265.532685 
L 77.244887 265.613293 
L 77.577781 265.675449 
L 79.824813 265.559392 
L 80.157707 265.558907 
L 80.490601 265.582701 
L 80.906718 265.600182 
L 81.322835 265.568133 
L 81.489282 265.497722 
L 81.655728 265.564734 
L 82.820856 265.567647 
L 83.902761 265.536084 
L 84.235654 265.525401 
L 84.402101 265.50792 
L 84.568548 265.378266 
L 84.901442 265.36904 
L 84.984665 265.139355 
L 85.067888 265.203453 
L 85.151112 265.116047 
L 86.732357 264.897044 
L 86.898804 265.035924 
L 87.231697 265.032525 
L 87.481367 265.034467 
L 88.063931 265.042237 
L 88.563272 265.103907 
L 88.979389 265.282605 
L 89.145836 265.278234 
L 90.310964 265.291831 
L 90.976751 265.446249 
L 91.476091 265.354958 
L 91.559315 265.399147 
L 93.307007 265.439451 
L 93.806347 265.471015 
L 93.889571 265.418571 
L 95.304369 265.436052 
L 96.136603 265.480726 
L 96.635943 265.413715 
L 96.719167 265.217535 
L 96.80239 265.270465 
L 97.884294 265.344275 
L 98.466858 265.26658 
L 99.71521 265.248128 
L 100.297774 265.227247 
L 100.713891 265.285518 
L 100.880337 265.206852 
L 101.213231 265.267551 
L 101.379678 265.133528 
L 102.378359 265.187429 
L 102.544806 265.223848 
L 103.044146 265.238416 
L 103.210593 265.278234 
L 103.793157 265.226276 
L 104.791838 265.158779 
L 104.958285 265.166063 
L 106.040189 265.171404 
L 106.123413 265.142754 
L 107.787881 265.336505 
L 107.871104 265.287461 
L 108.370445 265.387007 
L 108.453668 265.482183 
L 109.036232 265.412743 
L 109.535573 265.399632 
L 109.618796 265.444793 
L 110.700701 265.359814 
L 110.783924 265.312226 
L 112.531616 265.25444 
L 113.11418 265.202968 
L 113.696743 265.203939 
L 115.777329 264.917439 
L 115.943776 264.929579 
L 116.276669 265.022813 
L 116.859233 264.983965 
L 117.108904 264.982023 
L 117.525021 264.871794 
L 117.608244 264.904814 
L 117.774691 265.057775 
L 120.104947 265.258325 
L 120.604287 265.193256 
L 120.68751 265.458389 
L 121.186851 265.265609 
L 121.686191 265.206852 
L 121.852638 265.140812 
L 123.267436 265.035924 
L 123.517107 264.905299 
L 123.60033 264.866938 
L 125.348022 264.878106 
L 125.847362 264.865481 
L 126.346703 264.858197 
L 126.51315 264.910155 
L 126.929267 264.727087 
L 127.345384 264.788757 
L 127.428607 264.719318 
L 127.595054 264.890732 
L 128.593735 264.999504 
L 128.843405 264.95483 
L 129.259522 264.96697 
L 129.425969 264.946089 
L 130.258203 264.988336 
L 130.42465 265.105364 
L 130.591097 264.999019 
L 131.173661 265.226762 
L 132.172342 265.088368 
L 132.588459 265.211223 
L 133.503916 265.112647 
L 134.08648 264.924238 
L 135.667725 265.034953 
L 136.083842 264.818864 
L 136.333513 264.998048 
L 137.581864 265.240844 
L 138.746992 265.107791 
L 140.41146 265.178688 
L 140.494683 265.139841 
L 140.9108 265.191799 
L 141.326918 264.984937 
L 141.659811 265.107306 
L 141.909481 265.076228 
L 142.075928 265.227733 
L 142.242375 265.14324 
L 145.155195 265.160721 
L 145.571312 265.033496 
L 146.237099 265.068459 
L 146.569993 264.966484 
L 149.732483 264.929094 
L 150.065376 264.920353 
L 150.39827 264.894616 
L 151.979515 264.816922 
L 152.145962 264.769334 
L 152.728526 264.705235 
L 153.643983 264.725145 
L 153.81043 264.706692 
L 153.893653 264.76642 
L 154.30977 264.693581 
L 154.392994 264.857711 
L 154.476217 264.81158 
L 154.975558 264.873736 
L 155.308451 264.837317 
L 155.641345 264.69698 
L 156.057462 264.672215 
L 156.223909 264.851399 
L 156.806473 264.786815 
L 157.305813 264.725145 
L 157.721931 264.411938 
L 157.805154 264.56927 
L 157.888377 264.525081 
L 158.304494 264.598405 
L 158.554165 264.440588 
L 158.803835 264.462439 
L 159.053505 264.284227 
L 159.636069 264.039974 
L 159.719292 264.078821 
L 160.052186 263.943341 
L 160.218633 263.937514 
L 160.301856 263.916148 
L 160.551527 263.67578 
L 160.717973 263.855934 
L 160.88442 262.837647 
L 161.134091 262.301554 
L 161.217314 262.522983 
L 161.300537 262.445289 
L 161.383761 262.085465 
L 161.466984 262.121884 
L 161.883101 262.328747 
L 162.049548 261.850924 
L 162.382442 261.207514 
L 162.632112 261.817903 
L 162.881782 262.068955 
L 163.214676 261.61007 
L 163.464346 261.706703 
L 163.54757 261.977664 
L 163.79724 261.694563 
L 164.213357 261.481873 
L 164.379804 261.730982 
L 164.712697 261.592589 
L 164.879144 261.259958 
L 164.962368 261.351735 
L 165.295261 260.843805 
L 165.378485 260.969088 
L 165.544932 260.733576 
L 165.961049 260.627717 
L 166.127496 260.25721 
L 166.377166 260.385406 
L 166.460389 261.26967 
L 166.543613 260.725807 
L 166.626836 260.785049 
L 167.2094 260.54031 
L 167.292623 260.281975 
L 167.542294 260.02801 
L 167.625517 260.167861 
L 168.124857 259.539504 
L 168.208081 259.662359 
L 168.291304 260.046948 
L 168.374528 259.112183 
L 168.457751 259.135491 
L 168.790645 259.503085 
L 168.957092 259.782786 
L 169.040315 259.669643 
L 169.289985 259.528821 
L 169.622879 258.706228 
L 170.704783 258.313384 
L 171.037677 258.761586 
L 171.1209 258.486255 
L 171.204124 258.624649 
L 171.287347 258.55618 
L 171.786688 258.493539 
L 171.953135 257.659776 
L 172.286028 257.711249 
L 172.535699 257.295096 
L 172.868592 257.193123 
L 173.035039 258.149254 
L 173.118262 257.776804 
L 173.367933 257.675316 
L 173.53438 258.369226 
L 173.700826 257.887519 
L 173.950497 257.837989 
L 174.116943 257.651521 
L 174.28339 257.659291 
L 174.699507 258.57706 
L 174.782731 258.157023 
L 175.115624 258.656698 
L 175.198848 258.578517 
L 175.282071 258.833453 
L 175.365295 258.79849 
L 175.448518 258.690204 
L 175.781412 257.979296 
L 175.947859 259.77793 
L 176.031082 259.866308 
L 176.280752 259.538533 
L 176.363976 259.873592 
L 176.447199 259.829888 
L 176.613646 259.987706 
L 176.863316 260.661223 
L 176.94654 260.44222 
L 177.029763 260.684045 
L 177.112986 260.635972 
L 177.529103 260.713666 
L 177.612327 260.400945 
L 177.778774 260.384435 
L 178.028444 260.535454 
L 178.111667 259.538533 
L 178.194891 259.817748 
L 178.278114 259.743453 
L 178.361338 259.894958 
L 178.694231 259.660417 
L 178.777455 259.783757 
L 178.943902 259.395283 
L 179.193572 259.381201 
L 179.276795 259.161713 
L 179.443242 259.731799 
L 179.526465 259.609429 
L 179.776136 259.594376 
L 179.859359 259.212701 
L 180.025806 259.014093 
L 180.109029 259.226783 
L 180.3587 259.162684 
L 180.441923 259.260289 
L 180.691593 259.302535 
L 180.941264 259.426847 
L 181.10771 259.219013 
L 181.274157 259.489003 
L 181.523827 259.798811 
L 181.690274 258.595027 
L 181.773498 258.262882 
L 181.856721 258.309499 
L 182.356062 257.751554 
L 182.439285 258.086612 
L 182.688955 258.328437 
L 182.772179 257.903058 
L 182.855402 258.056019 
L 182.938626 257.686484 
L 183.021849 257.755923 
L 183.271519 257.964728 
L 183.354743 257.886063 
L 183.437966 258.095353 
L 183.937307 257.017337 
L 184.02053 257.080465 
L 184.103753 256.871175 
L 184.186977 256.939157 
L 184.51987 256.673538 
L 184.603094 257.162044 
L 184.686317 256.369072 
L 184.769541 256.387039 
L 185.019211 255.996137 
L 185.185658 254.279569 
L 185.268881 254.301906 
L 185.352105 254.677268 
L 185.851445 254.282481 
L 185.934668 254.609285 
L 186.267562 255.182284 
L 186.350786 254.838485 
L 186.517232 255.349328 
L 186.766903 255.203164 
L 186.850126 254.908896 
L 187.349467 255.873768 
L 187.43269 255.860656 
L 187.599137 256.497754 
L 187.68236 256.25253 
L 187.93203 256.442882 
L 188.098477 255.382349 
L 188.181701 255.619802 
L 188.264924 256.259328 
L 188.514594 256.488042 
L 188.681041 256.031099 
L 188.847488 256.669653 
L 189.180382 257.148933 
L 189.263605 256.896425 
L 189.346829 256.944499 
L 189.679722 256.640518 
L 189.762946 255.948063 
L 190.012616 256.860491 
L 190.262286 256.925561 
L 190.428733 256.470075 
L 190.511956 256.477844 
L 190.84485 256.046639 
L 191.09452 257.892861 
L 191.177744 257.714648 
L 191.427414 257.597621 
L 191.593861 257.308693 
L 191.677084 257.407269 
L 192.009978 257.043074 
L 192.093201 257.081436 
L 192.342872 256.498725 
L 192.758989 256.355961 
L 192.842212 256.355961 
L 192.925435 256.475902 
L 193.341553 256.659456 
L 193.507999 256.456479 
L 194.00734 256.682279 
L 194.090563 256.541457 
L 194.423457 255.315337 
L 194.50668 255.536281 
L 194.589904 255.503747 
L 194.922797 255.045833 
L 195.006021 255.275032 
L 195.089244 255.061858 
L 195.172468 255.124499 
L 195.255691 254.956484 
L 195.588585 254.924435 
L 195.755032 255.43285 
L 196.171149 255.927183 
L 196.254372 255.733432 
L 196.420819 255.972829 
L 196.670489 255.556676 
L 196.836936 256.019931 
L 196.920159 256.105395 
L 197.003383 255.881051 
L 197.4195 255.76111 
L 197.585947 255.708666 
L 197.91884 255.638741 
L 198.002064 255.448874 
L 198.085287 255.721777 
L 198.168511 255.237642 
L 198.501404 254.984162 
L 198.667851 254.309189 
L 198.751075 254.516052 
L 199.083968 253.941596 
L 199.583309 253.942567 
L 199.832979 254.214499 
L 200.165873 253.815828 
L 200.332319 253.781835 
L 200.415543 253.752215 
L 200.498766 253.468629 
L 200.83166 252.768405 
L 200.914883 252.910684 
L 200.998107 252.675171 
L 201.08133 253.095208 
L 201.331 252.866009 
L 201.414224 253.042279 
L 201.580671 252.953415 
L 201.663894 253.007316 
L 201.913564 254.237807 
L 202.080011 253.872641 
L 202.163235 253.754157 
L 202.496128 254.423789 
L 202.662575 254.321329 
L 202.829022 254.590347 
L 203.161916 254.7807 
L 203.245139 254.899184 
L 203.411586 254.172252 
L 203.74448 253.960534 
L 203.910926 254.084846 
L 203.99415 255.060886 
L 204.24382 255.659136 
L 204.410267 255.410998 
L 204.49349 255.573672 
L 204.576714 255.5188 
L 204.826384 255.373607 
L 204.909607 255.137124 
L 204.992831 255.343015 
L 205.159278 255.14198 
L 205.408948 255.800929 
L 205.492171 254.776329 
L 205.575395 255.003101 
L 205.658618 254.975908 
L 205.741841 254.828287 
L 205.991512 254.785069 
L 206.157959 255.349328 
L 206.241182 254.851596 
L 206.324405 254.901126 
L 206.574076 254.817118 
L 206.657299 254.372802 
L 206.740522 254.468949 
L 206.823746 254.342695 
L 206.906969 254.003752 
L 207.15664 254.23198 
L 207.239863 254.051339 
L 207.323086 254.53499 
L 207.40631 254.487887 
L 207.489533 254.775843 
L 207.90565 254.500998 
L 208.072097 254.691351 
L 208.404991 255.326991 
L 208.654661 255.701868 
L 208.904331 256.155896 
L 208.987555 256.033042 
L 209.154002 256.422001 
L 209.570119 256.959552 
L 209.819789 255.916499 
L 210.069459 255.755769 
L 210.235906 255.772279 
L 210.402353 255.50229 
L 210.652023 255.60475 
L 210.81847 255.764996 
L 210.984917 255.915529 
L 211.234587 256.363244 
L 211.31781 256.305459 
L 211.484257 256.337508 
L 211.567481 256.529803 
L 211.817151 256.745891 
L 211.900374 256.646831 
L 212.066821 257.247994 
L 212.150045 257.189723 
L 212.482938 257.24508 
L 212.732608 256.790566 
L 213.065502 256.562823 
L 213.148726 256.8838 
L 213.231949 256.600699 
L 213.315172 256.678394 
L 213.564843 256.321969 
L 213.731289 255.952434 
L 213.814513 255.833949 
L 213.897736 256.010219 
L 214.23063 256.062178 
L 214.313853 256.231649 
L 214.397077 256.713357 
L 214.4803 256.670139 
L 214.896417 256.636634 
L 215.062864 256.022359 
L 215.478981 256.670625 
L 215.562205 256.504067 
L 215.895098 256.982861 
L 216.061545 256.734723 
L 216.144768 256.822615 
L 216.227992 257.15039 
L 216.560886 257.323261 
L 216.644109 257.157188 
L 216.810556 257.402898 
L 217.226673 256.818731 
L 217.309896 257.06444 
L 217.39312 256.946441 
L 217.726013 256.769685 
L 217.975684 257.581596 
L 218.225354 257.311122 
L 218.391801 257.455827 
L 219.057588 256.363244 
L 219.140811 256.323912 
L 219.973046 256.5973 
L 220.55561 255.321163 
L 220.638833 255.373122 
L 220.722056 255.27746 
L 220.888503 255.58921 
L 221.221397 255.253181 
L 221.30462 255.37555 
L 221.471067 255.075454 
L 221.720737 254.935604 
L 221.803961 254.680667 
L 221.887184 254.756419 
L 221.970408 254.711745 
L 222.053631 254.481574 
L 222.386525 254.564125 
L 222.469748 254.699606 
L 222.552971 254.637935 
L 222.636195 254.535475 
L 223.052312 254.550043 
L 223.218759 254.386398 
L 223.801323 254.467007 
L 224.134216 254.13389 
L 224.21744 254.391255 
L 224.300663 254.356777 
L 224.633557 254.406793 
L 224.71678 254.273741 
L 224.883227 253.847877 
L 224.966451 253.81777 
L 225.216121 253.949851 
L 225.299344 253.567204 
L 225.382568 253.688602 
L 225.465791 253.512818 
L 225.549014 253.595369 
L 225.798685 253.841564 
L 226.048355 252.967497 
L 226.381249 252.982065 
L 226.547695 254.184392 
L 226.630919 254.040657 
L 227.213483 253.615278 
L 227.296706 253.227775 
L 227.546376 252.858725 
L 227.6296 253.610907 
L 227.712823 253.557492 
L 227.87927 253.676948 
L 228.12894 254.279082 
L 228.212164 253.705598 
L 228.295387 253.754157 
L 228.461834 253.641014 
L 228.711504 253.940139 
L 228.877951 253.447748 
L 229.044398 254.788955 
L 229.294068 254.85548 
L 229.377292 255.038549 
L 229.460515 254.999702 
L 229.959856 253.904691 
L 230.126302 254.804979 
L 230.209526 255.35904 
L 230.459196 255.936895 
L 230.542419 255.880566 
L 230.625643 255.646996 
L 230.79209 254.499056 
L 231.04176 254.470891 
L 231.124983 254.977364 
L 231.208207 254.537418 
L 231.29143 254.640364 
L 231.374654 254.817118 
L 231.957217 254.413592 
L 232.290111 254.251889 
L 232.456558 253.839136 
L 232.539781 253.909546 
L 232.789452 253.735705 
L 232.955898 253.88818 
L 233.039122 253.788148 
L 233.122345 254.089701 
L 233.455239 254.587919 
L 233.538462 254.502941 
L 233.621686 254.916665 
L 233.704909 254.543245 
L 233.954579 254.612199 
L 234.20425 255.555704 
L 234.287473 255.848517 
L 234.537143 256.096654 
L 234.620367 255.918443 
L 234.70359 256.033528 
L 234.870037 255.541623 
L 235.119707 255.488693 
L 235.286154 256.363244 
L 235.369378 256.284093 
L 235.452601 256.411804 
L 235.702271 256.112194 
L 235.785495 256.350619 
L 235.868718 256.22388 
L 235.951941 256.288464 
L 236.035165 256.516691 
L 236.284835 256.183576 
L 236.368059 256.447738 
L 236.534505 255.310481 
L 236.617729 255.281831 
L 236.867399 255.623202 
L 236.950622 256.05198 
L 237.033846 255.926697 
L 237.200293 256.504067 
L 237.699633 255.794616 
L 237.782857 255.881537 
L 238.11575 255.967001 
L 238.198974 255.413912 
L 238.365421 255.31825 
L 238.615091 255.383806 
L 238.698314 255.04729 
L 238.781538 255.299798 
L 238.864761 255.264835 
L 238.947984 255.377978 
L 239.197655 255.341558 
L 239.364102 255.662535 
L 239.447325 255.538709 
L 239.530548 256.02673 
L 239.863442 255.829093 
L 239.946665 255.177428 
L 240.029889 255.231814 
L 240.113112 255.374093 
L 240.362783 255.272119 
L 240.529229 255.410998 
L 240.612453 255.368752 
L 240.945346 255.447417 
L 241.111793 255.003586 
L 241.195017 254.910353 
L 241.860804 256.319056 
L 242.110474 256.472017 
L 242.193698 256.369072 
L 242.276921 256.838154 
L 242.360144 256.553111 
L 242.443368 256.610897 
L 242.776262 256.624008 
L 242.859485 256.916334 
L 242.942708 256.854664 
L 243.025932 256.729382 
L 243.358825 257.165928 
L 243.442049 257.43252 
L 243.525272 257.353368 
L 243.858166 257.001799 
L 244.024613 258.140999 
L 244.107836 258.051163 
L 244.19106 258.669323 
L 244.607177 259.588549 
L 244.773624 259.230668 
L 245.106517 259.030118 
L 245.189741 258.374083 
L 245.272964 258.466831 
L 245.356187 258.476057 
L 245.689081 257.959872 
L 245.772305 257.872952 
L 245.938751 257.322289 
L 246.188422 257.24508 
L 246.271645 257.516041 
L 246.354868 257.419408 
L 246.521315 256.802706 
L 246.770986 256.596329 
L 246.854209 256.726953 
L 246.937432 256.429771 
L 247.020656 256.601671 
L 247.519996 255.788303 
L 247.936113 254.992417 
L 248.019337 255.190539 
L 248.10256 255.75674 
L 248.185784 255.505689 
L 248.601901 255.390118 
L 248.685124 255.54745 
L 248.768348 255.407599 
L 248.851571 255.027865 
L 249.101241 254.571409 
L 249.267688 253.676462 
L 249.434135 254.421847 
L 249.767029 254.531105 
L 249.850252 254.205273 
L 249.933475 254.334925 
L 250.016699 254.206244 
L 250.266369 254.236836 
L 250.349592 254.552957 
L 250.432816 254.426703 
L 250.516039 254.508282 
L 250.599263 254.243149 
L 250.848933 254.336868 
L 250.932156 254.243634 
L 251.098603 254.536446 
L 251.181827 254.873933 
L 251.431497 254.823431 
L 251.681167 256.293319 
L 251.76439 256.128218 
L 252.097284 256.431228 
L 252.596625 256.450651 
L 252.679848 256.626922 
L 252.929518 255.868426 
L 253.179189 256.065577 
L 253.345635 255.902418 
L 253.428859 255.6334 
L 253.512082 255.734402 
L 253.844976 255.725176 
L 254.011423 255.932524 
L 254.344316 255.849002 
L 254.510763 255.128383 
L 254.67721 255.94078 
L 254.92688 255.985454 
L 255.010104 256.126761 
L 255.176551 255.982541 
L 255.259774 256.101996 
L 255.592668 255.900961 
L 255.759114 257.028021 
L 255.842338 257.185838 
L 256.175232 256.766286 
L 256.424902 256.05198 
L 256.841019 256.152012 
L 257.340359 255.656222 
L 257.423583 255.759168 
L 257.59003 255.862599 
L 258.006147 255.476067 
L 258.08937 255.857744 
L 258.172594 255.771794 
L 258.505487 255.420224 
L 258.588711 255.469754 
L 258.755157 255.163832 
L 259.171274 255.600865 
L 259.337721 255.394973 
L 259.587392 255.582898 
L 259.670615 255.441104 
L 259.837062 255.643597 
L 260.169955 255.610577 
L 260.336402 255.724691 
L 260.835743 255.646996 
L 261.418307 256.302545 
L 261.50153 256.270011 
L 261.667977 256.961009 
L 262.084094 256.770171 
L 262.250541 257.12174 
L 262.500211 256.935758 
L 262.666658 257.027535 
L 262.833105 256.590987 
L 263.665339 256.41666 
L 263.915009 256.819216 
L 264.247903 256.187945 
L 264.41435 256.442396 
L 264.580797 257.017823 
L 264.996914 256.779883 
L 265.413031 257.146505 
L 265.579478 256.680336 
L 265.662701 256.896911 
L 265.745924 256.848837 
L 266.245265 256.658485 
L 266.328488 256.854664 
L 266.578159 256.963437 
L 266.744605 257.434947 
L 266.827829 257.464082 
L 266.911052 257.311607 
L 267.243946 257.098917 
L 267.410393 257.5646 
L 267.493616 257.408725 
L 267.743286 257.753981 
L 267.992957 257.40387 
L 268.07618 257.580624 
L 268.32585 257.604905 
L 268.492297 257.186324 
L 268.658744 257.01588 
L 268.908414 257.041618 
L 269.158084 257.733101 
L 269.241308 257.75301 
L 269.823872 257.23294 
L 270.073542 257.220801 
L 270.239989 256.91682 
L 270.323212 256.970721 
L 270.406436 256.732295 
L 270.656106 256.72064 
L 270.739329 256.426372 
L 270.822553 256.479301 
L 270.905776 256.442882 
L 270.989 256.205428 
L 271.405117 255.894648 
L 271.571563 256.188432 
L 271.904457 256.028186 
L 272.070904 255.554248 
L 272.154127 255.444505 
L 272.487021 255.402743 
L 272.653468 255.41634 
L 272.736691 255.020097 
L 273.069585 255.12547 
L 273.735372 254.208186 
L 273.901819 254.281996 
L 274.317936 254.462151 
L 274.734053 254.04794 
L 274.817277 254.062023 
L 275.316617 252.939334 
L 275.483064 252.980123 
L 275.566287 253.505048 
L 275.649511 253.345774 
L 275.982405 253.095208 
L 276.065628 253.283618 
L 276.148851 254.134376 
L 276.232075 254.085331 
L 276.481745 254.608315 
L 276.648192 254.424274 
L 277.064309 254.366489 
L 277.397203 254.731655 
L 277.646873 254.611227 
L 277.730096 254.036772 
L 277.81332 254.147001 
L 277.896543 253.840107 
L 277.979766 253.866815 
L 278.229437 253.84642 
L 278.31266 254.392225 
L 278.56233 253.786206 
L 278.812001 253.443378 
L 278.978447 253.095694 
L 279.144894 253.051019 
L 279.477788 251.817614 
L 279.561011 252.24008 
L 279.977128 251.395635 
L 280.060352 251.574333 
L 280.143575 252.150731 
L 280.226799 251.803047 
L 280.642916 251.985145 
L 280.726139 251.729237 
L 280.809363 251.875401 
L 280.892586 251.725353 
L 281.142256 251.607354 
L 281.22548 251.327653 
L 281.391927 251.578217 
L 281.72482 250.888676 
L 281.891267 251.462162 
L 281.97449 252.217743 
L 282.057714 251.591815 
L 282.307384 251.648143 
L 282.473831 250.772621 
L 282.557054 250.875565 
L 282.640278 250.79253 
L 283.056395 251.700587 
L 283.139618 251.363101 
L 283.222842 251.471388 
L 283.472512 251.494696 
L 283.555735 251.809846 
L 283.805406 250.776505 
L 284.720863 249.430929 
L 284.88731 248.598138 
L 284.970533 249.21387 
L 285.220204 249.131803 
L 285.386651 248.080495 
L 285.553097 248.530155 
L 285.802768 248.60785 
L 285.969214 248.287359 
L 286.135661 247.945016 
L 286.385332 248.234429 
L 286.468555 248.968645 
L 286.551778 248.537924 
L 286.635002 249.04731 
L 286.718225 249.00555 
L 286.967895 249.442097 
L 287.217566 251.568506 
L 287.300789 251.355331 
L 287.550459 251.217909 
L 287.716906 250.563816 
L 287.80013 250.860513 
L 287.883353 250.648309 
L 288.133023 251.04698 
L 288.216247 250.625971 
L 288.29947 250.770677 
L 288.715587 249.932546 
L 288.798811 250.074339 
L 288.882034 249.867962 
L 288.965257 250.323933 
L 289.048481 250.294312 
L 289.381374 251.04698 
L 289.464598 250.740085 
L 289.631045 249.233777 
L 289.880715 249.318272 
L 289.963938 248.830251 
L 290.047162 248.912316 
L 290.130385 249.307102 
L 290.213609 249.187162 
L 290.546502 248.970586 
L 290.629726 248.942423 
L 290.796173 249.692664 
L 291.045843 250.158832 
L 291.129066 249.989361 
L 291.295513 249.427044 
L 291.378736 249.664013 
L 291.71163 249.697519 
L 291.878077 249.282823 
L 291.9613 249.307102 
L 292.294194 249.589232 
L 292.377417 249.834942 
L 292.460641 249.539701 
L 292.543864 249.889813 
L 292.793535 248.904547 
L 292.876758 248.950192 
L 292.959981 248.781206 
L 293.126428 248.121772 
L 293.376098 247.869749 
L 293.708992 249.516392 
L 294.208333 250.074339 
L 294.291556 250.001499 
L 294.541226 249.980619 
L 294.790897 249.310501 
L 294.87412 249.235235 
L 295.12379 249.912151 
L 295.207014 249.297877 
L 295.290237 249.345951 
L 295.456684 249.298848 
L 295.706354 249.540186 
L 295.872801 249.100726 
L 296.039248 249.807263 
L 296.372141 250.184082 
L 296.455365 250.742514 
L 296.538588 250.726489 
L 296.621812 250.983852 
L 296.871482 251.022215 
L 296.954705 250.466212 
L 297.121152 252.033218 
L 297.204376 251.701559 
L 297.454046 251.862289 
L 297.537269 251.703501 
L 297.786939 251.852092 
L 298.03661 251.249471 
L 298.119833 251.574818 
L 298.369503 251.266468 
L 298.619174 251.572876 
L 298.702397 251.132444 
L 298.78562 251.385438 
L 298.952067 251.242188 
L 299.284961 251.14507 
L 299.368184 251.631148 
L 299.451408 251.567535 
L 299.534631 251.680192 
L 299.867525 251.817614 
L 299.950748 251.353389 
L 300.033972 251.451478 
L 300.366865 250.593437 
L 300.450089 250.004899 
L 300.533312 250.102017 
L 300.616536 250.157374 
L 300.699759 249.887385 
L 300.949429 250.109786 
L 301.115876 250.590038 
L 301.1991 250.459899 
L 301.282323 250.773591 
L 301.615217 251.157695 
L 301.69844 251.432055 
L 301.781663 251.251415 
L 301.864887 251.446137 
L 302.197781 251.000362 
L 302.364227 251.287348 
L 302.447451 251.192172 
L 302.697121 250.229243 
L 302.780344 250.361324 
L 302.863568 250.307423 
L 302.946791 250.154462 
L 303.030015 250.238468 
L 303.362908 250.052001 
L 303.446132 249.707231 
L 303.529355 249.832999 
L 303.612579 249.568352 
L 303.945472 249.433842 
L 304.111919 250.169515 
L 304.195143 249.916521 
L 304.444813 249.592146 
L 304.528036 249.7723 
L 304.61126 249.360032 
L 305.027377 250.388517 
L 305.1106 250.347727 
L 305.193823 249.812119 
L 305.36027 251.491297 
L 305.609941 251.233447 
L 305.859611 250.34287 
L 305.942834 250.273917 
L 306.358951 250.380261 
L 306.525398 249.469775 
L 306.775068 249.209013 
L 307.024739 250.495348 
L 307.107962 250.291883 
L 307.357632 250.377834 
L 307.440856 250.627914 
L 307.524079 250.428821 
L 307.690526 250.67793 
L 307.940196 249.787354 
L 308.02342 249.965567 
L 308.189866 250.754167 
L 308.52276 251.33882 
L 308.605984 251.484984 
L 308.689207 251.1946 
L 308.855654 251.922503 
L 309.105324 251.794307 
L 309.271771 254.047455 
L 309.354994 253.641985 
L 309.687888 254.304819 
L 309.937558 251.719525 
L 310.020782 252.031275 
L 310.270452 252.499387 
L 310.353675 251.769056 
L 310.436899 251.952124 
L 310.520122 252.284754 
L 310.603346 251.980774 
L 310.936239 252.595049 
L 311.102686 251.9934 
L 311.185909 252.471222 
L 311.602027 252.934963 
L 311.768473 252.284754 
L 312.018144 252.293496 
L 312.18459 251.941441 
L 312.267814 252.75238 
L 312.351037 252.284269 
L 312.767154 251.664654 
L 312.933601 251.945811 
L 313.183271 252.387215 
L 313.266495 252.765491 
L 313.349718 252.653805 
L 313.432942 252.74801 
L 313.516165 253.122888 
L 313.765835 252.750438 
L 313.849059 253.21078 
L 313.932282 253.013629 
L 314.015506 253.072871 
L 314.431623 252.785886 
L 314.514846 252.399354 
L 314.598069 252.738784 
L 314.681293 252.394499 
L 314.930963 252.155587 
L 315.014187 252.428004 
L 315.09741 251.050379 
L 315.180633 251.215966 
L 315.263857 251.139728 
L 315.679974 249.822801 
L 315.846421 249.172593 
L 316.096091 248.557834 
L 316.179314 249.445496 
L 316.262538 248.975929 
L 316.428985 250.364238 
L 316.678655 250.394345 
L 316.928325 249.572722 
L 317.011549 249.911666 
L 317.261219 250.294312 
L 317.344442 251.469931 
L 317.594112 251.565107 
L 317.927006 250.906157 
L 318.093453 251.18586 
L 318.176676 251.080972 
L 318.426347 251.506836 
L 318.592793 250.839147 
L 319.092134 252.122081 
L 319.175357 251.572876 
L 319.258581 251.674365 
L 319.341804 252.134221 
L 319.591474 252.474621 
L 319.757921 251.956495 
L 319.841145 249.59166 
L 319.924368 249.658185 
L 320.174038 249.958281 
L 320.257262 248.133426 
L 320.340485 248.581627 
L 320.423709 249.450353 
L 320.506932 249.302732 
L 320.756602 249.258058 
L 321.006273 250.27586 
L 321.089496 251.730209 
L 321.339166 251.587444 
L 321.42239 250.933838 
L 321.505613 250.946462 
L 321.588836 251.021244 
L 321.67206 250.889162 
L 321.92173 251.061548 
L 322.1714 251.844322 
L 322.254624 251.916676 
L 322.587517 252.533863 
L 322.837188 253.782322 
L 323.086858 252.701394 
L 323.170081 252.995662 
L 323.253305 252.456654 
L 323.336528 252.509099 
L 323.419752 252.230368 
L 323.669422 252.24785 
L 323.752645 252.727615 
L 323.835869 252.044872 
L 323.919092 252.078378 
L 324.335209 251.94921 
L 324.418433 251.532087 
L 324.501656 251.632118 
L 324.584879 253.708026 
L 324.83455 251.477701 
L 325.417114 254.398053 
L 325.500337 253.803687 
L 325.666784 254.316959 
L 325.750007 253.998895 
L 325.999677 253.959563 
L 326.082901 253.134056 
L 326.166124 253.367626 
L 326.332571 253.939653 
L 326.582241 253.893522 
L 326.665465 252.281841 
L 326.748688 252.555715 
L 326.915135 250.496804 
L 327.164805 250.304995 
L 327.248029 250.545362 
L 327.497699 249.743651 
L 327.830593 250.003443 
L 327.997039 249.50134 
L 328.080263 249.544558 
L 328.329933 250.478352 
L 328.662827 249.360032 
L 328.912497 249.400822 
L 329.245391 250.742999 
L 329.495061 249.76356 
L 329.578284 249.864563 
L 329.661508 249.672754 
L 329.744731 249.9981 
L 329.827955 249.546014 
L 330.327295 248.935139 
L 330.410519 249.182305 
L 330.826636 248.763239 
L 330.909859 248.26842 
L 330.993082 248.806457 
L 331.4092 250.396286 
L 331.492423 251.250443 
L 331.575646 251.037268 
L 331.825317 252.221142 
L 331.991763 250.730373 
L 332.074987 251.214023 
L 332.15821 250.352582 
L 332.40788 250.404542 
L 332.657551 251.979803 
L 332.740774 251.138272 
L 333.240115 249.813575 
L 333.323338 249.702374 
L 333.573008 250.326847 
L 333.739455 249.761132 
L 333.822679 249.699947 
L 333.905902 251.88754 
L 334.238796 252.049728 
L 334.322019 252.599904 
L 334.405242 252.409553 
L 334.488466 252.141019 
L 334.82136 252.120624 
L 334.904583 251.571419 
L 334.987806 251.656399 
L 335.07103 251.404376 
L 335.3207 251.371356 
L 335.403923 250.960545 
L 335.653594 251.715641 
L 335.986487 251.4238 
L 336.152934 251.814215 
L 336.236158 251.614637 
L 336.569051 251.723411 
L 336.652275 251.872972 
L 336.735498 252.423149 
L 336.818722 252.254162 
L 337.151615 252.101201 
L 337.318062 251.031926 
L 337.401285 252.250278 
L 337.650956 252.708192 
L 337.817403 253.151051 
L 337.900626 253.134056 
L 337.983849 252.767434 
L 338.23352 252.438202 
L 338.316743 252.80531 
L 338.48319 252.484819 
L 338.566413 253.190385 
L 338.899307 253.576916 
L 339.065754 253.258853 
L 339.148977 253.719681 
L 339.398647 253.919259 
L 339.731541 252.975267 
L 339.981211 252.522695 
L 340.064435 252.682941 
L 340.147658 252.394984 
L 340.230882 253.561863 
L 340.314105 253.213207 
L 340.646999 253.341889 
L 340.730222 253.159792 
L 340.896669 253.565747 
L 341.146339 253.629845 
L 341.229563 253.290902 
L 341.312786 253.394334 
L 341.396009 253.295758 
L 341.89535 254.004723 
L 342.061797 255.146836 
L 342.311467 254.839456 
L 342.477914 255.201708 
L 342.644361 254.180993 
L 342.894031 254.165939 
L 343.060478 254.675812 
L 343.476595 255.541623 
L 343.643042 255.30174 
L 343.726265 255.477524 
L 343.809488 256.317599 
L 344.142382 256.606527 
L 344.225606 257.206233 
L 344.308829 257.07221 
L 344.392052 257.308208 
L 344.974616 257.573826 
L 345.224287 257.874408 
L 345.473957 256.56428 
L 345.55718 256.63469 
L 345.890074 256.022845 
L 345.973297 256.403549 
L 346.139744 256.128703 
L 346.472638 255.651852 
L 346.555861 255.569787 
L 346.639085 255.900475 
L 346.722308 255.791702 
L 346.971978 255.705267 
L 347.138425 255.917471 
L 347.304872 255.714008 
L 347.554542 255.533854 
L 347.637766 255.661078 
L 347.720989 255.15849 
L 348.22033 255.393517 
L 348.47 254.664157 
L 348.886117 254.189248 
L 348.96934 254.253346 
L 349.052564 254.028031 
L 349.302234 254.149429 
L 349.468681 253.702684 
L 349.635128 255.491606 
L 350.051245 254.832658 
L 350.134468 255.209477 
L 350.217692 255.185683 
L 350.467362 255.47801 
L 350.717032 254.993389 
L 350.800255 255.153149 
L 351.049926 255.444505 
L 351.133149 255.153634 
L 351.299596 256.093742 
L 351.63249 255.550363 
L 351.715713 255.597465 
L 351.965383 256.299632 
L 352.3815 256.096169 
L 352.547947 255.609605 
L 352.880841 255.638741 
L 352.964064 255.849002 
L 353.047288 255.416825 
L 353.130511 255.520256 
L 353.463405 255.127412 
L 353.546628 254.566068 
L 353.629852 254.625795 
L 354.129192 254.741366 
L 354.212415 254.590347 
L 354.295639 254.880731 
L 354.545309 254.851111 
L 354.628533 255.726148 
L 354.711756 255.459557 
L 354.794979 254.786526 
L 354.878203 254.807407 
L 355.127873 254.868592 
L 355.211096 254.683095 
L 355.29432 254.758848 
L 355.460767 255.326991 
L 356.043331 254.527706 
L 356.542671 253.843992 
L 356.625895 254.087759 
L 356.875565 254.255288 
L 357.042012 254.197988 
L 357.208458 250.631313 
L 357.458129 250.651708 
L 357.624576 251.26841 
L 357.791022 251.350961 
L 358.123916 251.161094 
L 358.373586 250.193794 
L 358.70648 249.572722 
L 358.789703 249.758218 
L 358.95615 249.463949 
L 359.20582 249.569808 
L 359.289044 249.107039 
L 359.538714 250.392887 
L 359.788384 250.232642 
L 359.871608 250.592952 
L 359.954831 250.477865 
L 360.121278 250.543421 
L 360.454172 250.23944 
L 360.620618 250.522541 
L 360.703842 250.254493 
L 360.953512 250.077738 
L 361.203182 249.09927 
L 361.286406 249.16191 
L 361.86897 246.869916 
L 362.36831 245.638937 
L 362.451534 245.666132 
L 362.701204 246.42754 
L 362.950874 245.671958 
L 363.034098 245.052829 
L 363.283768 244.638618 
L 363.450215 242.667113 
L 363.533438 243.191553 
L 363.616661 243.346457 
L 363.949555 240.444071 
L 364.116002 241.630374 
L 364.199225 241.775566 
L 364.532119 239.993441 
L 364.698566 238.77946 
L 364.781789 239.137829 
L 365.03146 239.468032 
L 365.197906 238.352626 
L 365.364353 234.973874 
L 365.614023 228.688852 
L 365.697247 223.4901 
L 365.78047 230.888585 
L 365.863694 230.196129 
L 365.946917 230.239349 
L 366.279811 228.961753 
L 366.363034 229.306042 
L 366.446258 227.52343 
L 366.529481 227.716212 
L 366.862375 224.88181 
L 366.945598 222.015844 
L 367.028822 222.890393 
L 367.112045 222.813186 
L 367.528162 228.747125 
L 367.694609 234.12797 
L 368.027503 230.363659 
L 368.110726 230.16991 
L 368.526843 237.041041 
L 368.610066 235.228326 
L 368.69329 235.767331 
L 368.859737 240.021607 
L 369.275854 249.024487 
L 369.359077 245.799184 
L 369.442301 245.804526 
L 369.691971 245.476264 
L 369.858418 240.379488 
L 370.024864 241.588126 
L 370.274535 242.182006 
L 370.357758 241.120015 
L 370.524205 244.49634 
L 370.607428 243.256137 
L 370.857099 241.496835 
L 371.106769 238.740614 
L 371.439663 234.955421 
L 371.606109 231.125068 
L 371.772556 229.956734 
L 372.022226 230.322384 
L 372.10545 233.218459 
L 372.188673 231.014355 
L 372.271897 232.300201 
L 372.60479 227.778367 
L 372.688014 229.217176 
L 372.771237 227.692901 
L 372.854461 228.597559 
L 372.937684 232.509491 
L 373.353801 228.563568 
L 373.437025 228.686911 
L 373.520248 226.774647 
L 373.853142 227.260724 
L 373.936365 228.156643 
L 374.019588 227.555965 
L 374.102812 227.757972 
L 374.352482 227.055806 
L 374.435706 227.328707 
L 374.602152 226.377432 
L 374.685376 226.897986 
L 375.101493 226.735313 
L 375.184716 227.435538 
L 375.51761 222.954008 
L 375.76728 224.591422 
L 376.100174 220.437669 
L 376.183397 220.88684 
L 376.266621 216.789413 
L 376.433068 221.148575 
L 376.682738 218.447712 
L 376.765961 218.873576 
L 376.932408 217.813525 
L 377.015631 217.962119 
L 377.265302 218.281638 
L 377.348525 217.919385 
L 377.431749 219.906915 
L 377.514972 218.686622 
L 377.598195 219.960816 
L 377.847866 217.551793 
L 378.097536 207.873453 
L 378.513653 199.074522 
L 378.596876 200.23897 
L 378.6801 198.859889 
L 378.763323 191.558036 
L 379.012993 193.868972 
L 379.17944 191.491995 
L 379.262664 193.695129 
L 379.345887 193.685415 
L 379.595557 186.782233 
L 379.928451 197.756622 
L 380.178121 191.803256 
L 380.261345 194.867831 
L 380.344568 193.769424 
L 380.427791 194.333684 
L 380.511015 197.088444 
L 380.843909 194.357476 
L 380.927132 194.453622 
L 381.010355 194.232195 
L 381.093579 196.022573 
L 381.343249 197.680385 
L 381.426472 199.825732 
L 381.592919 187.850534 
L 381.676143 186.407843 
L 382.258707 167.019597 
L 382.508377 168.757048 
L 382.5916 168.313216 
L 382.758047 157.853071 
L 382.841271 159.084049 
L 383.090941 145.574867 
L 383.756728 186.391334 
L 383.923175 176.405127 
L 384.006398 176.070067 
L 384.339292 157.365048 
L 384.422515 159.307418 
L 384.505739 163.757875 
L 384.588962 159.212731 
L 384.838633 157.454882 
L 385.005079 174.215108 
L 385.088303 172.411127 
L 385.171526 167.664465 
L 385.421196 164.299306 
L 385.50442 164.816463 
L 385.670867 157.753524 
L 385.75409 165.782795 
L 386.00376 163.211584 
L 386.086984 166.052295 
L 386.336654 161.191518 
L 386.669548 158.120148 
L 386.752771 154.563186 
L 386.919218 159.814861 
L 387.168888 161.961185 
L 387.252112 164.11964 
L 387.335335 163.949679 
L 387.418558 163.184873 
L 387.501782 164.437702 
L 387.751452 164.522682 
L 387.834675 163.45438 
L 388.084346 172.350428 
L 388.334016 169.322759 
L 388.417239 163.643761 
L 388.500463 164.352722 
L 388.583686 160.198483 
L 388.66691 162.17484 
L 388.91658 164.284739 
L 388.999803 166.931223 
L 389.083027 165.287488 
L 389.249474 167.382821 
L 389.499144 167.482368 
L 389.748814 145.344215 
L 389.832037 147.689627 
L 390.081708 139.861881 
L 390.248155 127.200055 
L 390.414601 124.34477 
L 390.664272 128.753956 
L 390.747495 124.587566 
L 390.830718 128.457738 
L 390.997165 121.120444 
L 391.330059 108.776681 
L 391.413282 119.799633 
L 391.496506 114.314861 
L 391.579729 118.461824 
L 391.829399 111.216779 
L 391.995846 115.358881 
L 392.162293 97.821719 
L 392.495187 111.092951 
L 392.57841 109.723592 
L 392.661634 105.889831 
L 392.994527 105.423667 
L 393.077751 104.865238 
L 393.244198 95.231088 
L 393.660315 88.083169 
L 393.743538 83.016014 
L 393.909985 52.899568 
L 394.159655 69.611232 
L 394.326102 59.117589 
L 394.492549 65.976581 
L 394.908666 60.079052 
L 394.991889 61.404725 
L 395.075113 61.004105 
L 395.408006 52.154182 
L 395.574453 63.725855 
L 395.657677 73.899006 
L 395.99057 54.654994 
L 396.073794 59.049599 
L 396.157017 60.190744 
L 396.24024 59.646883 
L 396.489911 56.929993 
L 396.573134 60.319418 
L 396.656358 71.157843 
L 396.739581 69.497125 
L 396.822804 68.414249 
L 397.155698 73.245898 
L 397.238921 72.777289 
L 397.405368 76.868413 
L 397.738262 96.889375 
L 397.821485 86.405439 
L 397.987932 102.556244 
L 398.237602 92.133007 
L 398.487273 115.681805 
L 398.487273 115.681805 
" style="fill:none;stroke:#1f77b4;stroke-linecap:square;stroke-width:1.5;"/>
   </g>
   <g id="patch_3">
    <path d="M 57.6 276.48 
L 57.6 41.472 
" style="fill:none;stroke:#000000;stroke-linecap:square;stroke-linejoin:miter;stroke-width:0.8;"/>
   </g>
   <g id="patch_4">
    <path d="M 414.72 276.48 
L 414.72 41.472 
" style="fill:none;stroke:#000000;stroke-linecap:square;stroke-linejoin:miter;stroke-width:0.8;"/>
   </g>
   <g id="patch_5">
    <path d="M 57.6 276.48 
L 414.72 276.48 
" style="fill:none;stroke:#000000;stroke-linecap:square;stroke-linejoin:miter;stroke-width:0.8;"/>
   </g>
   <g id="patch_6">
    <path d="M 57.6 41.472 
L 414.72 41.472 
" style="fill:none;stroke:#000000;stroke-linecap:square;stroke-linejoin:miter;stroke-width:0.8;"/>
   </g>
   <g id="text_13">
    <!-- Tesla, Inc. -->
    <g transform="translate(206.761875 35.472)scale(0.12 -0.12)">
     <defs>
      <path d="M -0.296875 72.90625 
L 61.375 72.90625 
L 61.375 64.59375 
L 35.5 64.59375 
L 35.5 0 
L 25.59375 0 
L 25.59375 64.59375 
L -0.296875 64.59375 
z
" id="DejaVuSans-84"/>
      <path d="M 44.28125 53.078125 
L 44.28125 44.578125 
Q 40.484375 46.53125 36.375 47.5 
Q 32.28125 48.484375 27.875 48.484375 
Q 21.1875 48.484375 17.84375 46.4375 
Q 14.5 44.390625 14.5 40.28125 
Q 14.5 37.15625 16.890625 35.375 
Q 19.28125 33.59375 26.515625 31.984375 
L 29.59375 31.296875 
Q 39.15625 29.25 43.1875 25.515625 
Q 47.21875 21.78125 47.21875 15.09375 
Q 47.21875 7.46875 41.1875 3.015625 
Q 35.15625 -1.421875 24.609375 -1.421875 
Q 20.21875 -1.421875 15.453125 -0.5625 
Q 10.6875 0.296875 5.421875 2 
L 5.421875 11.28125 
Q 10.40625 8.6875 15.234375 7.390625 
Q 20.0625 6.109375 24.8125 6.109375 
Q 31.15625 6.109375 34.5625 8.28125 
Q 37.984375 10.453125 37.984375 14.40625 
Q 37.984375 18.0625 35.515625 20.015625 
Q 33.0625 21.96875 24.703125 23.78125 
L 21.578125 24.515625 
Q 13.234375 26.265625 9.515625 29.90625 
Q 5.8125 33.546875 5.8125 39.890625 
Q 5.8125 47.609375 11.28125 51.796875 
Q 16.75 56 26.8125 56 
Q 31.78125 56 36.171875 55.265625 
Q 40.578125 54.546875 44.28125 53.078125 
z
" id="DejaVuSans-115"/>
      <path d="M 9.421875 75.984375 
L 18.40625 75.984375 
L 18.40625 0 
L 9.421875 0 
z
" id="DejaVuSans-108"/>
      <path d="M 11.71875 12.40625 
L 22.015625 12.40625 
L 22.015625 4 
L 14.015625 -11.625 
L 7.71875 -11.625 
L 11.71875 4 
z
" id="DejaVuSans-44"/>
      <path id="DejaVuSans-32"/>
      <path d="M 9.8125 72.90625 
L 19.671875 72.90625 
L 19.671875 0 
L 9.8125 0 
z
" id="DejaVuSans-73"/>
      <path d="M 54.890625 33.015625 
L 54.890625 0 
L 45.90625 0 
L 45.90625 32.71875 
Q 45.90625 40.484375 42.875 44.328125 
Q 39.84375 48.1875 33.796875 48.1875 
Q 26.515625 48.1875 22.3125 43.546875 
Q 18.109375 38.921875 18.109375 30.90625 
L 18.109375 0 
L 9.078125 0 
L 9.078125 54.6875 
L 18.109375 54.6875 
L 18.109375 46.1875 
Q 21.34375 51.125 25.703125 53.5625 
Q 30.078125 56 35.796875 56 
Q 45.21875 56 50.046875 50.171875 
Q 54.890625 44.34375 54.890625 33.015625 
z
" id="DejaVuSans-110"/>
      <path d="M 48.78125 52.59375 
L 48.78125 44.1875 
Q 44.96875 46.296875 41.140625 47.34375 
Q 37.3125 48.390625 33.40625 48.390625 
Q 24.65625 48.390625 19.8125 42.84375 
Q 14.984375 37.3125 14.984375 27.296875 
Q 14.984375 17.28125 19.8125 11.734375 
Q 24.65625 6.203125 33.40625 6.203125 
Q 37.3125 6.203125 41.140625 7.25 
Q 44.96875 8.296875 48.78125 10.40625 
L 48.78125 2.09375 
Q 45.015625 0.34375 40.984375 -0.53125 
Q 36.96875 -1.421875 32.421875 -1.421875 
Q 20.0625 -1.421875 12.78125 6.34375 
Q 5.515625 14.109375 5.515625 27.296875 
Q 5.515625 40.671875 12.859375 48.328125 
Q 20.21875 56 33.015625 56 
Q 37.15625 56 41.109375 55.140625 
Q 45.0625 54.296875 48.78125 52.59375 
z
" id="DejaVuSans-99"/>
      <path d="M 10.6875 12.40625 
L 21 12.40625 
L 21 0 
L 10.6875 0 
z
" id="DejaVuSans-46"/>
     </defs>
     <use xlink:href="#DejaVuSans-84"/>
     <use x="44.083984" xlink:href="#DejaVuSans-101"/>
     <use x="105.607422" xlink:href="#DejaVuSans-115"/>
     <use x="157.707031" xlink:href="#DejaVuSans-108"/>
     <use x="185.490234" xlink:href="#DejaVuSans-97"/>
     <use x="246.769531" xlink:href="#DejaVuSans-44"/>
     <use x="278.556641" xlink:href="#DejaVuSans-32"/>
     <use x="310.34375" xlink:href="#DejaVuSans-73"/>
     <use x="339.835938" xlink:href="#DejaVuSans-110"/>
     <use x="403.214844" xlink:href="#DejaVuSans-99"/>
     <use x="458.195312" xlink:href="#DejaVuSans-46"/>
    </g>
   </g>
   <g id="legend_1">
    <g id="patch_7">
     <path d="M 64.6 64.150125 
L 142.8125 64.150125 
Q 144.8125 64.150125 144.8125 62.150125 
L 144.8125 48.472 
Q 144.8125 46.472 142.8125 46.472 
L 64.6 46.472 
Q 62.6 46.472 62.6 48.472 
L 62.6 62.150125 
Q 62.6 64.150125 64.6 64.150125 
z
" style="fill:#ffffff;opacity:0.8;stroke:#cccccc;stroke-linejoin:miter;"/>
    </g>
    <g id="line2d_13">
     <path d="M 66.6 54.570437 
L 86.6 54.570437 
" style="fill:none;stroke:#1f77b4;stroke-linecap:square;stroke-width:1.5;"/>
    </g>
    <g id="line2d_14"/>
    <g id="text_14">
     <!-- Adj Close -->
     <g transform="translate(94.6 58.070437)scale(0.1 -0.1)">
      <defs>
       <path d="M 34.1875 63.1875 
L 20.796875 26.90625 
L 47.609375 26.90625 
z
M 28.609375 72.90625 
L 39.796875 72.90625 
L 67.578125 0 
L 57.328125 0 
L 50.6875 18.703125 
L 17.828125 18.703125 
L 11.1875 0 
L 0.78125 0 
z
" id="DejaVuSans-65"/>
       <path d="M 45.40625 46.390625 
L 45.40625 75.984375 
L 54.390625 75.984375 
L 54.390625 0 
L 45.40625 0 
L 45.40625 8.203125 
Q 42.578125 3.328125 38.25 0.953125 
Q 33.9375 -1.421875 27.875 -1.421875 
Q 17.96875 -1.421875 11.734375 6.484375 
Q 5.515625 14.40625 5.515625 27.296875 
Q 5.515625 40.1875 11.734375 48.09375 
Q 17.96875 56 27.875 56 
Q 33.9375 56 38.25 53.625 
Q 42.578125 51.265625 45.40625 46.390625 
z
M 14.796875 27.296875 
Q 14.796875 17.390625 18.875 11.75 
Q 22.953125 6.109375 30.078125 6.109375 
Q 37.203125 6.109375 41.296875 11.75 
Q 45.40625 17.390625 45.40625 27.296875 
Q 45.40625 37.203125 41.296875 42.84375 
Q 37.203125 48.484375 30.078125 48.484375 
Q 22.953125 48.484375 18.875 42.84375 
Q 14.796875 37.203125 14.796875 27.296875 
z
" id="DejaVuSans-100"/>
       <path d="M 9.421875 54.6875 
L 18.40625 54.6875 
L 18.40625 -0.984375 
Q 18.40625 -11.421875 14.421875 -16.109375 
Q 10.453125 -20.796875 1.609375 -20.796875 
L -1.8125 -20.796875 
L -1.8125 -13.1875 
L 0.59375 -13.1875 
Q 5.71875 -13.1875 7.5625 -10.8125 
Q 9.421875 -8.453125 9.421875 -0.984375 
z
M 9.421875 75.984375 
L 18.40625 75.984375 
L 18.40625 64.59375 
L 9.421875 64.59375 
z
" id="DejaVuSans-106"/>
       <path d="M 64.40625 67.28125 
L 64.40625 56.890625 
Q 59.421875 61.53125 53.78125 63.8125 
Q 48.140625 66.109375 41.796875 66.109375 
Q 29.296875 66.109375 22.65625 58.46875 
Q 16.015625 50.828125 16.015625 36.375 
Q 16.015625 21.96875 22.65625 14.328125 
Q 29.296875 6.6875 41.796875 6.6875 
Q 48.140625 6.6875 53.78125 8.984375 
Q 59.421875 11.28125 64.40625 15.921875 
L 64.40625 5.609375 
Q 59.234375 2.09375 53.4375 0.328125 
Q 47.65625 -1.421875 41.21875 -1.421875 
Q 24.65625 -1.421875 15.125 8.703125 
Q 5.609375 18.84375 5.609375 36.375 
Q 5.609375 53.953125 15.125 64.078125 
Q 24.65625 74.21875 41.21875 74.21875 
Q 47.75 74.21875 53.53125 72.484375 
Q 59.328125 70.75 64.40625 67.28125 
z
" id="DejaVuSans-67"/>
       <path d="M 30.609375 48.390625 
Q 23.390625 48.390625 19.1875 42.75 
Q 14.984375 37.109375 14.984375 27.296875 
Q 14.984375 17.484375 19.15625 11.84375 
Q 23.34375 6.203125 30.609375 6.203125 
Q 37.796875 6.203125 41.984375 11.859375 
Q 46.1875 17.53125 46.1875 27.296875 
Q 46.1875 37.015625 41.984375 42.703125 
Q 37.796875 48.390625 30.609375 48.390625 
z
M 30.609375 56 
Q 42.328125 56 49.015625 48.375 
Q 55.71875 40.765625 55.71875 27.296875 
Q 55.71875 13.875 49.015625 6.21875 
Q 42.328125 -1.421875 30.609375 -1.421875 
Q 18.84375 -1.421875 12.171875 6.21875 
Q 5.515625 13.875 5.515625 27.296875 
Q 5.515625 40.765625 12.171875 48.375 
Q 18.84375 56 30.609375 56 
z
" id="DejaVuSans-111"/>
      </defs>
      <use xlink:href="#DejaVuSans-65"/>
      <use x="66.658203" xlink:href="#DejaVuSans-100"/>
      <use x="130.134766" xlink:href="#DejaVuSans-106"/>
      <use x="157.917969" xlink:href="#DejaVuSans-32"/>
      <use x="189.705078" xlink:href="#DejaVuSans-67"/>
      <use x="259.529297" xlink:href="#DejaVuSans-108"/>
      <use x="287.3125" xlink:href="#DejaVuSans-111"/>
      <use x="348.494141" xlink:href="#DejaVuSans-115"/>
      <use x="400.59375" xlink:href="#DejaVuSans-101"/>
     </g>
    </g>
   </g>
  </g>
 </g>
 <defs>
  <clipPath id="pafe74aa789">
   <rect height="235.008" width="357.12" x="57.6" y="41.472"/>
  </clipPath>
 </defs>
</svg>
